<?xml version="1.0" encoding="UTF-8"?>
<svg id="Layer_1" data-name="Layer 1" xmlns="http://www.w3.org/2000/svg" viewBox="0 0 256.64 256.76">
  <defs>
    <style>
      .cls-1 {
        fill: #fefefe;
      }
    </style>
  </defs>
  <path class="cls-1" d="M191.96,256.32l-3.64.32c-1.78.15-3.54.16-5.3,0l-3.07-.3c-17.23-1.68-33.27-9.1-45.17-21.64-.27-.29-.43-.39-.46-.68-.04-.39.13-.58.46-.91l21.54-21.54c.28-.28.42-.43.7-.46.35-.03.63.13.9.42.86.95,1.72,1.75,2.68,2.61,7.71,6.87,17.85,10.41,28.05,9.61,18.81-1.48,33.6-16.23,35.04-35.05.79-10.31-3.04-21.53-10.44-28.94l-78.54-78.64c-.64-.52-.39-1.02.09-1.5l22.34-22.33,23.21,23.16c1.2,1.2,2.42,1.97,3.43,3.4l54.22,54.53c10.28,10.34,16.52,24.37,17.98,38.59l.41,3.95.2,2.65c.57,7.51-1.74,20.71-4.73,27.75l-3.08,7.25c-.28.66-.37,1.42-.97,1.91-1.2.98-1.58,2.38-2.18,3.67-.32.68-1.02,1.18-1.34,2.05-.39,1.05-2.12,1.76-2.34,2.93-.18.95-.76.93-1.27,1.53-12.43,14.73-29.18,23.98-48.69,25.67Z"/>
  <path class="cls-1" d="M181.88,174.71l-50.92,50.96c-1.13,1.13-2,2.11-3.11,3.2l-9.45,9.24c-10.52,10.28-27.8,17.38-42.58,18.31-1,.06-1.93.02-2.91.2-1.58.28-3.12-.03-4.65-.08-21.06-.77-40.33-10.72-53.32-27.27-.72-.92-1.26-1.54-1.97-2.6-6.47-9.56-10.93-20.26-12.2-31.83-.16-1.43-.45-2.7-.47-4.08-.02-.95-.11-1.77-.19-2.69-.29-3.03.07-4.36.2-7.18.67-14.6,8.14-32.09,18.28-42.56l3.44-3.55c.23-.23.41-.4.67-.43.39-.04.58.13.91.46l21.54,21.54c.47.47.7.98.13,1.5-17.48,15.95-16.32,43.91,2.54,58.24,4.83,3.67,11.12,6.48,17.16,7.23,1.26.16,2.36.45,3.63.5,7.85.28,15.63-1.53,22.2-5.8,1.86-1.21,3.73-2.3,5.33-3.9l79.2-79.15c.36-.36.48-.57.83-.6.39-.03.58.12.92.46l22.31,22.35-14.12,14.21c-1.14,1.15-1.88,2.37-3.42,3.34Z"/>
  <g>
    <path class="cls-1" d="M211.48,98.8c7.13-6.64,11.48-15.46,12.18-25.2.14-1.96.27-3.9,0-5.84l-.46-3.38c-1.47-10.8-8.95-20.84-18.4-26.38-13.87-8.14-31.55-6.34-43.83,4.14l-79.91,79.89c-.54.62-1.02.39-1.51-.1l-22.33-22.34,15.97-16.01c.62-.62.82-1.35,1.76-1.71l49.55-49.61c1.17-1.17,2.05-2.23,3.21-3.36l2.66-2.59,7.89-7.69C149.52,7.66,164.52,1.98,180.18.42l3.07-.31c1.68-.17,3.36-.15,5.04,0l3.32.3c15.74,1.44,30.51,7.75,42.13,18.44,1.39,1.28,2.63,2.44,3.86,3.85.87,1,1.76,2.12,2.77,2.95.78.64,1.14,1.23,1.65,2.02,2.18,3.33,4.39,6.46,6.26,10.02,4.62,8.75,7.42,18.43,8.1,28.31l.18,2.68c.11,1.63.1,3.29-.03,4.9l-.26,3.16c-1.27,15.33-7.47,29.72-17.76,41.16-.7.77-3.99,4.47-4.55,4.51-.39.03-.58-.13-.91-.46l-21.53-21.54c-.28-.28-.43-.42-.46-.7-.04-.35.13-.63.42-.9Z"/>
    <path class="cls-1" d="M122.14,176.9l-22.57,22.57-24.79-24.65-3.67-3.69-52.45-52.69c-4.3-4.32-7.61-9.48-10.41-14.79-4.5-8.54-7.06-17.56-7.87-27.12l-.28-3.31c-.15-1.74-.09-3.48.05-5.17l.26-3.15c1.06-12.88,5.57-25,13.14-35.47.27-.37.6-1.04.75-1.41.49-1.16,1.63-1.82,2.37-2.68,4.23-4.9,8.76-9.11,14.13-12.77C40.09,6.24,50.64,2.01,61.87.79l4.11-.45,2.43-.21c1.5-.13,3.02-.17,4.54-.02l3.07.31c14.78,1.5,28.98,6.33,40.07,16.19l2.43,2.16c.71.63,3.76,3.43,3.84,3.97.06.39-.13.59-.46.91l-21.54,21.54c-.28.28-.42.43-.7.46-.36.04-.61-.12-.9-.44-8.69-9.24-20.84-13.7-33.47-11.87-17.43,2.53-30.75,16.69-32.26,34.26-.83,9.71,2.58,21.49,9.49,28.42l79.46,79.63c.39.39.6.81.16,1.25Z"/>
  </g>
</svg>