<?xml version="1.0" encoding="UTF-8"?>
<svg id="Layer_1" data-name="Layer 1" xmlns="http://www.w3.org/2000/svg" viewBox="0 0 1698 1656">
  <defs>
    <style>
      .cls-1 {
        fill: #525252;
      }

      .cls-2 {
        fill: #5f5f5f;
      }

      .cls-3 {
        fill: #5a5a5a;
      }

      .cls-4 {
        fill: #4f4f4f;
      }

      .cls-5 {
        fill: #434343;
      }

      .cls-6 {
        fill: #4a4a4a;
      }

      .cls-7 {
        fill: #4e4e4e;
      }

      .cls-8 {
        fill: #505050;
      }

      .cls-9 {
        fill: #494949;
      }

      .cls-10 {
        fill: #3f3f3f;
      }

      .cls-11 {
        fill: #626262;
      }

      .cls-12 {
        fill: #5e5e5e;
      }

      .cls-13 {
        fill: #3c3c3c;
      }

      .cls-14 {
        fill: #6e6e6e;
      }

      .cls-15 {
        fill: #5b5b5b;
      }

      .cls-16 {
        fill: #4c4c4c;
      }

      .cls-17 {
        fill: #3b3b3b;
      }

      .cls-18 {
        fill: #636363;
      }

      .cls-19 {
        fill: #454545;
      }

      .cls-20 {
        fill: #686868;
      }

      .cls-21 {
        fill: #555;
      }

      .cls-22 {
        fill: #6d6d6d;
      }

      .cls-23 {
        fill: #515151;
      }

      .cls-24 {
        fill: #484848;
      }

      .cls-25 {
        fill: #6b6b6b;
      }

      .cls-26 {
        fill: #565656;
      }

      .cls-27 {
        fill: #4b4b4b;
      }

      .cls-28 {
        fill: #fefefe;
      }

      .cls-29 {
        fill: #3d3d3d;
      }

      .cls-30 {
        fill: #676767;
      }

      .cls-31 {
        fill: #414141;
      }
    </style>
  </defs>
  <path class="cls-28" d="M296,1337l5,1h9l8,1h13c3.06.36,6.06.69,9,1,.99-1.02,3.54-.64,5,0h63c1.81-.73,4.42-.98,6,0,3.22-.32,6.56-.66,10-1,33.71,0,98.56-11.24,131.74-21.14l24.08-7.19c12.96-3.87,24.98-9.08,37.54-14.3,22.01-9.15,42.75-20.05,62.3-33.59,2.72-1.88,3.02-2.94,6.11-2.17,2.89.72,2.3,2.52,4.16,4.51l12.01,12.88,10.07,10.99c5.28,5.76,11.21,10.78,16.11,16.86,6.26,7.76,13.33,13.63,20.48,20.58,21.29,20.7,44.73,37.74,70.53,52.37l22.2,12.59c-4.49,3.38-8.49,6.55-12.02,10.9-2.61,3.22-6.25,5.13-9.03,7.95-19.47,19.73-52.48,42.59-77.13,54.93l-20.79,10.41c-30.59,15.32-62.07,26.9-95.33,35.27l-21.09,5.31c-46.22,11.63-92.69,19-140.1,23.38l-12.82,1.18-14.02.98-16.01.98-22.57.74c-17.6.58-35.27.6-52.86.01l-20.66-.69-16.94-1.05-12.98-1.01-12.97-1c-76.38-5.87-175.6-27.25-247.38-55.13-4.52-1.76-4.48-4.47-5.04-8.29-.69-4.74-2.18-8.83-1.61-13.27l-1-8v-32l1-7c.37-18.28,5.91-50.51,10.81-69.06l1.89-7.16c2.48-9.38,4.55-18.39,7.37-27.68l3.06-10.09c3.55-11.68,7.3-23,11.48-34.44l5.07-13.92c18.86-51.71,44.23-106.16,69.53-155.47l12.26-23.9,9.05-16.98,7.69-14.21,14.6-26.57,8.29,47.36c10.32,70.6,26.85,133.83,59.93,197.18l-29.27,61.4c3.22,3.52,7.09,4.39,11.15,5.69,13.24,4.34,51.13,9.42,63.08,8.85Z"/>
  <path class="cls-28" d="M510,670l-1-5c-.06-2.66.2-5.34,0-8l-1-7c-.33-3.29.85-7.24-.41-10.68-.91-2.49.41-3.68.41-5.32-.3-5.35-.63-10.68-1-16v-12c.39-4.96.72-9.96,1-15,0-1.64-1.38-2.83-.39-5.31,1.23-3.1.12-6.72.39-9.69l1-6c-.37-5.25.39-10.25.91-16.05,2.7-29.6,8.28-58.16,16.25-86.66l3.94-14.1c5.38-19.25,17.28-50.03,25.83-68.53l7.26-15.72c5.73-12.4,12.32-23.85,19.06-35.7,7.88-13.85,16.8-26.38,25.16-39.82l4.71-7.57c15.25-24.51,62.22-81.48,82.87-103.91l10.09-10.95,13.02-13.91c6.04-6.45,11.8-12.67,18.08-19.09l45.47-46.47,60.94-61.81c.88-.89,2.23-1.22,2.91-1.35,1.2-.22,1.97,1.36,3.27,2.02,50.69,25.64,106,58.38,147.7,97.13,36.53,33.95,65.57,69.36,89.91,112.96,18.39,32.93,40.52,87.8,48.76,124.55.24,1.08-.23,2.29-.6,2.96-1.46,2.64-8.02-1.41-9.73-1.91-30.22-8.77-60.01-16.1-90.86-23.03-24.84-5.58-48.75-10.3-73.95-14-5.57-3.94-9.33-9.29-14.05-13.89l-25.38-24.74c-7.99-7.79-56.66-45.28-65.17-42.12-7.74,2.87-13.37,9.31-19.35,14.74-37.93,34.45-72.51,78.86-97.31,123.6-3.79,6.84-7.06,12.89-10.3,19.82-22.64,48.41-33.49,91.37-38.71,144.5-.55,5.64-2.23,26.79-1.69,31.04.61,4.83-.73,9.32-.84,13.97-.2,8.61.2,17.01.4,25.43l.61,25.6c.19,8.12,2.25,22.35,1.45,29.83-19.73,4.53-33.67,5.27-53.97,11.06-39.75,11.34-78.18,24.63-117.61,38.7-4.71-18.38-7.35-39.54-8.07-56.58Z"/>
  <path class="cls-28" d="M1450,1310c5.67-.32,11.34-.65,17-1,2.74,0,5.58.37,8.67-.32,2.63-.59,4.15-2.79,3.23-5.54l-7.02-20.94c-2.94-8.78-7.47-16.35-10.92-24.81l-12.07-29.54c-1.47-3.6-3.11-7.43-4.88-10.93l-12.79-25.3c-17.39-34.4-39.63-65.7-66.61-93.11l-25.91-26.32c-20.57-20.9-43.07-38.96-67.47-55.31l-22.8-15.28c-2.06-1.38-4.63-2.89-6.8-4.17l-23.81-14.09-20.69-11.49c-3.68-2.04-8.05-2.92-11.38-5.73.36-6.59,3.3-12.3,4.9-18.28l5.36-20.05c8.21-30.7,12.3-61.9,15.24-93.65.29-3.11,1.19-5.48.73-8.13l1-5c.13-2-.02-4,0-6l1-5c.14-2.33.04-4.67,0-7l1-5c.19-2.33-.01-4.67,0-7l1-6c.21-2.33-.05-4.67,0-7l1-6c.17-2.66,0-5.34,0-8l1-5c.18-1.99-.37-4.12.36-5.91,120.36,72.72,221.96,154.83,301.32,271.2,17,24.94,31.15,50.65,46.36,76.57l7.82,13.32,18.99,37.94c26.87,53.69,47.45,134.63,59.88,194.09,6.32,30.23,10.83,59.67,13.77,90.12,1.16,12.07,5.99,19.95-1.67,21.74l-106.71,24.98c-27.04,6.33-52.84,12.53-80.24,16.74l-66.81,10.27c-4.69.72-9.43,1.44-14,.76-3.74-.56-6.72,1.03-10.17,1.02l-64.77-.16-14.22-.92c-10.02-.65-20.04-2.47-29.7-4.81.74-4.51,3.92-6.3,6.68-9.1l48.65-49.38c29.03-29.47,75.5-97.31,90.75-137.18,9.11-.67,17.37-.32,25.72-.31Z"/>
  <path class="cls-28" d="M226,1037l-1-5c-.05-2,.17-4.01,0-6l-1-6v-9c-.33-2.99-.66-5.99-1-9v-16c-.75-2.49-1.02-5.75,0-8-.81-6.2-.79-13.71,0-20-1.03-1.31-.69-4.23,0-6v-17l1-8c.22-3.32.02-6.68,0-10l1-5c.14-2.33.03-4.67,0-7l1-5c.22-2.76-.19-5.64.24-8.79l3.5-25.6c.45-3.3,1.12-6.22,1.49-9.61,2.04-18.99,17.54-87.8,23.73-105.9l4.88-14.27c4.89-14.3,9.34-27.74,15.05-41.96,16.54-41.2,37.04-79.5,61.45-116.6,18.8-28.57,39.74-55,62.78-80.05,3.41-3.7,6.14-7.01,9.66-10.49l13.53-13.36,7.82-7.19,13.18-12.16c19.67-18.14,42.89-34.54,65.11-48.95.38-.25,1.84,1.45,1.5,1.49s-.36,1.02-.62,1.8c-14.1,42.12-22.59,85.28-26.54,129.57-.4,4.47-2.21,25.57-1.76,28.07.76,4.21-.74,8.06-.82,12.1-.31,16.29-.14,32.28.38,48.39l.59,18.57,1.06,15.96.98,12.02,1,11.02c.86,9.51,3.7,20.36-.5,27.99l-16.52,30.04-6.39,11.81-24.9,49.97c-18.09,36.32-37.68,92.11-38.61,132.36l-.73,31.22c-.25,10.64-.28,21.48.03,32.02l.55,18.58,1.17,14.89c4.03,51.17,20.3,99.08,44.79,144.02,14.61,26.8,30.58,51.91,47.62,77.24,8.96,13.32,17.39,26.11,24.96,40.12.97,1.8-3.37,2.41-4.75,2.76-31.16,8.06-63.06,12.6-95.06,15.49l-12.85,1.16c-4.81.43-9.25.86-14.02,1.03l-18.52.67c-7.96.29-16.27.99-24.38.27l-11.15-.98c-14.63-1.29-27.62-23.54-34.74-34.89-8.29-13.22-23.39-45.78-29.3-60.81l-8.16-20.75-4.33-12.56c-2.3-6.67-4.74-13.25-6.81-20.08l-2.8-9.27-2.5-8.46c-10.84-36.72-14.89-59.78-19.48-97.82-.57-4.73-1.07-8.82-.82-13.07Z"/>
  <path class="cls-28" d="M842,1448l6-1c3.59.52,7.38-.14,11,0l8-1h8l6-1c2-.07,4,.17,6,0l5-1c3.63.41,7.06-.24,11.18-.75,95.53-11.82,190.14-41.07,262.48-106.58,29.25-26.48,57.87-62.44,77.53-96.58l4.05-7.04,4.95-9.09c5.72-10.5,10.14-19.82,15.08-30.9l5.15-11.55c2.32-5.2,4.14-10.44,6.16-15.78l3.58-9.46,7.22-21.82c1.14-3.46,2.27-7.08,3.19-10.6l7.48-28.79c1.24-4.78,1.22-9.96,3.91-14.49,31.71,32.91,59.01,67.5,86.26,102.99,7.46,9.71,13.8,18.73,20.24,29l24.33,38.79-22.89,35.63-22.86,34.28c-19.23,28.83-69.03,94.96-92.26,118.57-2.58,2.62-4.34,6.19-7.55,8.38-2.72,1.86-3.89,4.79-6.1,7.01-10.03,10.03-19.68,20.08-30.04,29.65l-12.13,11.2c-59.61,55.03-133.16,95.01-212.46,114.42-13.25,3.24-25.75,5.62-39.11,8.18-9.27,1.78-17.95,4.1-27.69,4.92l-13.64,1.15c-5.83.49-11.23.89-16.95,1.06l-21.66.64-52.91,1.05c-9.8.19-19.23.14-29.03,0l-52.49-.75c-5.85-.08-20.51-1.54-26.91-2.1-22.61-1.96-44.04-7.66-66.16-12.33-3.43-.72-5.56-1.36-8.69-2.36l-31.23-9.99c-32.29-10.33-62.4-24.6-91.11-45.26l96.29-15.48c24.12-3.88,46.63-11.16,68.8-21.17,3.61-.11,5.9-2.85,8.92-4.03,22.15-8.63,62.46-35.65,83.04-49.95l14.83-10.31c5.76-4,12.67-4.91,19.23-5.74Z"/>
  <path class="cls-28" d="M818,342l6,1c2.33.21,4.67-.05,7,0l6,1h8l5,1c2.33.13,4.67,0,7,0l5,1c-2.46.15,16.08,1,16,1l5,1c1.66.12,3.34-.04,5,0l5,1,16.05,1.92c52.61,6.29,90.16,12.4,141.62,26.56,39.93,10.99,77.62,26.47,115.15,43.64,50.18,22.94,110.93,61.7,151.14,98.81l12.6,11.63c5.65,5.21,11.11,10.81,16.37,16.43l12.68,13.55c37.23,39.8,71.9,96.92,94.74,146.89,22.79,49.87,63.87,179.68,65.9,226.33l.39,8.87c.13,2.96.46,6.06-1.49,8.38-7.39-4.08-11.6-11.15-17.93-16.21-7.19-5.75-12.81-12.22-19.29-18.57l-36.37-35.68-15.99-15.14-11.12-10.07c-32.04-29.03-65.33-56.23-103.23-77.41l-34.08-19.05c-3.71-2.07-7.92-3.02-11.54-5.67-15.23-42.24-31.58-83.65-62.34-117.3-23.61-25.82-48.25-43.81-78.72-60.42-26.11-14.24-53.22-24.26-81.52-33.66-34.26-11.38-67.2-16.83-103.03-19.54l-13.89-1.05-18.08-1.06-79.05.04-19.05,1.06-15.93.97c-6.59.4-17.22,2.03-22.94,1.44-2.61,1.72-5.31,1.02-8.07,1.37l-33.47,4.3c3.33-23.7,7.9-46.01,14.38-68.32,2.04-7.01,3.58-13.7,7.04-20.07,2.1-8.96,6.52-16.51,10.35-24.62,7.32-15.5,23.52-41.39,33.95-55.14,4.8-6.33,7.97-13.52,13.72-19.34,1.35-1.36,4.43-.77,6.04-.83Z"/>
  <path class="cls-28" d="M896,694c3.68-.86,8.5-.84,12,0,25.88-.87,53.79-.86,80,0,1.3,4.65,1.34,22.46.5,27.48-1.63,9.73.29,19.6-.76,29.51s-.94,15.4-2.15,26.73c-4.32,40.19-16.43,83.36-27.44,122.3-4.22-.57-7.53.69-11.24.75l-30.8.44c-4.04.06-7.94,1.33-12.11.8-6.5-.83-12.62.4-18.93.76l-17.01.97-14.04.92-14.11,1.07c-82.38,6.26-176.34,22.55-254.8,50.25-43.97,15.53-86.25,35.9-124.39,62.68l-28.11,19.73c-1.45-5.97-1.75-11.67-1.61-17.4l-1-5v-9c-.33-3.33-.66-6.66-1-10v-16c.36-4.31.7-8.65,1-13v-9l1-7c.22-1.99-.07-4.01,0-6l1-5c1.41-25.18,6.45-50.35,15.67-74.44,2.5-10.81,6.29-20.38,9.94-30.79,5.09-14.54,9.55-28.93,16.63-42.62l9.31-5.28c8.36-4.74,37.99-20.09,45.84-23.2l35.39-13.99,9.43-3.44c6.35-2.32,12.29-4.29,18.6-6.44l12.88-4.38c60.32-20.52,123.2-32.2,186.31-37.42l5-1c2-.04,4.01.17,6,0l6-1h8l7-1h10c3.01-.36,6.01-.69,9-1h16c3.9-.73,7.9-1.07,12-1h25Z"/>
  <path class="cls-28" d="M1020,757l1-5v-10c.36-4.65.69-9.31,1-14v-60c-.72-1.82-.98-4.42,0-6-.32-3.56-.65-7.23-1-11v-13c-.33-2.99-.67-5.99-1-9,0-2.66.14-5.34,0-8l-1-6c-.69-8.83-1.6-17.74-2.98-27-.75-5.06-2.12-10.06.03-14.89,21.75,5.14,41.83,13.34,62.38,21.39,7.34,2.88,14.2,5.36,21.32,8.79l6.77,3.26c14.49,6.98,62.26,37.11,69.25,49.52,3.9,6.92,5.21,26.12,5.9,34.9l1.03,12.99,1.04,19.99-.03,50.06-1.05,17.02c-5.92,96.06-33.88,205.27-76.79,291.59l-9.74,19.59c-19.74,39.7-42.81,77.52-71.4,111.4l-5.12,6.06c-2.54,3.01-5.37,4.96-7.24,8.79l-24.1-16.04c-31.69-21.09-61.91-43.95-91-68.53-5.62-4.75-21.76-18.4-19.96-25.63,1.32-5.29,4.45-9.45,6.99-14.06l16.3-29.57,10.3-18.75,4.28-7.77,6.96-13.09,8.61-16.41c18.16-34.63,43.68-88.82,55.83-124.99l11.05-32.88c.98-2.93,1.98-6.15,2.76-9.1l8.59-32.65c5.44-20.69,8.65-41.24,11.02-61.97Z"/>
  <path class="cls-28" d="M920.49,1394.99l-26.21-13.29c-7.47-4.92-13.9-7.87-22.08-13.03l-8.55-5.4-12.06-8.04c-26.64-17.77-51.77-36.87-74.55-59.17l-20.3-19.87c-3.25-3.18-5.98-6.54-9.06-9.85l-13.04-14.04c-18.3-19.7-34.41-40.89-49.72-63.14-3.46-4.9-7.23-8.88-9.45-14.48-10.15-13.25-21.02-30.43-29.2-44.91l-19.88-35.17c-7.17-12.68-38.28-74.49-41.76-85.58-.85-2.7-4.43-7.64-2.27-10.72,13.95-11.31,57.66-29.44,74.84-35.06l27.18-8.9c14.84-4.86,29.89-7.6,45.6-8.45,10.37-.56,13.39,7.37,17.02,17.16,5.57,15.03,10.9,29.65,17.8,44.21l9.31,19.64c2.37,4.99,4.89,9.43,7.63,14.46,19.71,36.08,43.44,69.31,71.32,99.39l6.36,6.87c5.96,6.43,12.18,12.43,18.55,18.35l10.99,10.21c31.64,29.4,67.01,54.11,106.05,72.69l22.49,10.71c25.92,12.33,52.31,21.49,80.11,28.82l41.9,11.05c1.12.3,1.38,2.21,1.38,2.93,0,.98-1.77,1.39-2.24,2.28-2.36,4.55-6.17,6.85-9.85,10.12-14.27,12.67-29.46,23.13-45.78,33.29-42.65,26.52-88.44,46.56-137.05,59.94-8.67-4.37-16.59-8.49-25.48-13Z"/>
  <path class="cls-14" d="M988,694h-80c-.87-.28-.86-.62,0-1h78.88c.78,0,1.23.63,1.12,1Z"/>
  <path class="cls-2" d="M223,978c-.28.87-.62.86-1,0v-20c.28-.87.62-.86,1,0v20Z"/>
  <path class="cls-29" d="M1467,1309c.08.79-.91,1.01-1.95,1.01h-15.05c-.08-.78.92-1.04,1.95-1.04l15.05.02Z"/>
  <path class="cls-30" d="M508,634c-.78.08-1.02-.91-1.02-1.95l.02-14.05c.71-.08,1.06.92,1.06,1.95l-.06,14.05Z"/>
  <path class="cls-22" d="M507,606l-.02-13.05c0-1.03.24-2.02,1.02-1.95l.05,13.05c0,1.03-.35,2.03-1.05,1.95Z"/>
  <path class="cls-6" d="M1021,742l-.04-12.05c0-1.03.31-2.02,1.04-1.95l.02,12.05c0,1.04-.23,2.02-1.02,1.95Z"/>
  <path class="cls-4" d="M429,981l-.02-11.06c0-1.04.23-2.01,1.02-1.94v11.06c.01,1.04-.2,2.02-1,1.94Z"/>
  <path class="cls-19" d="M908,693v1h-12c-.07-.79.9-1.02,1.94-1.02l10.06.02Z"/>
  <path class="cls-20" d="M871,694c-3.83,0-7.8,1-12,1-.07-.79.91-1.01,1.94-1.01h10.06Z"/>
  <path class="cls-30" d="M1022,662c-.28.87-.62.86-1,0v-11c.8-.07,1.01.9,1.01,1.94v9.06Z"/>
  <path class="cls-18" d="M424,1339c.07.8-.9,1.01-1.94,1.01h-8.06c-.87-.29-.86-.63,0-1.01h10Z"/>
  <path class="cls-8" d="M430,1007c-.8.07-1.01-.9-1.01-1.94v-8.06c.82-.07,1.02.9,1.02,1.94v8.06Z"/>
  <path class="cls-11" d="M340,1339c.87.28.86.62,0,1h-7.05c-1.05.01-2.03-.19-1.95-1h9Z"/>
  <path class="cls-24" d="M1021,638c-.79.08-1.01-.9-1.01-1.95v-7.05c.82-.07,1.02.9,1.02,1.95v7.05Z"/>
  <path class="cls-8" d="M224,1011c-.79.08-1.01-.9-1.01-1.95v-7.05c.83-.07,1.02.9,1.02,1.95v7.05Z"/>
  <path class="cls-23" d="M843,695c.07.82-.9,1.01-1.95,1.01h-7.05c-1.26-1.5,7.93-1.01,9-1.01Z"/>
  <path class="cls-24" d="M867,1446c-1.92,1.77-5.37,1.1-8,1,1.95-1.98,5.33-1,8-1Z"/>
  <path class="cls-6" d="M318,1339c-2.66,0-6.06.91-8-1,2.66,0,6.06-.93,8,1Z"/>
  <path class="cls-23" d="M223,935c0-2.64-.8-6.07,1-8-.17,2.67.97,6.05-1,8Z"/>
  <path class="cls-8" d="M30,1463c-1.83-1.93-1-5.35-1-8,1.6,1.87,1.33,5.45,1,8Z"/>
  <path class="cls-19" d="M223,986c-1.86-1.94-1-5.35-1-8h1v8Z"/>
  <path class="cls-9" d="M29,1423c0-2.31-.79-5.4,1-7-.05,2.32.84,5.4-1,7Z"/>
  <path class="cls-9" d="M509,657c-1.97-1.6-.77-4.67-1-7,1.92,1.6.83,4.67,1,7Z"/>
  <path class="cls-19" d="M824,696c-1.61,1.94-4.67,1-7,1,1.6-1.82,4.68-1,7-1Z"/>
  <path class="cls-21" d="M430,959c0-2.31-.78-5.41,1-7-.26,2.32.98,5.4-1,7Z"/>
  <path class="cls-21" d="M824,343c-1.99-.18-4.73.86-6-1,1.97-.08,4.74-.68,6,1Z"/>
  <path class="cls-4" d="M1216,778c.04-1.98-.76-4.73,1-6-.13,1.99.83,4.73-1,6Z"/>
  <path class="cls-1" d="M1215,791c0-1.98-.74-4.74,1-6-.18,1.99.86,4.73-1,6Z"/>
  <path class="cls-5" d="M223,958h-1c0-1.98-.74-4.73,1-6v6Z"/>
  <path class="cls-10" d="M809,697c-1.27,1.86-4.01.83-6,1,1.27-1.79,4.01-1,6-1Z"/>
  <path class="cls-31" d="M1022,668c-1.73-1.27-1-4.02-1-6h1v6Z"/>
  <path class="cls-27" d="M1020,621c-1.86-1.27-.85-4.01-1-6,1.82,1.27.89,4.01,1,6Z"/>
  <path class="cls-12" d="M508,576c.18-1.99-.87-4.73,1-6,.14,1.96.64,4.75-1,6Z"/>
  <path class="cls-31" d="M225,1026c-1.73-1.27-1-4.02-1-6,1.85,1.27.83,4.01,1,6Z"/>
  <path class="cls-13" d="M414,1339v1h-6c1.27-1.76,4.01-1,6-1Z"/>
  <path class="cls-5" d="M881,1445c-1.27,1.87-4.01,1-6,1,1.27-1.78,4.01-.93,6-1Z"/>
  <path class="cls-8" d="M837,344c-1.99,0-4.73.82-6-1,1.98.04,4.73-.76,6,1Z"/>
  <path class="cls-1" d="M848,1447c-1.27,1.9-4.02.76-6,1,1.99-.25,3.56-1.36,6-1Z"/>
  <path class="cls-19" d="M1212,826c-.27-1.59-.46-4.1,1-5-.11,1.66.72,4.05-1,5Z"/>
  <path class="cls-21" d="M225,905c-.02-1.65-.63-4.05,1-5-.13,1.66.74,4.05-1,5Z"/>
  <path class="cls-24" d="M224,917c-.01-1.66-.64-4.05,1-5-.1,1.66.71,4.05-1,5Z"/>
  <path class="cls-7" d="M431,946c.06-1.66-.68-4.05,1-5-.09,1.66.72,4.05-1,5Z"/>
  <path class="cls-4" d="M1214,803c-.03-1.65-.62-4.05,1-5-.14,1.66.74,4.05-1,5Z"/>
  <path class="cls-26" d="M1217,764c0-1.66-.64-4.05,1-5-.15,1.66.75,4.05-1,5Z"/>
  <path class="cls-21" d="M1020,757c.13-1.66-.73-4.05,1-5,0,2.06-.81,3.34-1,5Z"/>
  <path class="cls-15" d="M797,698c-.95,1.75-3.34.86-5,1,.95-1.67,3.34-.96,5-1Z"/>
  <path class="cls-31" d="M510,670c-1.67-.95-.96-3.34-1-5,1.73.95.87,3.34,1,5Z"/>
  <path class="cls-3" d="M431,1021c-1.62-.95-1-3.35-1-5,1.62.95,1.04,3.34,1,5Z"/>
  <path class="cls-25" d="M226,1037c-1.67-.95-.96-3.34-1-5,1.58.94,1.1,3.35,1,5Z"/>
  <path class="cls-24" d="M893,349c-1.65-.2-4.05.72-5-1,1.66.04,4.05-.67,5,1Z"/>
  <path class="cls-9" d="M301,1338c-1.66,0-4.05.73-5-1,1.65-.08,4.06-.6,5,1Z"/>
  <path class="cls-16" d="M883,348c-1.66-.12-4.05.73-5-1,1.66.09,4.05-.71,5,1Z"/>
  <path class="cls-10" d="M862,346c-1.64.1-4.06.58-5-1,1.66,0,4.05-.65,5,1Z"/>
  <path class="cls-10" d="M850,345c-1.66-.09-4.05.71-5-1,1.66,0,4.05-.65,5,1Z"/>
  <path class="cls-3" d="M1213,815c.02-1.66-.65-4.05,1-5-.1,1.66.72,4.05-1,5Z"/>
  <path class="cls-9" d="M892,1444c-.95,1.74-3.34.86-5,1,.93-1.52,3.38-1.18,5-1Z"/>
  <path class="cls-17" d="M345,1340h-5v-1c1.66,0,4.05-.65,5,1Z"/>
</svg>