<?xml version="1.0" encoding="UTF-8"?>
<svg id="Layer_1" data-name="Layer 1" xmlns="http://www.w3.org/2000/svg" viewBox="0 0 1200 1200">
  <defs>
    <style>
      .cls-1 {
        fill: #fefefe;
      }
    </style>
  </defs>
  <path class="cls-1" d="M428.97,550.21l-.6,11.91c-.48,9.46-.38,19.04.13,28.38l.94,17.17c4.43,81.14,47.7,175.46,105.61,233.11,3.63,5.33,8.39,8.98,13.03,13.29,10.06,9.35,19.96,18.35,31.58,26.87-26.57,17.14-54.09,29.29-83.87,39.31l-27.36-27.75c-29.44-29.86-52.13-64.97-71.68-102.32-30.2-58.86-48.32-123.01-51.79-189.01l-.59-11.29c-.53-10.16-.38-20.35.14-30.39l.99-19.12c5.46-105.96,51.2-205.8,122.97-283.93,37.78-40.77,81.8-74.1,131.69-99.89,50.06,26.17,93.14,58.43,131.45,99.94,58.3,61.37,107.96,160.94,118.31,244.36l3.25,26.23,1.14,13.8c.44,5.29,1.33,10.36.41,14.95-28.22-16.6-56.6-30.51-87.39-41.52-11.37-74.29-47.27-147.96-98.9-202.53-6.39-7.97-13.25-13.76-20.56-20.63-14.84-13.93-30.73-26.04-47.7-37.71-19.33,12.66-36.2,26.73-52.61,41.98-5.06,4.7-9.81,8.69-14.09,14.23-60.81,62.51-100.06,152.94-104.47,240.59Z"/>
  <path class="cls-1" d="M829.51,959.69l16.45-1.01c45.91-2.81,90.18-15.22,131.65-34.84,2.75-1.3,4.06-2.5,3.51-6.04-11.65-75.04-45.42-144.34-96.57-200.3-65.69-71.87-151.57-113.81-248.42-123.5-3.35-.34-6.06-.64-9.26-.73l-18.72-.53c-6-.17-11.34-.23-17.28-.06l-20.75.61c-40.31,1.18-79.41,12.25-116.01,27.48-.77-7.41-1.46-13.28-1.96-19.72l-.86-11.15c-1.28-16.49,1.81-53.85,1.82-53.73-.45-4.09,2.43-4.79,5.39-5.72,36.52-11.52,73.53-18.38,111.64-21.13,7.77-.56,15.14.26,22.73-.69,4.75-.6,8.52-.16,13.24,0l23.57.81c100.11,3.44,211.25,52.85,285.78,121.04,37.06,33.91,78.07,84.35,99.92,128.98l10.29,21.03c25.73,52.55,43.84,128.58,43.37,187.79-65.72,42.8-140.76,68.03-219.07,74.43-5.66.46-10.57-.14-15.92,1.4l-40.91-.48c-57.4-.67-113.1-15.52-166.29-38.89,29.8-16.72,57.32-36.2,83.03-58.52,18.49,4.71,36.31,8.67,55.03,10.85l21.02,2.22c4.23-1.28,8.13.42,12.15.51,10.32.23,20.5.56,31.42-.1Z"/>
  <path class="cls-1" d="M837.49,703.81c-20.28,70.38-56.15,134.15-104.86,187.67-77.92,85.64-194.33,143.64-309.64,151.16l-15.96,1.04c-14.53.95-28.32.66-42.85-.12-83.74-4.48-161.97-29.39-233.07-74.94-.35-7.09-.14-13.28.33-20.41,9.16-138.16,78.23-266.34,190.43-347.79,1.6,33.97,6.18,63.25,14.31,95.74l-22.78,23.32c-53.04,54.29-83.71,126.66-94.71,202.45,42.75,20.58,88.03,32.31,134.61,36.66,5.72.53,10.64-.22,16.19,1.17,10.42.14,20.9.58,31.51-.09l16.93-1.06c93.36-5.87,188.76-52.93,251.41-122.37,29.85-31.49,52.8-67.79,70.34-107.57,10.78-24.39,18.37-49.25,23.7-74.51,26.6,13.7,50.84,29.79,74.12,49.63Z"/>
</svg>