<?xml version="1.0" encoding="UTF-8"?>
<svg id="Layer_1" data-name="Layer 1" xmlns="http://www.w3.org/2000/svg" viewBox="0 0 900 900">
  <defs>
    <style>
      .cls-1 {
        fill: #fefefe;
      }
    </style>
  </defs>
  <path class="cls-1" d="M251.33,527.68c42.38,24.53,89.23,27.38,135.5,10.95,10.67,15.32,22.25,28.46,36.91,40.51-10.34,5.15-20.35,8.19-30.89,11.78-24.86,7.96-50.45,9.78-76.24,6.7-20.74-2.48-40.23-5.17-59.96-12.3-26.17-9.45-49.56-24-68.16-44.73-27.24-30.37-41.24-69.5-38.07-110.14,2.71-34.76,17.81-65.92,48.1-83.7,21.68-12.73,46.68-9.81,65.68,6.18,19.67,16.55,22.97,46.54,6.15,66.23-16.08,18.82-42.22,20.68-61.95,7.83-16.03,40.32,8.23,80.15,42.93,100.69Z"/>
  <path class="cls-1" d="M467.94,702.09c-16.63-20.47-16.36-53.35,2.42-71.58,10.46-10.15,22.97-14.94,37.89-13.55,25.25,2.36,43.06,25.54,40.61,51.24,16.68-2.51,30.51-10.47,41.47-23.05,21-24.1,25.22-55.84,23.44-86.88-2.03-14.61-4.36-28.41-10.16-41.93-9.87-25.31-26.38-46.58-48.53-61.92,7.26-16.85,13.94-33.03,20.04-51.02,14.76,11.12,27.66,23.06,39.91,36.51,12.27,14.94,22.34,30.56,29.61,48.5,26.91,59.98,29.58,134.88-12.9,188.28-22.02,27.69-54.19,45.53-89.57,47.26-23.84,1.17-58.43-2.43-74.23-21.87Z"/>
  <path class="cls-1" d="M481.84,239.89c-78.19,39.73-80.65,114.48-80.22,114.04-.6.63-1.77,1.44-3.2,1.61-16.98,2.04-33.18,4.61-51.14,7.99,5.26-46.5,19.66-84.72,51.82-119.36,2.51-2.7,3.86-5.09,7.02-7.21,3.68-2.47,6.21-6.16,9.77-9.14,31.58-26.34,69.36-42.75,110.26-47.51,3.63-.42,7.43.3,10.62-.6,4.66-1.31,7.87-.04,12.33-.02,32.83.09,65.03,11.57,87.82,35.2,18.29,18.96,29.15,43.49,26.65,69.56-2.37,24.7-17.31,44.89-40.43,53.86-14.74,5.72-31.52,2.29-44.14-7.41-11.66-8.96-19.28-24.01-17.69-39.61,1.79-17.58,12.43-31.6,27.54-38.73-26.83-33.37-71.97-30.49-107.02-12.68Z"/>
  <path class="cls-1" d="M423.87,636.57c3.53,6.9,4.89,14.26,5.74,21.77,1.5,13.22-3.09,26.53-11.18,37.18-13.73,18.07-33.73,26.25-56.07,28.84-21.87,2.54-43.04-2.22-63.05-11.87-21.35-10.3-39.06-27.28-50.4-48.18-3.82-7.04-4.97-15.11-7.57-22.54-4.19-11.96-6.06-24.18-6.5-36.81-.15-4.27-1.81-8.18-.51-11.81,14.12,5.84,27.04,7.66,39.64,13.85,2.09,1.55.52,5.67,1.02,8.01,4.33,20.39,15.83,38.1,32.13,50.79,8.02,6.24,22.61,9.77,30.1,2.06-3.33-14.45-.04-29.5,9.61-41.1,8.53-10.24,22.27-17.33,36.69-16.3,17.18,1.22,32.34,10.46,40.36,26.12Z"/>
  <path class="cls-1" d="M346.44,299.52c-5.42,29.47-35.95,45.49-63.61,35.8-13.83-4.84-25.19-12.72-32.13-26.2-3.61-7.02-6.15-15.89-5.48-24.07l.9-11.12c2.71-33.31,21.72-64.1,50.26-81.68,22.06-13.58,49.66-18.9,75.53-17.04,21.8,2.11,42.39,7.33,63.09,16.85-14.16,8.75-26.9,16.66-37.36,29.11-8.7-4.17-17.75-6.78-27.41-6.13-3.16-2.18-6.28-.47-9.48-.37-18.13.57-52.61,7.86-49.54,31.99,23.42,6.32,39.66,28.71,35.22,52.85Z"/>
  <path class="cls-1" d="M674.09,520.08c17.05-9.4,29.38-32.77,33.81-51.08,2.7-11.16.45-27.4-11.63-30.06-18.83,17.11-48.01,16.85-65.32-1.74-16.22-17.42-16.33-46.55-.26-63.48,8.06-8.49,17.21-15.33,28.69-18.28,5.19-1.34,10.34-.08,15.69.42,33.24,3.1,56.6,27.11,67.65,57.52,22.89,62.99-10.26,121.63-60.78,159.26.84-18.77-1.41-35.82-7.85-52.55Z"/>
  <path class="cls-1" d="M499.33,522.4c-15.94-5.37-28.58-15.65-38.8-27.92,47.88-56.88,61.32-148.34,13.8-205.81l-12.46-15.07c12.79-13.28,22.15-22.56,42.51-24.79,78.53,84.51,57.48,185.43-5.04,273.59Z"/>
  <path class="cls-1" d="M593.65,602.42c-57.7,12.6-112.75-.33-157.21-38.93-9.21-8-17.92-17.59-26.29-26.77-19.64-24.42-35.09-51.18-47.92-80.37l42.8-21.4c11.35,31.13,29.56,58.98,53.85,80.95,37.17,34.03,86.57,48.74,136.69,37.41,2.7,16.59,1.95,33.04-1.91,49.11Z"/>
  <path class="cls-1" d="M466.05,418.12c-37.74-4.33-81.71,3.67-114.41,23.46-16.76,10.35-30.6,23.01-42.37,38.74-10.25,14.68-17.91,30.39-23.46,47.66l-41-23.64c7.75-22.85,18.02-43.36,32.46-62.05,29.71-41.3,88.88-68.14,138.1-70.85l17.08-.94c21.34-1.17,18.74.51,37.58.66.76,0,14.4,1.03,15.39,2.03,1.62,1.65-3.23,40.24-2.26,46.89l-17.11-1.96Z"/>
</svg>