<?xml version="1.0" encoding="UTF-8"?>
<svg id="Layer_1" data-name="Layer 1" xmlns="http://www.w3.org/2000/svg" viewBox="0 0 386 500">
  <defs>
    <style>
      .cls-1 {
        fill: #fefefe;
      }
    </style>
  </defs>
  <path class="cls-1" d="M95.58,396.02l-51.09-.42c-6.96-.06-13.26-5.75-13.3-12.67l-.33-53.89c-.08-13.08,15.51-22.52,22.74-30.41l5.79-6.33,9.4-9.34c7.51-7.46,14.74-14.59,22.12-22.04l19.15-19.31,17.94,17.91-70.92,70.86.19,37.31c.21,1.77,4.29,2.28,5.63,2.38l32.72-.14,25.35-25.38,18.07,17.97-29.93,29.62c-3.09,3.06-8.67,3.93-13.54,3.89Z"/>
  <path class="cls-1" d="M239.83,319.7l7.62,7.83c4.53,4.65,10.44,10.92,14.8,15.16l9.68,9.43c2.64,2.57,4.61,4.97,7.82,7.47,3.66,2.86,6.61,10.05,12.13,10.11l32.2.36c1.76.02,4.77-2.3,4.78-4.16l.09-35.53-24.97-24.85,17.51-17.51,14.07,13.52c5.14,4.93,19.48,17.94,19.43,24.53l-.45,57.42c-.05,6.15-5.92,12.04-12.07,12.08l-56.48.36c-2.07.01-6.69-1.24-8.23-2.78l-76.79-76.61,18.02-17.99c3.4,3.75,7.23,6.53,10.11,10.3,3.11,4.08,6.95,6.99,10.71,10.85Z"/>
  <path class="cls-1" d="M328.9,136.64l-.03-35.52c0-2.17-3.04-3.86-4.77-4.2l-33.72.16-25.5,25.5-17.93-18.04,26.89-26.78c1.84-1.83,5.36-5.57,8.27-5.57l61.8.1c5.72,0,10.92,7.29,10.93,12.7l.11,55.96c0,3.47-2.21,6.36-3.74,9.38l-75.15,75.12-18.08-17.93,70.93-70.88Z"/>
  <path class="cls-1" d="M184.91,150.63l-17.95,17.84-71.31-71.34-31.7-.21c-2.19-.01-3.73.25-5.06,1.44-1.54,1.38-1.99,3.07-1.98,5.61l.17,32.67,24.94,24.89-18.05,17.93-29.22-29.17c-1.83-2.9-3.1-5.89-3.79-9.35l.1-56.68c1.32-6.1,5.38-12.09,12.01-12.11l60.57-.13c5.49,2.69,10.03,6.15,13.15,11.22,3.33,2.01,6.01,4.58,7.95,8.01,3.42,1.96,6.04,4.59,8,8,3.41,1.96,6.03,4.59,8,8,3.37,2,6.1,4.53,7.94,8.05,3.77,1.6,5.59,5,8.25,7.67l8.09,8.09c2.66,2.66,6.09,4.46,7.64,8.27,6.76,3.78,5.09,5.64,12.23,11.31Z"/>
  <path class="cls-1" d="M270,179.45l-74.17-74.12c-2.09-.64-3.62-.51-5.61-.08l-17.22,17.19-18.04-17.95,29.85-29.57c5.53-5.48,13.21-3.13,18.32,1.99l36.43,36.44c2.8,2.81,5.25,5.3,8.08,8.1l40.41,40.03-18.05,17.97Z"/>
  <path class="cls-1" d="M64.08,271.43l-29.26-29.15c-10.66-12,5.71-23.23,16.09-33.51l16.49-16.33,53.52-53.94,18.1,17.97-73.19,73.21c-1.28,1.28-2.84,4.54-1.51,5.9l17.66,17.92-17.9,17.92Z"/>
  <path class="cls-1" d="M192.47,362.16c3.81.62,11.94-8.53,14.77-11.93,1.68-2.01,4.5-2.74,5.74-5.74l18.08,18.09-30.95,30.24c-4.39,4.29-11.2,3.5-15.42-.72l-86.71-86.58,17.99-17.97c3.88,4.07,7.93,7.1,11.01,11.62,6.07,5.18,11.82,10.61,16.76,16.92,4.59,2.23,6.65,6.8,10.16,9.97,4.67,4.22,9.03,8.19,13.32,12.9,1.58,1.72,20.62,20.5,20.49,20.3,1.25,1.99,3.08,2.63,4.74,2.9Z"/>
  <path class="cls-1" d="M266.63,291.06l8.25-8.17,8.01-8,8-8,8.01-8,8.03-7.98c-.06.06,15.54-15.59,13.22-13.71,2.47-2,2.16-5.34.08-7.43l-16.22-16.28,17.3-17.34c3.81,1.09,5.34,4.76,8.11,7.26,6.19,5.6,25.97,23.13,25.21,30.49-.27,2.56-1.43,6.32-3.5,8.38l-86.63,86.75c-1.76-1.32-2.09-2.99-3.32-4.23l-14.17-14.33,4.08-3.26c-3.34,2.67,15.51-16.13,15.53-16.15Z"/>
  <polygon class="cls-1" points="173.18 328.35 155.01 310.57 166.93 298.85 223.92 241.51 242.02 259.48 173.18 328.35"/>
  <path class="cls-1" d="M144,207.52l15.75-15.78c2.39-1.29,4.51-2.77,5.58-5.54l47.63-47.67,18.03,17.98-68.96,68.95-18.04-17.94Z"/>
  <path class="cls-1" d="M171.53,250.92c2.91,2.82,5.02,5.48,7.28,8.32,1.77,2.22,4.94,2.92,6.15,5.36l-18,17.85-68.97-68.96,18.02-17.92,21.84,21.61c.67,3.12,4.39,3.82,5.86,6.02,2.7,4.05,5.96,6.55,9.22,9.71l18.61,18.01Z"/>
  <path class="cls-1" d="M268.66,234.74c-.32-.3,21.56,20.61,15.77,15.95l3.56,2.87-18.03,17.9-68.94-68.94,17.34-17.35c4.15,2.1,5.8,6.02,8.92,8.49,3.73,2.96,6.59,5.98,9.88,9.26l7.98,7.99c2.39,2.39,4.63,4.5,6.89,7.18,4.97,5.89,10.75,11.12,16.64,16.66Z"/>
</svg>