<?xml version="1.0" encoding="UTF-8"?>
<svg id="Layer_1" data-name="Layer 1" xmlns="http://www.w3.org/2000/svg" viewBox="0 0 2216 2250">
  <defs>
    <style>
      .cls-1 {
        fill: #5b5b5b;
      }

      .cls-2 {
        fill: #575757;
      }

      .cls-3 {
        fill: #555;
      }

      .cls-4 {
        fill: #515151;
      }

      .cls-5 {
        fill: #545454;
      }

      .cls-6 {
        fill: #fefefe;
      }
    </style>
  </defs>
  <path class="cls-6" d="M2,892c-.65-8.45-1.32-17.12-2-26v-18c.72-8.77,1.39-17.43,2-26,.09-197.2,148.9-388.74,325.81-487.83,100.02-56.03,211.14-84.63,326-80.36,11.52.43,22.08-1.75,32.11,4.12l-57.63,168.16c-94.93,15.63-172.19,35.51-251.2,91.27-51.83,36.57-96.54,80.4-133.54,131.65-39.12,54.19-58.22,115.97-60.59,182.67-4.65,130.46,40.04,237.02,112.08,343.1,66.87,98.46,176.29,218.66,260.96,303.3l69.91,69.88,112.22,111.96c6.32,6.31,11.21,12.56,16.43,20.43-42.43,36.77-90.93,87.27-144.79,103.39l-130.03-125.13-19.42-19.36c-114.66-114.36-255.85-272.29-342.84-408.59-42.6-66.75-74.18-137.45-94.53-213.83-11.22-42.1-20.9-83.03-20.96-124.81Z"/>
  <path class="cls-6" d="M2214,806c.5,5.07,1.16,10.4,2,16v76c-.8,4.11-1.47,8.11-2,12,.7,9.25-.56,17.85-2.08,28.24-22.81,155.94-103.6,304.46-201.29,426.15-26.24,32.68-53.01,62.61-83.94,90.38-.91.81-4.91,1.98-5.94.04-27.15-51.1-52.86-102.02-77.36-155.14,1.9-12.08,8.01-21.57,14.85-31.23l50.85-71.71c31.83-44.88,59.12-91.02,82.86-140.42,32.38-67.4,45.11-137.73,44.23-212.26-.58-48.96-6.72-93.77-27.77-138.51-19.89-42.29-44.99-80.17-77.29-114.6-55.71-59.38-123.82-103.22-199.67-132.6-27.71-10.73-54.61-17.48-84.38-17.48h-117.76c-30.28.01-57.09,5.8-84.78,18-37.29,16.43-71.65,35.81-106.56,56.83l-51.12,30.78c-9.15,5.51-19.08,4.99-27.6-2.21-32.1-27.11-63.02-54.71-92.93-84.44-7.12-7.08-14.95-14.53-17.01-24.26-2.68-12.65,59.48-52.6,71.59-61.1,52.71-37.03,108.82-66.6,169.78-87.58,152.64-52.52,317.55-42.19,462.9,27.86,75.35,36.31,142.43,86.56,200.64,146.79,24.55,25.4,48.14,48.78,67.81,78.03,48.72,72.46,79.86,153.46,90.28,240.15,1.19,9.87,2.18,17.64,1.69,26.28Z"/>
  <path class="cls-6" d="M1132,0c3.46.66,6.8,1.33,10,2,106.98,10.97,199.4,71.65,269.71,151.98,8.74,9.99,51.95,58.09,49.17,66.68-.54,1.66-2.59,2.77-4.98,3.65l-132.52,48.72c-10.68,3.93-19.45,10.14-31.03,10.23-32.59-29.35-84.82-80.47-127.24-92.1-46.5-12.75-95.4-7.24-138.93,12.77-59.54,27.36-104.85,81.93-135.08,138.95-39.57,74.64-58.83,156.68-60.37,241.1-.44,24.16.56,46.47-2.23,70.18-1.26,10.74-2.62,20.87-2.15,31.96l-49.23,63.35c-30.62,39.4-61.91,76.54-98.81,111.21-25.55-72.18-26.93-155.72-26.67-230.59-2.65-15.71-.35-30.3-.26-46.03.23-39.78-.42-78.1,7.49-117.27,21.4-105.96,62.9-208.9,129.62-294.29C859.28,81.91,957.13,14.86,1072,2c3.6-.69,7.6-1.36,12-2h48Z"/>
  <path class="cls-6" d="M1111.95,2250h-9.78c-8.13-4.74-14.84-11.2-22.2-18.15l-67.85-64.15-163.54-155.95c-13.24-12.63-23.92-25.51-34.38-39.91-3.18-4.38-2.13-8.86,1.89-12.06l48.69-38.71c22.15-17.61,43.39-34.83,63.84-54.34,4.87-4.64,9.78-8.63,17.13-8.97l87.39,81.29c18.08,16.82,33.77,33.29,53.97,47.78,14.35,10.29,34.15,12.59,49.32-1.49,157.31-146,312.64-293.6,467.1-443.32l49.06-47.55c33.87,48.73,60.47,113.02,79.12,169.27-21.02,23.13-41.7,44.32-64.13,66.29-153.35,150.24-308,297.49-466.3,442.59-29.69,27.21-58.84,53.1-89.33,77.37Z"/>
  <path class="cls-2" d="M0,848v-26h2v22.1c-.01,2.08-.32,4.05-2,3.9Z"/>
  <path class="cls-3" d="M2,892H0v-26c1.74-.15,1.97,1.82,1.97,3.9l.03,22.1Z"/>
  <path class="cls-2" d="M2216,822c-3.47-3.82-2.3-10.77-2-16h2v16Z"/>
  <path class="cls-4" d="M1084,0c-3.19,3.42-7.93,1.54-12,2V0h12Z"/>
  <path class="cls-1" d="M2216,910h-2c-.3-3.91-1.27-9.5,2-12v12Z"/>
  <path class="cls-5" d="M1142,0v2c-3.31-.34-8.11,1.55-10-2h10Z"/>
  <path class="cls-6" d="M1488.95,1957.54c13.08-18.18,27.72-32.38,43.81-46.87l76.94-69.28,109.91,48.73c21.46,9.51,43.03,17.14,66.02,20.47,15.14,3.71,26.99-3.68,30.64-18.81,11.73-48.71-9.99-129.42-25.8-178.22-55.3-170.67-158.54-343.55-262.77-488.99-16.82-23.47-32.64-44.57-47.73-69.22,8.99-29.1,20.12-55.92,31.38-84.26l40.17-101.07c1.73-4.36,4.3-8.06,8.99-8.96,82.99,107.23,160.55,218.35,231.64,334.44,69.01,112.72,136.64,242.01,173.68,368.69,30.35,103.79,32.3,179.6,26.72,286.36-22.32,51.1-50.24,89.79-100.5,115.8-20.99,10.86-42.03,18.22-66.18,19.37-32.93,1.57-65.58,1.29-98.21-3.45-18.9-2.74-36.09-9.3-54.14-16.07-62.49-23.42-122.05-52.14-178.71-86.83-3.92-2.4-6.56-5.57-8.04-7.89-2.17-3.4-1.02-9.99,2.19-13.95Z"/>
  <path class="cls-6" d="M324.74,2065.32c-177.53-88.08-83.96-389.27-22.28-526.83,20.07,12.92,35.34,27.69,50.84,44.36l87.77,94.36c-22.41,66.29-42.04,127.11-42.34,195.77-.06,13.61,5.54,24.23,14.86,33.91,4.67,4.85,12.94,5.39,20.59,3.47,120.42-30.21,222.1-96.38,315.96-176.07,51.31-43.57,98.42-88.93,145.94-136.3l67.03-66.81c2.28-2.28,3.44-5.34,6.75-5.74,2.15-.26,5.45.62,7.76,3.35,32.28,38.02,63.92,76.1,91.56,117.46,7.22,10.8,6.32,22.85-.83,32.29-12.32,16.28-25.15,29.88-39.64,44.82-128.49,132.52-331.49,303.11-511.59,351.91-64.85,17.57-131.12,20.43-192.38-9.96Z"/>
  <path class="cls-6" d="M1236.3,1442.88c-36.04-31.17-61.91-78.98-97.43-117.99-4.89-5.37-4.84-11.96-.61-18.53,47.18-73.39,90.71-147.78,129.6-226.21,69.99-141.15,122.42-298.11,123.23-456.81l.51-99.89c55.03-26.28,109.48-51.71,173.26-46.33l3.64,77.19c9.96,211.36-38.41,406.04-130.88,595.5-45.54,93.31-98.83,180.89-158.44,265.31-7.28,10.31-14.26,18.55-22.67,27.44-5.23,5.53-13.73,5.92-20.2.33Z"/>
  <path class="cls-6" d="M557.84,1423.42c-32.6-28.84-61.5-59.48-90.35-90.72-10.99-11.9-20.64-23.37-29.64-36.75-.31-11.54,2.66-22.32,8.45-32.08,16.64-28.06,33.23-54.48,52.83-81.36l217.97-299.08c66-90.56,140.41-173.97,213.48-258.21,8.76-10.1,18.57-12.54,29.49-5.43,31.2,20.29,77.73,66.71,114.17,93.98,2.23,1.67,6.06,2.12,6.78,5.04.51,2.09.07,5.84-2.01,8.56-20.13,26.25-40.45,50.2-62.56,75.6-65.38,75.09-127.39,152.16-186.94,232.54-94.21,126.12-182.36,253.35-271.68,387.93Z"/>
  <path class="cls-6" d="M1397.49,1678.59c6.53,7.65-37.05,47.39-43.73,53.55-9.45,8.71-77.64,73.04-87.37,65.23-192.19-185.57-357.58-400.51-479.65-639.97,35.4-55.18,74.56-106.4,117.73-158.36,19.55,27.69,32.81,56.45,49.1,85.87,59.48,115,127.88,223.81,207.75,326,51.29,65.62,105.71,126.89,162.73,187.14,25.52,26.97,49.56,52.55,73.45,80.56Z"/>
  <path class="cls-6" d="M1309.85,894.18c-1.01,3.79-2.64,5.94-3.89,6.96-9,7.39-39.1-23.22-46.87-32.75-95.02-116.43-201.79-221.89-320.61-314.06-12.37-9.59-59.52-43.27-59.45-56.95.23-44.82,32.61-116.26,54.19-156.4,5.21-9.7,67.75,34.49,74.67,39.58,84.09,61.92,163.38,128.28,237.73,201.54,23.6,23.25,105.04,104.51,102.35,135.72-5.23,60.72-22.45,117.58-38.11,176.35Z"/>
</svg>