<?xml version="1.0" encoding="UTF-8"?>
<svg id="Layer_1" data-name="Layer 1" xmlns="http://www.w3.org/2000/svg" viewBox="0 0 981 980">
  <defs>
    <style>
      .cls-1 {
        fill: #fefefe;
      }
    </style>
  </defs>
  <path class="cls-1" d="M538.01,768.42c16.62-2.14,32.05-6.28,48.51-11.9,1.36,7.57.12,14.68-.42,22.54-4.99,72.77-44.82,130.34-93.32,182.15-47.01-46.64-90.42-101.23-95.68-170.11l-.78-10.19c-.62-8.16-.23-16.38.19-24.43l.89-17.11c2.89-55.68,22.79-119.09,54.27-165.55,11.74,13.94,21.34,27.87,30,42.94-12.4,22.9-22.29,46.61-27.47,72.29-3.28,16.28-6.56,31.64-7.94,48.09l-.99,11.86-.96,11.08c-.84,9.65-.55,19.06.06,28.69,1.57,24.73,8.79,47.61,20.43,69.37,7.21,13.48,14.86,25.93,23.88,38.21,1.15,1.57,3.81.33,4.72-1.01,8.95-13.24,17.38-26.15,24.14-40.75,11.58-24.97,21-57.62,20.46-86.17Z"/>
  <path class="cls-1" d="M102.73,504.37c22.12,14.72,59.97,30.82,86.4,31.33l28.35.55c2.29,16.32,6.45,31.39,11.46,46.62-36.69,4.36-77.21-3.11-110.55-19.32-26.06-12.67-49.18-29-70.35-48.48l-12.06-11.09c-5.94-5.46-11.31-11.23-16.95-16.39,4.47-5.11,8.98-8.7,13.69-12.87,49.61-44,106.05-78.43,174.33-80.91,6.88-.25,13.24-2.15,19.92.44,4.07-.21,7.67-.84,11.75.3,58.23,6.99,113.62,25.5,164.35,55.65-14,11.35-28.66,21.1-44.47,30.62-20.06-10.44-40.56-19.04-62.46-25.91-19.79-7.03-39.53-10.3-60.41-12.7-28.29-.94-50.21-.43-77.81,7.86-26.9,8.08-51.52,21.14-74.24,37.48-1.77,1.28-.18,4,.98,4.77l18.09,12.04Z"/>
  <path class="cls-1" d="M524.05,295.99c24.76-78.87,14.43-145.68-33.66-212.35-.89-1.23-3.56-.68-4.37.49-29.19,42.49-46.08,77.02-43.83,131.41-15.64,2.72-30.82,6.9-46.75,12.87l-1.05-20.13c.97-6.38.32-12.62.89-19.17,2.71-31.45,12.59-60.3,28.36-87.49,11.31-19.51,24.07-37.17,39.31-53.65l11.09-11.99c5.48-5.92,11.18-11.31,16.58-17.12,46.9,50.13,86.45,106.18,93.29,176.02.32,3.28-.28,6.19,1.26,9.14l-.66,30.62c-6.66,58.75-24.32,115.09-54.86,166.67-12.34-13.1-22.23-27.79-31.62-42.45,10.66-20.93,18.95-41.14,26.02-62.88Z"/>
  <path class="cls-1" d="M777.78,584.58c-37.54,2.37-67.68-5.36-103.66-15.75-34.23-10.87-66.38-25.21-98-43.63,14.32-10.57,27.75-19.66,42.72-27.72,24.83,12.53,49.43,22.21,75.72,29.96,27.16,7.04,54.11,10.97,81.98,9.14,45.22-2.97,82.02-18.72,118.86-44.19,1.39-.96,2.67-1.34,2.73-2.93s-.48-2.55-2.07-3.63c-37.38-25.52-77.8-46.54-125.16-43.64-2.55-16.18-6.47-30.81-12.43-46.9l33.25.06c55.49,4.04,109.32,37.08,148.24,74.59l16.92,16.31c1.29,1.25,5.65,3.14,4.54,5.45-51.93,48.64-109.95,88.24-183.64,92.89Z"/>
  <path class="cls-1" d="M710.39,516.1c-1.36-4.73.12-8.87.38-13.18.53-8.67.37-16.91-.2-25.56-4.41-67.81-38.81-127.06-94.37-165.46-9.22-5.94-17.61-11.1-27.73-15.58,3.99-16.87,6.97-32.73,9.24-50.35,102.23,43.28,165.97,143.3,163.24,254.99-2.39,8.55.6,11.38-2.3,21.03-16.5.66-31.1-2.2-48.27-5.89Z"/>
  <path class="cls-1" d="M465.92,706.72c1.47-1.8,6.1-.03,8.2.04l12.71.44c5.7.2,10.59.37,16.16.04l17.12-1.03c66.51-4.02,139.94-57.13,168.36-117.91,16.43,4.55,32.7,7.42,49.7,9.97-39.42,89.59-125.26,150.72-223.61,158.33-13.47,1.04-26.65.07-40.27.39l-15.03-2.37c1.8-16.53,3.27-32.07,6.66-47.9Z"/>
  <path class="cls-1" d="M391.06,681.5c-3.1,16.22-6.69,34.49-7.18,51.68-89.34-40.78-149.77-128.85-155.07-227.08-.48-8.96-.35-16.74-.07-25.37l.42-12.65c.13-3.79,1.22-7.07.74-11.05,15.63-.53,34.69,4.2,50.13,8.23-2.19,13-2.39,24.01-1.65,37.57,2.62,48.03,20.56,93.25,52.03,129.71,18.8,20.41,35.51,35.47,60.64,48.95Z"/>
  <path class="cls-1" d="M479.53,275.34c-40.82,3.09-79.13,16.41-111.75,40.4-27.65,19.88-49.8,45.23-65.6,76.03-16.69-4.16-33.36-7.92-50.13-10.11,15.01-32.7,35.41-61.19,61.33-85.22,21.34-19.41,44.4-35.45,70.77-47.26,28.42-12.72,57.7-21.03,88.77-23.16l10.21-.7c17.44-1.2,22.51.65,39.09.54-.57,17.55-3.66,33.9-7.66,50.38l-5.57-1.23c-9.41-2.08-18.89-.46-29.44.34Z"/>
  <path class="cls-1" d="M471.5,575.03c-6.82-9.32-13.38-17.56-20.77-25.72l-7.16-7.91-13.49-13.92,10.47-8.02,13.09-10.87c4.75-3.94,8.32-8.93,13.98-12.37,32.36,32.07,60.61,70.83,79.85,113.29,9.64,22.31,18.87,43.76,24.98,67.85-14.03,6.16-28.27,10.07-43.9,13-6.37-22.58-14.61-43.75-25.15-64.74-8.9-18.16-19.47-34.2-31.9-50.58Z"/>
  <path class="cls-1" d="M556.43,522.43c-8.54,7.21-18.33,18.8-26.25,26.63-4.8-8.39-10.46-15.58-16.32-22.85l-12.24-15.18c45.71-48.14,95.96-78.48,158.63-98.66l17.75-5.41c7.02,15.01,11.72,30.53,15.16,47.14-54.96,14.67-93.31,31.65-136.73,68.33Z"/>
  <path class="cls-1" d="M407.75,524.7c-12.77,9.3-26.27,15.65-40.44,22.72-19.17,8.9-38.75,15.68-59.01,21.71-6.63-15.34-10.29-30.77-13.64-47.16,18.32-4.62,34.48-10.46,51.34-18.1,33.07-16.05,63.24-36.66,89.47-62.22l14.62-14.24c3.38,6.23,7.6,10.65,11.93,15.53l6.56,7.4c3.59,4.04,6.75,7.59,11,11.73-4.26,3.5-7.06,7.38-10.43,11.07-15.52,16.99-41.62,39.67-61.41,51.57Z"/>
  <path class="cls-1" d="M516.65,474.85c-5.12-3.19-9.54-6.97-13.74-10.84-30.48-28.05-49.47-52.58-67.96-90-9.89-21.71-17.32-43.6-22.98-66.93,14.05-6.46,28.44-10.55,43.14-13.75,5.49,24.58,14.66,46.46,26.89,67.7,14.6,25.33,32.63,47.21,52.87,67.91l18.44,18.86c-11.21,6.94-20.06,14.68-29.96,22.65-1.57,1.26-4.23,4.59-6.7,4.42Z"/>
</svg>