<?xml version="1.0" encoding="UTF-8"?>
<svg id="Layer_1" data-name="Layer 1" xmlns="http://www.w3.org/2000/svg" viewBox="0 0 736 797">
  <defs>
    <style>
      .cls-1 {
        fill: #fefefe;
      }
    </style>
  </defs>
  <path class="cls-1" d="M239.3,161.33c-1.51,25.94,20.5,61.73,46.06,70.26-3.99,7.45-7.41,13.64-9.56,21.53-1.51-1.49-2.92-2.17-4.85-3.13-11.49-5.73-22.74-11.84-32.11-20.86-16.81-16.18-22.9-40.82-25.56-63.43-1.13-9.58,1.69-18.76,4.35-28.19,3.66-13,17.6-38.05,28.02-45.9,9.15-6.89,17.33-14.71,27.06-20.71,14.94-9.2,31.32-14.37,48.73-16.34,31.74-3.59,73.12,7.09,99.54,27.16l-22.53,14.03c-11.16-10.67-37.96-18.95-52.43-19.6-27.35-1.24-53.57,8.89-72.73,28.03-2.07,2.07-2.97,4.08-5.28,5.95-4.1,3.31-16,18.92-19.66,24.13-5.8,8.25-8.47,16.98-9.06,27.06Z"/>
  <path class="cls-1" d="M182.04,418.84c10.61,7.02,10.42,9.66,19.8,17.36-22.92,17.19-49.8,26.74-77.79,29.08-4.83.41-8.48,1.12-13.23-.01-3.28-.78-6.94-.45-10.3-1.84-12.23-5.07-34.84-17.8-44-27.08l-18.21-18.47c-13.97-14.17-22.69-40.71-20.09-61.9,2.13-17.36,8.36-33.33,15.69-49.09,8.68-18.67,24.19-30.44,40.84-42.87l5.35,23.85c.3,1.34,1.02,2.22.82,3.41-.29,1.73-20.57,10.53-29.54,27.84-13.54,26.13-15.6,54.1,4,77.5,4.95,5.91,10.94,10.27,15.57,16.41s10.79,9.8,16.75,14.29c11.37,8.57,25.05,11.16,39.34,10.79,29.17-.75,31.34-.65,55-19.27Z"/>
  <path class="cls-1" d="M563.49,324.74c-20.65-8.21-47.51-18.33-70.49-20.62-5.83-.58-11.22-2.37-16.98-2.9l-10.98-1.01-16.98-1c-26.39-1.55-44.3-1.93-70.17-8.09l-53.43-12.73,9.87-27.6,58.52,11.43c22.53,4.4,39.72,5.72,62.55,6.36l23.49.66c12.61.35,24.82,2.77,37.24,5.8,18.21,4.45,40.66,15.07,58.19,22.6l-10.83,27.09Z"/>
  <path class="cls-1" d="M268.91,705.32c10.51-2.35,18.6-9.21,28.04-12.2,33.07,35.64,84.03,28.02,122.27,5.24,6.42-3.83,12.34-7.27,17.79-12.4l14.99-14.12c16.44-15.49,30.95-42.04,33.54-65.26,10.91-.81,22.84-2.62,33.22-2.41-2.68,11.08-7.11,21.33-11.63,31.88-5.13,11.99-11.75,22.34-18.8,33.17-10.09,15.5-27.26,36.84-43.68,45.4l-16.56,8.63c-23.77,12.38-53.11,20.12-80.07,18.04-20.76-1.61-39.63-8.54-57.72-18.58-8.25-4.58-15.05-10.55-21.39-17.37Z"/>
  <path class="cls-1" d="M164.62,589.8c14.94,1.51,28.86-3.27,43.07-7.51l7.58,26.17c-17.82,3.93-42.4,10.06-59.3,10.33-9.64.16-18.87-2.51-28.39-3.26-3.38-.27-29.11-10.55-33.88-13.26-11.09-6.3-28.15-20.75-36.01-31.12-11.48-15.16-20.88-31.55-28.84-48.92-8.04-17.52-10.66-35.2-8.02-54.28,1.96-14.14,4.82-27.69,10.13-41.08,9.49,7.99,9.12,7.22,16.9,16.22,1.82,2.11,4.89,2.89,6,5.56-8.57,12.33-8.64,25.13-7.85,39.47.94,16.88,6.81,32.63,14.08,47.72,3.87,8.05,8.88,14.88,14.59,21.41,11.1,12.7,24.75,19.99,40.82,24.32,8.68,2.34,17.24,5.59,26.45,6.26l12.03.88,10.63,1.08Z"/>
  <path class="cls-1" d="M565.63,136.38c-26.74-19.34-34.37-26.3-68.87-31.01-7.57-1.03-15.13-.33-22.78-.16-10.02.21-18.37,5.39-27.09,9.56-27.2,13.01-42.71,19.73-64.24,40.95-8.62-4.74-16.22-9.95-23.57-15.26,11.71-11.65,26.48-23.79,40.72-31.9,32.38-23.36,34.55-21.59,73.35-26.11,15.72-1.83,31.15,1.55,46.62,4.87,26.67,5.73,56.49,26.38,74.33,46.67,13.13,14.94,24.8,30.63,32.79,49.04,2.64,6.08,4.2,11.84,7.58,18.14-13.33-3.08-15.48-7.8-30.23-7.33-6.14-17.95-15.89-32.97-28.25-46.78-3.3-3.69-6.33-7.76-10.36-10.67Z"/>
  <path class="cls-1" d="M458.61,121.04l7.65,15.67c4.41,9.04,5.36,18.93,6.24,28.86l1.12,12.71c.59,6.67.33,13.44.12,20.26-14.88,4.83-29.53,4.03-44.69,2.56l-36.48-3.56c-12.8-1.25-25.73-2.65-36.73-9.22l-16.32-9.75c-11.17-6.67-21.7-13.17-32.32-20.77-14.55-10.42-30.07-17.95-47.18-20.94,2.7-4.08,17.02-22.48,19.89-21.82,16.37,3.21,28.53,10.73,42.87,18.18l25.75,13.38c2.53,1.31,5.19,3.52,7.45,5.43,20.31,17.19,45.33,25.08,72.09,23.99-1.02.04,11.23,1.73,14.59-1.98,4.78-5.28-3.63-33.37-7.7-40.99l9.72-5.23c4.56-2.45,9.08-3.9,13.92-6.79Z"/>
  <path class="cls-1" d="M128.17,627.11c10.14-.7,13.86,3.11,26.06,1.73,6.32,15.52,16.98,28.92,31.74,37.09,11.01,6.09,22.47,10.42,35.04,11.89,2.85.33,6.31.98,9.01.82,20.86-1.25,23.79-6.36,33.08-8.58,10.72-2.56,19.2-8.4,27.41-15.55,18.95-16.51,36.32-41.4,26.73-67.7-1.71-4.67-2.12-9.76-3.34-14.38,3.22-2.85,6.43-4.04,9.87-5.67l15.46-7.31c11.18,37.09,4.27,76.45-20.88,105.72-6.18,7.19-14.22,10.72-22.33,14.91l-15.06,7.77-19.47,8.56c-10.79,4.74-23.44,6.18-35.48,6.29-10.69.1-21.03-2.93-31.09-5.69-8.18-2.24-15.52-5.99-22.92-10.17-22.24-12.55-35.99-36.15-43.83-59.74Z"/>
  <path class="cls-1" d="M662.14,417.8c-2.28,4.16-6.27,6.01-9.3,8.98-9.26,9.08-20.23,14.58-32.44,18.74-12.58,4.28-24.79,8.34-38.12,9.72-13.7-21.44-15.64-36.48-17.86-60.59-.57-6.17-.81-12.27-.07-18.39,2.41-19.91,2.4-31.08,10.51-50.42l12.41-29.6c7.05-16.8,13.12-33.4,17.9-51.24,8.71,2.26,16.53,5.65,23.62,11.21-3.47,13.73-9.1,26.52-13.53,40.1l-4.66,14.3c-7.76,23.8-18.1,50.6-19.2,74.97-.47,10.5-.84,20.96,1.67,31.31.97,3.99,4.74,6.78,8.97,6.14,18.2-2.75,33.78-12.76,44.68-27.01l7.52,9.76c2.82,3.67,5.24,7.45,7.91,12.02Z"/>
  <path class="cls-1" d="M445.79,662.38c-4.9,5.72-15.09,14.55-21.83,19.66-20.19-10.22-42.41-23.63-55.32-43.09,16.4-23.01,22.64-27.67,45.71-42.65,19.79-12.85,39.19-23.65,63.58-25.11l15.07-.9,28.74-.61c3.01-.06,5.48-1.27,8.54.12,2.27,1.03,5.4-.56,7.69.16,6.26,1.95,11.88.7,18.04.31,8.16-.51,15.94-.23,24.03-2.42,1.3-.35,2.92.17,3.97.61,1.28.54,6.47,19.34,5.05,23.92-5.96,2.91-24.39,1.54-31.97.73-5.32-.57-10.32.44-15.57-.59s-10.99-.7-16.39-.2l-10.1.93-13,1.02-12.08.84c-28.41,1.98-57.56,17.38-77.68,37.11-9.86,9.68,25.93,26.31,33.54,30.16Z"/>
  <path class="cls-1" d="M140.67,321.65c-6.42,7.69-13.83,11.7-20.19,18.39-2.53-5.02-5.97-8.33-9.07-12.49-6.76-9.08-12.08-18.76-16.63-29.38-4.73-11.04-6.42-23.2-8.95-35.05-1.29-6.07-.8-11.47-.26-17.36,1.95-21.06,6.94-41.08,17.97-59.15,9.13-14.95,19.53-27.89,32.14-39.9,7.52-7.16,14.87-14.04,24.26-18.81,15.73-13.75,42-22.69,63.66-27.2-6.45,11.21-13.22,20.59-16.11,33.07-6.66-.07-12.38,1.74-18.37,4.35-14.71,5.71-26.81,14.93-38.04,26.09-16.49,16.38-30.96,35.22-37.52,58.04-2.48,8.61,1.69,43.35,4.2,53.2,4.32,16.99,13.83,31.85,22.93,46.2Z"/>
  <path class="cls-1" d="M476.33,702.43c8.47-10.52,14.7-14.84,20.68-25.23,5.15,1.69,9.77.6,15.09-.04,20.93-2.52,39.69-11.55,55.48-25.76,12.69-11.41,22.13-25.91,29.24-41.43s1.97-32.45-2.84-47.06c-6.65-20.2-18.35-38.53-36.03-50.69-7.46-5.13-16.14-7.28-24.71-9.64-1.78-9.45-1.98-17.92-2.81-27.04,42.35,11.35,73.24,37.6,84.46,79.62,1.41,5.27,4.66,9.55,4.65,15.49-.01,7.99,3.11,16.13,2.27,24.42-2.61,25.61-15.75,47.96-33.94,65.94-18.59,18.38-41.86,30.95-66.78,39.01-16.49,5.33-27.95,4.64-44.77,2.41Z"/>
  <path class="cls-1" d="M216.08,568.43c-2.06-14.65-8.51-27.12-14.74-39.77-3.52-7.14-7.21-14.52-13.85-19.2-3.02-2.13-7.32,1.3-9.25,3.82-11.18,14.62-27.46,44.86-29.15,63.88-12.45-.97-13.32-1.64-24.92-4.78,2.72-13.34,8.27-25.16,13.29-37.86,9.57-24.23,24.1-44.19,48.35-54.56,3.42-1.32,16.58,12.39,18.58,14.61,22.7,25.13,22.23,37.79,32.77,63.65l16.1,39.5c3.78,20.25,7.32,39.54,14.29,59.55l-27.02,9.28c-6.23-14.36-8.49-42.07-12.13-54.15-4.38-14.55-10.11-28.17-12.33-43.98Z"/>
  <path class="cls-1" d="M653.36,569.33c-9.56,7.77-8.85,9.41-22.02,14.78-.45-9.58-1.02-17.57-2.98-25.61,15.17-8.83,26.67-22.41,33.88-38.28,14.45-31.84,21.38-55.88,16.09-91.33-.75-5-1.95-8.36-4.47-12.7-3.57-6.15-6.41-12.46-10.97-18.07-4.86-5.97-9.66-11.43-14.98-17.04s-8.91-11.54-14.58-16.34c-5.37-8.28-13.75-12.97-22.35-18.24,1.93-9.54,4.89-18.75,8.38-27.42l22.94,17.6c4.2,3.22,7.89,6.63,11.45,10.58,7.35,6.04,15.02,11.52,20.77,19.18,17.28,23.06,10,14.14,18.19,37.94,7.85,22.82,10.7,45.37,8.92,69.32-2.21,29.77-18.5,61.99-37.13,84.6-3.59,4.36-6.88,7.58-11.12,11.03Z"/>
  <path class="cls-1" d="M671.64,332.72c2.91-30.03-4.78-57.3-27.27-78.04-14.38-13.26-29.79-20.25-49.33-22.98-12.65-1.76-23.48-.36-34.84,5.54-13.6,7.06-25.84,15.82-33.45,29.47-9.47-3.28-17.29-4.2-26.87-5.15,13.63-28.74,37.2-49.69,69.7-53.96,6.83-.9,13.42-2.27,20.35-2.51,14.92-.52,13.73-3.16,28.52,2.44,23.38,8.85,23.74,8.96,41.06,27.9,21.69,23.73,31.36,57.06,34.75,88.51,1.51,11.15-1.16,32.93-4.83,43.31-5.83-8.12-11.71-14.66-19.1-21.11l1.3-13.43Z"/>
  <path class="cls-1" d="M522.27,558.83l-16.18.36c-4.14.09-7.68,1.43-12.42.56,2.5-5.25,4.33-21.18,2.35-26.85-.71-2.05.68-4.73.06-6.86-3.58-12.31-4.38-24.38-6.39-37.11-4.86-30.86-6.46-42.41-8.96-73.91l-.96-12.05-.97-18.01c-.54-9.89-.56-19.02,0-28.93l.97-16.99c.49-8.57,1.52-16.54,3.34-25.68l24.42,4.12-1.05,41.86c-.21,8.22-.73,16.38-.2,24.68l.96,14.99,1.18,12.72c1.7,18.35,6.08,35.56,9.12,53.62l2.01,11.92c.57,3.36.78,7.24,1.14,10.67l1.15,11c1.17,11.22.65,21.85,2.01,33.12.07.61-2.95,21.27-1.58,26.77Z"/>
  <path class="cls-1" d="M291.02,462.63c12.82,14.8,22.03,31.27,31.28,48.6l-16.81,9.32c-4.32,2.4-9.17,3.67-13.23,6.54-2.23-5.68-4.04-10.25-7.24-15.28-19.06-29.94-42.9-55.9-70.85-77.92-13.3-14.84-28.2-26.41-44.28-37.67-7.22-5.06-13.46-10.49-19.02-17.56,9.72-5.37,14.46-14.83,23.43-19.94,3.56,4.32,7.78,7.48,12.24,10.75l19.04,13.96,7.91,6.12c4.96,3.83,9.53,7.53,14.35,11.68l17.72,15.26,13.42,12.63c7.19,6.76,14.56,13.32,21.02,20.78l11.03,12.73Z"/>
  <path class="cls-1" d="M80.74,407.73c-5.15-4.74-9.5-9.5-13.84-14.42l13.95-10.51,45.23-32.66,11.95-10.21c5.87-5.01,11.19-10.71,16.54-16.36,1.74-1.84,2.1-5.16,3.61-7.35,7.02-10.16,32.65-55.58,12.72-61.19-14.83-4.17-30.16-2.55-44.42,5.28-1.73-7.68-2.99-14.93-2.4-23.57,11.39-3.19,22.73-7.24,34.99-7.57,5.9-.16,35.8,3.61,43.4,5.26,1.83,3.99-.39,7.6-.37,11.51.02,5.89-.45,11.21-.98,17.02l-1.11,12.14c-2.49,27.41-18.73,59.89-38.65,79.27-7.95,7.73-15.65,14.92-25.02,20.98-5.42,3.5-9.96,7.99-15.06,11.98l-33.89,26.53-6.65-6.12Z"/>
  <path class="cls-1" d="M249.94,561.05c7.47-4.98,15.36-7.77,23.07-12.12,6.97-3.94,14.04-7.11,21.2-10.76l36.18-18.47,30.39-14.95c27.21-13.39,56.15-21.2,85.94-26.92l29.17-5.6c1.75,9.26,4.39,17.93,4.24,27.9-27.57,2.84-53.16,9.68-78.76,19.13-20.94,7.73-39.7,17.77-59.81,27.11-13.63,6.33-26.15,12.71-39.52,19.47l-41.16,20.82-10.93-25.61Z"/>
  <path class="cls-1" d="M257.96,375.49l-17.82,21-20.94-16.82c16.42-14.93,47.82-68.68,54.44-87.95l11.01-32.04c3.88-11.3,8.3-21.9,15.36-31.69,6.39-15.87,13.41-30.99,22.26-46.49l27.98,16.22c-8.8,14.01-17.72,26.74-23.54,41.76-2.86,7.38-4.91,14.93-7.85,22.17l-9.27,22.83c-8.48,20.89-17.39,40.46-29.61,59.41-7.02,10.89-13.29,21.33-22.01,31.59Z"/>
</svg>