<?xml version="1.0" encoding="UTF-8"?>
<svg id="Layer_1" data-name="Layer 1" xmlns="http://www.w3.org/2000/svg" viewBox="0 0 146 147">
  <defs>
    <style>
      .cls-1 {
        fill: #6f6f6f;
      }

      .cls-2 {
        fill: #525252;
      }

      .cls-3 {
        fill: #5f5f5f;
      }

      .cls-4 {
        fill: #585858;
      }

      .cls-5 {
        fill: #5a5a5a;
      }

      .cls-6 {
        fill: #4f4f4f;
      }

      .cls-7 {
        fill: #c3c3c3;
      }

      .cls-8 {
        fill: #fcfcfc;
      }

      .cls-9 {
        fill: #4a4a4a;
      }

      .cls-10 {
        fill: #4e4e4e;
      }

      .cls-11 {
        fill: #505050;
      }

      .cls-12 {
        fill: #494949;
      }

      .cls-13 {
        fill: #4d4d4d;
      }

      .cls-14 {
        fill: #626262;
      }

      .cls-15 {
        fill: #cdcdcd;
      }

      .cls-16 {
        fill: #a6a6a6;
      }

      .cls-17 {
        fill: #cecece;
      }

      .cls-18 {
        fill: #5b5b5b;
      }

      .cls-19 {
        fill: #535353;
      }

      .cls-20 {
        fill: #4c4c4c;
      }

      .cls-21 {
        fill: #6a6a6a;
      }

      .cls-22 {
        fill: #fbfbfb;
      }

      .cls-23 {
        fill: #f9f9f9;
      }

      .cls-24 {
        fill: #acacac;
      }

      .cls-25 {
        fill: #555;
      }

      .cls-26 {
        fill: #616161;
      }

      .cls-27 {
        fill: #515151;
      }

      .cls-28 {
        fill: #ccc;
      }

      .cls-29 {
        fill: #545454;
      }

      .cls-30 {
        fill: #aeaeae;
      }

      .cls-31 {
        fill: #aaa;
      }

      .cls-32 {
        fill: #565656;
      }

      .cls-33 {
        fill: #4b4b4b;
      }

      .cls-34 {
        fill: #5d5d5d;
      }

      .cls-35 {
        fill: #adadad;
      }

      .cls-36 {
        fill: #fafafa;
      }

      .cls-37 {
        fill: #676767;
      }

      .cls-38 {
        fill: #5c5c5c;
      }
    </style>
  </defs>
  <path class="cls-8" d="M86,77c7.04-.4,14.17,3.23,20.08,6.88,8.37-4.09,28.81-10.76,37.37-6.42.7.35,1.29.77,1.55,1.55.63.03.97.37,1,1v2c-1.05,1.15-1.09,2.75-2,4-2.83,14.48-13.49,25.1-26.87,31.06-6.08,14.36-17.16,22.89-31.13,27.94-2.68.62-6.82,1.47-8,0-3.78-12.08-.26-26.8,5.81-37.79-3.79-7.51-6.25-14.93-7.81-23.21-1.47.39-4.01.21-4.85-1.19-1.94-.95-2.1-1.51-.46-1.67-.28-.49-.18-.87.31-1.14,6.66-.38,6.66-.71,0-1-2.33-3.68,4.45-5.45,6.47-2.94,3.06.84,5.01.48,5.85-1.08,1.02-.18,1.91.49,2.68,2.02ZM139.54,88.93c1-2.44.36-4.31.39-6.95-4.03.25-7.48-.57-11.03.5,3.53,1.28,6.58.01,9.96.6.66,2.05-.6,3.79.67,5.85ZM88.98,95.16l1.54,3.85c1.22-4.08,4.2-6.04,7.34-8.34.56-1.31-1.82-.98-2.71-1.69-3.12-2.49-7.21-3.13-11.03-3.81l4.85,9.99ZM119,90c-2.52-.12-4.95,1.25-6.79,2.67,4.4,1.31,3.31,6.36,5.67,9.53.37,1.21-.59,2.77.42,4.5,4.65-3.73,9.86-7.27,11.7-13.7.4-1.39,1.45-2.95.84-5.04-4.12-.33-7.43,1.58-11.84,2.04ZM101.5,93l-8.5,8.5,1,1,8.5-8.5-1-1ZM105,99c-3.48-.04-3.95,3.98-7,6-1.76-.32-2.44.47-.96,1.65,3.72,3.11,8.45,3.54,12.76,3.59.74-5.04-.21-9.41-3.07-13.17-.64-.12-1.21.99-1.74,1.92ZM89.94,119c.54,4.19-5.69,13.08,1.06,12,6.17-.99,10.92-6.56,15.08-12.18-5.17-2.4-9.78-2.21-14.33-5.86-.97,1.95-1.29,3.53-1.81,6.04ZM88.95,139.63c-2.67-1.48-5.04.3-5.84-1.18-.67-1.24.61-2.81-.6-4.5-.7,1.12-1.1,4.49-.11,5.64,1.92,1.01,4.71.48,6.55.03Z"/>
  <path class="cls-30" d="M146,69c-.28.11-.74-.05-1,0-2.99-.07-2.76-4.46,0-5h1v5Z"/>
  <path class="cls-22" d="M69,3c1.65.98.42,2.65,1,4v10c-.72,7.69-3.32,15.23-7,22,.4,1.66-.27,1.66-2,0-2.69,1.76-6.77-2.75-4-5,1.32-3.23,2.49-6.58,3.5-10.06l-.14-3.07c2.7-1.44.86-11.11.34-11.41-2.51-1.43-12.96,4.69-15.22,6.87-7.3,7.04-12.11,18.35-9.65,28.51.56,2.32,1.69,4.95,4.17,5.15l.05-1.94c1.04.18,2.36-.51,3.95-2.06-1.88-2.4,2.52-6.61,5-5,3.31-1.76,9.07,3.94,7.23,7.25.85,1.93-.56,3.87-4.24,5.83,2.55,1.2,1.66,2.47-.98,1.92-.29.8-.62.79-1,0-.6,3-5.25,7.74-8,5,.24,2.49-.51,3.14-3,3-6.62,1.15-12.86,5.81-20.01,5.87l-14.99.13c-3.58-1.21-3.15-6.93-1-9,.05-13.01,12.2-25.35,23.89-30.13.82-.33,1.58.27,2.11,1.13-.25,3.79-.84,7.62-1.79,11.46l-2.21-.63-5,5.16c2.13,3.04-2.19,8.36-5,10,5.15,1.37,13.84-1.24,16.71-4.73-1.19-2.23-4.45-8.99-4.47-11.12-.01-1.49,1.61-8.9,2.76-10.15-.67-.76-1.51-1.87-1.11-2.58C35.81,17.06,45.79,3.04,61,3c1.68-2.04,6.54-2.41,8,0Z"/>
  <path class="cls-22" d="M38,86c2.13,7.01-6.3,2.98-9.86,1.03l-7.63-.72c-3.01-.13-4.18-1.24-3.51-3.31-3.28-.89-6.7-.86-10,0l2.02,1.58c2.13,17.58,25.51,36.45,40.98,22.42-2.33-2.56-4.72-5.22-7.19-7.98-3.12.11-3.32-.45-1.51-3.02-1.1-2.64,3.24-6.14,5.7-5,4.59-3.31,10.23,3.57,10,8,2.6-2.02,6.58,2.47,4.09,4.91,1.87,2.13,2.98,5.28,2.91,8.09l.64.28c1.6,3.27,3.05,6.51,4.36,9.72.55,2.45.15,5.65,1,8v10c-.77,1.17.51,4.47-2.09,4.87-2,.31-4.23.31-5.91.13-14.7-3.74-26.36-13.21-32.19-27.33-3.01-1.36-5.59-2.98-7.74-4.85-9.94-4.42-18.46-17.21-19.08-27.82-3.07-4.79-2.9-7.24,3.36-8.33,10.36-1.8,23.1,2.31,32.46,6.6,2.38-.6,2.1.31-.82,2.73Z"/>
  <path class="cls-8" d="M114.02,28.95c.64-.55,1.23-.94,1.6-.8,14.33,5.46,25.04,18.82,29.37,32.85v8l-5,1h-10c-2.59-.6-4.54-.55-7-2-3.24-.21-9.43-1.05-11-4-2.88.99-7.94-1.13-3.11-3.79-1-2.39,1.49-5.28,4.11-5.21,1.85-2.7,2.56-2.12,3,1,4.94,1.51,9.93,2.2,14.98,2.08l1.02-1.08c-2.85-6.65-7.19-11.65-13-15-2.28.64-5.72-1.63-6-4-1.3-.45-2.72-.12-4.27.97-1.18-1.92-3.42-2.25-6.73-.97.26,3.27-1.54,4.11-4,2-3.4,2.04-7.11-2.93-5-6-1.74-3.89,6.84-5.51,10.36-6.02.2-.03.35-.4.48-.87,3.31.95,6.7,1.56,10.19,1.84Z"/>
  <path class="cls-23" d="M50,56c2.43,1.68,5.1,3.01,8,4,.07-2.01,1.36-1.89,2,0,1.26-3.43,6.91-1.46,5,2,1.6.66,3.79,1.29,4.28-.91,1.25,1.51,3.04,1.94,5.39,1.27,3.07-2.5,1.96,6.48.68,8.77l-9.36-.07c-.62,2.65-1.43,2.44-1.9-.2l-1.23-1.15c.29,1.92-.66,2.02-2.87.29h-3c-5.6-1.5-11.01-4.02-16.25-7.53l1.25-1.47c4.04-1.1,4.96-5,8-5Z"/>
  <path class="cls-6" d="M60,2c.89-.46,1.19-.08,1,1-3.28,1.13-7.14,1.64-10.49,3.58-9.95,5.77-17.82,14.85-20.51,25.42-.25.88-.58.86-1,0-13.08,2.33-23.05,15.84-26,29-.89.46-1.19.08-1-1,.66-8.53,5.12-16.83,12.19-21.87l13.98-9.96,9.97-13.99c5.03-7.06,13.32-11.53,21.86-12.18Z"/>
  <path class="cls-18" d="M86,145c-1.32-2.57,6.91-2.76,12.41-6.56,8.95-6.18,15.84-14.74,19.03-25.34.27.11,1.38,2.23,2.26,1.78,21-10.83,21.49-25,24.3-28.88-.16,13.27-13.86,26.48-26.43,31.65-5.95,14.03-17.12,23.99-31.57,27.35Z"/>
  <path class="cls-2" d="M64.09,70.86c1.6,2.55,2.04,10.41-2.09,9.14-7.61-.9-14.96,3-21.38,6.78l-2.62-.78c.14-.53.92-1,.96-1.95-8.37-4.21-28.65-10.08-36.44-5.47-2.1,1.24.25,4.8.48,6.42.03.61-.34.91-1,1-.27-2.29-2.69-6.75-.2-9.19,12.93-2.57,25.84-.1,37.9,6.21,6.18-4.16,13.32-6.16,21.01-7.36,1.63-.25,1.49-2.72,1.18-3.9-.19-.73-.81-1.48-1.89-1.75.91-.9,2.16-.77,4.32-.87.7-.03.16,1.34-.23,1.73Z"/>
  <path class="cls-6" d="M85,70l-.05,4.04c-.01.88.11,1.59.6,1.92.34.23,1.03.06,1.45.04.46.89.08,1.19-1,1,2.55.65-15.67-1.78-15,2,.91.33.9.67,0,1-.03.39-.25.75-.31,1.14l-2.5-.44c.17-4.06-.57-7.27-2.2-9.63,1.95-2.26,5.43-.94,8.55-1.7,1.56-.38,2.18-4.98,1-5.97-2.27-1.39-9.16.96-10.54-1.39,1.15-1.9,2.48-3.57,4-5,.28-.87.62-.86,1,0,.09,1.28-.56,3.36.38,4.65.68.94,4.28.61,5.02-.41.69-3.31,1.62-7.13,2.61-10.24.28-.87.62-.86,1,0l1.62,2.47c-1.48,6.67-1.99,13.38-1.5,20.14l1.93.09c-1.7-5.31,4.63-9.69,3.96-3.69ZM75.02,71h-4.02v4h4.02v-4Z"/>
  <path class="cls-2" d="M78,145c-.49-.62-1.46-1-1.65-2.28-1.93-12.86,1.36-24.81,6.65-36.24-3.95-7.04-7-14.15-7-21.48-.87-.28-.86-.62,0-1,1.63,1.23,1.72,2.59,2.04,5.04.86,6.67,3.87,12.63,7.43,18.15-6.54,5.65-9.47,25.2-8.03,34.29.13.8.88,1.56,1.19,2.36.16.41.59,1.2-.63,1.16Z"/>
  <path class="cls-27" d="M62,145c-13.05-1.4-24.29-10.46-30.58-22.45-5.08-9.69-6.71-4.02-10.4-9.58l1.05-.14c3.67,2.05,8.03,3.31,11.9,4.62-.82,1-2.04.62-2.52,1.32-.74,1.09,9.04,18.9,25.91,23.85,1.96.58,4.27.35,4.64,2.39Z"/>
  <path class="cls-27" d="M145,61c-2.34-.07-1.88-2.37-2.61-4.5-4.54-13.25-15.61-22.66-28.37-27.55-2.61-3.12-3.02-5.44-1.25-6.95l.19-.98c.74,2.19,4.11,4.38,4.31,7.59,14.61,6.39,24.96,17.37,27.73,32.39Z"/>
  <path class="cls-19" d="M85,2c.87.28.86.62,0,1-.76,1.64-2.37,1.83-4.84.56-2.12,9.39-1.02,18.99,3.3,28.8,2.43,3.85,3.28,7.4,2.54,10.64-1.94,2.27-3.48,4.84-4.62,7.71l-2.38.29h-1c1.19-3.74,2.05-7.63,5.1-10.98-5.85-12.03-9.28-25.04-6.17-38.15,1.76-2.76,6.01,0,8.08.13Z"/>
  <path class="cls-11" d="M112.96,21.02l-.19.98-2.42-.13c-5.93-8.09-14.9-14.07-24.54-16.69l-.82-2.17v-1c8.8.55,24.54,8.93,27.96,19.02Z"/>
  <path class="cls-10" d="M22.08,112.82l-1.05.14c-9.65-3.31-18.01-18.46-19.02-26.96.3-.37.63-.7,1-1,1.19,8.55,10.24,22.89,19.08,27.82Z"/>
  <path class="cls-18" d="M57,70.01c-6.49.03-13.78-5.48-18-6.01.31-1.52,1.45-2.58,3-3-.97,5.47,17.79,6.28,15,9.01Z"/>
  <path class="cls-38" d="M63,39c3.18,5.7,6.53,11.4,7,18h-1l-2.6-1.29c-1.49-4.85-3.47-9.48-5.93-13.9l.53-2.81h2Z"/>
  <path class="cls-3" d="M68,94c1,4.41-2.43,8.42-4.68,12.14.46,1.79,1.78,4.24,1.68,5.86-.28.86-.62.85-1,0-1.02-2.7-2.09-5.32-2.91-8.09,2.26-2.18,1.26-.41,1.16-.5-1.26-1.26,2.62-11.22,5.75-10.4v1Z"/>
  <path class="cls-31" d="M70,17c-.98-3.29-1.86-6.95,0-10,1.52,2.98,1.84,7.05,0,10Z"/>
  <path class="cls-24" d="M70,140c-1.86-3.05-.98-6.71,0-10,1.15,3.17,2.05,6.88,0,10Z"/>
  <path class="cls-37" d="M69,122c-.46.22-1.91.04-1.94-.98-.12-3.7-1.98-6.18-3.06-9.02h1c2.55,2.46,3.22,6.54,4,10Z"/>
  <path class="cls-38" d="M71.15,82.81c1.96-.17,3.38.07,4.85,1.19v1h-6c-.28.87-.62.86-1,0-4.54-1.68-.13-7.2,2.15-2.19Z"/>
  <path class="cls-18" d="M3,61c-.73,3.27-2,6.5,1,9-1.06,0-2.09-.3-2.57-.95-1.79-2.41.86-12.76.57-9.05.3.37.63.7,1,1Z"/>
  <path class="cls-38" d="M69,3c-2.56-1.53-5.24-.95-8,0-.3-.37-.63-.7-1-1-4.06.31,10.87-3.48,9,1Z"/>
  <path class="cls-12" d="M68,94c-.07-.32-.04-.68,0-1-2.99-.8-1.99-7.69,1-8h1c.03,3.1.31,6.69-2,9Z"/>
  <path class="cls-36" d="M65.99,71.06c.87-.07,1.93-.32,3.11.5,1.48,1.02-.62,6.83,1.59,9.57.34.42.18,1.21.46,1.67-.82.07-2.02-1.45-2.13-.24-.1,1.14.05,1.84-.02,2.43l-1,8-5.48,11.9-1.43-.99c-.62-2.11-2.86-3.52-4.09-4.91-2.11-4.21.24-11.26,4-14-2.36-1.8-1.74-4.08,1-5,2.27-.7-.16-10.77,2.09-9.14.62.03,1.27.26,1.9.2Z"/>
  <path class="cls-2" d="M145,79c-9.24-5.33-29.42.56-39.04,5.95-6-4.65-13.08-6.21-19.96-7.95.36-.3.7-.63,1-1,7.04.1,13.24,3.52,19.72,7.09,10.93-5.68,22.13-8.18,34.27-6.98,2.15.21,4.08.7,4.01,2.89Z"/>
  <path class="cls-25" d="M91,131c4.83-3.34,9.29-6.81,13.05-11.86-4.27.1-7.49-1.36-11.07-3.35-1.52.96-2.06,2.32-3.04,3.21.52-2.51.84-4.1,1.81-6.04,4.56,3.65,9.16,3.46,14.33,5.86-4.16,5.62-8.91,11.2-15.08,12.18Z"/>
  <path class="cls-2" d="M98,105c1.79,3.11,6.15,3.16,9.92,2.91.44-2.16-.15-9.97-2.92-8.91.53-.94,1.1-2.04,1.74-1.92,2.86,3.77,3.81,8.13,3.07,13.17-4.32-.05-9.04-.49-12.76-3.59-1.49-1.18-.8-1.97.96-1.65Z"/>
  <path class="cls-11" d="M117.89,102.2c.36-.87.69-.87,1.01.02,5.01,1.4,8.16-7.42,11.1-9.22-1.84,6.43-7.04,9.96-11.7,13.7-1.01-1.73-.05-3.29-.42-4.5Z"/>
  <path class="cls-18" d="M95.15,88.98c.85.3.77.59-.14.89-1.44,1.71-2.74,1.33-4.51.49,1.08,1.95.87,3.5-.64,4.64.01.93-.29.95-.89.16l-4.85-9.99c3.82.68,7.91,1.32,11.03,3.81Z"/>
  <path class="cls-38" d="M119,90c-.71,1.3-2.12,1.56-4.09,2.3,2.71,2.77,4.03,6.32,3.99,9.92-.32-.09-.68.04-1.01-.02-2.36-3.17-1.28-8.22-5.67-9.53,1.83-1.41,4.27-2.78,6.79-2.67Z"/>
  <path class="cls-6" d="M88.98,95.16c.28-.1.62-.04.89-.16-.69-2.28,2.84-5.88,5.14-5.13.12-.26.05-.62.14-.89.9.72,3.27.39,2.71,1.69-3.14,2.3-6.12,4.26-7.34,8.34l-1.54-3.85Z"/>
  <rect class="cls-31" x="91.74" y="97.04" width="12.02" height="1.41" transform="translate(-40.49 97.75) rotate(-45)"/>
  <path class="cls-28" d="M139.54,88.93c-1.27-2.06-.01-3.8-.67-5.85-3.38-.59-6.43.68-9.96-.6,3.55-1.07,7-.24,11.03-.5-.03,2.64.61,4.51-.39,6.95Z"/>
  <path class="cls-17" d="M88.95,139.63c-1.83.44-4.63.97-6.55-.03-.99-1.15-.59-4.53.11-5.64,1.21,1.69-.06,3.26.6,4.5.8,1.48,3.17-.3,5.84,1.18Z"/>
  <path class="cls-7" d="M71,80c.03-.32.06-.69,0-1,3.16.31,6.38-.65,10.09.48-3.37,1.2-6.74.2-10.09.52Z"/>
  <path class="cls-22" d="M113,38c2.66.77,4.54,1.29,6,4,.87.28.86.62,0,1-1.43,4.04-2.95,8.05-4.55,12.04l-1.45-.04c-.9,2.01-2.1,4.13-4.11,5.21-.21,2.09-1.62,3.15-4.24,3.18l-7.65,4.61c-6.77.1-10.23,3.66-12,2-.37-.35-1.02-2.07-1.7-.68-.95,1.94.16,4.22-.4,6.69-2.07-.24-4.03-.27-5.67-.79-1.18-8.77.49-16.39,1.77-24.23l4.4-8.79c.39-.78,2.3.55,2.6.79,2.53-.8,5.5,2.71,4,5,.64,3.04.1,6.46-1.6,10.28,3.79-1.56,7.66-2.65,11.6-3.28-.74-3.07,2.38-4.85,5.08-3.87-.78-2.68-.14-3.73,1.92-3.13,1.57-3.19,2.48-6.81,1.69-10.31l4.31.31Z"/>
  <path class="cls-34" d="M108.89,60.21c-1,1.01-1.04,1.92-.28,2.65,1.05.99,2.6.51,3.39,1.14,1.69,1.54,1.69,2.21,0,2-2.34-.76-4.64-3.28-7.67-1.61-2.42,1.34-4.64,3.57-7.33,3.61-.23-1.63,1.48-2.17,3-2.99l8.89-4.8Z"/>
  <path class="cls-1" d="M123,68c.89,2.64-9.36-1.47-11-2v-2c3.13,2.52,7.64,2.02,11,4Z"/>
  <path class="cls-35" d="M140,70c-3.5.7-6.77.75-10,0-5.22-.93,12.64-.18,10,0Z"/>
  <path class="cls-22" d="M57,34c-1.7,2.31-2.78,1.76-2-1-1.81-1.17-2.37-1.87-.28-1.73,2.66-4.99,3.75-10.08,3.28-15.27-1.98,1.45-4.2,2.75-6.68,3.91l-5.04,5.12-2.63.16c-.27,2.08-1.09,3.12-3.4,4.02,3.53,1.64-.2,6.02-3.25,4.78l1.99,3.62c-2.35.74-1.67,5.16-.99,7.38,1.41-1.33,1.92-.77,1,1,2.03,1.97,2.36,3.3,1,4-.87.24-1.68,2.46-3.58,1.59-4.15-9.25-3.72-21.56,2.58-30.67,3.79-5.47,9.39-10.78,15.45-12.13l8-1.79c.43,6.53,3.64,11.24-.63,14.03,2.37,2.47-1.82,13.38-4.82,12.97Z"/>
  <path class="cls-36" d="M55,33c.62.14,1.15,1.25,2,1,.5,2.28,2.74,3.24,4,5,3.92,5.47,5.67,11.76,8,18,.4,1.07.12,3.34-.16,4.42-.33,1.25-2.86.4-3.84.58-1.03-1.75-3.14-1.87-5-2-1.69-.2-1.92-1.83,0-2-.98-3.48-2.47-5.86-4.49-7.13-.21-.79.03-1.66.72-2.62-1.87-2.86-4.5-5.33-7.23-7.25-2.16,1.66-3.7.49-4-1.99-1.37-1.3-3.28-1.83-5.72-1.58-1.21,1.32-1.97.17-2.28-3.43.58-1.53,3.68-2.73,3.25-4.78.11-.5.26-.94.57-1.17,2-1.52,10.16,2.3,12.72,3.72,1.04-.64,1.49-.16,1.46,1.23Z"/>
  <path class="cls-19" d="M30,32c-1.88,7.35-1.98,15.12,3.47,22.31-2.45,2.11-18.71,7.14-18.47,3.69,5.38.32,10.72-1.68,16.18-4.01-3.74-4.79-2.83-9.9-5.18-10.99l-1-.16c6.5-6.07-.31-6.13,4-10.84.32-.06.67.04,1,0Z"/>
  <path class="cls-5" d="M60,58c-2.1-.9-2.15-3.5-3.15-6.12l-4.87,2.21c1.1-2.15,2.66-4.02,4.24-5.83,1.92,2.93,3.77,6.27,3.77,9.75Z"/>
  <rect class="cls-16" x="44.15" y="48.04" width="9.19" height="1.41" transform="translate(-20.19 48.75) rotate(-45)"/>
  <path class="cls-33" d="M58,60c-2.79-.56-7.34-.88-8-4h1c2.04,2.19,6.26,1.2,7,4Z"/>
  <path class="cls-18" d="M44,46c-1.05,1.05-2.28,3.54-4,4-.76-1.19-.98-2.6-1-4l1.54,1.97c1.24-1.4,2.28-1.87,3.46-1.97Z"/>
  <path class="cls-18" d="M25,42.84c.31.11.7.03,1,.16-2.02,1.64-3.82,3.58-6,5,.96-2.61,2.32-4.34,5-5.16Z"/>
  <path class="cls-8" d="M62,80c-.02,1.66-.61,3.63-1,5-2.09,4.2-8.34,5.38-12.58,5.52-.51.02-.98.24-1.42.48-1.46,2.02-3.67,3.5-5.7,5l.12,1.6c-1.57,1.22-2.95,2.69-4.12,4.4-1.14,7.5,2.43,9.17,10.7,5-.06-2.04.8-1.36,2,0,.38.88,1.83,1.54,1.92,2.73-13.58,4.37-16.33,6.98-27.39-.2-2.04-1.33-3.75-1.29-5.72-3.42-6.14-6.62-12.05-14.27-11.81-23.11,3.25-.87,6.75-.91,10,0,3.86,2.59,9.44.64,13.57,2.82l4.08,2.16c1.97,1.04,2.11-1.24,3.36-1.98,6.45-3.81,12.71-7.56,20.85-8.12,1.04-.07,2.66-1.75,3.11-.36.28.87-.1,1.82.03,2.48ZM15,91c2.68,6.46,7.2,12.27,14.25,15.87-.88-6.65,1.53-11.83,6.1-17.48-2.8.82-4.45,2.44-7.35.61-2.66-1.67-5.85-2.15-9-2-1.53.07-2.91-.21-5.06.14.47.93,1,1.42,1.06,2.86Z"/>
  <path class="cls-25" d="M57,99l-5.18-5.83c-1.38-1.55-2.87-2.63-4.82-2.17,2.02-2.8,10.72-4.22,14-6l-4,14ZM56.37,95.66c1.11-3.46,1.53-5.11,2.83-8.43-2.88.89-5.27,1.2-8.45,3.07,2.18,1.47,3.11,3.06,5.63,5.36Z"/>
  <path class="cls-29" d="M55,115c.37,2.33-.3,2.66-2,1,.16,2.58-2.09,4.09-6.75,4.53,2.1,2.15,3.01,4.3,2.75,6.47.44.31.42.64,0,1-3.69-2.13-5.48-5.83-9.54-9.62,5.11-.75,9.96-1.91,14.99-5.25.5-.33.65,1.48.55,1.87Z"/>
  <path class="cls-32" d="M55,115c3.5,4.43,4.12,10.94,4.09,17.16-.27,1.14-1.17.89-1.09-.16-.87-.28-.86-.62,0-1l-2.15-1.84c-.86-4.48-1.81-8.86-2.85-13.16.62-.41,1.13-1.08,2-1Z"/>
  <path class="cls-14" d="M42.81,99.02l.19.98c-1.55,2.23-3.21,3.23-5,3-.31.38-.55.05-.7-1,.37-2.65,1.99-4.51,4.01-6,.28,1.11.81,2.12,1.51,3.02Z"/>
  <path class="cls-9" d="M50,107h-2c-.63-.3-.62-.63,0-1-2.65,1.52-6.83-3.56-5-6-.19-.23,0-.74-.19-.98,3.18,1.76,5.74,4.65,7.19,7.98Z"/>
  <path class="cls-11" d="M58,131v1c-3.51.3-6.11-2.34-9-4v-1c2.5-1.82,8.29.97,9,4Z"/>
  <path class="cls-15" d="M17,83H7c2.64-1.69,7.32-1.8,10,0Z"/>
  <path class="cls-22" d="M85,3c8.54,1.18,22.86,10.2,27.78,19,.28,2.52,3.71,5.08,1.25,6.95l-1.72-.78c-5.62,1.09-8.53.17-8.71-2.74-3.58-4.14-7.78-7.62-12.59-10.43-.48,2.11-1.48,3.78-3,5l3,10,.8,1.02c2.25-.54,2.66.45,1.2,2.98,1.34,2.26,2.4,4.82,5,6,.87.28.86.62,0,1,2.07,3.03,4.65,5.49,7.72,7.37l-.64,2.76c-1.37,1.88-3.38,2.34-5.08,3.87-4.74,3.45-10.67-1.97-10-7-1.51-1.4-3.09-3.09-4-5-3.43-7.22-6.81-14.55-8.04-23.03-.83-5.72-2.4-12.35.61-17.45,1.25-2.11,4.8.25,6.43.47Z"/>
  <path class="cls-29" d="M114.02,28.95c-.69-.26-21.16-.79-21.02,5.05-.69-1.16-1.92-2.58-2-4,2.56-2.21,5.61-3.77,9.16-4.69l-9.88-7.84.72-2.47c6.62,2.15,11.2,7.75,16.09,13.1,2.08.39,6.17-2.11,6.93.85Z"/>
  <path class="cls-6" d="M132,57c-.28.87-.62.86-1,0l-2.43-.41-4.38-7.07c-2.61-1.96-4.35-4.13-5.2-6.52v-1c7.38.15,12.03,13.13,13,15Z"/>
  <path class="cls-13" d="M113,38c-5.51-1.31-.97,5.09-6,10-.43-.3-.41-.64,0-1,.84-2.76,1.39-5.58.91-8.9-2.26-.31-4.09-.03-5.91-.1,3.18-2.3,7.7-.95,11,0Z"/>
  <path class="cls-34" d="M116,55c.87.28.86.62,0,1-.97-.42-1.9-.95-3-1,1.17-2.6,2.93-5.01,3.79-8.24.36-1.35.6-4.05,2.21-3.76,3.78,2.61.12,10.17-3,12Z"/>
  <path class="cls-25" d="M131,57h1l.97,1.87c-6.22.77-11.75-.62-16.97-2.87v-1l1.27-1.95c4.72,1.15,9.3,2.46,13.73,3.95Z"/>
  <path class="cls-4" d="M100,55c-4.17,3.74-9.96,4.42-15.04,6.75,1.87-5.62,2.85-9.72,5.04-13.75,2.86,2.64,5,8.06,10,7ZM95.41,56.3c-2.54-2.88-3.72-3.59-5.14-5.55-1.8,3.19-2.18,5.56-3.03,8.47l8.17-2.92Z"/>
  <path class="cls-32" d="M107,47c-.09.3.06.69,0,1-.06,1.27-1.25,2.21-1.92,3.13-.04-3.93-7.08-6.3-7.08-10.13,3.14,1.15,6.97,8.96,9,6Z"/>
  <path class="cls-11" d="M55,33c-5.41-1.18-6.92-4.74-14.75-3.78-.58-2.75,2.04-3.23,3.4-4.02-2.74,2.87,5.76,2.04,10.33,5.98,2.22-5.15,4.09-10.15,4.02-15.18,2.94,5.42-1.72,11.28-3,17Z"/>
  <path class="cls-20" d="M45,39.01c-2.18-.13-4.22-1.77-6.94-.89l-.06,6.88c-.76.07-1.02-.9-1.02-1.95l.02-9.05c2.1,6.63,8.59-.1,8,5.01Z"/>
  <path class="cls-27" d="M15,91c3.49,1.54,5.89,9.99,11.73,12.36,1.36-4.19,1.64-7.55,4.25-10.88-.85-.78-2.01-.89-2.98-1.48-.57-.3-.56-.63,0-1,2.9,1.82,4.55.21,7.35-.61-4.57,5.65-6.98,10.83-6.1,17.48-7.05-3.6-11.57-9.41-14.25-15.87Z"/>
  <path class="cls-29" d="M38,103l1.33.38c.3,3.37,2.57,3.84,6.8,1.39l1.87,1.23v1c-3.08,2.91-7.78,3.43-11.74,2.53l1.04-7.53c.46.07.7.56.7,1Z"/>
  <path class="cls-21" d="M28,90v1c-2.78-1.71-6.47-.87-9-3,3.15-.15,6.34.33,9,2Z"/>
  <path class="cls-26" d="M91,30c-2.4-2.63-2.83-6.46-3-10,2.18,2.72,2.36,6.62,3,10Z"/>
  <rect class="cls-15" x="82" y="7" width="1" height="9.5"/>
</svg>