<?xml version="1.0" encoding="UTF-8"?>
<svg id="Layer_1" data-name="Layer 1" xmlns="http://www.w3.org/2000/svg" viewBox="0 0 159 158">
  <defs>
    <style>
      .cls-1 {
        fill: #585858;
      }

      .cls-2 {
        fill: #313131;
      }

      .cls-3 {
        fill: #434343;
      }

      .cls-4 {
        fill: #2c2c2c;
      }

      .cls-5 {
        fill: #2a2a2a;
      }

      .cls-6 {
        fill: #fcfcfc;
      }

      .cls-7 {
        fill: #4a4a4a;
      }

      .cls-8 {
        fill: #3e3e3e;
      }

      .cls-9 {
        fill: #494949;
      }

      .cls-10 {
        fill: #3f3f3f;
      }

      .cls-11 {
        fill: #4d4d4d;
      }

      .cls-12 {
        fill: #626262;
      }

      .cls-13 {
        fill: #2d2d2d;
      }

      .cls-14 {
        fill: #f0f0f0;
      }

      .cls-15 {
        fill: #383838;
      }

      .cls-16 {
        fill: #3c3c3c;
      }

      .cls-17 {
        fill: #6e6e6e;
      }

      .cls-18 {
        fill: #424242;
      }

      .cls-19 {
        fill: #606060;
      }

      .cls-20 {
        fill: #303030;
      }

      .cls-21 {
        fill: #2f2f2f;
      }

      .cls-22 {
        fill: #fbfbfb;
      }

      .cls-23 {
        fill: #f9f9f9;
      }

      .cls-24 {
        fill: #f2f2f2;
      }

      .cls-25 {
        fill: #404040;
      }

      .cls-26 {
        fill: #737373;
      }

      .cls-27 {
        fill: #3b3b3b;
      }

      .cls-28 {
        fill: #363636;
      }

      .cls-29 {
        fill: #282828;
      }

      .cls-30 {
        fill: #636363;
      }

      .cls-31 {
        fill: #3a3a3a;
      }

      .cls-32 {
        fill: #454545;
      }

      .cls-33 {
        fill: #373737;
      }

      .cls-34 {
        fill: #f1f1f1;
      }

      .cls-35 {
        fill: #575757;
      }

      .cls-36 {
        fill: #444;
      }

      .cls-37 {
        fill: #878787;
      }

      .cls-38 {
        fill: #2b2b2b;
      }

      .cls-39 {
        fill: #333;
      }

      .cls-40 {
        fill: #474747;
      }

      .cls-41 {
        fill: #efefef;
      }

      .cls-42 {
        fill: #595959;
      }

      .cls-43 {
        fill: #eee;
      }

      .cls-44 {
        fill: #747474;
      }

      .cls-45 {
        fill: #515151;
      }

      .cls-46 {
        fill: #484848;
      }

      .cls-47 {
        fill: #464646;
      }

      .cls-48 {
        fill: #545454;
      }

      .cls-49 {
        fill: #6b6b6b;
      }

      .cls-50 {
        fill: #353535;
      }

      .cls-51 {
        fill: #393939;
      }

      .cls-52 {
        fill: #292929;
      }

      .cls-53 {
        fill: #ececec;
      }

      .cls-54 {
        fill: #3d3d3d;
      }

      .cls-55 {
        fill: #fafafa;
      }

      .cls-56 {
        fill: #343434;
      }

      .cls-57 {
        fill: #f7f7f7;
      }

      .cls-58 {
        fill: #323232;
      }

      .cls-59 {
        fill: #414141;
      }

      .cls-60 {
        fill: #2e2e2e;
      }
    </style>
  </defs>
  <path class="cls-27" d="M87,155c.87.28.86.62,0,1-1.68.32-3.41,1.43-5,2h-4l-6-2c.46-.67,1.46-.94,3-.8,1.29-1.54,3.64-2,7.05-1.39,2.35-.71,4-.32,4.95,1.19Z"/>
  <path class="cls-22" d="M111.73,61.27c.92-.06,1.05.28.42.99,2.25.77,3.87,2.7,4.92,4.76,1.36-1.55,1.99-.87.93.98,1.99.25,2.99,1.58,3,4,2.07-1.96,3.92-.52,4,2,.88.25.86.58,0,1,1.23,2.19,2.75,3.37,4.55,3.54l.27,1.33c3.01-1.51,4.32-.53,2.31,2.22l6.2,4.62-.24,1.31c3.11-1.07,3.86,1.83.92,2.98.39,3.49.77,6.87,1.14,10.14l-2.17,1.86c-.32,1.51-.93,2.8-2.13,3.89-1.07,2.6-3.03,4.59-5.89,5.97l-4.95,4.14c-.6.11-1.3-.18-1.88-.01-2.6,2.17-4.96,2.65-7.08,1.42-1.81.16-3.49.02-5.03-.41-.35.57-.71.23-1.07-1.02-1.38,2.43-2.62,1.67-2.15-1.06-1.85,1.61-3.4.38-4.66-3.69-2.21-.24-4.66-2.5-1.89-4.18-1.15-2.74,3.5-8.33,5.77-5.05,1.73.17,3.4,1.26,5,3.27,2.88.72,4.55,1.96,5,3.73,3.09,1.06,5.43.72,7-1,1.77-1.87,3.31-4,4.59-6.38l2.41-.62,1-7c-2.16-.52-3.72-2.34-4.66-5.47-11.53-11.88-17.29-17.82-17.29-17.82-4.11-2.25-5.46-4.49-4.04-6.71-3.09-1.98-.32-5.93,2.74-4.11,1.33-1.86,2.66-2.12,2.98.38Z"/>
  <path class="cls-6" d="M19,59c2.02-1.21,7.59-1.13,9.65-.45.25.08.32.69.35,1.45.27-.85.6-.83,1,0,2.4.89,3.4,1.89,3,3l1.09-.77,2.91,5.87c1.24-2.5,2.48-1.83,2.13.91h.87c2.23-.07,3,2.14,2.9,4.04,2.05.36,3.28,1.91,3.1,3.95,2.53.85,5.51,2.05,5.99,4.99,1.55.66,3.33,2.35,3.89,3.89,1.55-1.66,2.3-1.15,1.24.87.93.35.94.75.05,1.18,1.57,2.7-3.09,6.97-4.78,4.16-3.99-.87-7.26-3.65-9.8-8.34l-7.37-8.11c-14.82-16.43-34.12,1.46-17.35,16.84l.14,2.53c1.81-1.03,2.55.31,1.88,2,.72.29.7.63-.01,1-1.38,3.12-5.8,1.99-7.73-.22-3.05-1.21-4.8-3.02-5.23-5.42-1.29.01-1.98-2.07-1.91-3.36-1.15-1.13-2.58-4.02-1-5-1.85-1.39-1.66-7.44,0-9-1.77-1.38-.36-4.66,1.23-6.07-.33-1.56,1.42-4.05,2.86-4.94-.03-.31.09-.77.22-1.05,1.86-1.84,3.73-2.82,5.63-2.96.83-1.56,4.2-2.76,5.07-.98Z"/>
  <path class="cls-24" d="M127.04,43.83c1.82-.02,3.44,1.15,4.87,3.49.27.57,1.05,1.66,1.76,1.76,2.08,1.68,4.57,4.01,4.14,6.71.8.37.74.71-.12,1.01-.65,1.72-3.01,1.73-4.7,1.2-.67,1.07-1.75,2.03-3,2-.28.87-.62.86-1,0-1.54-1.23-2.59-3.4-3.16-6.5l-5.71-3.15-.13-2.29c-1.93-1.09-4.32-.34-6.01.95l.18,2.15c-9.5,6.59-18.15,14.12-25.95,22.57l-2.23-.71c-.69.74-1.69.41-3-1-.88,0-1.08-.36-.58-1.08l-2.51-2.75c1.55-1.65,3.26-3.37,5.12-5.14l7.81-7.21c-1.38-2.53-.62-3.44,2.15-2.92-.34-2.4,1.73-4.19,4-2.7-.85-1.95.98-2.27,2.73-2.31,1.31-3.16,3.81-7.94,7.27-4.86.82-2.18,3.41-3.1,7.77-2.77,2.22-1.97,8.32,1.59,10.27,3.57Z"/>
  <path class="cls-6" d="M69,21c1.68-.56,3.52-1.17,4,1,.81.28.8.61,0,1,1.94.6,3.08,2.29,4,4,1.51-1.44,2.15-.7,1.14,1.23,1.34.91,2.67,1.91,3.08,3.57,2.6-1.33,4.71.4,3.78,3.2,2.62-1.57,3.77.21,2,2.6,2.94-.09,4.29,1.05,4.04,3.42,1.28-1.59,1.94-.97.93.91,2.01,1.13,3.59,2.59,4.74,4.37.9-.25,1.24.07,1.01.98,2.07.61,3.04,1.15,1.27,2.92-1.31.68-2.08,2.76-4,2.7-2.19,2.49-4.87,1.34-4-1.9-1.29-2.02-2.99-3.69-5-5-1.36,1.34-1.94.71-1-1-.97-1.71-2.4-2.92-4-4l-2.33-.32c-7.56-10.7-21.34-18.41-28.5-3.06l-2.17.37c2.67,2.8-6.67,2.66-7.13,2.38-1.3-.77.39-3.22,1.28-4.17.67-3.68,2.85-6.96,5.87-9.19l1.3-2.07c3.4-3.09,6.96-4.69,10.68-4.8,2.58-1.03,7.04-1.95,9,.86Z"/>
  <path class="cls-34" d="M92,130c.97,1.89,3.37,1.88,5.01.89l.99-2c5.6-.42,10.06-5.09,10.07-10.73l1.86-1.17c.4.19.83.63,1.07,1.02l7.45.76c.32.84.11,1.62-.5,2.36-.1,2.4-1.35,5.37-3.34,6.88-.77-.11-1.22,1.52-1.71,1.82-.85,2.63-2.81,4.57-5.58,4.89.19,1.38-2.06,2.97-3.4,2.17-1.99,3.2-3.83,2.99-6.92,1.12-.63,1.77-3.68,1.19-5,0-.48,2.63-1.38,2.37-1.83-.24-2.21.67-4.19-.99-5.93-4.98l-3.97-3.57c-1.17.76-1.88-.06-2.14-2.47-1.05,1.66-1.73,1.17-1.12-.74-.99-.79-1.99-1.79-3-3-2.37,1.06-2.79.26-1.76-2.03-2.03-.51-3.42-1.94-4.16-4.32-2.77,1.64-6.58-1.74-5.06-4.66-5.07-1.69-1.67-5.68,1.99-5.71l3.63.58c7.51,7.55,15.15,14.54,22.92,20.98l.44,2.16Z"/>
  <path class="cls-55" d="M141,59c1.67-.76,4.26-.64,5.19.99,1.57-.63,3.1.85,3.73,2.31.37-.02.7.66,1.08.7,1.19,1.02,2.41,2.48,2,4,1.36.4,2.1,1.62,2,3,1.12,1.06,1.66,3.44,1,5,1.57.64,1.58,5.23,0,6,1.68,1.59,1.34,5.6-1,6,1.59,1.01.37,3.04-1,4l-1.11,1.78c-.6,1.97-1.89,3.67-3.91,4.3-.32.59-.55,1.41-.98,1.92-2.7.85-5.03.85-7,0-.74-1.64-.61-3.57.38-5.79,10.11-2.35,11.51-21.68,2.06-25.95l-.44-2.33c-2.01.34-4.05.66-6.1.97.13,2.35-1.81,4.23-5.81,5.62-2.08,4.1-4.1,4.92-6.08,2.48-1.64.03-2.67-1.32-4-2-1.61-2.08-1.74-3.7,1.07-3.95.76-2.14,1.79-3.26,3.09-3.36-.76-1.68,0-3.42,1.89-2.51-.48-2.31-.43-2.88,1.95-2.17h1l3-1c2.06-1.39,6.52-1.46,8,0Z"/>
  <path class="cls-6" d="M84,2h2c5.87,1.91,9.81,4.88,11.82,8.91,1.05.16,1.77,1.52,2.18,4.09.35.1.74.75,1,1,1.12,3.45.23,4.7-3,3-2.3-.51-4.69-.76-7.18-.75-1.17-4.5-4.3-7.51-8.96-8.14l-.99-2.12c-2.39.82-4.69,1.16-6.88,1.01.18,1.79-.8,3.41-2.94,4.87-1.36,2.89-3.05,4.26-5.06,4.13.33,2.15-8.92,2.63-6.96-1.09.07-2.7,1.91-6.13,4.06-7.91l.2-1.05c3.33-2.46,6.9-4.44,10.7-5.94.32-.06.67.04,1,0,3,.41,6,.4,9,0Z"/>
  <path class="cls-34" d="M50,42.09c3.36-.83,6,.91,7.91,5.21,1.04-1.6,1.71-1.12,1.09.7.64.17.64.83,0,2,2.68,2.74-2.53,7.25-5,4l-2.31.7c-5.72-3.79-17.6-6.39-20.65,1.62l-2.03.67c-.11,2.83-6.05,1.61-6.77-.15-2.27-.71,1.2-5.59,2.88-6.85,1.26-1.24,2.42-2.73,3.98-3.67.33-2.2,11.91-7.58,12.6-7.32.37.14.63.58.85,1.1,3.68-.69,6.16-.03,7.46,1.98Z"/>
  <path class="cls-22" d="M34.87,84c1.92,2.65-.19,4.84-2.3,6.64-.55,2.96-1.74,4.41-3.58,4.36l-1,6c1.04.76,2.04,2.09,3,4,2.53.35,4.84,2.36,5,5l1.84,1.05c2.16.14,2.88.8,2.16,1.95,1.61-.05,1.51,3.5,0,4.01.03,2.38-.05,2.39-2,.99h-1l-4.38-3.01-1.5-1.15c-2.32-.92-3.77-2.24-4.34-3.95-1.69-.39-2.91-1.76-3.67-4.11-.41-.11-.71-.61-1.11-.78l-1.96-3.79c-.41-.82-.09-2.22.96-4.21-2.31-1.07-.91-6.7,1-8-2.58-.45-2.46-1.11,0-2-.3-1.22.94-1.73,2.08-1.76.8-1.4,2.11-2.51,3.93-3.34-1.42-1.51-.79-2.09.96-.88-.47-2.95,1.48-2.76,3.04-.61,2.35-2.53,5.24,1.31,2.87,3.59Z"/>
  <path class="cls-55" d="M103.25,20.98c1.48-.71,2.95.79,3.86,2.03,1.94,1.39,3.8,3.09,5.19,5.06,1.36.37,2.81,1.38,2.51,2.94,1.13,1.17,2.19,2.5,3.18,3.99.04.28.25.9.1,1.13,2.97,5.11-1.01,4.66-5.1,3.87-1.22-.68-1.89-2.02-2-4-2.79-.21-7.44-5.2-7.03-8.03-1.08.45-3.22.02-3.97-.97-1.39.3-2.72.3-4,0-.26,1.93-1.67,3.4-4.21,4.42-2.26,2.73-4.52,3.92-6.79,3.58-1.32-1.01-2.6-2-3.78-3.2-1.73-1.78-1.79-2.71-.16-2.8-2.08-1.9-1.45-2.76,1.28-2.04,1.17-1.49,2.4-2.61,3.7-3.38-.19-1.88,1.22-3.48,3.05-2.41.16-1.04,1.8-1.15,2.92-1.17,1.94-.62,4.11-.76,6.52-.41,2.27-1.57,3.29-.83,4.73,1.39Z"/>
  <path class="cls-57" d="M67,140c.92.33.92.67,0,1,.24,1.69.91,3.03,2,4,2.31.44,4.55,2.7,5,5,1.96,1.18,4.29,1.85,7,2,.66-1.67,2.26-2.73,4.79-3.18l5.19-4.94c.86-2.53,2.22-3.77,4.08-3.72-.49-1.42.78-1.55,1.93-.86,3.74-1.93,5.43-.66,3.93,3.45-.59,1.93-1.56,3.67-2.93,5.25.03.32.06.69,0,1-1.24,1.62-2.57,2.29-4,2-1.19,2.41-4.43,4.39-7,4-3.74,1.29-8.08.38-12,.2-1.73.29-4.13.55-5-1.2-1.39-.27-2.7-.78-4.06-1.15-3.57-3.49-8.79-8.77-5.94-13.85-.56-.46-.22-.79,1-1,.21-.71.55-.67,1,0,1.24.61,2.9,1.27,5,2Z"/>
  <path class="cls-21" d="M42.15,36.21c.09.72-.46,2.58.38,3.14,1.91,1.28,3.96-.41,5.47-1.36,2.44-.55,2.97.64,2.08,2.85,1.7.46,1.69.93-.08,1.24-7.19-3.19-14.37.29-20.92,4.24-.67-5.43,10.57-5.22,11.98-10.02.25-.81.61-.83,1.09-.09Z"/>
  <path class="cls-50" d="M127.91,42.93c1.53,1.22.96,1.8-.86.9-4.52-2.07-14.12-5.06-18.04-.81-1.99.2-2.35-.21-1.08-1.25-1.67-2.83,1.35-4.4,3.08-1.77,0-2.1.96-1.59,2,0,.91-.17,3.21.07,4.38-.66.81-.51-.09-2.17.72-3.2,3.54,4.85,6.24,3.34,9.81,6.8Z"/>
  <path class="cls-56" d="M65.94,152.85c-4.91-1.32-7.32-6.99-7.94-11.85-.58-1.82.12-2.98,2-2-.72,8.73,5.66,9.59,5.94,13.85Z"/>
  <path class="cls-56" d="M99,10c.1.95-.29,1.25-1.18.91-5.18-6.38-12.68-6.38-11.82-8.91,5.2,0,10.12,3.67,13,8Z"/>
  <path class="cls-33" d="M52.68,134.96c1.58,1.14,1.07,1.72-.77.88-3.43-.55-5.39-3.86-6.81-6.85-1.58-1.34-1.01-1.95.87-.89,2.39-2.1,8.29,4.28,6.71,6.85Z"/>
  <path class="cls-51" d="M74,2c4.47-.59-12.52,7.55-10.7,5.94.81-4.18,6.52-5.13,10.7-5.94Z"/>
  <path class="cls-2" d="M58,19c.75-.93,1.56.11,2,1.14-3.91.76-6.77,4.28-10.68,4.8,1.95-3.11,5.19-5.04,8.68-5.95Z"/>
  <path class="cls-56" d="M123.12,116.99c.2.92-.3,1.43-.93,1.69-.58.25-2.24-.04-2.47.65l-.86,2.61c-.91.39-1.22.12-.91-.83-2.53-4.68-5.15-.15-6.94-3.12,4.02-.52,8.21.12,12.12-1.01Z"/>
  <path class="cls-58" d="M103.91,20.03c1.79,1.3,1.36,1.98-.65.94-3.56-.52-7.74-1.3-11.25-.98-.81-.29-.8-.62,0-1l.27-1.25c1.53.58,3.44,1,5.73,1.25,1.74,0,2.17-1.75,3-3,.55,1.51,1.48,3.12,2.91,4.03Z"/>
  <path class="cls-20" d="M140,99c2.39.29,3.39.96,3,2l-5.03,2c.84-3.96,1.31-7.94,1.03-12,3.49-.59,3.82,2.08,1,8Z"/>
  <path class="cls-33" d="M48.02,27.02c-1.91,3.04-3.88,6.17-5.87,9.19l-1.09.09c1.07-3.67,2.89-8.63,6.96-9.29Z"/>
  <path class="cls-27" d="M25.11,50l-2.88,6.85c1.36,1.55-2.08,2.12-3.23,1.15-.87-.28-.86-.62,0-1,6.28-10.62,4.67-5.58,6.11-7Z"/>
  <path class="cls-20" d="M103.92,136.88c1.66-.98,2.19-.47,1.08,1.12-2.52.4-2.86,3.09-4.07,4.75-.23-.85-.71-1.63-.95-2.22-.47-1.2-1.99-1.39-2.98-1.23-1.94-.09-1.92-.85,0-1.3,2.27,0,4.74-.62,6.92-1.12Z"/>
  <path class="cls-15" d="M40,117.01c.85-1.58,1.52-1.23,2.02,1.05,2.76.27,3.84,5.02.99,5.98-.25.86-.53.82-.83-.07l-4.18-5.98c.47-.48,1.25-1.16,2-.99Z"/>
  <path class="cls-9" d="M4,75c-.11,2.98-.58,6.12,0,9-.2,2.36-1.21,2.2-2,0v-9c.44-2.39,1.31-2.38,2,0Z"/>
  <path class="cls-39" d="M63.09,8.99c-.54,2.8-2.2,5.63-4.06,7.91-.23.87-.54.84-.91-.04.2-3.18,1.37-7.67,4.96-7.88Z"/>
  <path class="cls-18" d="M118.86,121.94c-.77,2.32-.99,6.52-4.25,6.06.23-2.63,1.9-4.75,3.34-6.88.19.34.66.53.91.83Z"/>
  <path class="cls-15" d="M138.91,54.93c.14,1.46.11,1.76-1.08.86-1.37-2.25-3.43-4.15-4.14-6.71,3.09.42,4.89,2.82,5.23,5.85Z"/>
  <path class="cls-29" d="M112.9,129.82c.23,1.51.08,3.15-1.31,4.28-.85.69-2.2.94-3.44.68-.38,1.14-1,1.11-.83-.07,1.92-1.23,3.5-3.98,5.58-4.89Z"/>
  <path class="cls-51" d="M137.7,56.8c.5-.73,1.27-.67,2.3.2,1.58-.55,2.8.31,4,1-.68.45-1.68.78-3,1h-8c-.87-.28-.86-.62,0-1,1.5-.37,3.16-1.11,4.7-1.2Z"/>
  <path class="cls-51" d="M12.13,97.78c-3.17.27-5.35-1.53-6.01-4.73-1.02-1.31-.45-1.77.78-.7,1.17,2.05,4.65,2.97,5.23,5.42Z"/>
  <path class="cls-38" d="M66,18c1.38-2.59,4.04-.66,3,2,.87.28.86.62,0,1-2.57-1.31-6.09-1.42-9-.86-.74-.23-1.45-.58-2-1.14l.13-2.13.91.04c.1,3.65,4.55,2.18,6.96,1.09Z"/>
  <path class="cls-60" d="M158,82c-.88,2.04-1.55,1.71-2-1v-6c-.12-.66.26-.96,1-1,1.74,2.32.85,5.2,1,8Z"/>
  <path class="cls-13" d="M129.95,112.86c1.05-2.5,3.94-4.31,5.89-5.97.86,3.71-2.58,5.64-5.89,5.97Z"/>
  <path class="cls-21" d="M22,105c-2.41-.99-1.89-4.23-5.08-4.08-.52-.84.22-1.4,2.21-1.71l.73-1.21c-.11-.31.04-.68.01-1,.32-.87.7-.86,1.12,0-.13,2.73.62,5.28,1,8Z"/>
  <path class="cls-54" d="M19.87,98c.66,1.9-1.72,2.08-2.94,2.92-2.66.13-4.22-.72-4.79-3.14,2.69-.23,5.56,2.81,7.73.22Z"/>
  <path class="cls-58" d="M94,152c-.99,2.88-4.33,3.49-7,4v-1c2.53-.88,4.78-2.56,7-4,.87.28.86.62,0,1Z"/>
  <path class="cls-39" d="M8.08,63.99c.25,2.24-2.12,3.34-2.86,4.94-.3.84-.66.83-1.08.02,1.11-1.93.65-5.53,3.93-4.96Z"/>
  <path class="cls-39" d="M84,2c-2.57,1.7-6.43,1.71-9,0,3.02-.84,5.98-.84,9,0Z"/>
  <path class="cls-46" d="M158,82c.11,2.07-.44,4.02-1,6-1.32,2.18-2.5,1.59-2-1,1.15-1.79,1-3.94,1-6l2,1Z"/>
  <path class="cls-36" d="M13.92,58.66c1.94-.12,1.91.71.01,1.32-1.66,1.38-3.35,3.12-5.63,2.96,1.04-2.33,3-4.16,5.62-4.28Z"/>
  <path class="cls-58" d="M5.23,68.93c-.74,1.62-1.16,4.32-1.23,6.07h-2c0-2.55.99-4.05,2.15-6.05l1.08-.02Z"/>
  <path class="cls-18" d="M148,99c-1.18,1.42-3.38,1.36-5,2-.91-.81-2.27-.95-3-2,.28-.87.62-.86,1,0,4.22,0,4.83-1.59,7,0Z"/>
  <path class="cls-51" d="M131.92,47.32c-2.37.29-3.19-2.73-4.87-3.49l.86-.9c2.35.21,4.19,2.13,4.01,4.39Z"/>
  <path class="cls-2" d="M26.78,109.89c1.48,1.26.92,1.81-.85.82-2.18-.63-3.15-2.76-2.82-4.93,2.05.53,2.43,2.85,3.67,4.11Z"/>
  <path class="cls-50" d="M19,57v1c.87.28.86.62,0,1-1.73.06-3.38.62-5.07.98v-1.32c1.37-1.27,3.23-1.71,5.07-1.66Z"/>
  <path class="cls-56" d="M57.17,137.71c1.91.34,1.8,1.1-.17,1.29-2.07-.36-4.18-1.16-5.09-3.16l.77-.88c2.05-2.38,6.85-.1,4.49,2.75Z"/>
  <path class="cls-58" d="M45.97,128.1c-.43.13-.75.46-.87.89-2-.82-2.72-2.96-2.91-5.01l.83.07c2.31-2.96,5.26,1.77,2.96,4.06Z"/>
  <path class="cls-52" d="M4,84l1,5c-.28.87-.62.86-1,0-.81-1.67-2-2.97-2-5h2Z"/>
  <path class="cls-21" d="M31.12,113.84c-2.22.07-4.31-1.05-5.19-3.13l.85-.82c1.32,1.36,3.77,1.79,4.34,3.95Z"/>
  <path class="cls-25" d="M37,118c-2.11,0-4.18-.75-4.38-3.01,1.93.21,4.36.72,4.38,3.01Z"/>
  <path class="cls-51" d="M129.95,112.86c-.96,2.29-2.16,3.65-4.95,4.14.26-2.12,2.79-3.92,4.95-4.14Z"/>
  <path class="cls-20" d="M144,58c.89.51,2.23-.09,3,1,.46.93.19,1.26-.81.99-1.51-.61-3.58-.99-5.19-.99.46-1.22,1.91-1.05,3-1Z"/>
  <path class="cls-60" d="M148.98,97.08c.93-1.74,2.04-3.49,3.91-4.3.09,1.26.33,2.92-.85,3.76-.84.6-2.08.5-3.06.54Z"/>
  <path class="cls-50" d="M6.91,92.36c-.02.46-.27.83-.78.7-1.44-.79-1.5-2.76-2.13-4.06h1c.77.78,1.46,2.3,1.91,3.36Z"/>
  <path class="cls-5" d="M157,74c-.3.37-.63.7-1,1-.42-1.65-.94-3.29-1-5,.28-.87.62-.86,1,0,.71,1.19,1.05,2.7,1,4Z"/>
  <path class="cls-2" d="M115.84,30.95c-.24.89-.58.89-1.02.06-1.13-.62-1.79-1.91-2.51-2.94.89-.14,1.8-.07,2.6.45s.61,1.8.93,2.43Z"/>
  <path class="cls-52" d="M100,15c-1.77-.52-1.24-3.16-2.18-4.09.36-.35.75-.65,1.18-.91,1.02,1.53,1.4,3.02,1,5Z"/>
  <path class="cls-25" d="M149.92,62.3c-1.67.09-2.47-1.8-3.73-2.31.33-.28.6-.61.81-.99.45.64,2.28-.01,2.59,1.02.25.84.47,1.54.33,2.28Z"/>
  <path class="cls-45" d="M107.12,23.01c-1.5,0-2.68-1.51-3.86-2.03.65.09.74-.45.65-.94.48.31,2.86-.43,3.21,2.97Z"/>
  <path class="cls-13" d="M98,148c-.21-2.39,1.75-3.62,2.93-5.25.62,2.3-.79,4.43-2.93,5.25Z"/>
  <path class="cls-28" d="M154,67c-.29.78-.62.76-1,0-.92-1.2-1.86-2.46-2-4,2.25.21,2.96,2.23,3,4Z"/>
  <path class="cls-29" d="M157,88c-.43,1.51-1.3,2.89-3,3l1-4,2,1Z"/>
  <path class="cls-27" d="M108.14,134.77c-.46,1.77-1.4,2.95-3.14,3.23-.34-.4-.7-.77-1.08-1.12l3.4-2.17c.36-.41.68-.57.83.07Z"/>
  <path class="cls-4" d="M59,138c.9-.48,1.57-.48,2,0l-1,1-2,2c-.09-.7-.85-1.31-1-2l.17-1.29c.56-2.61,1.46-2.33,1.83.29Z"/>
  <path class="cls-25" d="M118,35c-2.31.28-2.63-2.26-3.18-3.99l1.02-.06c1.4.54,1.99,2.81,2.16,4.05Z"/>
  <path class="cls-38" d="M98,149c-.4,1.96-1.97,3.38-4,3v-1c1.27-.82,2.4-1.94,4-2Z"/>
  <path class="cls-28" d="M75,155.2c-.83.3-1.95,1.13-3,.8-.45-.15-1.57.14-1.79-.65-.13-.47-.27-.92-.21-1.35,1.68.33,3.3.96,5,1.2Z"/>
  <path class="cls-9" d="M156,70h-1c-.94-.79-1.57-1.86-2-3h1c1.79-.03,1.27,1.77,2,3Z"/>
  <path class="cls-60" d="M140,57c-.27.09-.49.64-.8.69-.71.11-1.09-.8-1.5-.89.09-.32-.02-.71.12-1.01.2-.41.53-1.16,1.08-.86.08.71.73,1.5,1.09,2.07Z"/>
  <path class="cls-24" d="M106,65c.92,2.75,4.24,3.61,5.99,5.91,9.95,13.06,14.54,9.2,20.01,24.09l-1,7c-1.31,3.26-2.91,7.58-7,7-1.52,1.74-3.85,2.08-7,1-4.48-.67-8.38-2.44-10-7-1.12-1.66-.57-2.27,1.2-1.28.7-1.99,2.12-2.93,2.96-.73,3.82,2.5,7.34,4.3,11.85,2.01,3.98-6.12,1.76-11.63-4.88-14.06l-.03-2.31c-3.49,1.63-5.29-1.49-5.09-4.63-2.58,1.55-3.65.31-1.88-2.07l-1.57.06c-2.18-2.79-4.4-5.55-6.66-8.28-4.03-.16-2.37-2.61-.04-4.88-1.93-2.55,1.56-4.79,3.16-1.82Z"/>
  <path class="cls-55" d="M71,100c2.66-.42,2.93.02,1.36,2.21,1.62.32,2.85,1.6,3.55,3.05,2.17-1.57,2.66-.72,1.2,1.49,2.22.75,3.62,1.62,4.08,4.05,2.18-2.16,4.57.6,3.8,3.2,1.11.2,1.84,1.16,2.18,2.86,2.91.67,4.2,2.05,3.86,4.16,1.46-1.38,1.97-.83.96.98,1.95.64,3.28,1.64,4,3,.14-.93,1.16-1.1,3.06-.51l1.94-.49c3.12-1.58,4.59-4.44,4.4-8.58l2.38.5,2.15,1.06c1.02,7.34-5.53,14.21-12.92,13.91-1.56,1.04-4.2,1.01-5.01-.89-3.9-.68-6.25-3.99-9.06-6.94-5.61-5.9-12.32-11.7-17.93-16.78-1.51.64-1.54.09-.08-1.65-1.6-2.67,2.35-6.74,5.07-4.64h1Z"/>
  <path class="cls-55" d="M120.01,48.05c7.46,3.75,8.62,2.73,8.99,11.95-.06,1.16-1.43,1.4-1.95,2.17-1.39.09-2.37-1.62-2.92-5.12l-3.13-3.05c-2.43-.01-4.73,0-7,1.08.46,1.43-1.39,2.25-2.76,2.68.13,1.43-.65,3.31-2.5,3.12-1.32,1.14-2.67,2.19-2.74,4.11-1.36-.39-2.27,1.47-3.16,1.82-.91,2.53-2.6,4.23-5.05,5.09,1.53,2.88-2.13,5.48-4.88,4.83.15.91-.21,1.81-1.07,2.71-1.4-.5-2.63-1.38-3.68-2.63-1.83.85-2.31-.09-1.17-1.81-1.06-.46-1.82-1-1-2l4.26-3.7c1.86-1.62,2.47-4.19,5.31-4.81.87-3.55,17.52-15.44,18.44-15.5,1.61-1.41,4.18-2.01,6.01-.95Z"/>
  <path class="cls-34" d="M141,99h-1c.03-2.78.89-5.77-1-8-.36-.86.16-2.25-.92-2.98-1.8-2.92.43-2.16,2.8-.96-.09-1.51,1.72-2.49,3.2-2.89,1.24-2.78,1.35-5.06,1.1-8.24-1.24-.68-2.55-2.03-3.11-3.25-2.84-.39-5.53.06-8.07,1.34-1.85,4.59-6.1,6.56-9.02.99-.05-.32.03-.67,0-1,3.03.92,2.95-2.95,5.03-4.15l6.87-3.96c2.05-.27,4.08-.59,6.1-.97,7.35,2.58,9.66,9.95,8.38,17.53-2.92,17.27-11.32,8.13-10.38,16.54Z"/>
  <path class="cls-41" d="M118.09,86.63c2.51,1.93,1.37,4.36-3.41,7.28,1.12,2.35-.17,3.97-2.77,2.89-.53,2.05-1.76,3.69-3.71,4.92-.47.27-.81.96-1.2,1.28-2.8.34-3.31,4.11-5.77,5.05.76,2.59-1.18,3.34-3.41,2.85,1.32,2.78-.4,3.95-3,2.89l-4.54,5.34-3.09-2.26c-1.8-1.63-.99-3.53.82-4.86l-.34-1.3c2.52-3.43,5.66-6.47,9.41-9.11,4.48-7.36,9.79-13.89,15.94-19.59,1.93,1.18,3.07,3.59,5.09,4.63Z"/>
  <path class="cls-54" d="M107.78,115.92c-3.35,2.27-.52,7.16-6.78,8.08-1.7.71-4.51,1.17-4-1,1.07-1.24,2.67-2.23,4.8-2.99-.02-2.41.05-4.77.2-7.1-.38-1.98-.01-2.2,1.12-.68l4.66,3.69Z"/>
  <path class="cls-15" d="M135,74c-.1,2.94-3.02,4.26-5.19,5.87-2.33.06-4.46-2.62-4.81-4.87l4.08,2.87c1.46-1.55,3.64-2.76,4.94-3.86.3-.46.63-.45.98,0Z"/>
  <path class="cls-13" d="M137.93,85.12c3.18,0,4.17.65,2.96,1.93-.92-.02-2.65-.16-2.8.96-2.3-1.58-4.72-3.42-5.96-5.93,2.24.33,4.02,1.72,5.8,3.03Z"/>
  <path class="cls-20" d="M117.07,67.02c-1.85-.77-4.13-2.92-4.92-4.76,1.47-.26,3.03.08,3.9,1.26.78,1.05.96,2.3,1.01,3.51Z"/>
  <path class="cls-60" d="M103.12,112.23c.32.87-.66.64-1.12.68-2.28,1.44-3.99.75-4.18-2.02.88-1.63,1.69-2.19,3.41-2.85.41,1.34.74,3.27,1.89,4.18Z"/>
  <path class="cls-9" d="M122.07,68.05c-.77,1.18-1.07,2.56-1.07,3.95-1.54-.78-2.46-2.45-3-4l4.07.05Z"/>
  <path class="cls-59" d="M117,110c2.38.04,4.93.33,7-1-.62,4.09-4.75,1.34-7,1Z"/>
  <path class="cls-28" d="M112.13,57.8l-.4,3.47-2.98-.38c.93-.8.67-3.16,2.5-3.12.39-.73.63-.77.88.03Z"/>
  <path class="cls-49" d="M131,102c.35-2.32-1.05-5.4,1-7,.87,2.37-.22,5.06-1,7Z"/>
  <path class="cls-14" d="M52.39,92.08c3.05.55,2.81.99.59,2.91,3.5.92.97,4.74-1.97,3.01-1.91,1.68-2.69.91-4-1-2.59.25-7.6-3.57-4.88-6-1.41-1.03-2.72-2.34-3.93-3.94-2.35,1-4.5-.41-3.31-3.05-.79-1.26-1.39-2.92-2.87-3.59-1.5-.08-2.73-1.16-3.68-3.25l-2.33-2.3c-.21.89-.54.94-1,.14-1.12-1.6-2.79-2.6-5-3,.41,2.68-.24,2.94-2,.84-.55,1.16-1.83,2.4-3.03,2.1-1.16,2.42-1.15,4.44.03,6.06,2.91.61,3.21,2.09,1,4,1.73.31,2.73.98,3,2,1.58-.81,2.58-.81,3,0-.18.59.25,1.44,0,2-1.42,1.54-2.22,3.65-2.42,6.33l-1.58-.33c-4.73-3.03-7.17-7.19-8.33-12.68-.78-3.68-.7-5.25,1.19-8.4,3.33-5.54,8.69-8.08,15.41-6.39,6.34,1.6,10.73,6.94,14.72,11.59,1.93,2.25,3.95,3.75,5.46,6.59,1.37,2.57,4.98,3.66,5.94,6.37Z"/>
  <path class="cls-55" d="M74,44c.75.14,1.24.59,1.48,1.31.46,1.34-7.81,11.52-10.06,11.53-3.45,6.94-9.08,12.56-16.89,16.88l-2.26-.71c-.32,2.68-1.99,1.79-3.38.05-1.94-.35-3-2.13-2.9-4.05-.89-1.74-.24-2.21,1.36-1.04l4.75-4.96c-2.35-2.39-.51-4.25,1.9-1.91-.09-2.27.68-3.61,3.16-3-1.96-2.09.35-4.21,2.83-4.09,2.35-.2,3.89-2.05,5-4,.12-.92.45-1.58,1-2,.05-2.45,1.6-4.21,4.08-2.7.91-2.02,3.02-3.29,4.99-4.19-.12-1.32.88-2.09,1.93-1.12,2.38-2.97,6.32,1.98,3,4Z"/>
  <path class="cls-57" d="M54,54c-.3,1.81-1.84,2.82-2.83,4.09-1.86,2.72-3.74-.14-4.95-2.3-2.53-1.38-5.03-2.72-7.22-.79.58,2.47-.23,2.62-2.18,1.05-.59,1.12-1.56,2.22-2.82,1.95,1.18.79,1.37,2.41,0,3-.81,1.01-2.14.68-4-1-.31-.08-.7.11-1,0-2.81-1.37-2.64-1.64,0-3,0-6.15,7.2-8.5,13.23-7.71,4.28.56,8.68,1.95,11.77,4.71Z"/>
  <path class="cls-11" d="M51.99,76.96c-.05,1.68-.05,3.36,0,5.03-2.79-.25-4.47-2.84-5.99-4.99-1.09-1.51-.52-1.96.99-.82,1.76-1.69,3.71-1.12,5,.77Z"/>
  <path class="cls-58" d="M36,59c-1.9,6.48.82,2.8,1,9.1l-4-5.1c-1.73-1.93-1.57-2.17,1-2v-3c1.01-1.35,2.72-.86,2,1Z"/>
  <path class="cls-47" d="M29,57v3c-3.21-1.16-6.62-1.11-10-1v-1c1.21.3,2.37-.55,3.23-1.15,2.25.12,4.92,2.08,6.77.15Z"/>
  <path class="cls-8" d="M22,89c-1.16,2.55-.87,5.3-1,8h-1.12c-1.01-.17-1.19-1.56-1.88-2,2.1-1.15.66-6.58,4-6Z"/>
  <path class="cls-22" d="M58.21,89.7c4.46,1.73-2.29,8.07-5.24,5.3.04-1.02-.25-1.97-.59-2.91,2.5.17,4.56-1.69,4.78-4.16,2.76-1.25,3.57.18,1.04,1.78Z"/>
  <path class="cls-50" d="M63.21,84.98c4.02,2.21-2.52,8.93-5,4.72-.19-.61-.12-1.94-1.04-1.78.04-.41,0-.77-.05-1.18,2.21.29,3.99-1.28,6.09-1.77Z"/>
  <path class="cls-5" d="M55.88,85.88c-2.21.02-3.83-1.71-3.89-3.89,1.19.11,2.74-.21,3.56.98.56.81.43,1.96.33,2.91Z"/>
  <path class="cls-31" d="M46.28,73c2.89-.14,3.23,1.87.71,3.18-.27.34-.61.61-.99.82-1.46-.93-2.71-2.23-3.1-3.95l3.38-.05Z"/>
  <path class="cls-18" d="M34,61c0,.71-.79,1.31-1,2-.76-.97-2.38-1.75-3-3l4,1Z"/>
  <path class="cls-48" d="M40,69h-.87c.24-.41.61-.37.87,0Z"/>
  <path class="cls-34" d="M81,41c1.63.99,3.12,2.29,4,4,.34.22.79.65,1,1,2.03,1.25,3.77,2.96,5,5,1.27.79,2.39,1.92,4,1.9-.49,1.13-1.48,1.93-2.15,2.92-2.05,2.52-3.64,3.26-4.77,2.23-1.59,1.09-2.01.46-.81-1.12l-5.92-6.01c-2.05-.67-2.81-1.68-2.29-3.02-2.17,2.11-4.85-1.55-5.05-3.88-.13-1.83-1.31-3.33-3-4-1.88,1.25-2.02-.17-.99-1.86-1.4.35-2.3-1.64-2.89-2.97-4.05-1.44-7.09-1.5-9.12-.18-.18.92-.52.89-1,0-.95,1.75-1.96,2.75-3.03,3,2.7,4.42-.28,6.62-3.89,2.85-1.04-.65-1.91-1.6-2.08-2.85.98-4.44,5.24-9.13,10.08-10.51,9.52-2.7,12.78,3.72,16.43,5.96,3.23,1.99,5.24,4.42,6.5,7.54Z"/>
  <path class="cls-34" d="M82.42,70.92c.28.19.44.76.58,1.08l4,3c.39.6.83,1.18,1.17,1.81,3.75,2.97,8.03,6.8,10.44,11,1.92.54,1.31,2.21-1.81,4.99,1.64,2.27.26,2.97-1.8,1.2l-1.92,1.61c-8.66-8.1-17.07-16.54-25.22-25.31l.14-2.3c-2.21-1.91-2.88-3.58-2-5-1.21-1.44-.67-2,1-1,1.06-1.6,3.39-4.38,4.24-2.05l6.86,6.3c1.94.65,3.38,2.21,4.32,4.67Z"/>
  <path class="cls-20" d="M71.91,56.8c2.89,1.99,5.54,4.25,7.96,6.78,2.22-2.27,3.94-2.46,5.16-.55-.12,4.7-5.04,3.01-2.61,7.9-2.96-.16-10.11-9.96-12.1-10.41-1.1-.25-2.23.97-3.32,1.49-3.46-2.45,1.79-8,4.91-5.2Z"/>
  <path class="cls-15" d="M107.92,41.77c.47.15.7.97,1.08,1.25-3,.35-5.03,2.83-7.27,4.86-.69.6-.96.42-.83-.51-2.22-2.4.62-6.38,3.25-7.31-.53-2.08-.23-3.13.88-3.14,2.71-.26,3.46,2.66,2.88,4.85Z"/>
  <path class="cls-51" d="M92.85,55.81c-1.87,2.75-4.19,7.01-7.81,7.21-3.41-1.78-.07-7.32,3.04-4.98l4.77-2.23Z"/>
  <path class="cls-18" d="M100.9,47.38l.83.51c-.96.88-1.44,1.64-2.73,2.31-.53-.92-.98-1.89-1.27-2.92.73-2.7,2.14-2.4,3.17.1Z"/>
  <path class="cls-54" d="M120.01,48.05c-1.93-.2-4.07.82-6.01.95.28-1.33,1.48-1.99,2.56-2.03,1.35-.05,3.14-.4,3.45,1.08Z"/>
  <path class="cls-27" d="M86,73c.46.5.62,1.42,1,2-1.89.02-3.27-1.34-4-3,.99.21,2.19.32,3,1Z"/>
  <path class="cls-46" d="M133,59c-.35.43-.75.8-1.36,1.29-.4.32-1.15.43-1.64-.29.73-.95,1.81-1.71,3-2v1Z"/>
  <path class="cls-53" d="M99,28c1.53-.18,3.19-.19,4.97-.03,3,2.05,5.63,4.67,7.03,8.03,1.05,2.14,1.05,3.47,0,4-1.07.5-2.49.7-3.08,1.77-2.03-.64-2.26-3.09-2.88-4.85-1.73-.7-3.41-1.81-5.03-3.32-3.27.06-5.99,1.15-8.15,3.27-1.67,2.58-2.33,2.85-4.85.73-.46-.73-1.34-2.1-2-2.6,3.24-3.44,6.45-6.54,11-8,1.51-.12,2.51.21,3,1Z"/>
  <path class="cls-33" d="M100,33.6c1.65.65,1.79.93,0,1.4-3.51-1.07-8.48,1.32-8.96,6.02-1.74-.46-3.1-1.92-4.04-3.42,4.89.89,5.24-6,13-4Z"/>
  <path class="cls-50" d="M74,18c-.18,1.37-.74,2.65-1,4-1.45.13-2.74-.36-4-1v-1c.21-2,2.07-3.51,4.09-3.05,1.72-1.32,2.28-.69.91,1.05Z"/>
  <path class="cls-20" d="M96.72,46.3c-2.09-.47-3.94-2.55-4.74-4.37,2.39.48,5.36,1.52,4.74,4.37Z"/>
  <path class="cls-29" d="M81.06,29c-.15.91.22,1.89.16,2.8-1.11-1.13-3.73-1.65-3.08-3.57,1.04-.07,2.04.22,2.92.77Z"/>
  <path class="cls-12" d="M91,51c-2.02-1.27-3.78-2.93-5-5,2.58.25,4.75,2.42,5,5Z"/>
  <path class="cls-38" d="M77,27c-1.65-.97-3.18-2.24-4-4,1.25-.21,2.64-.07,3.28,1.22.4.81.59,1.82.72,2.78Z"/>
  <path class="cls-30" d="M85,45c-1.56-.99-3.28-2.21-4-4,2.23.01,3.99,1.77,4,4Z"/>
  <path class="cls-24" d="M69.85,80.86c2.59-2.48,5.98,1.45,4.15,4.14.7.64,1.21,1.56.77,2.34-1.08,1.9-7.64,8.42-9.77,6.66l-5,4,1.07,2.1c-3.15,3.69-6.14,7.46-8.95,11.33l-2.12.57c-2.19,1.31-1.68,3.97-1.04,6.08l2.22.33c1.28,11.77,13.07,12.31,21.62,7.85l2.2.07c-.34-2.06,1.21-2.25,2-.34.45.07.73.62,1.12.74l2.03,2.22c-1.63,1.51-3.42,3.12-5.39,4.84-1.41,3.05-3.12,5.59-5.93,3.22l-1.43,1.92c-2.11-1.91-4.92-2.23-8.4-.95l-1.83-.29c-.7-1.85-3.38-1.61-4.49-2.75l-6.71-6.85c-1.11-1.14-1.13-3.46-2.96-4.06-.21-2.01-.99-3.95-.99-5.98-1.45-2.51-1.45-5.54-.02-9.07-.9-.17-.86-.49,0-.97.3-2.98,2.36-5.3,6.16-6.96-.31-2.41.64-3.43,2.85-3.07.45-.87,2.34-1.5,1.97-3.01,2.08-1.53,5.37-2.25,5.24-5.3,2.65.1,4.65-2.18,5-4.72.05-.34.4-.75.76-.76,2.3-3.37,4.25-4.49,5.87-3.35Z"/>
  <path class="cls-22" d="M79.4,88.46c1.51,2.25.9,3.03-1.66,3.45.77,2.67-3.96,8.31-6.74,7.09-.12.61-.31,1.03-1,1-2.2.9-3.26,3.3-5.07,4.64-2.18,1.65-3.35,3.39-3.52,5.22-2.23,1.04-4.31,2.42-6.22,4.14-.57,2.27-.64,4.61-.19,7,2.47-1.67,3.28-.67,2,2l2.99,1.09c2.36-.43,4.36-.44,6.01-.02.43-1.54,1.68-2.56,3.18-3.07.39-2.31,2.04-1.93,3.06-.03.71.45,1.44,1.2,1.76,2.03,1.69.71,2.54,2.14,1,3.34-1.54,5-16.06,5.33-20.14,2.7s-4.49-7.05-5.89-10.96c-.73-2.18-1.12-4.82,1.04-6.08.43-4.25,4.14-6.75,7.31-9.61,1.29-1.16,1.81-3.25,2.69-4.39l5-4c2.89-3.02,7.44-6.44,9-9,2.11-1.79,6.45.72,5.4,3.46Z"/>
  <path class="cls-14" d="M68.83,137.02l.62.91c2.12-1.81,3.65-.16,4.6,4.93,1.56.47,2.88,1.18,3.95,2.14,1.39-.17,2.72-.17,4,0,.82-.75,1.82-1.75,3-3-1.33-1.41-.77-1.92,1-1,.47-2.85,1.04-5.24,4.17-3.24l1.83.24c1.71.43,2.73,1.15,3.07,2.16-2.44,6.4-6.98,11.71-14.07,11.84-2.7-.17-5.03-.84-7-2-2.61-.33-4.66-2.4-5-5-1.14-.91-1.81-2.24-2-4,.05-.28.06-.72,0-1-1.96-.58-3.62-1.24-5-2-.33.03-.67,0-1,0h-2c2.64-2.03,6.63-1.07,9.83-.98Z"/>
  <path class="cls-8" d="M64.93,104.64l.08,1.65c-.97.39-2.48.71-2.84,1.48-.75,1.58.36,3.04.86,4.22-1.16-.07-2.18-.93-3.65-.85-.95,1.87-1.83,3.32-3.37,3.86-.76.8-1.03.47-.81-1,2.23-3.95,6.12-6.7,9.74-9.36Z"/>
  <path class="cls-2" d="M84.23,132.78c-.82,1.54-2.34,1.78-4.59.72-1.77,2.35-4.12,3.63-4.89.3-.45-2.46,4.85-4.16,3.36-7.06,2.54.83,5.72,3.14,6.11,6.04Z"/>
  <path class="cls-27" d="M90.17,137.76l-4.17,3.24c-2.62-1.55-4.36-6.04-1.77-8.22,2.39.77,4.03,3.52,5.93,4.98Z"/>
  <path class="cls-28" d="M72.24,120.97c-1.01-.28-2.06-.31-3.06.03-.28.4-.58.37-.88-.04.78-1.34-.08-2.87-.21-4.3,1.5,1.22,4.25,1.66,4.16,4.32Z"/>
  <path class="cls-36" d="M97,138v1.3c-.42.63-1.21.79-1.93.86-1.35-.14-2.7-.77-3.07-2.16h5Z"/>
  <path class="cls-10" d="M97.01,130.89c-.01,1.35-1.56,1.12-2.54,1.23-1.39.17-2.55-.58-2.46-2.12,1.46,1.22,3.29.82,5.01.89Z"/>
  <path class="cls-7" d="M77,126l-2,.34c-.13-1.16-.38-2.33-1-3.34.49.24,1.49.09,2.02.52.72.59.93,1.55.98,2.48Z"/>
  <path class="cls-20" d="M127.05,62.17c-.58.86-1.27,1.69-1.89,2.51-1.82.97-2.23-.11-1.17-1.69.43-3.36-.34-7.28-4-8-.46-.89-.08-1.19,1-1,4.74.51,4.4,4.88,6.05,8.17Z"/>
  <path class="cls-59" d="M125.17,64.69c-.9,1.19-1.31,3.38-3.09,3.36.07-1.86.2-4.03,1.93-5.05.32.61.71,1.17,1.17,1.69Z"/>
  <path class="cls-36" d="M143,64.93c-.99,2.44-4.84,0-6.1.97,1.52-1.58,4.07-.72,6.1-.97Z"/>
  <path class="cls-53" d="M98,19h-6c-.61,1.42-2.8,1.98-3.99.9-1.13.79-1.42.18-.86-1.83-1.08-.7-2.11-1.8-3.09-3.31-2.6-.82-5.31-1.04-8.11-.67.5,1.31-1.55,2.84-2.86,2.87-.58,1.81-2.18,3.47-4.09,3.05l-3-2c1.99-3.61,4.22-7.19,8-9,2.21.12,4.51-.21,6.88-1.01,5.87.42,10.69,3.81,11.76,10.08,2.44-.11,4.58-.54,5.36.93Z"/>
  <path class="cls-37" d="M80.88,7.99c-1.92.16-4.94,3.55-6.88,1.01,2.24-.65,4.53-1.24,6.88-1.01Z"/>
  <path class="cls-15" d="M56,39c-.71,2.83,1.13,5.56,1.91,8.3-2.69-1.91-4.95-3.9-7.91-5.21l.08-1.24c.85-.08,2.47,1.01,3.14.54,1.01-.71.44-2.55.75-3.39,1.32-2.24,2.52-1.62,2.03,1Z"/>
  <path class="cls-29" d="M59,50v-2h1c.16.9-.64,1.37-1,2Z"/>
  <path class="cls-43" d="M38.18,87.05c1.05.66,1.83,1.22.6,1.95-.23,1.51-1.86,4.01-3.48,3.95l-.45,7.61,1.15,2.43c.25-.88.58-.86,1,0l1.63,1.05c3.86-.17,6.61.11,3.36,3.98-.02.31,0,.65,0,.97l-1,1c-.74,2.87-3.11,1.29-5,0-2.39-.84-4.34-2.43-5-5-1.29-1.2-2.19-3.29-2-5-.75-1.1-.75-2.77,0-5,2.84-9.79,1.7-2.59,5.87-11,.63,1,2.99,1.6,3.31,3.05Z"/>
  <path class="cls-28" d="M32.01,80.41l-3.04.61-2.97-6.16c3,.34,4.91,2.98,6.01,5.55Z"/>
  <path class="cls-31" d="M42.02,118.07c-.7-.23-1.3-.89-2.02-1.05v-4.01c-1.86-1.42-1.52-2.42,1-3,.21-.44.54-.81,1-1l.02,9.07Z"/>
  <path class="cls-15" d="M28.01,81.9c-.57,1.39-2.16,3.23-3.93,3.34-.45.49-.81.4-1.08-.24.81-2.06,2.86-3.06,5.01-3.1Z"/>
  <path class="cls-39" d="M41,110c.05,1.1-.19,2.23-1,3-1.37-.95-3.08-1.57-4-3,1.66.55,3.53,1.25,5,0Z"/>
  <path class="cls-17" d="M31,105c-2.04-.13-2.4-2.31-3-4-.09-.65.28-.95,1-1,1.28,1.36,1.71,3.2,2,5Z"/>
  <path class="cls-29" d="M24.08,85.24c-.58.4-1.14,1.81-2.08,1.76s-2.12.24-3,0c-1.06-.89-.06-1.55,3-2h1l1.08.24Z"/>
  <path class="cls-50" d="M29,100c-.3.37-.63.7-1,1-.8-2.26.46-4.14,1-6v5Z"/>
  <path class="cls-51" d="M88.01,19.9c1.14.17,1.49.59,1.07,1.27-.77.93-1.98,1.86-3.05,2.41-.78,1.14-1.36.83-1.03-.58.32-.98.47-2.09,1-3-.26-1.82.13-2.47,1.15-1.93.32.51.72,1.19.86,1.83Z"/>
  <path class="cls-21" d="M86.03,23.58c-.71,1.62-1.68,3.42-3.7,3.38.54-1.55,1.14-3.19,2.67-3.96.35.07,1.38-.19,1.03.58Z"/>
  <path class="cls-11" d="M103.97,27.97c.54,1.89-2.82.04-4.97.03-.46-.89-.08-1.19,1-1,1.1.32,2.86.21,3.97.97Z"/>
  <path class="cls-26" d="M100,27c-.37.3-.7.63-1,1-1.07,0-2.6.27-3-1,1.52-.49,2.74-1.59,4,0Z"/>
  <path class="cls-36" d="M113,40c-.51.09-1.5-.23-2,0v-4c.55,1.33,1.82,2.45,2,4Z"/>
  <path class="cls-11" d="M92,20c-.59.79-2.13.92-2.92,1.17-.25-.44-.96-.76-1.07-1.27,1.39.06,2.79-.17,3.99-.9v1Z"/>
  <path class="cls-42" d="M67,140l-3.45.05c-.98.02-1.97-.58-1.55-2.05,1.93-.15,4.49-.25,5,2Z"/>
  <path class="cls-36" d="M81,152c-2.57.05-5.97.8-7-2,2.22,1.07,5.15.16,7,2Z"/>
  <path class="cls-44" d="M69,145c-2.22.04-2.32-2.22-2-4,1.19,1.01,1.4,2.62,2,4Z"/>
  <path class="cls-23" d="M113,82c.41,2.12-1.05,3.74-2.77,5.26-3.67,3.24-5,8.04-9.13,10.99-.97,3.86-3.63,5.98-6.8,8.08-2.49,1.65-3.8,4.57-6.3,5.68-.95,2.06-1.95,2.72-3,2-1.6-.6-2.4-2.34-3.8-3.2-1.6-1.91-1.69-3.14-.26-3.68-1.51-3.12,5.4-7.14,8.06-8.12.14-2.45,3.51-5.47,6-5l1.8-1.2,1.99-2.38c.68-2.25,1.72-3.05,3.11-2.42.3-1.05.66-2.05,1.09-3-1.09-2.69,2.54-6.06,5.01-3.93,0-2.91,1.17-3.09,3.11-1.14.44.68,1.19,1.65,1.88,2.07Z"/>
  <path class="cls-28" d="M123,103h-1c-.67-.5-1.34-1.21-1.16-1.95,1.22-5.02,1.92-10.78-4.35-5.3-.67.3-1.53-.88-1.82-1.83.4-3.34,3.55-2.56,3.41-7.28,3.4,1.76,6.54,4.67,7.73,8.67,1.13,3.78-.78,5.78-2.82,7.7Z"/>
  <path class="cls-15" d="M122,103h1c-1.78,1.68-3.01,3.09-6.43,2.04-1.8-.55-4.29-1.78-5.42-4.05-.2-.91.12-1.1.94-.6,2.21-1.09,9.02.12,9.9,2.61Z"/>
  <path class="cls-2" d="M111.12,79.93c-.9.71-2.09.75-3.11,1.14-1.47-.99-2.95-2.17-4.46-3.51-2.87-2.33-3.4-4.28-1.62-5.85.25-.81.57-.79.96,0,3.13,2.22,6.14,5.01,8.24,8.23Z"/>
  <path class="cls-40" d="M102.84,66.82c-.9,1.55-.97,3.38.04,4.88-.29-.07-.68.12-.96,0-.76,2.47-2.94,2.53-4.13.21.85-1.98,3.21-4.38,5.05-5.09Z"/>
  <path class="cls-29" d="M111.91,96.8c2.9-.44,2.95,2.82.19,3.58l-.94.6c-1.03.01-2.09.14-2.96.73-.17-2.41,1.6-4.1,3.71-4.92Z"/>
  <path class="cls-58" d="M94.82,113.79l-3.77,7.23c-1.83-.78-3.33-2.2-3.86-4.16l2.47.52c1.85-1.48,3.16-3.09,5.16-3.6Z"/>
  <path class="cls-5" d="M80.94,107.12c.34,1.2.4,2.44.26,3.68-1.69-1.03-2.83-2.51-4.08-4.05l3.82.37Z"/>
  <path class="cls-19" d="M87.18,116.86c-1.41-.22-2.17-1.49-2.18-2.86.67-1.1,1.89-1.51,3-2-.51,1.58-.85,3.2-.82,4.86Z"/>
  <path class="cls-5" d="M75.91,105.26c-1.64-.33-2.8-1.6-3.55-3.05.89-.17,2.02-.3,2.69.24.88.72.83,1.88.86,2.81Z"/>
  <path class="cls-20" d="M96,123c1.59.65,1.94,1.79,0,2-1.66-.38-3.22-1.55-4-3,1.4,0,2.8.26,4,1Z"/>
  <path class="cls-29" d="M101,124c-1.22,1.2-3.33,1.38-5,1v-2h1c1.01,1.15,2.57,1.16,4,1Z"/>
  <path class="cls-29" d="M71,100h-1c.35-.14.74-.71,1-1v1Z"/>
  <path class="cls-2" d="M92.91,76.74c-2.9,3.1,6.29,6.37,5.9,10.15.64.41.56.72-.21.92-3.87-3.18-8.09-6.56-10.44-11,.83.65,4.1,1.24,4.75-.08Z"/>
  <path class="cls-51" d="M121,54c-.37.3-.7.63-1,1-1.6-.32-3.38.23-5,0-.27.82-.6.85-1,.08,1.76-1.78,5.07-3.09,7-1.08Z"/>
  <path class="cls-21" d="M115,55c.01.67-.06,1.39-.47,2.03-.49.77-1.48,1.07-2.4.77-.21-.67-.52-.15-.88-.03.48-1.25,1.49-2.23,2.76-2.68.27-.1.71-.12,1-.08Z"/>
  <path class="cls-13" d="M144.09,84.16c-.39.39-.75.33-1.07-.14,1.24-2.56,2.38-5.34.99-8.02-.32-1.69.17-1.46,1.19-.08,1.15,2.86,1.81,6.35-1.1,8.24Z"/>
  <path class="cls-52" d="M142.08,72.67c1,.54,1.07.9,0,1.33-2.09-1.74-4.63-.02-7.09,0h-.98c1.57-3.14,5.18-2.21,8.07-1.33Z"/>
  <path class="cls-39" d="M143.01,84.02l1.07.14c-1.06.69-1.34,2.94-3.2,2.89-.64-1.1-2.01-1.24-2.96-1.93,1.75-.07,3.44-.53,5.09-1.1Z"/>
  <path class="cls-5" d="M145.19,75.92l-1.19.08c-.37-.71-1.91-.94-1.91-2v-1.33c2.15.66,2.31,1.28,3.1,3.25Z"/>
  <path class="cls-58" d="M42.12,91h-2.12c-1.86.75-2.3-.26-1.22-1.99-.27-.63-.48-1.28-.6-1.95,2.31.32,3.48,1.77,3.93,3.94Z"/>
  <path class="cls-16" d="M15,76v5c-1.77.04-2.18-.99-1.93-2.27.31-1.58,1.3-2.6,1.9-3.78.88.28.88.63.03,1.06Z"/>
  <path class="cls-20" d="M25,75c-1.72-.94-3.8-1.39-5-3,1.05-.1,2.1-.11,3.3.13s1.83,1.51,1.7,2.87Z"/>
  <path class="cls-38" d="M51,98c-.71,1.37-1.96,1.98-2.85,3.07.35-1.53-.93-2.74-1.15-4.07l4,1Z"/>
  <path class="cls-4" d="M18,72.84c0,.7-.02,1.49-.47,2.19-.5.78-1.57,1.02-2.53.97l-.03-1.06c.66-1.3,1.36-2.2,3.03-2.1Z"/>
  <path class="cls-15" d="M22,85l-3,2c-1-.27-2.55-1.01-3-2h6Z"/>
  <path class="cls-41" d="M79.05,47.88c1.64,2.02,1.82,3-1.07,3.08,2.82,2.51-3.59,8.3-6.07,5.83-2.42.78-4.46,2.65-4.91,5.2-.39.19-.59.93-1,1,.22,1.98.12,3.04-2,2,.66,2.54-1.67,4.6-4,5-3.69.13-2.85,4.27-8.01,6.96-1.72.89-3.46.27-5-.77l-.71-3.18c5.72-5.03,15.5-9.82,16.91-15.82l.51-2.17c.13-.54,2.26.12,2.56-.3,3.97-5.53,8.18-9.03,7.74-10.7,2.39.07,3.3,2.54,5.05,3.88Z"/>
  <path class="cls-54" d="M51.17,58.09c-.94,1.21-1.12,3-3.16,3-.18-1.92-1.83-3.32-1.79-5.3,1.29,1.04,3.48,1.51,4.95,2.3Z"/>
  <path class="cls-21" d="M46.11,63c-.38,2.48-2.27,4.51-4.75,4.96.84-2.35,1.94-5.09,4.75-4.96Z"/>
  <path class="cls-4" d="M68,41c.45-.83.81-.8,1.07.12-.87,2.2-3.08,3.19-4.99,4.19-.28-2.37,1.64-4.1,3.92-4.3Z"/>
  <path class="cls-58" d="M71,40c-.4.66-1.31.87-1.93,1.12-.35,0-.72-.15-1.07-.12l1-2c-.33-1.06,0-1.35,1.01-.86l.99,1.86Z"/>
  <path class="cls-22" d="M68,68c.75.56,2.01,1.14,2.83,2.17,6.16,7.66,13.01,14.12,20.47,20.52,1.38,1.18,1.69,3.64,3.69,3.31-1.49,2.2-3.23,4.65-6,5-2.57-1.94-5.33-4.17-6.96-7.01-2.62-.43-3.5-1.6-2.64-3.53-1.72-1.11-3.9-2.06-5.4-3.46-1.34-1.24-2.18-3.56-4.15-4.14-1.61.24-2.48-.69-2.62-2.8l-7.23-8.06c.16-2.4,2.11-3.8,4-5,1.05-1.06,2.38-.06,4,3Z"/>
  <path class="cls-33" d="M69.85,80.86c-2.32.55-3.35,3.25-5.87,3.35-.18-2.71,3.02-3.6,3.25-6.16.76-.19,1.15-.16,1.55.13.85.63.93,2.09,1.07,2.67Z"/>
  <path class="cls-59" d="M46.22,55.79c-2.46-.09-4.78-1.18-7.22-.79,0-2.69,2.11-2,4.06-1.7,1.74.27,2.2,1.42,3.16,2.49Z"/>
  <path class="cls-32" d="M36.82,56.05c.04,1.07-.54,1.97-.82,2.95l-2-1c0-1.47,1.6-1.73,2.82-1.95Z"/>
  <path class="cls-39" d="M87.26,56.92c-7.63-3.31-3.87-6.22-9.28-5.96.2-1.08.55-2.12,1.07-3.08,3.18,2.45,5.94,5.89,8.21,9.04Z"/>
  <path class="cls-13" d="M67.12,35.18c1.09,1.12,1.08,1.72-.03,1.82-2.7-1.82-5.89-2.35-9.09-2,.04-.2-.29-1.47.21-1.66,3.46-1.33,6.34.28,8.9,1.84Z"/>
  <path class="cls-39" d="M70.01,38.14c-.42.16-.8.45-1.01.86-1.08-.09-1.24-1.54-1.91-2l.03-1.82c1.25.76,2.12,1.53,2.89,2.97Z"/>
  <path class="cls-3" d="M57,35l-1,4-2.03-1c.54-1.46,1.24-3.21,3.03-3Z"/>
  <path class="cls-33" d="M101,87c1.61-1.49,2.23-.82.91,1-1.13,2.12-3.13,3.48-5.11,4.8.78-1.62,2-3.12,1.81-4.99-.04-.35-.06-.66.21-.92.72.2,1.46.05,2.19.11Z"/>
  <path class="cls-19" d="M68,68l-4-3c.71-.47.94-1.81,2-2l2,5Z"/>
  <path class="cls-38" d="M105.03,36.92c.4,1.12-.88,2.18-.88,3.14-.48-2-2.02-4.41-4.15-5.07v-1.4c2.38.61,4.09.67,5.03,3.32Z"/>
  <path class="cls-16" d="M84.06,14.75c-2.33.44-4.7.23-7.06.25-1.38,1.58-2.02,1-1.05-.91,2.34-1.75,6.36-2.03,8.11.67Z"/>
  <path class="cls-50" d="M87.15,18.07c-.1.8-.78,1.29-1.15,1.93-.22-1.92-1.94-3.26-1.94-5.25,1.82.11,3.01,1.55,3.09,3.31Z"/>
  <path class="cls-20" d="M77,15c-.6,1.34-1.66,2.4-3,3,.06-.47-.5-.97-.91-1.05.53-1.64,1.64-1.95,2.86-2.87.24.29.61.92,1.05.91Z"/>
  <path class="cls-10" d="M48.15,101.07c-1.92,2.35-3.3,5.59-6.16,6.96.3-5.44-4.48-.77-4.99-5.03,3.91.73,7.43-.78,11.15-1.93Z"/>
  <path class="cls-16" d="M74.76,133.8c3.12.41,2.14,3.01.65,5.24,1.28,1.57,1.42,2.67-.41,3.96l-.95-.14c-1.36-1.4-1.73-3.4-3.43-4.6-.86.43-1.38.72-1.7.72-.66,0-1.14-.39-.74-.97.21-.31.49-.64.64-.99,2.52.07,3.71-2.58,5.93-3.22Z"/>
  <path class="cls-30" d="M65,94c-1.14,1.91-2.64,3.93-5,4,1.35-1.75,2.47-4.05,5-4Z"/>
  <path class="cls-1" d="M50,112c-1.16,1.8-1.09,4-1.04,6.08-.41-1.13-1.44-1.96-1.15-3.6.22-1.24.39-2.56,2.19-2.48Z"/>
  <path class="cls-38" d="M66,122c1.76-.08,1.04.92,0,2.07-3.11,1.07-7.34,2.28-9-1.07,3.05.21,6.13.12,9-1Z"/>
  <path class="cls-1" d="M82.04,91.99l-4.3-.08c.42-1.21,1.06-2.32,1.66-3.45,1.47.95,1.82,2.11,2.64,3.53Z"/>
  <path class="cls-2" d="M56,115c-.6,1.55-.75,4.07-1,6-2.09-1.95-1.03-4.83.19-7,.41-.15.92.68.81,1Z"/>
  <path class="cls-52" d="M68.3,120.95c.28-.04.62.13.88.04-.79,1.16-1.77,2.59-3.18,3.07v-2.07c.61-.63,1.44-.93,2.3-1.05Z"/>
  <path class="cls-20" d="M82,145c-.89.46-1.19.08-1-1l4-2c-.01.96-.19,2.33-.96,2.52l-2.04.48Z"/>
  <path class="cls-35" d="M81,144c.3.37.63.7,1,1-.79.19-1.28,1.25-2.38,1.06-.63-.11-1.19-.6-1.62-1.06-.87-.28-.86-.62,0-1h3Z"/>
  <path class="cls-21" d="M78,144v1c-1.81.06-2.84-.99-3.95-2.14.31,0,.64.15.95.14,1.1-.06,2.23.16,3,1Z"/>
  <path class="cls-21" d="M37,94c-2.45,2.39-1.25,5.81-1,9-3.62-1.83-2.53-7.01-.7-10.04,1.66-2.1,2.38-1.52,1.7,1.04Z"/>
  <path class="cls-50" d="M40,91c-1.63,0-2.02,2.04-3,3l-1.7-1.04c.93-1.53,1.58-3.32,3.48-3.95.49.61.9,1.28,1.22,1.99Z"/>
  <path class="cls-5" d="M101.91,88c.31-.59-.4-.96-.91-1,.33-.96,1.1-1.6,2-2,.26.45.76.99.78,1.53.03,1-1.59.94-1.87,1.47Z"/>
</svg>