<?xml version="1.0" encoding="UTF-8"?>
<svg id="Layer_1" data-name="Layer 1" xmlns="http://www.w3.org/2000/svg" viewBox="0 0 600 600">
  <defs>
    <style>
      .cls-1 {
        fill: #fefefe;
      }
    </style>
  </defs>
  <path class="cls-1" d="M167.04,224.96c-8.41-16.64-22.89-39.47-41.18-45.77-9.51-3.28-18.77-.05-25.2,7.64-7.46,8.92-9.41,20.28-8.74,32.31,2.69,48.24,28.79,96.93,77.32,113.13-1.64,10.74-3.43,21.18-7.93,31.12-1.96,1.66-6.7.21-9.12-.56-34.45-10.95-60.62-49.11-75.56-80.52-29.06-61.1-31.82-131.37-11.99-195.66,31.48,10.12,56.63,30.38,80.17,51.48.8,1.68,2.38,1.99,3.68,1.96,1.61-.03,2.38-1.15,2.63-2.57.32-1.81-.8-2.38-2.03-3.74-15.94-17.63-30.59-35.94-44.21-55.52-4.71-6.78-8.47-13.36-11.54-21.64,53.24-17.07,163.78-28.79,208.93,10.95-10.11,5.97-18.94,12.99-27.61,21.1-3.15,2.94-45.52-16.78-71.46-2.63-7.71,4.21-12.46,11.54-12.87,20.32-.58,12.3,5.77,23.29,14.93,31.44,22.6,20.1,58.73,30.5,88.17,30.81l42.13.45c2.49,8.02,1.35,15.55-.04,23.39-.97,5.43-3.86,9.07-9.8,9.4-8.83.48-17.37.16-26.35-.3-51.91-2.69-100.53-21.86-139.53-56.33-1.15-1.02-2.22-1.36-3.22-1.2s-2.7,2.99-1.63,4.15c18.68,20.17,42.02,48.58,45.99,76.86l-33.93-.04Z"/>
  <path class="cls-1" d="M347.72,498.63c-31.85,35.65-85.43,57.36-131.09,59.05l-19.33.71c-2.88.11-4.72.08-7.58,0l-21.54-.66c-25.17-.77-49.43-6.17-74.61-12.88,2.6-7.74,7.01-14.12,11.46-20.88,9.92-15.05,19.75-29.71,31.56-43.25,1.14-1.31,2.49-1.74,2.51-3.29.03-2.02-.66-3.24-2.6-3.55-2.27-.36-9.57,6.84-12.41,9.24-13.48,11.4-38.7,33.12-55.4,38.18l-4.03-6.99c-12.17-21.1-13.56-65.4-12.23-89.95,1.66-30.58,5.87-60.38,15.14-89.64,2.86-9.01,5.92-17.1,11.85-25.07,4.39,8.6,9.55,15.76,16.12,22.83,1.84,1.98,4.95,5.85,5.24,8.49-6.79,18.59-9.62,37.52-7.08,57.33,1.21,9.44,6.41,18.97,15.7,22.15,15.33,5.25,30.2-1.76,40.46-13.75s16.63-26.75,21.84-42.05c10.9-32.05,9.37-42.76,9.11-75.55-.03-4.29-2.11-8.21-.25-12.83,6.49-.44,32.68-2.16,32.41,8.76s.64,21.76-.34,32.74c-3.84,43.08-14.24,77.19-38.73,113.13-5.17,7.59-11.38,13.87-17.19,20.8-2.13,2.54-14.96,14.24-13.68,16.83.57,1.14,3.22,2.51,4.67,1.12l13.29-12.75c20.51-19.67,48.66-39.39,76.47-45.62-2.01,12.13-2.07,22.46,0,33.94-14.48,4.95-27.1,13.04-37.51,23.57-11.49,12.04-16.96,31.54-2.65,43.09,5.17,4.17,11.87,7.03,18.99,7.73,27.72,2.73,49.96-5.11,74.85-16.37,26.56-12.01,42.91-32.09,52.95-59.06,4.66-.23,29.39,6.7,30.35,7.96.56.73,1.18,2.51.54,3.84-7.43,15.4-15.9,29.93-27.27,42.66Z"/>
  <path class="cls-1" d="M388.84,155.87c18.44-10.51,50.88-28.9,44.69-54.45-4.45-18.33-26.17-20.01-40.22-21.97-5.35-.75-9.82-.11-15.4.36-43.64,3.75-77.74,40.62-98.24,77.39-10.84-1.67-21.3-4.06-31.77-8.42,3.8-33.9,43.52-62.49,71.37-77.63,26.8-14.58,63.3-26.54,93.8-27.87,37.37-1.63,80.64,1.48,117.14,13.12-.76,6.23-4.03,11.72-7.56,17.34-23.17,36.96-89.65,110.12-135.64,116.32v-26.18c0-2.32-.12-6.5,1.83-8.03Z"/>
  <path class="cls-1" d="M321.7,533.75c9.71-6.82,18.63-13.74,27.83-21.76,23.23,5.09,84.41,22.97,83.77-18.98-.14-9.5-3.38-17.54-9.71-24.72-17.08-19.41-62.15-35.63-86.89-35.89l-48.36-.51c-3.17-5.53,0-25.07,2.77-29.97.63-1.11,3.41-1.97,4.95-1.95l41.69.41c39.8.39,91.33,26.6,122.31,52.6,19.22,16.13,51.43,57.9,64.94,79.89,2.42,3.94,4.67,7.5,5.12,11.94-21.38,6.11-42.18,11.02-64.09,12.39l-16.04,1.01c-10.28.64-19.63.9-29.97.02-23.13-1.98-45.53-5.28-67.83-11.3-10.62-3.12-20.2-6.35-30.47-13.18Z"/>
  <path class="cls-1" d="M471.76,194.72c-21.08,24.04-25.01,66.18-27.36,96.66-.87,11.35-.14,22.06-.44,33.64l-17.09-.14c-4.35-.04-10.03-.73-13.87-3.2-4.36-2.82-3.26-27.44-2.71-32.51,4.4-41.02,16.72-94.28,45.32-125.71,22.37-24.59,69.31-70.12,100.37-81.45,6.92,23.2,10.29,46.39,11.53,70.43,1.93,37.39.03,78.42-10.53,114.4-3.26,8.7-6.32,16.84-12.34,24.38-5.48-10.2-12.17-19.19-21.08-27.04,4.99-22.44,7.08-35.5,6.53-58.1l-2.55-10.79c-1.56-6.58-6.85-13.86-14.11-15.49-15.8-3.53-31.28,3.06-41.67,14.91Z"/>
  <path class="cls-1" d="M466.53,446.5c-13.6-14.89-44.05-51.85-43.62-72.68,9.44,2.69,23.7,2.78,33.9,3.16,7.66,15.62,16.78,29.24,30.25,39.95,7.31,5.81,17.82,8.5,26.6,4.57,4.97-2.23,9.76-7.77,12.1-12.53,11.41-23.27,2.44-59.46-7.73-81.92-11.81-26.08-35.39-48.88-62.44-58.64,1.23-11.35,4.32-20.92,7.62-31.66l13.17,5.9c39.44,17.66,64.43,51.32,78.63,91.35,10.6,29.91,15.61,70.42,13.66,102.01l-.98,15.87c-1.43,23.12-5.76,45.5-11.79,66.98-30.46-12.37-67.67-48.61-89.36-72.36Z"/>
  <path class="cls-1" d="M506.71,339.4c-15.84,15.63-35.68,24.54-57.71,26.93-34.03,3.69-80.72-15.88-105.99-39.68,2.77-3.34,6.4-5.88,9.64-9.01l11.51-11.14c32.48,30.06,85.8,38.03,122.02,9.55,2.99-2.35,5.19-5.34,9.18-7.28,5.82,6.69,10.84,14.4,14.11,22.61,1.69,4.25,0,5.31-2.76,8.02Z"/>
  <path class="cls-1" d="M304,483.46c-6.28,3.54-18.52,14.46-26.08,15.09-3.32.28-5.38-3.94-7.32-6.14-17.81-20.22-26.79-48.72-23.85-75.49,3.5-31.8,16.39-61.43,38.65-85.1,3.65,1.35,5.28,5.17,7.9,7.85l12.97,13.27c-33.43,35.11-38.9,94.89-2.28,130.53Z"/>
  <path class="cls-1" d="M337.43,269.85c-7.7-8.77-11.83-13.29-19.82-21.55,33.65-35.24,40.8-93.65,2.36-129.77,2-4.61,23.7-18.75,25.42-18.47,1.14.19,1.05,1.65,2.07,2.64,19.5,19.26,31.86,45.08,30.36,73.45-1.84,34.8-17.03,67.72-40.39,93.69Z"/>
  <path class="cls-1" d="M259.68,294.95c-34.25-32.58-94.26-39.1-129.85-2.53-6.94-7.93-12.04-16.64-16.19-27.02,10.65-13.23,25.33-22.59,42.24-26.44,6.88-1.56,13.9-3.8,21.13-3.78,30.11.09,78.56,22.41,103.69,40.38-4.93,3.52-7.64,7.29-11.5,10.63-3.1,2.68-6.17,4.67-9.51,8.75Z"/>
  <path class="cls-1" d="M338.57,317c-3.51-3.07-5.79-5.87-8.4-9.28-3.03-3.97-8.95-7.2-10.47-12.12.71-5.04,6.4-9.09,10.5-12.37,21.73-17.39,50.74-33.25,77.07-44.81l-5.65,28.2c-.81,4.07-2.46,7.86-4.82,11.16-6.98,5.37-14.67,8.49-22.39,12.65-13.47,7.24-25.8,15.62-35.83,26.58Z"/>
  <path class="cls-1" d="M328.2,274.64l-21.18,18.54c-3.2-1.75-5.94-4.05-8.4-6.95-16.23-19.14-42.93-56.77-48.66-80.98,9.51,2.96,18.9,4.52,28.68,6.13,4.82.8,7.53,3.93,9.86,8.26,12.49,23.18,21.49,35.92,39.7,55Z"/>
  <path class="cls-1" d="M296.69,314.85c-18.81,15.93-54.46,40.4-79.03,47.52,4.33-14.5,3.79-21.32,7.21-34.76,18.25-8.91,34.47-20.55,50.27-33.5,3.82-3.13,6.31-6.87,11.32-9.42,5.77,7.24,11.86,14.42,18.68,20.88-2.73,3.54-5.15,6.51-8.43,9.28Z"/>
  <path class="cls-1" d="M343.35,389.85c-3.64-13.26-25.48-39.86-34.73-49.39l-13.1-13.51,9.33-8.17c3.93-3.44,8.16-6.21,11.51-11.02,4.69,2.41,7.68,5.87,11.05,9.94,15.11,18.24,28.03,37.83,38.95,58.87,3.4,6.55,6.28,12.73,7.3,19.81-10.98-2.52-20.08-5.54-30.31-6.54Z"/>
</svg>