<?xml version="1.0" encoding="UTF-8"?>
<svg id="Layer_1" data-name="Layer 1" xmlns="http://www.w3.org/2000/svg" viewBox="0 0 800 800">
  <defs>
    <style>
      .cls-1 {
        fill: #fefefe;
      }
    </style>
  </defs>
  <path class="cls-1" d="M463.16,748.6l-10.08,1.85c-4.9.9-8.87,1.85-14.24,1.83-2.91-.01-6.18,3.41-9.87,1.59-2.75-1.36-4.96,1.99-7.11,1.98l-64.73-.12c-3.22,0-6.35-3.22-10.16-1.8-4.22,1.58-8.22-1.59-11.86-1.6-2.89,0-21.06-3.11-24.11-3.8-5.86-1.32-11.59-.46-17.35-3.29,3.21,1.58-25.54-7.45-31.82-10.21-10.98-4.83-21.44-10.15-32.02-15.89-8.93-4.84-31.86-20.49-39.3-26.58l-9.97-8.16c-4.04-3.31-8.23-6.49-12.03-9.89l-19.01-17.06-15.39-17.45c-4.69-5.31-19.48-26.59-18.48-25.55-2.57-2.66-4.07-5.16-6.05-8.03l-20.62-29.78c-7.39-10.67-10.73-15.7-16.34-28.41l-7.65-17.33c-4.68-10.6-9.56-20.61-12.45-31.68l-2.09-8.01-1.79-7.11c-1.1-4.35-1.8-7.5-1.87-12.27-.04-2.71-3.12-5.42-1.82-8.88s-1.21-6.18-1.64-9.07c-.99-6.66.2-13.12-.41-19.73-.11-1.17-1.92-2.17-1.89-3.34.29-10.28-.67-20.37.41-30.53.24-2.27,2.67-4.21,1.77-7.35-1.12-3.89,1.38-7.54,1.56-11.08l.5-9.72c.11-2.17,2.71-4.47,1.8-7.03-1.4-3.97,1.43-6.83,1.66-9.98.35-4.87.51-8.77,1.88-13.34-1.02,3.41,3.04-19.78,3.78-22.79l2.1-8.61c2.23-9.15,10.51-35.32,14.26-43.77,3.89-8.76,7.97-16.94,12.86-25.12l28.81-48.14c1.41-2.36,3.98-5.31,5.59-7.27l10-12.16c12.06-14.67,25.88-27.19,40.17-39.71,24.23-21.21,50.37-38.23,79.76-51.22l14.04-6.2c11.8-5.21,23.5-9.41,35.82-13.02l20.94-6.14,8.62-2.11,7.97-2.02c5.79-1.47,14.69-.61,18.97-3.25,2.29-1.41,6.03.82,8.51-.5,2.82-1.49,5.81-2.5,9.14-1.7,3.71.89,6.26-.99,9.28-1.61,6.78-1.38,13.72.19,20.64-.55,1.5-.16,2.8-1.9,4.31-1.88l46.7.36c3.53.03,7.02,3.08,11.16,1.57,3.41-1.25,6.44,1.37,9.17,1.55,4.23.28,7.85,1.55,11.8,2.12,4.75.69,8.72.81,13.28,1.78l15.93,3.39c13.15,2.8,53.51,23.06,66.35,31.61l35.52,23.64c3.03,2.01,6.21,4.55,8.94,6.94l17.09,14.92,18.15,17.81c.87.85.78,2.56,1.55,3.51,3.1,3.87,7.2,6.79,10.25,10.69l7.85,10.04c4.27,5.46,24.1,33.41,26.77,38.59l26.74,51.94,3.49,9.44c2.55,6.91,7.83,20.21,8.83,26.91.32,2.15-.43,3.36,1.13,5.52.04.05,5.81,20.7,5.82,20.43-.05,2.69,3,15.94,3.82,18.46,1.7,5.24-.36,11.12.65,16.55.22,1.2,1.71,2.16,1.75,3.34.22,7,.19,13.68.01,20.68-.03,1.19-1.62,2.13-1.77,3.33-.77,5.9.72,11.8-.5,17.66-.53,2.55-2.71,5.02-1.7,8.13,1.43,4.42-1.37,8.14-1.64,11.96-.37,5.22-.37,9.27-2,14.19-1.36,4.12-3.68,17.31-4.9,20.2-1.16,2.74.62,6.34-3.38,7.79,3.62,3.49-4,22.51-6.15,29.78-5.08,17.14-11.33,33.23-19.67,49.27l-20.87,40.14-5.8,9.5c-2.63,4.31-4.05,5.4-8.31,12.57-1.69,2.84-6.12,3.74-5.28,8.44-4.73,1.27-5.47,5.88-8.32,8.82-9.89,10.22-18.86,21.14-30.02,29.85l-9.06,7.06c-3.08,2.4-6.09,5.24-9.25,7.62l-7.99,6.01-7.47,5.59c-3.16,2.37-6,4.36-8.99,7.07-.49.45-14.95,10.36-15.93,11.13-20.96,16.33-38.45,23.15-63.3,31.8l-12.49,4.34-21.94,7.19c-6.37,2.09-12.54,2.11-19,3.3ZM144.34,521.92l-2.07,6.19c-3.52,10.52-1.71,23.29.35,34.66l1.85,10.18c1.36,7.48,22.76,47.86,28.64,53.86l20.81,21.23,24.25,23.61c7.04,6.85,16.08,10.07,23.9,15.17,6.87,4.47,13.97,6.66,21.39,9.97l16.53,7.37c13.89,6.2,27.37,12.14,42.13,14.81l7.77,1.4c4.05.73,6.93,1.65,11.22,2,3.32.27,6.86,3.01,10.88,1.63s7.64,1.46,11.16,1.64c14,.68,27.7.57,41.72.05,3.94-.15,7.79-3.12,12.16-1.62,3.71,1.28,6.86-1.59,9.87-1.76,4.08-.22,6.72-.68,10.29-1.92-7.91,2.74,20.91-4.97,16.03-3.82,13.25-3.1,56.04-17.72,67.98-23.28l16.38-7.62c3.74-1.74,7.09-3.44,10.73-5.35l24.25-12.74c9.88-5.19,31.75-21.82,32.79-22.4l4.99-2.76c-2.68,1.48,17.78-15.6,20.23-19.62,3.13-5.15,7.82-8.34,11.24-13,2.52-3.43,4.6-6.2,7.96-9.36-1.37,1.29,11.23-17.45,11.17-17.33l5.68-10.68c1.82-3.43,5.56-6,5.39-10.93-5.31,3.13-9.6,6.58-15.25,8.16s-18.75,12.36-33.64,16.15c-2.4.61-5.17,1.08-7.32,1.56l-9.77,2.2c-4.7,1.06-32.03.7-35.68-.19-14.88-3.64-8.67,1.04-29.73-8.17l-18.74-8.19c-4.05-1.77-8.18-3.7-11.93-6.06.08.05-13.22-8.99-12-7.89-5.81-5.27-11.35-10.59-16.52-16.47-6.77-7.71-14.22-25.85-16.99-35.66l-2.01-7.1c-2.2-7.8-2.19-16.88.01-24.69l2-7.09c1.18-4.17,2.17-8.78,4-12.82l5.58-12.33c1.58-3.48,2.92-7.71,5.24-10.72,1.32-1.72,2.17-3.97,3.47-5.49,4.96-5.76,10.25-10.97,15.97-16.01,7.34-6.46,25.11-12.82,35.26-13.46,16.98-1.08,36.77-1.29,50.7,8.23,3.2,2.19,10.02,8.75,11.38,11.76,1.92,4.25,4.91,8.25,5.62,12.79.67,4.25.89,9.76.06,13.86-1.81,8.99-10.28,14.62-18.06,16.89-3.7,1.08-4.45.51-7.95-.35-4.31-1.05-9.65.2-12.62-4.69-1.89-3.12-1.88-8.52-4.55-11.25-1.96-2-6.68-4.93-9.49-5.09-6.06-.33-13-1.5-18.17.28-15.85,5.45-27.24,18.12-30.85,33.53-.33,1.39-1.84,2.77-1.7,4.67.43,5.54-6.25,10.23-1.63,21.41,1.23,2.97-.03,6.88,2.79,9.29,3.08,2.63,3.99,7.16,6.84,10.22,8.89,9.55,12.35,14,23.29,21.56s23.3,13.06,36.35,16.56c15.11,4.05,7.23,1.09,16.12,2.07,7.43.82,15.32,3.53,22.64,1.43,3.51-1,6.52-.81,10.38-1.79l8.72-2.21c10.73-2.72,21.56-7.26,30.77-13.85,2.42-1.73,4.27-3.58,6.95-5.22,5.68-3.47,20.93-17.89,23.77-22.02l4.47-6.53,9.42-14.63c6.43-9.99,6.53-14.21,9.86-25.16l3.95-13c5.73-18.85,5.35-12.83,9.48-33.94l1.96-10,2-10.28c2.01-10.33-.57-58.82-1.37-56.85.42-1.03-4.82-23.36-5.6-26.29l-1.84-7-8.24-26.05c-.35-1.11-3.26-14.46-3.57-15.2l-4.41-10.71c-8.92-21.67-18.93-42.3-33.54-60.61l-8.88-11.14c-3.97-4.98-9.14-8.81-13.17-13.75-3.08-3.77-6.29-6.96-9.82-10.29l-19.49-18.34-9.51-7.56c-1.76-1.4-4.17-2.46-5.98-3.97l-8.76-7.26-6.98-4.95c-2.67-1.89-4.79-3.78-7.5-5.67l-8.82-6.14c-14.2-9.89-28.23-18.32-44.81-23.15-6.48-1.89-12.36-5.91-19.12-6.62-3.19-.34-5.39-1.63-8.35-1.8l-14.46-.82c-3.3-.19-6.47-2.37-10.22-1.6-4.6.94-8.08-.87-11.97-1.65-1.56-.31-24.17-1.74-24.02,2.14,7.1,5.2,15.48,12.51,20.35,18.99l5.59,7.45,7.47,9.53c2.44,3.11,4.56,5.82,7.14,8.92,6.74,8.09,19.33,28.73,21.02,38.26l1.17,6.61c.44,2.48,1.18,4.45,1.91,7.14l1.5,5.53c.8,2.94,1.46,6.17,1.57,9.18l.41,11.73c.28,8.08,1.47,11.25-1.39,22.62-1.2,4.77-7.29,23.18-10.74,26.55-.69.67-6.64,10.49-7.54,11.62l-9.27,11.6c-11.26,14.08-28.59,25.17-46.18,29.68-2.32.6-4.28.64-6.6,1.47-6.27,2.24-28.55,1.79-36.39,1.33-15.99-.95-21.69-3.98-35.22-12.71-4-2.58-16.39-14.74-18.63-18.13-2.68-4.04-7.83-14.86-8.7-19.23-2.49-12.52,1.43-24.73,7.48-35.49,2.82-5,5.97-7.97,10.55-10.63,7.88-4.58,17.53-3.47,23.06,2.4,3.58,3.81,4.82,8.4,4.63,14.04-.13,3.79.43,7.88-.86,11.29-1.93,5.1-3.88,9.95-6.58,14.4-3.79,6.22,5.5,12.28,10.19,15.4,3.71,2.47,6.86,4.78,11.58,5.53,1.67.27,3.12,2.02,5.43,1.6,5.55-1.02,11.4.8,16.76-.67l7.68-2.11c10.21-2.8,18.26-7.45,26.37-13.56,3.72-2.81,7.74-5.77,10.15-9.84l2.61-4.41c12.07-20.38,12.09-30.33,11.15-53.48-.09-2.29-3.05-4.15-1.7-7.28.49-1.12-6.49-22.33-10.42-27.43-2.7-3.51-5.83-6.08-8.28-9.8-3.7-5.63-17.98-17.44-24.02-22.04l-8.95-6.83c-6.49-4.95-13.23-8.42-21.18-9.96-3.61-.7-6.69-2.67-10.28-3.65l-13.16-3.62c-11.94-3.28-41.27-6.62-51.58-4.05l-8.24,2.05c-2.76.69-6.36,1.45-9.19,2.22l-29.9,8.15c-3.88,1.06-6.76,3.23-10.79,4.37-4.63,1.3-9.25,3.99-13.46,6.48l-9.38,5.55-19.44,11.43-15.27,8.74c-11.11,6.36-20.84,13.91-29.72,23.31l-26.21,27.74c-16.65,17.63-30.23,47.83-40.08,69.12l-11.66,25.21c-4.76,10.28-7.69,20.68-10.61,31.46l-1.74,6.41c-.61,2.25-1.49,4.76-2,6.92l-1.92,8.03c-.97,4.08-1.27,7.23-1.91,11.38-.56,3.66-2.96,7.63-1.59,11.88-1.69-5.26-3.09,70.96-1.55,80.87l2.06,13.27c.79,5.1,3.72,20.27,3.9,24.04-.04-.88,4.29,16.44,3.88,15.56l13.9,30.12c3.26,7.07,8.72,12.71,12.71,20.14,2.84-6-.38-11.33,1.44-16.77,2.52-7.51,3.35-16.96,8.87-29.98l3.31-7.8c1.91-4.51,3.97-9.15,6.6-13.22,3.9-6.05,11.28-18.45,15.77-23.27,7.45-7.98,14.86-15.61,23.02-22.93,1.77-1.59,4.42-3,6.53-4.48,15.93-11.19,34.13-17.27,52.21-23.73,2.78-.99,13.93-1.07,18.09-2.02,6.65-1.51,11.93-.59,18.32.98,16.29,4.02,18.19,4.2,32.79,13.39l6.05,3.8c12.88,8.1,19.01,22.31,22.25,36.69,2.63,11.65,4.49,35.56,2.39,43.24l-2.19,8.01c.02-.09-4.33,15.64-3.77,13.89-2.62,8.19-9.54,14.05-16.9,17.99-4.21,2.26-8.59,6.16-13.67,6.03-6.66-.17-14.36,1.7-20.46-.57-6.96-2.59-11.7-10.94-13.91-17.73-3.03-9.31,2.03-19.37,9.93-24.91s17.49-8.91,26.67-13.24l4.05-8.85c6.76-14.75,1.02-35.55-13.03-44.84-7.96-5.26-15.41-8.95-25.4-7.72-3.28.41-5.95,1.43-9.26,1.62l-15.33.89c-3.37.2-5.63,1.65-9.55,1.76-3.02.08-7.02,2.3-9.75,3.78l-29.25,15.92c-5.77,3.14-10.32,9.37-14.22,14.42-7.43,9.63-12.78,19.58-16.48,30.88-.53,1.62-1.38,2.52-1.89,4.37l-4.84,17.39Z"/>
  <path class="cls-1" d="M564.7,325.4c-2.69-.97-5.28-.48-8-2.08-2.36-1.39-6,.39-8.71-.27-6.76-1.65-13.23-1.32-19.98-.12-4.57.81-9.4-.86-13.83.43-2.63.77-5.01,2.64-8.17,1.63-1.94-.61-13.62,2.74-16.32,3.51l-6.94,1.99-7.79,2.25c-5.74,1.66-11.38,3.12-16.54,5.68-4.79,2.38-9.53,4.65-14.77,6.08-1.21.33-16.21,4.34-15.85,4.33l-7.61.35c-.39.02-23.51,6.15-32.6,3.07-2.62-.89-4.72-1.01-7.69-1.38-8.77-1.08-16.98-4.29-25.6-6.44-3.12-.77-5.95-2.66-9.21-3.73-11.93-3.94-35.44-24.12-41.17-32.6l-4.49-6.64c-5.67-8.38-12.44-16.37-15.12-26.56l-1.65-6.26c-3.9-14.83-6.14-21.93-4.18-38.43.14-1.18,4.83-19.73,5.87-21.93,3.55-7.48,6.66-14.97,11.16-21.88,4.42-6.79,14.73-18.37,20.95-22.52,8.81-5.87,18.41-9,28.34-11.37,17.37-4.14,17.94-1.62,26.33-1.56l7.91.06c10.37.07,25.19,17.21,28.56,30.03,1.53,5.83-.35,12.04.54,17.94.21,1.41-1.54,2.38-1.68,3.49-.84,6.74-5.27,12.19-10.09,14.76-7.01,3.74-14.05,1.88-20.21-1.11-5.42-2.64-7.96-5.64-8.67-12.06-.21-1.87-2.83-4.65-3.82-6.84-2.22-4.89-20.03-3.28-22.17-2.6-2.3.74-4.8,2.88-6.84,4.02-6.58,3.67-9.43,10.11-12.74,16.38-3.82,7.24-7.85,13.99-9.4,22.5-1,5.47-4.34,17.45-2.12,24.31l1.96,6.07c2.09,6.47,6.25,11.55,9.62,16.95,8.73,14,29.97,22.87,45.16,26.8l7.11,1.84,10.07,1.98,8.11,1.92c6.95,1.65,15.16,1.17,22.33.03,15.54-2.46,10.02-1.44,23.95-7.81,9.5-4.35,18.74-8.58,27.7-14.21l4.92-3.09c4.66-2.93,19.05-19.52,16.57-18.38,3.18-1.46,3.72-4.98,5.81-7.2,6.32-6.7,8.54-13.42,10.82-22.92l1.92-8.01,2.09-9.71,1.92-9.28c1.78-8.59.82-17.8.13-26.61-.29-3.65-2.73-6.95-1.61-11.22.96-3.66-2.19-13.78-3.55-17.24-.83-2.1-2.33-14.73-9.81-28.27-8.24-14.92-10.41-16.85-20.61-30.37-3.36-4.45-6.35-8.67-10.81-12.25-1.7-1.36-2.71-3.29-2.03-5.12.49-1.33,2.73-3.54,4.96-2.81l19.91,6.46,30.64,10.95c5.49,1.96,10.94,3.16,16.46,5.58,30.64,13.43,25.91,11.6,52.25,29.86l8.2,5.68c3.93,2.72,6.65,5.95,10.48,8.65,5.36,3.78,9.35,9.26,14.15,13.72,1.6,1.49,2.23,3.77,3.64,5.43,4.42,5.23,9.84,9.46,14.17,14.74l9.57,11.66,4.61,6.27c5.06,6.87,10.29,13.61,15.06,20.85,1.31,1.99,2.56,4.09,3.85,5.95l3.74,5.38,8.72,16.14,8.19,17.02s4.19,12.44,4.3,12.78l1.84,5.51c.83,2.48,1.29,3.66,1.91,5.75l5.56,18.73,2.31,8.62c3,11.16,2.86,7.9,3.64,18.48.23,3.05,3.01,6.15,1.78,9.89-1.35,4.08,1.11,7.59,1.52,11.14,1.07,9.28.14,18.41.35,27.71.03,1.49-1.6,2.81-1.82,4.31-.92,6.17,1.01,12.73-.55,18.86-2.72,10.69-.56,7.84-4.14,21.82l-1.82,7.1c-1.58,6.18-7.63,26.42-10.02,31.69-2.26,4.99-6.58,17.04-9.22,20.82-3.34,4.77-7.83,13.43-10.53,16.37s-4.77,6.09-7.54,8.55l-9.48,8.46c-2.42,2.16-16.96,11.64-20.37,13.5-6.34,3.45-28.91,11.59-34.31,11.46s-10.12,2.63-14.98,2.04l-21.27-2.58c-11.48-1.39-27.51-12.5-35.86-20.3-5.81-5.42-12.36-16.13-14.27-24.5-1.51-6.58-1.41-15.09.04-21.49,2.87-12.7,15.51-26.25,28.9-22.68,5.83,1.54,5.57,8.45,6.87,12.24,1.6,4.67,1.64,6.33-.05,11.01-.71,1.98-3.39,17.27-1.98,22.22,2.22,7.82,12.04,11.98,18.39,15.15,6.99,3.5,31.99,3.35,37.37,1.41,11.9-4.29,22.94-10.77,30.69-21.33,4.74-6.47,8.69-11.32,11.93-18.94l7.45-17.52c.86-2.03,2.02-4.64,2.22-6.73,2.05-20.59-1.13-17.62-2.07-28.68-.04-.53-3.52-13.28-4.02-14.8l-3.4-10.51c-2.67-8.26-20.81-36.86-27.54-44.37-13.37-14.92-26.84-21.82-45.42-28.54l-12.44-4.5ZM665.03,369.41l12.8,24.21c-1.07-6.14,1.57-10.75,1.79-15.52.8-17.25.49-33.89.09-50.93-.07-2.81-3.37-5.6-1.67-9.25,1.34-2.89-1.44-5.73-1.59-8.03-.31-4.94-5.56-21.58-7.71-26.7l-3.28-7.82-6.04-13.84c-1.89-4.32-4.78-7.87-6.9-11.98-1.54-2.98-2.14-6.12-4.51-8.62.73.77-11.84-17.39-12.66-18.28-10.19-11.02-20.4-21.48-31.78-31.23l-10.77-9.22-9.54-7.46c-1.91-1.49-4.44-2.98-6.47-4.45l-7-5.05-6.99-4.82c-8.54-5.89-16.97-11.14-26.91-14.45,2,4.81,4.47,9.19,5.72,14.11l1.81,7.07,2.25,9.99c2.42,10.73.05,46.71-3.9,62.79-4.25,17.3-12.42,32.8-22.37,47.47-2.01,2.97-3.49,6.3-6.84,8.17,5.23,3.88,9.82.08,14.57-.2,10.63-.63,21.12-.73,31.75.06,2.74.2,6.02,1.46,8.8,2.18l9.46,2.46c9.68,2.52,31.54,13.9,40.54,19.34l9.36,5.66c11.6,7.01,14.82,12.42,23.49,23.42,1.38,1.75,13.39,18.84,14.49,20.92Z"/>
  <path class="cls-1" d="M444.12,693.55c-19.32,3.49-47.98,2.37-68,2.19-3.21-.03-6.33-3.26-10.16-1.82-4.21,1.58-8.17-1.51-11.83-1.6-5.65-.14-30.52-5.5-35.39-7.12-13.01-4.31-25.4-8.91-37.88-15.16l-41.86-20.97c-9.36-4.69-18.17-9.33-25.91-16.15l-10.55-9.29c-14.2-12.5-21.34-22.77-28.69-40.53-4.31-10.42-6.56-18.78-9.28-29.25l-2.09-8.07c-1.66-6.43-1.07-13.92.02-20.48,1.3-7.87,5.84-16.89,8.47-24.48.92-2.65,2.68-4.67,3.52-7.55,2.4-8.24,7.66-15.13,12.88-22.04s11.86-11.96,17.62-18.17c3.8-4.1,8.67-5.76,13.71-7.5l12.63-4.37c8.66-2.99,22.11-2.16,31.18-.07,4.75,1.09,6.69,3.25,9.44,6.95,6.24,8.38,2.02,12.68-1.27,19.35-5.75,11.67-16.76,15.59-28.95,10.75-2.09-.83-6.5-.55-8.93-1.71-1.67-.79-5.32,1.94-7.67,2.2-4.09.45-20.18,16.01-24.03,21.2-.91,1.22-7.15,14.45-7.56,16.39-.56,2.6-1.66,5.5-2.02,7.93-1.09,7.46-.71,15.11-.12,22.63.29,3.66,6.5,17.58,9.66,21.93,16.35,22.58,11.78,18.83,33.99,27.32l10.07,3.85c4.09,1.56,8.66,2.64,12.72,4.44,3.71,1.64,7.62.95,10.92,2.01,6.33,2.04,11.12,2.38,17.51-.09-3.49,1.35,15.98-3.22,17.85-3.98l21.35-8.66c2.69-1.09,23.38-15.12,24.78-17.4.26-.43,25.09-21.33,28.82-27.17l3.89-6.07,4.05-5.95c5.28-7.76,15.46-29.46,19.22-38.8l3.15-7.82c1.91-4.74,3.53-9.68,5.73-14.41l7.54-16.25c3.27-7.05,4.19-14.78,7.46-21.76,5.73-12.25,11.78-23.86,18.26-35.71-.21.38,8.06-11.94,6.64-10.33,7.55-8.54,15.48-16.38,23.9-23.89,19.76-17.63,33.72-16.91,43.07-19.85l6.15-1.94c8.28-2.61,47.51,2.05,42.88,2.04,10.87.03,29.95,12.41,39.13,18.7,9.09,6.23,28.38,29.83,32.25,40.85,1.21,3.45,1.18,6.61,1.87,9.92,2.28,10.82,2.28,20.52-.12,31.25-.84,3.77-.56,7.17-1.71,11.3l-2.19,7.83c-4.49,16.08-24.2,37.14-42.31,40.38-4.65.83-10.94,1.28-15.04-.3-6.49-2.51-13.61-6.4-16.16-12.42-2.68-6.3-1.55-13.77,2.55-18.77,3.61-4.4,9.59-9.6,16.37-8.41,10.72,1.88,22.57-1.27,27.2-11.52,2.71-5.99,3.26-11.71.16-17.08-1.05-1.82,1.09-5.2-.19-6.83-1.74-2.21-1.25-4.69-2.18-7-12.65-31.3-31.49-38.47-62.94-45.69-17.87-4.1-50,8.86-62.2,21.96l-6.22,6.68c-6.46,6.94-10.83,13.5-13.73,22.38-1.78,5.46-5.02,10.79-6.28,16.48-.59,2.65-.56,4.76-1.99,7.21s.73,5.97-.51,8.57c-1.18,2.47-2.69,5.16-1.7,8.08,1.15,3.4-1.47,5.6-1.68,8.26-.53,6.73-1.21,13.97.14,20.62l2.02,9.97c.69,3.4,1.56,6.38,1.95,10.05.75,7.18,10.15,22.27,14.68,27.91l5.33,6.64,6.31,8.48c2.63,3.53,4.02,5.58,7.66,7.98l13.75,9.07c11.52,7.6,33.4,17.25,46.91,20.81,2.25.59,13.1,3.78,13.98,3.8-.46,0,24.68,4.88,35.72,2.01l7.97-2.07c3.67-.95,7.01-2.7,10.75-4.08l5.85-2.18c1.2-.45,2.44-.01,3.15.66.65.61,2.32,2.38.98,3.58-5.46,4.93-9.86,11.02-15.74,15.03l-21.6,14.74-16.62,10.45-11.45,6.47c-7.62,4.31-14.83,8.79-23.06,12.12l-22.75,9.2c-13.92,5.63-49.93,17.57-63.43,20l-11.75,2.12ZM436.01,654.68l24.84-2.14c-4.76.41,18.37-4.33,16.94-4.01l9.02-2.01c2.3-.51,4.26-1.82,7.14-1.9,7.82-.21,7.34-1.44,15.92-3.06,9.2-1.74,13.67-4.81,22.2-9.14-6.02-3.5-10.6-5.33-16.06-7.55-8.28-3.36-16.13-7.59-23.94-11.88-11.04-6.07-29.41-21.41-36.9-31.16l-7.86-10.22c-4.94-6.43-15.14-28.04-17.79-36.85l-2.11-7.02c-.99-3.31.09-6.52-3.01-10.46-4.08,12.15-10.11,24.03-17.44,35.66-2.47,3.92-3.98,8.39-7.14,12.15-5.03,5.97-22.66,23.78-28.62,27.31l-5.44,3.22c12.03-7.13-25.8,18.99-19.11,14.15-3.89,2.82-7.61,4.13-11.94,6.11-14.86,6.78-28.66,14.97-44.6,19.22-6.74,1.8,2.96,3.19,8.06,4.47l7.98,2c4,1,13.64,3.39,16.7,3.15-.49.04,38.58,7.26,42.04,7.72l15.31,2.03c18.48,2.44,37.11,1.84,55.81.22Z"/>
  <path class="cls-1" d="M254.22,585.61c-11.97-3.96-9.98,2.2-31.75-10.3-3.06-1.76-6.24-5.47-8.29-8.25l-5.56-7.55c-3.25-4.41-5.6-16.59-6.53-18.5-2.44-5.03-2.64-12.11-1.67-17.69,1.87-10.86-2.11-4.83,5.31-17.77,3.4-5.93,12.14-15.31,19.55-18.12,2.85-1.09,8.6-.95,11.41-.02,6.9,2.29,10.91,8.85,13.97,14.89,3.77,7.46.45,14.98-3.95,21.26-8.12,11.6-11.87,8.5-14.19,13.93-.97,2.26-1.2,6.79.05,9.04,4.35,7.86,14.72,11.63,23.45,13.66,8.32,1.94,17.76.58,26.87.46,1.62-.02,4.14-1.52,6.14-1.91,10.8-2.09,24.7-9.57,30.55-18.99,5.26-8.47,14.47-17.77,16.9-25.1.23-.68,4.23-16.58,4.17-15.77.61-8.98.69-17.79-.05-26.73.12,1.49-4.38-14.92-4.24-14.53-5.29-13.97-10.31-27.22-18.42-40.17-4.05-6.46-11.03-12.21-16.98-17.09-4.21-3.45-21.53-14.95-26.24-15.79-2.41-.43-5.51-2.33-7.51-2.25-7.89.28-14.78-4.64-36-1.67-23.08,3.24-53.16,21.03-71.67,35.89l-9.98,8.01c-11.66,9.36-23.22,23.53-30.38,36.75-4.85,8.96-10.05,17.32-14.03,26.76-.51,1.2-1.96,1.82-2.73,2-5.44,1.33-12.02-19.36-11.97-18.68l-.85-13.06c.08,1.16-4.05-17.16-3.7-18.31,1.34-4.35-1.08-8.17-1.52-12.15-.92-8.28-.18-16.4-.26-24.68-.02-1.86,1.73-3.49,1.77-5.35l.51-29.7c.06-3.29,2.75-6.29,1.64-10.16s4.37-20.99,5.97-26.06l7.4-23.52c.48-1.53.64-2.23,1.21-3.8l7.99-22,3.13-8.01,4.26-10.63c2.98-7.42,7.45-13.93,11.16-20.76l4.64-8.54,4.62-6.35,4.87-7.13,5.21-6.84c1.72-2.26,3.18-5.8,5.14-7.47,2.61-2.23,3.49-4.54,5.45-6.89,6.02-7.22,25.45-27,32.68-33.25,3.78-3.27,19.11-13.71,24.24-16.68l17.74-10.25c17.16-9.92,34.33-19,53.85-23.23l8.77-1.9c8.63-1.87,11.47-2.62,20.67-4.16l11.26-1.89c15.12-2.54,20.11,1.06,31.85,1.8,2.86.18,5.46,1.97,9.08,1.97,4.63,0,28.73,9.9,34.74,12.73,1.69.8,3.82,2.66,5.3,3.65l6.07,4.06c3.49,2.33,17.93,17.05,20.85,20.99,2.49,3.37,12.67,17.63,12.54,20.58-.1,2.36,2.34,4.21,2.6,6.31,2.91,23.4-2.97,51.15-20.32,68.37-8.98,8.92-22.83,16.13-35.59,12.4-5.27-1.54-10.25-4.27-14.46-7.23-6.21-4.37-9.56-13.18-5.26-19.52,5.65-8.33,16.78-5.53,27.68-14.3,5.59-4.5,12.02-9.83,13.33-17.51,1.09-6.36,4.08-14.78,1.73-21.37-4.34-12.18,1.98-9.4-15.97-25.83-4.7-4.3-12.77-10.16-18.92-11.35-3.16-.61-6.33-2.65-9.55-3.1-2.78-.39-4.8-.5-7.21-2.03-2.06-1.3-5.62.85-7.73-.32-3.32-1.83-6.11-2.41-10.16-1.89-5.13.66-10.74-2.99-15.76-1.73-16.12,4.05-6.82-1.38-25.98,6.45-3.43,1.4-6.44,5.35-9.87,7.42-6.33,3.83-9.85,9.66-13.88,15.19-1.96,2.69-3.88,4.62-5.66,7.5l-3.82,6.16c-8.36,13.47-17.16,37.82-18.43,53.19-1.71,20.78.18,37.01,6.23,56.21,4.4,13.96,9.25,27.37,17.47,39.43l4.9,7.2c8.16,11.98,8.52,10.84,18.26,20.67,5.31,5.35,10.44,10.9,15.38,16.48l7.03,7.93c2.34,2.64,3.91,5.18,6.05,8.06l6.38,8.59c.12.16,8,11.71,8.04,11.78,6.14,10.06,12.11,26.36,15.49,37.52l3.73,12.32c.85,2.8,3.65,16.02,4.05,18.83,2.87,20.02-3.73,33.47-4,40.65-.04.94-3.37,10.81-4.55,13.12-5.7,11.11-14.83,28.1-24.9,34.93-2.34,1.59-4.19,3.09-6.4,4.78-9.48,7.21-26.16,16.27-37.78,17.96-6.24.91-12.44.2-18.71.24-1.51,0-2.79-1.51-4.29-1.79-4.47-.82-9.36.93-13.63-.48ZM186.66,366.4l14.65-6.11c4.46-1.86,9.17-3.72,14.09-4.74l10.56-2.18c4.05-.84,7.43-.4,11.3-1.94,4.12-1.64,9.22.5,13.81-.6-.7-3.65-3.83-6.04-5.83-8.89-6.27-8.93-9.83-18.68-13.39-28.76-1.53-4.34-8.65-24.4-8.53-26.97.15-3.45-1.63-5.69-1.87-8.37-.89-9.87-.68-19.77-.09-29.7.2-3.32,2.89-6.23,1.66-10.23-.88-2.85.47-5.66,1.8-8.03,1.05-1.86-.83-5.09.37-6.57,2.01-2.46,1.11-4.79,1.87-7.37,2.64-8.87,5.29-17.58,8.9-26.09,1.19-2.8,3.1-4.93,4.01-8.07.6-2.07,7.58-8.51,3.52-9.81-.87-.28-23.67,17.01-25.61,18.96l-40.89,41.04-8.55,10.55c-2.56,3.15-5.28,6.74-7.88,10.01l-7.04,8.87c-3.89,4.89-5.55,11.04-8.61,16.51-7.85,14.03-13.17,28.55-18.07,43.81l-4.37,13.62c-.15.47-4.08,14.6-4.11,13.48.11,4.1-1.4,6.76-2.02,10.16-.8,4.37.1,7.98-2.22,12.09-1.28,2.26.93,6.26-.28,8.79-1.64,3.45-2.54,7.18-1.73,11.07s-1.27,6.86-1.69,10.19c-.96,7.54-.47,14.75-.02,22.5,13.48-11.7,11.59-13.4,25.25-24.99,2.86-2.43,5.2-4.62,8.44-6.66,18-11.32,19.83-16.09,42.58-25.58Z"/>
  <path class="cls-1" d="M407.21,398.26c-6.02-4.61-9.25-10-10.1-17.83.5-10.11,14.83-18.32,23.28-20.24l7.24-1.65c6.23-1.42,12.63-2.74,18.12-4.1l8.03-1.98c2.17-.53,4.63-1.38,6.94-1.94l12.08-2.91c3.88-.93,7.62-2.84,11.42-1.16-1.02,4.71-4.64,5.29-7.44,7.36-2.21,1.63-21.3,15.43-21.35,15.49-4.51,5.02-9.73,8.28-14.47,12.6-7,6.38-12.77,12.78-21.77,16.38-4.02,1.61-7.76,3.2-11.97-.03Z"/>
  <path class="cls-1" d="M387.95,482.57c.53-4.18-1.47-6.66-1.67-9.82l-.6-9.42c-.15-2.34-2.42-4.46-1.69-7.28.79-3.03-2.44-13.5-3.47-17.38l-1.9-7.16c-1.99-7.49-3.97-12.05-2.14-21.51.53-2.72,5.17-6.66,7.77-7.46,6.85-2.1,17.43-.86,21.31,6.82.77,10.57.85,20.88-.02,31.48.55-6.76-4.74,21.26-3,15.03l-2.21,7.93c-1.48,5.3-8.47,22.05-8.85,22.18-1.71.57-3.85-.7-3.51-3.42Z"/>
  <path class="cls-1" d="M384.42,383.44c-2.3,5.49-9.6,12.04-15.65,12.13-2.17.03-6.75-1.31-8.36-2.77l-14.69-15.46c-1.64-1.72-1.34-3.87-4.14-5.17-3.32-1.54-6.29-5.16-8.49-8.16-7.75-10.55-15.42-9.4-18.49-21.3,3-2.1,5.78-.11,8.61.93l13.41,4.93c12.24,4.5,23.5,10.12,35.59,15.22,4.54,1.92,9.92,4.01,12.23,8.78,1.26,2.6,1.13,8.15,0,10.86Z"/>
</svg>