<?xml version="1.0" encoding="UTF-8"?>
<svg id="Layer_1" data-name="Layer 1" xmlns="http://www.w3.org/2000/svg" viewBox="0 0 86.4 86.4">
  <defs>
    <style>
      .cls-1 {
        fill: #fefefe;
      }
    </style>
  </defs>
  <path class="cls-1" d="M79.52,43.15c0,20.01-16.26,36.23-36.33,36.23S6.86,63.15,6.86,43.15,23.13,6.92,43.19,6.92s36.33,16.22,36.33,36.23ZM78.29,43.15c0-19.33-15.72-35.01-35.1-35.01S8.08,23.81,8.08,43.15s15.72,35.01,35.1,35.01,35.1-15.67,35.1-35.01Z"/>
  <path class="cls-1" d="M74.88,39.01c-.29.08-.6.28-.79.73-.97-1.25-1.38-1.27-2.05-2.27l-1.53,2.44c-.24.38-.44.68-.42,1.25-.6.22-1.34,1.08-1.14,1.85.3,1.14,2.68,4.78,2.51,4.69.5.28,1.61-1.77,2.79-1.8.21.42.33.84.7,1.33-.24.32-2.95,2.5-2.91,2.43-.16.31.19.28.32.48l2.28,3.3c.8-2.44,1.7-5.02.23-7.2-1.79-2.65-3.43-.95-4.59-1.01-.24-.01-.5-.88-.34-1.07,1.31-1.23,3.84-1.19,5.46.33.59-.78.67-1.91-.03-2.61.21-.14.33-.35.48-.72.11-.04.18-.28.27-.34.84-.55,2.02,2.57,1.11,4.31-.4.13-.73.05-1.04.3,1.93,2.59.08,7.55-1.1,10.46-1.95-.88-3.73-5.07-4.17-5.17-.31-.08-.39.28-.61.47l-2.05,1.69c-.2-.7-.67-1.5-.16-1.95l2.34-2.11-1.46-2.07c-.51,1.57-1.5,2.74-1.29,4.22l1.23,9.09c.16,1.15.31,2.18.25,3.38.48-.39,0-.91.27-1.3,1.84-.96,2.8-2.76,3.49-4.49-1.52.09-2.41.65-3.67.95-.25-.47-.36-1.01-.41-1.76,1.88-.68,3.95-.95,5.94-.22-1.05,2.58-3.05,7.05-5.79,7.37-.38,3.21-1.94,4.17-5.15,4.49.12.22.3.25.4.38.14.19-.08.31-.17.49-.65,1.35-1.71,2.12-2.89,2.89-4.11,2.72-7,1.76-10.93.36-.43,1.06-1.34,1.76-2.3,2-.53.13-1.04-.59-1.4-.78,1.32-.59,1.32-1.68,2.66-1.89-.85-.22-3.29-2.25-4.09-2.04-.3-.56-1.24-1.4-2.15-1.11-.73.23-3.68,2.57-4.58,2.33l1.87,2.48c.25.33-.9,1.21-1.26.98-1.11-.74-1.64-1.84-2.56-2.96-.28,1.02-2.79,2.07-3.59,2.95,1.65.33,3.09,1.05,4.7.94,1.4-.09,2.82-.78,3.61-1.87,1.5-2.07-1.65-3.41,1.03-3.95,1.09,1.61,1.17,4.13-.41,5.58,1.33.87,1.65-.03,3.33.12-.01.3.18.58.27.95-1.03,1.31-4.31,1.38-5.05.04-3.12,1.36-6.92-.41-9.95-1.36.28-1.57,4.82-3.89,5.03-3.91.24-.02.24.52.65.41-.57-1.31-1.76-1.99-2.58-3.4.53-.22,1.16-.2,1.73-.35l2.33,2.58c.36-.6,1.02-.86,1.87-1.31-.96-.83-2.36-1.46-3.77-1.44-3.64.05-13.07,2.7-15.89.5-1.42-1.11-1.95-3.03-2.09-4.65-.33.26-.08.61-.18.9-2.07-.95-3.37-2.71-4.37-4.72-1.57-3.14-.84-6.07.43-9.18-.86-.68-1.53-1.54-2.11-2.49l.66-1.27c.98.52,1.48,1.28,2.26,1.99.9-1.19,1.67-2.3,2.19-3.67.26-.42.9-.85.94-1.4.05-.71-.04-1.28-.7-1.82-1.47,1.61-4.07,1.63-5.82-.02-.8.94-.24,1.88.06,3-.2.22-.86.21-.72.96-1.69-.78-1.96-3.6-.76-5.04.6-.33.58.94,1.06.9-.77-1.33-1.54-2.58-1.29-4.27.36-2.39,1.08-4.62,1.94-6.94,1.78.95,3.2,3.64,3.97,5.39,1.18-.66,1.78-1.46,2.8-2.37.31.57.35,1.17.45,1.8-.7.69-1.78,1.25-2.13,2.2-.3.79.69,1.33,1.04,2.27.29-1.22,1.46-2.5,1.27-3.99l-1.33-10.54c-.35-2.78-3.93,2.84-3.97,3.52,1.42-.24,2.65-.31,3.78-1l.42,1.91c-1.92.47-4.11,1.13-5.94-.02,1.32-2.7,2.71-6.32,5.38-7.27.14.77-.19,1.55.17,2.15.23-1.87.1-4.13,1.61-5.41,1.29-1.09,3.23-1.13,4.7-1.41-.48-.36-1.1.13-1.53-.32.73-1.18,1.69-2.87,2.61-2.83l.65.02.39-.66c1.14-1.92,7.86-1.62,10.46-.18.26-.65,1.89-2.25,2.58-2.27-1.87-.6-3.7-.24-5.3.62-.78.42-1.86.2-2.74.12,1.59-2.55,7.47-2.89,9.97-1.62,1.14.58,2.13,1.57,2.32,2.64.28,1.51-.16,2.76-1.27,3.88.82.73,2.32.58,2.82-.25-1.57-1.27-1.38-4.59.19-5.89-1-.39-1.82-.4-2.65.16-.56-.33-1-.55-1.56-.98,1.66-1.39,4.01-1.74,5.46-.08.78-.1,1.59-.78,2.57-.66,2.63.32,5.13,1.04,7.6,2.06-1.44,1.84-3.2,2.98-5.23,3.74-.43.16-.91-.91-.62-1.11l3.2-2.16c-2.37-.82-4.63-2.02-7.48,0-2,1.42-.6,3.71-.62,4.03-.01.25-.46.25-.4.7l2.98-1.71c-.83-.86-1.5-1.41-1.92-2.44.49-.35.84-.59,1.3-1.04l2.78,3.29c.96,1.14,1.91,2.24,2.94,3.47-.47.57-1.05-.05-1.4.48l8.38-1.14c1.46-.2,2.87-.05,4.36,0,3.45.1,4.26,3.06,4.39,5.71.38-.36-.04-.78.26-1.28,3.95,2.56,6.16,6.54,4.7,11.34-.32,1.04-.55,1.96-1.25,2.89-.08.1.38.4.41.22.02-.12.11-.23.24-.48.6,1.45,2.07,1.33,1.79,3.11ZM41.02,16.12c-.54-.45.27-1,.36-1.43.12-.54-.83-3.45-1.91-2.69.24,1.18-.49.91-2.04,2.49,1.01.09,4.26,3.18,4.1,1.91-.02-.15-.28-.09-.5-.28ZM25.92,18.91c-1.36.48-4.66.32-6.03,1.38-1.16,2.04-1.09,4.49-.68,6.72.1.55-.29,1.13.22,1.47,0,3.3,2.27,9.09-1.26,12.1-.67.58,2.45,2.45.32,4.45-.35.33-.34.84-.51,1.16-1.11,1-1.59,2.4-2.48,3.51-.35.44-.22.92-.4,1.28-2.26,4.59-1.44,8.6,2.37,11.48.12-1.11-.24-1.88.5-2.54-1.23-.61-2.62-1.1-3.57-2.22-.11-.59,0-1.33.04-1.94.28.18.81.76,1.1.48s.08-.93.42-.96c.39-.04.61.06.73.25.13.2.19.67.07.83-.18.23-.72-.16-1.11.15.68,1.15,1.91,1.51,3.12,1.83l3.41.91c.4.11.17,1.6-.31,1.53l-3.21-.44c.83-.04.45,3.87.88,4.24-.12-3.08,2.3-.53,3.03-3.8.37-1.63.22-3.12-.84-4.48-.42-.54-.44-1.36-1.06-1.79-.66,1.18-1.05,2.32-1.31,3.66-.57-.12-1-.34-1.68-.59.49-2.02,1.48-3.96,3.42-5.11.7,1.12,1.02,2.27,1.72,3.23.88,1.2,1.5,2.44,1.44,3.89.36-.27.22-.57.25-.63,1.79.43,2.28,1.97,2.55,3.27,2.26.61,4.98,1.54,6.58,3.48-.64.15-1.18.13-1.79.37-1.35-1.42-3.28-2.16-5.22-2.23-1.7-.06-2.78.86-3.21,2.43-.13.47-1.64.36-1.6-.2.2-2.35,2.2-3.71,4.31-3.71-1.23-.5-.37-.57-2.1-2.07-.22,2.25-1.9,4.23-4.36,4.3-.22,1.39.83,1.79,1.7,2.33.92.56,1.29.49,2.4.4l3.53-.28,6.59-.91c2.75-.38,4.43.27,6.74,1.57-.58,1.62,1.96-1.22,3.01-.72l1.92.93c.54-.23.93-1.13,1.58-1.23,1.62-.26,3.1-.9,4.7-1.28,1.16.13.78,4.81-.24,5.71-.56-.31-1.02-.47-1.56-.87.56-1.09,1.06-2.13,1.17-3.33-1.83.34-3.12,1.04-4.64,1.72,1.26.75,2.24,1.86,3.63,2.33l3.55,1.23c.22.18.15.68.41.82l1.75-.71c1.35-.55,1.35,1.17,7.21-3.54-1.07-.26-1.9,0-2.96-.13.12-.58.37-1.05.58-1.66,1.43.04,2.73.04,4.03-.36-.6-.27-1.09,0-1.69-.13,0-1.59-.97-2.53-2.4-2.9-2.43-.63-3.97.7-6.12,1.84,1.2.95,2.5,1.05,3.81,1.44-.3.61-.81.95-.49,1.57.79-1.42,1.22-2.98,1.18-4.57.75,0,1.17-.1,1.81.16-.38,3.71-.85,4.57-2.84,7.7-.82.03-1.43.1-2.19-.02.7-1.11,1.6-1.99,2-3.25-2.25-.39-4.3-1.37-5.3-3.34.71-.71,3.19-1.05,2.78-2.25-5.55,3.25-12.4,4.53-18.61,2.35-1.4-.49-2.79-1.04-4.11-1.66-8.55-3.95-13.58-13.54-12.54-22.94.64-5.78,3.38-10.93,7.64-14.84.17-.15-.21-.92.36-.93.93-.02,1.62-.49,2.33-1.02,2.73-2.02,6.99-3.49,10.37-3.79,6.22-.54,12.24,1.1,17,5.06s7.72,9.23,8.52,15.52c.19,1.46.1,2.64,0,4.1-.49,7.65-4.57,13.92-11.02,18.18,2.26-.47,4.1-1.15,6.15-.52,1.93.59,3.13,2.14,3.35,4.05,3.08.46,2.65-5.27,2.42-7.1l-.86-6.62c-.86.31-.05,1.17-.24,1.51-1.01,1.47-1.92,2.95-2.15,4.71s.67,3.43,2.56,3.82c.48.1.17,1.66-.5,1.6-1.97-.18-3.08-1.91-3.61-3.61-1.96.14-.64,1.83-3.34,1.02.32-1.44,1.55-2.47,3-2.49.15.39-.09.71.25.98.01-2.73,1.46-5.53,3.32-7.58.2.02.47.05.49-.07.36-3-.39-3.85,2.07-7.54-.64-.98-1.42-2.09-.86-3.13l.82-1.55c.25-.48.55-.38.48-.96,1.33-.88,1.81-2.53,2.4-3.83.42-.92,1.08-1.76,1.3-2.74.34-1.55.19-3.29-.19-4.86-.43-1.8-1.79-3.11-3.22-4.12-.17.82.11,1.47-.16,2.23-.68-.28-1.12-.3-1.57-.32.1-1.53-.05-2.83-.48-4.07-.25-.73.21-1.37-.7-1.77-.61-.27-1.37-.84-2.19-.84-1.61,0-3.18-.17-4.76.04l-8.02,1.06c-2.05.27-4.15-1-5.81-2.04-.92.35-1.71,1.34-2.73,1.11-.85-.19-1.42-.92-2.19-1.14-.43-.12-.38-.67-.96-.48-3.78-3.89-12.11-5.82-15.38-.29l2.23.08c-.23.54-.27.96-.29,1.41ZM48.11,15.41c0,.23.2.41.28.36.11-.07.14-.27.1-.35-.06-.11-.38-.25-.38-.02ZM51.26,18.56c-.99-.91-1.46-1.76-2.41-2.5-.5.47-1.21.74-1.97,1.11-.2.82,4.39,2.01,4.38,1.38ZM65.16,43.16c0-12.1-9.84-21.92-21.98-21.92s-21.98,9.81-21.98,21.92,9.84,21.92,21.98,21.92,21.98-9.81,21.98-21.92ZM12.48,40.55c-.5-.68-.7-1.03-1-1.56,1.37-.93,2.27-2.05,3.53-2.81-.09-.41-.51-.28-.55-.06-.02.08-.15.28-.35.34-.76-1.15-1.33-2.41-2.39-3.59-.88,3.01-1.89,5.59.63,8.06,1.02,1,2.93.81,3.83-.38-.4-.83-.99-1.23-1.22-2.1l-2.47,2.12ZM15.65,37.62c-.19.25.05.53.18.33.05-.07.26-.18.24-.26-.03-.11-.3-.22-.42-.06Z"/>
  <path class="cls-1" d="M75.84,41.17c-.14.05-.39-.01-.44.17-.04.13-.13.46-.04.55-1.61,1.03-3.04,1.66-4.74.61-.23-.14-.67-.18-.74-.51-.06-.26.21-.54.2-.81.25-.09.31-.61.64-.43.88.48,1.77.6,2.73.16.79-.37,1.21-1.04,1.43-1.88.19-.75.75-1.26.51-2.2s-.21-2.2-.7-3.13c-.57-1.05-.72-2.19-.04-3.08,2.55,3.32,2.61,7.03,1.2,10.57Z"/>
  <path class="cls-1" d="M71.04,35.66c-.34.04-.52.39-.94.53-1.04-.66-2.05-1-3.19-1.16.48,1.12.61,2.05,1.09,2.95.28.52.55.83.64,1.51-.32.21-.46.58-.48.96-.83-.01-1.17-.92-1.4-1.72l-1.3-4.48c1.94-.87,4.12-.62,5.76.46-.04.36-.22.68-.17.95Z"/>
  <path class="cls-1" d="M16.56,45c-.45.54-1.2.41-1.65.3-1.87-.49-3.23.61-3.67,2.33-.54,2.14-.01,4.27,1.01,6.2l-.39,2.09c-2.27-2.97-2.87-6.78-1.54-10.2.44-.25.57-.62.72-.96,1.23-1.42,3.06-1.87,4.61-1.06.42.22,1.3.81.91,1.3Z"/>
  <path class="cls-1" d="M28.56,17.71c-1.02,1.3-.99,3.07-1.5,4.78-.46-.07-.99-.24-1.53-.4-.02-1.06.34-2,.39-3.18.78-1.47,1.32-3.04,2.43-4.3.45-.51,1.68-.25,2.2-.13-.76,1.21-1.76,2.05-1.99,3.23Z"/>
  <path class="cls-1" d="M39.36,17.71c.22.23.44.45.96.48.99,1.64-4.77,1.81-5.95,2.86-.81-1.06-.85-4.68.3-5.66.35-.3,1.6.42,1.49.86-.27,1.06-1.09,1.94-1.1,3.2,1.12-.35,2.27-.55,3.25-1.13.39-.23.55-.45,1.06-.61Z"/>
  <path class="cls-1" d="M15.12,50.98c.37-.07.69-.41.81-1.01,1.15.42,1.93,1.22,3.47,1.27-.43-.98-.55-2.22-1.14-3.18-.39-.64-.7-1-.26-1.87,1.66-1.5,2.12,4.66,3,5.82-1.83.93-3.75.74-5.51-.22-.29-.16-.54-.36-.38-.81Z"/>
  <path class="cls-1" d="M45.12,69.9c.32.6.62.7.2,1.44-.57,1.01.11,2.51,1.24,3.15,2.23,1.25,5.02.71,7.25-.45.47-.16,1.42.19,2.05.36-3.25,2.52-7.44,2.97-10.74.98-2.32-1.4-2.09-3.97-.83-5.67.16-.21.62.24.83.19Z"/>
  <path class="cls-1" d="M19.44,28.48c0-.45,0-.85-.04-1.54,1.03-.33,2.06-.8,3.06-.5-.25-1.75-1.11-2.92-2.75-2.75-.11-.7-.05-1.27.28-1.88,2.1.17,3.59,1.81,3.87,3.84,1-.33,1.63-.84,1.85-1.64-2.91-.64-3.49-1.52-4.14-4.09.66-.1,1.09-.11,1.7,0,.08,1.36.98,2.37,2.33,2.68,2.9.67,3.6-.6,6.26-1.76-1.23-.81-2.33-1.01-3.68-1.35.15-.58.25-1.09.39-1.77,2.23.5,4.09,1.47,5.28,3.5-1.6.68-3.15,1.58-4.72,2.55-.98.6-2.05.35-3.22.44.19.45.84.06,1.2.25.28,2.32-2.77,2.41-2.7,2.55l-.31-.68c-.33,2.68-1.37,5.24-3.45,7.34-.43-.6-.5-1.45-.17-1.96,1.01-1.57,1.88-3.17,2.1-4.95-.8.05-.35.75-.61,1.1-1.27.3-1.98.99-2.5.63Z"/>
  <path class="cls-1" d="M66.72,21.78c0,.59.08,1.05-.15,1.58-1.18-.1-2.25.49-2.56,1.7-.73,2.84-.31,3.83,1.67,6.51.81-1.22.95-2.19,1.32-3.34l1.4.25c.26,2.13-1.33,4.18-3.13,5.38l-1.78-3.36c-.71-1.33-1.42-2.45-1.37-3.96-.38.37-.12.87-.55.69-1.42-.59-2.14-1.73-2.23-3.05.68,0,1.37-.23,1.57.12l.48.84c.27.48.73.67.95,1.21-.08-2.37,2.11-4.97,4.39-4.57Z"/>
  <path class="cls-1" d="M67.2,25.85c1.49.91,6,1.66,4.63,4.72-1.01-1.22-2.18-1.49-3.43-2.08-1.31-.63-2.61-1.46-4.32-1.16-.02-.69-.04-1.11.01-1.67,1.06-.24,1.96.14,3.1.2Z"/>
  <path class="cls-1" d="M29.71,74.7c-2.38-1.19-6.78-2.82-7.42-5.49,2.73-.66,1.93,2.08,6.29,3.5.03-1.25-.51-2.26-.84-3.62.55-.23,1.14-.34,1.73-.41.77,2.44.94,3.59.25,6.02Z"/>
  <path class="cls-1" d="M57.85,13.58c-.17,1.3.56,2.24.68,3.47.05.49-1.48.68-1.68.23-.72-1.67-.97-3.91-.05-5.67,2.38,1.3,6.88,3.05,7.32,5.61-.62.02-1.36-.1-1.89-.32-1.06-1.56-2.54-2.67-4.37-3.32Z"/>
  <circle class="cls-1" cx="76.92" cy="45.59" r=".12"/>
  <circle class="cls-1" cx="45.72" cy="76.23" r=".12"/>
  <path class="cls-1" d="M52.81,20.81c1.78-1.81,3.16,1.83,7.18,1.68,1.56-.06,2.91-1.3,2.79-2.84.75-.02,1.16.17,1.81.32-.12,2.59-2.64,4.3-5.37,3.96-2.31-.28-4.48-1.47-6.42-3.13Z"/>
  <path class="cls-1" d="M28.55,66.53c-.16.4-1.46.41-1.7.05-.42-.61-.39-1.51-.62-2.15.21-.42,1.05-.41,1.45-.13.28.61.74,1.32.87,2.23Z"/>
  <path class="cls-1" d="M64.55,60.19c-.37-.39-.38-1.25-.03-1.58.56-.52,1.3-.6,2.05-.96.31.38.69,1.35.2,1.73-.56.43-1.32.23-2.22.8Z"/>
  <path class="cls-1" d="M60.21,21.92c-.41.2-.98.13-1.58.04-.36-.71-.61-1.3-.86-2.21.55-.18,1.1-.31,1.69-.38l.75,2.55Z"/>
</svg>