<?xml version="1.0" encoding="UTF-8"?>
<svg id="Layer_1" data-name="Layer 1" xmlns="http://www.w3.org/2000/svg" viewBox="0 0 700 700">
  <defs>
    <style>
      .cls-1 {
        fill: #fefefe;
      }
    </style>
  </defs>
  <path class="cls-1" d="M197.25,590.15c6.66-2.16,14.31-1.35,25.77-10.09,6.83-5.21,6.71-1.81,12.63-9.14l4.56-5.64c1.77-2.19,3.23-4.88,4.56-7.38l4.16-7.84c5.39-10.15,4.15-21.96,3.39-32.97-.22-3.12-1.87-4.32-2.53-6.57-1.92-6.55-4.1-14.14-9.51-18.97-3.09-2.76-8.21-10.02-14.72-11.26-1.79-.34-2.81-2.54-4.56-3.64-3.27,2.66-4.97.21-7.74-.9-5.91-2.36-21.13,1.17-22.68,2.03l-7.66,4.3c-4.87,2.73-8.78,8.16-12.31,12.48-1.24,1.52-1.18,5.81-1.86,7.81-5.77,16.94,12.06,22.83,4.2,39.64-1.12,2.4-.77,6.38-3.83,8.07l-7.67,4.22c-4.46,2.45-11.78,1.03-17.18.2-11.57-9.44-10.49-11.33-16.46-24.96-3.62-8.26-1.01-29.17-1.1-36.41-.04-3.74,1.47-4.92,2.61-7.7,2.66-6.48,7.43-20.64,13.72-23.99-.28-1.24-1.24-2.71-.65-3.51.65-.9,1.77-.28,2.93-.55,1.7-.38,2.09-3.47,3.39-4.85,4.36.18,6.1-3.54,9.12-5.74,5.83-4.24,12.85-6.01,19.14-9.98,2.21-1.4,6.51-.8,9-1.52l7.17-2.06c8-2.3,17.32-1.43,25.73.25l10.01,2.01c3.94.79,7.98,2.36,11.73,4.1l10.62,4.94c2.58,1.2,3.55,2.08,5.5,3.84,8.81,7.96,13.38,7.47,17.28,16.78,1.34,3.19,6.27,4.89,7.42,8.25.8,2.36.8,3.87,2.59,5.67,2.87,2.88,7.82,18.75,7.39,21.25-.54,3.16,2.88,5.02,3.09,7.07,1.13,11.02,1.54,41.11-3.32,50.71-1.53,3.03-3.59,13.81-5.99,17.08l-4.25,5.77c-1.47,2-2.08,3.94-2.93,6.06-.67,1.68-3.99,2.28-3.96,5.03.02,1.93-3.84,2.41-4.07,3.7-.56,3.19-2.47,3.84-4.54,5.62-7.18,6.19-13.3,13.93-22.32,17.52-3.86,1.53-6.97,3.94-10.91,5.24l-9,2.97c-2.39.79-5.08,2.53-7.59,3.32-4.64,1.46-11.71-.44-14.68,4.61-12.34-.55-24.42.71-36.61-.54-2.64-.27-5.07-2.71-8.37-2.82-15.07-.47-7.04-2.5-16.36-4.47-6.68-1.41-12.63-5.03-18.72-8.2l-8.02-4.18c-1.36-.71-3.97-2.78-5.78-3.26-2.88-6.73-12.3-8.48-19.05-18.53l-4.09-6.1c-1.16-1.72-4.4-3.7-5.12-5.37-1.66-3.84-3.61-6.36-5.65-9.64s-3.19-8.09-5.28-11.6l-4.03-6.78-2.99-10.23-3.34-11.72c-2.29-8.02.32-16.8-4.63-17.15.81-11.39-.82-22.81.71-34.41.32-2.39,3.41-4.45,2.86-8.26-.66-4.48,5.39-26.78,6.54-28.29,1.67-2.18,2.52-5.74,3.6-8.25,3.56-8.3,9.87-15.29,12.35-23.84,4.87-2.5,6.8-7.15,9.38-11.12.5-.77,16.15-17.58,18.44-18.62,4.49-2.04,7.57-5.56,11.59-8.41-1.49,1.06,18.96-10.85,16.04-9.51,10.06-4.61,37.53-19.38,45.93-21.24,2.41-.53,14.92-4.98,20.32-6.61l14.61-4.42,17.37-4.41c5.33-1.35,10.18-2.97,15.73-3.64l13.67-1.63c4.53-.54,8.35-1.28,13.05-1.92l19.85-2.69,10.99-.93c4.9-.42,8.67-1.16,13.07-1.86,5.82-.93,11.22-.16,16.75-2.7s11.37-2.91,16.17-6.83c.53-.43,2.6,1.32,3.22.67,3.78-4.03,1.86-2.86,5.36-2.79,1.19.02,1.45-2.76,2.25-2.97,4.39-1.17,7.5-2.62,9.07-7.22.38-1.12,3.15.19,4-.1,2.39-.82,3.64-4.69,5.51-6.05,3.02-2.18,4.71-3.73,6.09-7.18s6.23-5.76,7.37-9.25,3.46-5.22,4.73-8.03c7.5-16.53,8.19-18.13,10.89-35.52,1.15-7.42.99-15.56.18-23.19-.63-5.9-8.35-32.99-11.25-36.7-1.61-2.06-3.38-6.13-5.24-7.38-3.46-2.32-3.14-5.37-5.31-7.96l-12.8-15.28c2.98,3.56-12.38-9.29-12.39-9.3l-9.08-5.9c-8.43-5.48-29.21-11.9-40.43-12.5l-14.36-.77c-5.94-.32-11.21,2.02-16.43,2.64-3.11.36-5.23,2.21-7.94,2.94-4.92,1.32-8.36,2.76-12.5,5.77-3.63,2.63-20.19,13.33-21.69,17.22-1.62,4.18-4.55,6.51-7.17,9.92-1.81,2.36-1.85,6.33-4.66,8.3s-2.21,5.62-3.23,7.98c-4.23,9.75-7.56,32.15-3.41,40.26,1.5,2.93,4.97,17.05,7.77,20.09l8.52,9.25c7.61,8.26,10.46,10.67,23,15.49,4.66,1.79,8.75,2.49,13.57,3.4,8.6,1.63,15.84,1.25,23.64-3.6,5.76-3.58,15.14-4.87,18.65-15.66.61-1.88,4.92-2.81,4.61-6.12-.22-2.36,2.27-3.88,3.13-5.75,1.46-3.17-.37-7.06.65-10.29,3.68-11.66-6.22-24.83-9.6-26.71l-9.04-5.02c-6.85-3.8-14.5-3.61-21.95-5.36-12.11-6.27-10.94-19.8-7.92-31.47,15.4-11.33,5.77-6.59,22.39-8.05,6.49-.57,11.98,2.28,17.91,2.92,4.3.46,5.63,1.31,9.24,3.3l8.83,4.86c4.04,2.22,6.2,4.27,9.59,7.78l7.27,7.55c2.69,2.8,5.11,4.84,6.33,8.96.67,2.26,3.39,4.05,3.94,6.92,1.24,6.46,4.75,12.55,5.38,19.26,2.16,23-.33,40.95-13.25,59.96-.39.57.33,1.95.34,2.41.01.85-1.74.99-2.35,1.73-4.68,5.68-9.55,10.87-15.36,15.72-4.6,3.83-10.26,6.01-15.3,9.67-2.98,2.16-7.23,3.69-10.81,4.79l-10.01,3.07c-5.86,1.8-25.01,1.39-32.22.95-9.84-.59-18.31-2.72-27.28-6.77l-6.92-3.13c-6.68-3.02-13.92-7.35-18.44-13.29-1.19-.11-3.04,1-4.03.32-1.16-.8.19-2.48-.04-3.57-2.02-3.1-6.26-3.64-8.72-6.19-.54-.56.2-2.35-.69-2.44-.58-.06-1.09.24-2.74.44,1.95-4.26-1.84-5.55-3.39-8.22l-8.4-14.47c-2.07-3.57-8.68-25.58-9.39-29.43-1.36-7.33-.83-15.23-.23-22.66l.82-10.19c1.58-19.55,7.26-27.04,12.95-42.24,1.14-3.05,13.83-20.33,16.84-23.73,5.99-6.77,12.39-12.92,19.46-18.64,1.52-1.23,16.81-8.48,18.1-9.99,2.1-2.47,7.15-2,9.46-4.26s4.8-1.65,7.64-2.52c5.13-1.56,9.58-3.84,15.17-3.83,1.27-.07,2.05-2.12,3.4-2.84l42.87.58c1.81.02,3.32,3.94,6.81,3.07s7.15,1.32,10.09,2.24l8.46,2.64c7.73,2.42,11.23,2.76,18.66,7.6-2.2-1.43,17.14,8.79,13.29,7.31,4.2,1.61,6.21,4.42,9.58,6.72,6.19,4.23,22.98,18.99,26.89,25.11,1.84,2.88,3.87,6.42,6.51,8.33,2.3,1.66,2.05,3.05,3.26,5.26l3.45,6.33c3.93,7.19,6.41,10.23,8.57,16.55l7.12,20.82c.58,1.69,3.76,21.31,3.89,24.06.76,16.58.68,38.65-2.35,54.91-.76,4.09.22,8.4-.71,12.38l-2.09,8.92c-1.73,7.41-.98,10.12-4.24,21.76-3.76,13.42-.95,6.91-6.05,21.9l-2.83,8.31c-.93,2.73-.79,6.46-1.97,8.79-1.53,3.01-12.92,31.69-13.28,33.91-.4,2.46-4.34,10.49-6.42,13.25s-1.82,5.57-3.14,8.17c-2.41,4.75-5.31,8.92-6.41,14.4-.56,2.79-2.86,5.45-3.61,8.21l-2.79,10.24c-1.6,5.87-2.43,12.16-2.46,18.36l-.04,8.08c-.05,10.17,4.64,29.65,10.58,38.46,1.86,2.75,2.95,5.31,4.51,8.41,1.41,2.8,3.51,5.07,4.81,8.14,1.48,3.5,6.13,5.35,7.38,9.35,1.23.69,3.89.27,4.65,1.22,4.95,7.91,11.97,12.36,20.07,16.29l12.71,6.17c13.42,6.52,34.39,10.6,49.49,8.38,10.79-1.58,21.38-3.09,31.19-7.84,2.66-1.29,19.12-8.81,19.64-10.34,1.02-3.01,4.49-2.38,6.28-3.85,6.96-5.7,12.64-12.52,19.19-18.71,1.23-1.16.72-4.04,1.98-4.92,3.45-2.4,3.96-6.23,6.22-9.07,8.27-10.4,9.86-27.38,11.39-40.7.67-5.88-.58-9.53-2.46-14.69-1.25-3.43-1.11-8.53-3-11.39.8,1.22-4.66-19.58-23.5-35.33-3.14-2.63-5.46-5-9.3-6.98-4.14-2.14-12.1-7.22-15.18-7.74l-16.07-2.7c-3.25-.55-6.37-.72-8.84,2.06-3.42-4.26-25.19,6.39-27.87,8.86-9.94,9.2-24.13,20.69-24.6,36.63-.14,4.76-1.04,17.97,3.69,22.27.86.78.12,2.73.23,4,4.68,2.97,7.1,9.58,11.42,13,8.94,7.08,13.21,8.46,24.24,9.56,1.29.13,10.91-2.63,15.42-5.43,14.8-9.22,8.24-16.29,19.04-17.96-.25.04,11.38-7.91,24.18,2.97,4.73,4.03,5.28,8.87,5.54,14.75.41,9.38-4.54,17.79-10.64,23.61-3.56,3.4-6.09,7.03-10.69,9.54-1.56.85-1.25,3.65-4.84,3.48-3.17-.15-6.11,4.44-9.37,4.91-3.99.57-6.58,2.63-10.14,3.95-5.55,2.05-26.61,1.82-33.5,1.28-5.68-.45-11.56-2.83-16.59-5.17-2.89-1.34-4.81-3.98-8.34-1.11-.41-2.02-.41-2.6-.42-3.51,0-.73-9.16-5.5-8.2-4.41-3.22-3.61-6.22-6.84-9.86-10.23-9.6-8.92-3.99-7.29-11.45-10.98,1.07-3.7-.25-5.46-2.29-8.17-5.16-6.87-10.43-30.79-10-39.19.39-7.77-.36-15.98,2.89-23.14.51-1.13,4.01-16.89,6.31-18.6,2.02-1.51,2.24-3.99,3.49-5.85,2.23-3.33,4.73-5.74,6.37-9.94,1.15-2.95,6.47-4.87,8.22-8.18,2.57-4.85,6.76-7.26,11.35-9.68.78-.41.17-3.2,1.16-3.43,11.05-2.53-1.71.4,9.03-4.5,31.1-14.19,33.08-13.19,68.2-12.45,10.09.21,11.7,5.38,20.26,3.46,3.04,4.5,8.13,4.62,12.27,7.03-.79-.46,16.08,9.76,13.13,7.11l6.13,5.49c6.84,6.12,21.69,20.33,25.79,27.61l5.88,10.45c7.2,12.79,4.03,2.98,7.07,16.85.74,3.36,1.48,5.47,2.84,8.5,4.52,10.12.46,13.86,5.94,16.22l-.39,32.97c-.01,1.01-1.97,1.85-1.96,2.77,0,1.34.98,2.34,2.41,3.69-.46,2.2-2.9,2.16-4.13,3.95-2.84,16.38-7.79,29.29-17.15,42.75-6.04,8.69-4.97,9.29-11.75,16.33l-14.16,14.71c-1.63,1.69-3.67,1.82-5.27,4.08-5.63,7.95-4.41,3.29-9.71,7.01-5.96,4.18-23.63,14.69-30.05,16.72l-18.31,5.77c-3.72,1.17-7.7.69-11.17,3.06-1.11.76-3.2-1.18-4.59-.85-14.43,3.41-28.45,2.38-42.91.25-2.48-.36-4.15,1.76-6.87-.42s-7.23-1.28-10.5-2.32l-13.75-4.36c-3.54-1.12-31.78-15.68-33.84-17.26l-5.65-4.33c-2.44-1.87-5.06-3.35-7.7-5.24l-7.62-5.44c-2.99-2.14-18.3-13.42-19.86-14.98-4.85-4.85-9.29-9.22-14.83-13.45-14.15-10.79-15.64-18.16-25-26.79-1.39-1.28-13.62-15.03-14.52-15.62-1.81-1.17-2.14-5.02-4.62-6.17-3.82-1.77-4.33-5.92-6.34-8.66l-7.26-9.89c-1.92-2.62-6.64-5.79-12.86-17.15-1.84-3.35-5.53-5.5-5.57-10.07-1.87.82-4.09,1.8-4.21.32-.1-1.2.77-2.11.92-2.85.28-1.4-1.3-1.29-2.42-2.18-5.28-4.17-9.12-11.31-15.31-14.23-3.19-1.5-4.41-1.92-6.98-4.54-4.29-4.37-19.37-10.14-24.53-11.04-4.56-.8-8.67-1.17-13-3.23-2.22-1.06-5.33.5-7.69-.22-5.8-1.77-11.29-.96-17.11-.04-3.17.5-5.96-.04-9.09.97l-14.43,4.62c-1.19.38-1.45,2.71-2.43,2.98-1.21.33-2.41-.41-4.34-.8l-1.38,4.64-3.87-1.37c-1.26-.45-1.85,2.72-2.8,2.56-2.57-.57-3.85,1.13-5.68,2.38-3.14,2.15-6.31,3.66-8.49,6.62-1.06,1.45-4.09,3.34-5.48,4.23-4.29,2.75-5.83,5.76-9.05,9.47l-5.48,6.31c-1.2,1.39-4.25,2.15-4.05,4.87s-3.04,3.37-3.74,5.22c-.89,2.35-1.66,5.42-3.42,7.19-.52.52,1.18,2.87.64,3.44-.49.52-2.66.81-2.71,1.76-.15,2.99-.29,5.74-3.74,6.51-1.19,2.37.44,5.84-1.1,7.67-2.31,2.74-1.45,5.38-2.27,7.88-2.5,7.64-1.91,15.03-2.26,22.9-.24,5.47.86,9.94,1.82,15.08s-.1,10.15,4.07,14.45c.93.96-.23,3.84.57,5.18,2.32,3.89,4.43,7.46,4.94,12.17,9.76-.8-1.31-.05,4.97,7.97,5.25,6.71,11.7,12.21,17.49,18.38,6.44,6.87,23.09,14.34,32.72,16.54,11.49,2.63,23.35,4.11,34.83.39Z"/>
</svg>