<?xml version="1.0" encoding="UTF-8"?>
<svg id="Layer_1" data-name="Layer 1" xmlns="http://www.w3.org/2000/svg" viewBox="0 0 120 59">
  <defs>
    <style>
      .cls-1 {
        fill: #fefefe;
      }
    </style>
  </defs>
  <path class="cls-1" d="M34,0c11.18.27,18.64,4.12,26.12,12.52C66.91,4.19,75.29.13,86,0h4c20.3.86,29.59,12.3,29.59,32.01,0,10.96-3.83,22.66-14.59,26.99h-10l-.47-2.68,8.98-9.25c12.75-15.39,4.99-36.98-15.48-37.31-5.91-.09-18.02,5.26-20.16,10.67-.08.21,2.41,3.01,3.44,2.79,7.3-9.45,17.34-13.61,27.71-5.95,5.8,4.29,9.35,13.35,6.25,20.15-1.01,2.21-16.12,18.93-18.29,20.24l-3.99,1.35h-12c-3.84-2.56-7.53-5.64-11.06-9.24-3.47,3.62-7.12,6.7-10.94,9.24h-11c.83-4.36,3.55-8.22,8.16-11.59,6.42-4.11,7.46-6.91,3.13-8.4l-18.24,18.63-4.05,1.36h-12c-7.89-3.32-13.11-11.87-14.32-20.34C-2.33,17.44,7.05.46,30,0h4ZM77.16,54.19l5.87-5.71L48.68,14.35c-6.39-6.34-13.49-6.97-21.61-6.17-7.58.74-13.07,6.53-16.02,11.73-7.08,12.45-1.16,25.15,9.86,34.43,2.51-1.84,3.81-3.73,6.06-5.78l-8.12-8.4c-5.77-5.97-3.35-15.74,2.76-20.96,5.73-4.89,14.8-5.46,21.03.3,14.19,13.13,20.88,21.72,34.52,34.69ZM44.36,31.04c-2.92-3.08-5.55-6.57-9.44-7.73s-8.33-.37-10.13,2.87c-1.55,2.8-3,6.38-.43,9.47,2.34,2.81,4.85,5.21,7.81,7.7l12.19-12.3ZM87.98,43.39c3.2-3.1,5.48-5.05,7.68-7.77,2.63-3.24,1.01-7.27-.89-10.07s-6.2-3.29-9.66-2.25c-3.95,1.19-6.53,4.64-9.49,7.75l12.35,12.34Z"/>
</svg>