<?xml version="1.0" encoding="UTF-8"?>
<svg id="Layer_1" data-name="Layer 1" xmlns="http://www.w3.org/2000/svg" viewBox="0 0 120 59">
  <defs>
    <style>
      .cls-1 {
        fill: #fefefe;
      }
    </style>
  </defs>
  <path class="cls-1" d="M25,0l.47,2.68-8.98,9.25c-12.74,15.39-4.99,36.98,15.46,37.31,5.91.1,18.04-5.26,20.17-10.67.08-.21-2.41-3-3.44-2.78-7.31,9.45-17.34,13.62-27.71,5.95-5.79-4.29-9.35-13.34-6.25-20.15,1.01-2.21,16.12-18.93,18.29-20.24l3.99-1.35h12c3.84,2.56,7.53,5.64,11.06,9.24,3.47-3.62,7.12-6.7,10.94-9.24h11c-.83,4.36-3.55,8.22-8.16,11.59-6.42,4.11-7.46,6.91-3.13,8.4L88.95,1.36l4.05-1.36h12c7.92,3.33,13.13,11.89,14.32,20.4,2.97,21.25-6.39,38.13-29.32,38.6h-4c-11.21-.25-18.65-4.1-26.12-12.55-6.77,8.37-15.17,12.42-25.88,12.55h-4C9.7,58.14.41,46.71.41,26.99c0-10.96,3.83-22.66,14.59-26.99h10ZM99,4.61l-5.97,5.84,8.12,8.39c5.77,5.97,3.35,15.74-2.76,20.96-5.74,4.9-14.79,5.46-21.03-.3-7.58-7.01-14.96-14.16-21.8-21.92-4.03-4.57-7.85-8.72-12.73-12.76l-5.87,5.73,35.35,34.9c8.09,7.99,27.25,9.45,36.3-5.73,7.51-12.6,1.87-25.53-9.6-35.11ZM35.2,35.56c4.05-1.43,6.38-4.7,9.17-7.61l-12.36-12.37c-2.89,2.95-5.84,5.2-8.04,8.38s-.43,6.92,1.25,9.47c1.83,2.76,6.26,3.45,9.98,2.13ZM85.47,35.77c4.28,1.08,8.13,0,9.75-2.97,4.67-8.53-.55-10.24-7.25-17.22l-12.34,12.37c2.92,3.01,5.52,6.73,9.83,7.81Z"/>
</svg>