<?xml version="1.0" encoding="UTF-8"?>
<svg id="Layer_1" data-name="Layer 1" xmlns="http://www.w3.org/2000/svg" viewBox="0 0 127 57">
  <defs>
    <style>
      .cls-1 {
        fill: #fefefe;
      }
    </style>
  </defs>
  <path class="cls-1" d="M29,0l.64,2.22L12.98,19.76c-2.65,3.66-3.66,7.6-2.47,12.04,1.26,4.69,9.86,15.08,13.67,16.67.19.08,2.88-2.68,2.86-3.04l-7.56-6.98c-5.36-6.46-7.73-9.48-2.42-17.33,1.51-2.22,16.33-17.86,18.21-19.06,1.49-.96,2.95-1.58,4.72-2.05h11c3.57,1.11,9.71,6.23,11.69,9.31.44.68.11,1.48.12,1.41.46-2.72,8.85-9.96,12.19-10.72h10l.64,2.22-14.71,15.22,3.08,3.26c6.3-6.48,12.63-12.93,18.98-19.35l4.01-1.35h10c25.47,12.76,25.47,44.25,0,57h-10l-.64-2.22,16.66-17.53c2.65-3.65,3.66-7.6,2.47-12.04-1.27-4.75-9.71-14.8-13.51-16.81-.17-.09-2.9,2.22-2.8,2.6l7.72,7.49c5.19,5.65,6.99,9.96,2.32,16.72-1.55,2.24-17.6,18.67-19.49,19.84-1.52.94-3.05,1.47-4.73,1.96h-10c-4.56-2.12-8.48-5.39-11.78-9.83-3.47,4.57-7.54,7.85-12.22,9.83h-10l-.63-2.23,14.89-15.43c-.55-1.33-1.55-2.37-3.02-3.12l-18.8,19.08-4.45,1.69h-10C7.03,50.46.41,42.05.58,28.03S7.41,6.32,19,0h10ZM45.5,5l-6,6,41,41,6-6L45.5,5ZM34.5,40.99l12.52-12.52-12.55-12.49-10.17,10.36c-1.24,1.27-1.26,3.04,0,4.31l10.21,10.34ZM101.99,30.42c.98-1.58.77-3.01-.29-4.07l-10.22-10.36-12.5,12.55,12.54,12.49,10.46-10.6Z"/>
</svg>