<?xml version="1.0" encoding="UTF-8"?>
<svg id="Layer_1" data-name="Layer 1" xmlns="http://www.w3.org/2000/svg" viewBox="0 0 200 200">
  <defs>
    <style>
      .cls-1 {
        fill: #fefefe;
      }
    </style>
  </defs>
  <path class="cls-1" d="M153.45,152.65c-19.87-2.06-35.53-11.29-48.93-24.61-16.99,17.29-34.56,24.37-58.5,25.91-5.62.36-11.07-2.03-16.27-2.29.98-7.68,4.54-12.55,7.3-18.54,3-6.48,7.79-11.33,12.66-16.44,11.16-11.72,21.69-16.05,36.61-21.37-3.33-15.93-3.73-31.76,1.17-46.92,2.25-6.96,10.6-24.2,17.8-28.89,1.67,2.97,3.89,4.91,5.87,7.37s2.92,5.63,4.64,8.37c10.38,16.51,12.51,41.24,7.16,59.33,23.07,5.57,41.87,19.72,53.52,39.95,2.95,5.12,4.4,10.78,7.08,16.29l-15.91,2.85c-5.01.9-9.39-.5-14.19-1ZM105.04,30.42c13.15,18.63,16.96,40.69,11.64,62.64-.3,1.24,2.97,1.17,3.48.53,1.35-1.71,1.86-13.35,2.11-14.41,1.86-7.84-1.11-25.2-4.9-33.57-3.26-7.2-6.4-15.18-12.38-20.57-1.87-1.69-2.86,2.57-4.01,4.02-15.95,20.05-19.05,54.9-6.73,77.71,1.85,3.42,2.62,7.34,6.25,10.17.7-.64,1.73-1.37,2.47-2.68-16.76-22.01-16.72-62.5,2.07-83.83ZM113.68,92.97l1.44-9.92c1.47-10.14.75-22.69-3.13-32-2.23-5.35-3.39-11.11-7.67-15.14-7.44,13.7-10.71,21.72-10.4,37.1.15,7.11-.19,13.78,2.67,20.89,5.73-1.41,11.45-.73,17.08-.93ZM125.51,141.14c4.59.57,7.67,3.55,11.5,4.83,13.8,4.58,28.3,5.24,41.98,2.62-4.47-13.49-11.65-24.11-21.67-32.88-3.67-3.21-6.79-6.87-11.79-8.19-9.55-8.15-38.1-14.48-48.42-10.13,1.01,5.54,11.9-.08,28.49,5.02,21.56,6.63,39.36,21.05,48.24,43.11-26.91,3.08-45.98-4.15-64.64-22.75-8.2,3.51,13.76,14.98,16.31,18.37ZM115.53,103.97c-.6-.38-1-1.4-2-.97-2.67,1.14-9.57,26.34-42.26,39.17-10.46,4.1-21.64,4.59-32.85,3.33,8.16-18.01,21.38-31.82,38.62-39.36,4.24-1.86,8.5-2.14,11.85-4.63-1.01-1.24-1.15-3.15-2.39-3.33,1.27.19-13.15,4.77-17.57,7.75-8.38,5.65-17.01,10.81-22.74,19.24-4.9,7.19-10.74,14.06-12.31,22.94,1.46,2.68,6.36,1.66,9.07,1.84,23.35,1.51,44.64-7.83,59.86-25.12,3.14-3.57,6.19-6.33,8.37-10.8.16-.33,6.12-8.9,4.35-10.03ZM109.15,103.3c-3.95-.43-6.05-.69-8.46.18.94,3.5,2.06,5.71,3.9,7.63,1.9-2.96,3.78-4.95,4.55-7.81ZM169.16,142.56l-6.44-11.39-12.54-12.35c-8.3-8.18-19.45-11.53-30.42-14.6-5.48,14.17-12.17,13.6-3.85,20.87,14.9,13.03,33.87,20.16,53.26,17.47ZM97.79,120.27c-.21-3.07-2.79-5.51-4.41-7.62-1.82-2.35-1.65-5.17-3.85-7.39-17.77,4.32-32.87,15.28-42.56,30.65-1.53,2.42-1.86,4.97-4.07,6.96,8.54.48,16.45-.12,24.54-2.7,8.86-2.82,25.41-11.96,30.35-19.9Z"/>
</svg>