<?xml version="1.0" encoding="UTF-8"?>
<svg id="Layer_1" data-name="Layer 1" xmlns="http://www.w3.org/2000/svg" viewBox="0 0 200 200">
  <defs>
    <style>
      .cls-1 {
        fill: #fefefe;
      }
    </style>
  </defs>
  <path class="cls-1" d="M120.15,125.25c-1.34,12.36-14.14,37.4-23.04,47.22-3.63-2.58-4.63-6.58-6.82-9.79-7.91-11.61-14.32-26.65-17.88-40.17-2.06-2.73-7.1-2.57-10.25-3.62-13.14-4.4-24.58-11.31-35.77-19.29-1.24-.88-3.08-.84-3.36-2.27-.22-1.13.23-3.02,1.71-3.61,3.95-1.58,6.81-4.45,10.36-6.57l8.7-5.2,10.75-5.34c5.48-2.72,11.41-3.35,16.96-5.96,3.38-19.15,11.61-36.16,23.25-51.43,11.19,10.79,23.09,35.12,25.6,49.55l22.15,7.59c4.09,1.4,24.56,12.71,27.43,18.31-2.07.14-2.79,2.41-4.51,3.82-11.44,9.45-24.47,16.88-38.82,21.02-3.28.95-6.03,1.66-6.47,5.73ZM115.77,110.75c1.95.9,4.56-.21,4.71-2.02.87-10.56,1.25-21.37-1.4-31.8l-4.64-18.33c-2.29-3.22-3.13-6.9-4.61-10.48-3.57-8.62-8.69-16.17-14.81-23.61-9.91,13.06-16.22,27.94-19.88,43.76-.25,1.06,3.56,1.33,3.96-.09,3.6-13.04,8.3-25.22,15.8-36.71,15.64,17.93,26.49,57.24,20.88,79.28ZM109.59,67.73c-3.67-11.31-7.57-20.73-13.85-30.04-4.43,4.99-12.36,23.75-12.8,30.19,12.35-.08,12.95-1.99,26.66-.15ZM38.33,99.22c-1.91-1-2.75-1.95-2.3-3.62.93-3.4,36.33-20.1,50.92-20.4l23.79-.48c.62-.01.36-2.43-.17-2.75s-1.25-1.09-2.56-1.07l-22.74.38c-4.82.08-9.27,1.58-13.62,3.42-12.74,2.01-33.32,12.85-43.86,21.84,12.93,9.34,27.35,17.42,43.04,21.18,3.72-4.81-6.19-4.7-16.4-10.06l-16.1-8.44ZM116.25,118.82c10.03-2.92,20.11-5.27,29.02-10.62l11.24-6.75c3.01-1.8,5.45-4.63,8.52-6.68-7.29-8.99-31.04-19.61-43.05-21-.19,3.98,2.84,4.72,5.79,5.48,11.12,2.86,20.89,8.33,30.81,14.69-7.28,7.79-28.39,18.22-38.26,19.25-6.71,3.91-32.25,5.02-36.73,3.07-.7-.3-2.1,1.67-1.59,2.15s1.52,2.15,2.67,2.21c10.35.55,21.15,1.23,31.58-1.8ZM113.02,110.95c1.57-10.5,1.59-19.22-.54-28.32-.31-1.31.61-2.78-.48-3.18s-1.93-1.43-3.15-1.4c-4.3.11-27.47-1.29-28.19,3.44-1.55,10.12-.68,20.16.68,30.49,10.26,3.61,21.24,2.41,31.69-1.03ZM117.41,122.65c-1.5-1.1-2.37.86-3.84,1.03-3.67,12.68-8.36,24.83-16.59,36.35-9.55-14.6-15.79-29.9-18.71-46.22-.68-3.79-.49-7.42-2.32-10.97-.17-1.47.12-23.37,1.06-21.35-.34-.74-1.77-.62-2.41-.47-5.05,1.21-1.71,24.02-.85,29.07,1.65,9.73,3.42,18.76,7.37,27.72,4.82,10.93,8.79,20.29,16.28,29.17,9.3-13.78,16.94-27.73,20.01-44.33ZM152.85,94.72c-6.19-5.14-24.09-13.01-29.43-12.74l.67,27.29c10.52-3.81,20.24-8.63,28.76-14.55ZM69.94,110.21c-2.23-11.77.12-18.13-1.41-27.9l-18.06,8.14-9.75,5.9,10.62,6.23c5.88,3.45,11.96,5.51,18.6,7.63ZM110.01,123.95l-26.62.39c2.59,5.28,3.5,9.42,5.61,13.67l7.76,15.68c5.16-6.82,11.84-22.17,13.25-29.75Z"/>
</svg>