<?xml version="1.0" encoding="UTF-8"?>
<svg id="Layer_1" data-name="Layer 1" xmlns="http://www.w3.org/2000/svg" viewBox="0 0 200 200">
  <defs>
    <style>
      .cls-1 {
        fill: #fefefe;
      }
    </style>
  </defs>
  <path class="cls-1" d="M153.65,168.72c-13.87,7.88-28.79,11.21-44.37,4.26,3.44-2.99,6.47-4.63,9.08-7.99,18.77,4.29,37.28-5.57,45.17-22.32,8.1-17.21,2.88-38.32-12.65-49.33-4.69-3.32-9.16-5.51-14.77-6.5-.25-3.83-.18-6.91.03-11.19,5.64,2.1,11.01,3.18,15.95,6.15,14.79,8.89,24.85,23.85,25.05,41.05.11,8.75-.31,16.62-4.18,24-4.81,9.19-10.21,16.7-19.31,21.87ZM130.97,169.9c-4.49,1.33-9.3-1.93-13.75,1.5,10.61,2.07,21.86,1.04,31.27-3.93,20.41-10.76,31.29-35.52,22.28-58.2-5.41-13.6-16.39-24.86-30.39-28.31-.93,1.38-.38,2.88.59,3.56.68.47,1.66.18,2.8.67,24.17,10.27,35.02,39.38,21.09,62.79-4.3,7.22-10.99,13.53-18.49,17.24-4.9,2.43-10.28,3.17-15.4,4.69Z"/>
  <path class="cls-1" d="M120.41,135.39c3.41-.94,6.72-.28,10.54-.25-3.52,23.33-26.02,41.5-48.89,41.55-20.94.04-40.35-13.43-47.8-32.93-2.44-6.4-3.81-11.9-3.36-18.81.36-5.48-.37-11.19,3.46-16.16,2.86,2.74,5.06,6.1,7.54,9.42-4.99,20.79,11.06,44.27,33,47.13,20.9,2.73,40.22-7.93,45.51-29.95ZM88.8,169.25c-5.99,1.29-10.81.8-16.47-.5-14.91-3.42-27.21-13.4-32.06-28.09-2.09-6.33-4.53-12.54-2.83-19.29.32-1.28.85-2.6.16-3.36-.42-.46-1.86-1.73-2.18-.84-2.87,7.93-.85,15.79,1.7,23.68,7,21.66,28.29,34.08,50.98,31.16,28.9-3.72,40.18-31.92,37.42-34.03-3.45-2.65-3.87,24.2-36.71,31.26Z"/>
  <path class="cls-1" d="M41.97,72.86c-4.64,19.49,9.28,42.36,30.45,46.76.68,2.68,1.55,7.57-.27,9.68-3.54,1.79-8.03-1.61-11.44-2.98-13.52-5.41-22.14-16.63-27.2-30.03-10-26.49,7.43-58.05,34.74-64.8,9.82-2.43,19.29-2.03,28.85.49,5.31,1.4-5.37,4.79-7.28,8.89-21.7-4.66-44.25,9.5-47.85,31.99ZM37.32,83.57c-1.99-22.95,18.17-48.13,43.65-46.67,2.38.14,11.3.57,8.81-2.95-5.26.57-11.25-.7-16.76.19-27.32,4.43-46.68,35.63-35.51,62.32,1.61,3.85,2.66,7.24,5.35,10.65,6.82,8.63,14.84,15.86,26.08,17.99.53-1.8-1.11-3.07-2.49-3.52-15.15-4.88-27.67-21.21-29.12-38.01Z"/>
  <path class="cls-1" d="M167.8,89.76c-3.35-4.41.09-11.13-.99-16.52-3.82-18.95-19.64-32.54-38.39-33.21-18.69-.68-36.2,12.15-40.72,30.74-3.68.53-6.81.29-10.79.04,3.5-15.77,13.7-29.2,28.71-36.34,13.14-6.25,29.56-6.16,42.78.05,10.94,5.14,19.24,14.2,24.41,24.47,3.63,7.19,4.61,14.22,4.25,22.01-.27,5.83.67,11.25-3.14,16.8l-6.11-8.04ZM151.17,43.64c13.48,9.67,20.95,23.89,19.66,40.27-.2,2.58-.88,5.17,2.24,6.08,5.05-25.97-11.82-51.49-38.13-55.82-5.56-.91-11.25-.01-16.64.07-4.32.07-7.71,2.06-11.29,3.67-10.05,4.53-17.75,11.91-22.04,22.02-1.12,2.64-3.52,4.71-2.87,8.03,1.65.42,2.78-1.15,3.33-2.58,3.66-9.52,10.07-17.13,18.44-22.51,7.34-4.72,14.52-6.19,23.17-6.13s16.3,1.26,24.14,6.88Z"/>
  <path class="cls-1" d="M116.58,85.56c-24.78,3.1-47.79-7.06-65.55,14.05-2.52-2.66-5.19-7.15-3.96-10.73,8.21-7.54,19.22-13.67,30.86-13.69l38.88-.08c1.91,2.22,2.19,8.71-.24,10.45ZM79.87,81.69c11.33.45,22.66.54,33.95-.04.33-.62.36-1.58-.07-2.79l-38.21.61c-6.26.1-29.11,8.2-23.46,13.88,4.69-6.39,21.58-11.91,27.78-11.67Z"/>
  <path class="cls-1" d="M100.15,157.25c-2.59,1.88-5.62,2.92-9.54,3.98-18.99-19.13-14.18-44.52-14.3-69.88,1.57-2.52,8.39-3.38,10.39-.91l.43,42.42c.02,2.21.71,4.65,1.62,6.4l5.17,9.88c1.48,2.82,4.24,3.95,6.22,8.13ZM83.21,129.85l-.28-36.61c-.86-.43-1.9-.43-3.03,0l.49,39.22c.11,8.68,10.46,25.97,13.07,24.58,3.49-1.85-10.13-11.03-10.26-27.19Z"/>
  <path class="cls-1" d="M122.58,116.53c-4.33-1.64,5.97-41.36-8.51-59.62-1.95-2.46-2.65-5.51-6.79-6.79,3.11-2.46,6.14-5.33,9.63-4.78,3.68.58,11.43,14.32,12.15,18.58.51,3.03,2.64,6.15,2.67,9.27l.33,43.73c-3.21-.2-6.14.88-9.49-.39ZM127.99,112.4l-.32-38.07c-.06-7.07-7.9-28.54-13.84-23.61,8.88,9.23,11.7,20.9,11.25,33.29-.13,3.78-.05,26.98.39,28.1.24.62,2.52,1.69,2.51.29Z"/>
  <path class="cls-1" d="M91.46,131.18c-2.04-3.48-1.66-6.55-1.26-10.19l34.85.04c12.63.01,23.94-5.23,33.12-14.61,2.02,3.29,2.34,6.27,3.95,10.06-8.14,7.67-18.45,14.1-30.26,14.24l-40.4.46ZM135.1,126.77c3.55-.02,27.7-9.54,20.89-13.87-6.58,5.89-14.81,10.96-23.91,11l-37.84.16c-.42.87-.42,1.94.01,2.99l40.85-.28Z"/>
</svg>