<?xml version="1.0" encoding="UTF-8"?>
<svg id="Layer_1" data-name="Layer 1" xmlns="http://www.w3.org/2000/svg" viewBox="0 0 200 200">
  <defs>
    <style>
      .cls-1 {
        fill: #434343;
      }

      .cls-2 {
        fill: #252525;
      }

      .cls-3 {
        fill: #2a2a2a;
      }

      .cls-4 {
        fill: #b1b1b1;
      }

      .cls-5 {
        fill: #4a4a4a;
      }

      .cls-6 {
        fill: #4e4e4e;
      }

      .cls-7 {
        fill: #3e3e3e;
      }

      .cls-8 {
        fill: #505050;
      }

      .cls-9 {
        fill: #494949;
      }

      .cls-10 {
        fill: #4d4d4d;
      }

      .cls-11 {
        fill: #7e7e7e;
      }

      .cls-12 {
        fill: #5e5e5e;
      }

      .cls-13 {
        fill: #383838;
      }

      .cls-14 {
        fill: #262626;
      }

      .cls-15 {
        fill: #3b3b3b;
      }

      .cls-16 {
        fill: #3a3a3a;
      }

      .cls-17 {
        fill: #444;
      }

      .cls-18 {
        fill: #555;
      }

      .cls-19 {
        fill: #474747;
      }

      .cls-20 {
        fill: #595959;
      }

      .cls-21 {
        fill: #dfdfdf;
      }

      .cls-22 {
        fill: #232323;
      }

      .cls-23 {
        fill: #484848;
      }

      .cls-24 {
        fill: #464646;
      }

      .cls-25 {
        fill: #828282;
      }

      .cls-26 {
        fill: #545454;
      }

      .cls-27 {
        fill: #353535;
      }

      .cls-28 {
        fill: #959595;
      }

      .cls-29 {
        fill: #5d5d5d;
      }

      .cls-30 {
        fill: #f8f8f8;
      }

      .cls-31 {
        fill: #242424;
      }

      .cls-32 {
        fill: #f7f7f7;
      }

      .cls-33 {
        fill: #787878;
      }

      .cls-34 {
        fill: #2e2e2e;
      }
    </style>
  </defs>
  <path class="cls-30" d="M176,140c.15,4.83-2.63,10.02-5,14-.9.59-1.32,2.15-2.13,2.91-9.88,14.38-26.6,17.77-43.1,13.68-4.72-1.17-11.39-3.04-13.85-7.18-5.04-2.4-8.84-9.87-10.73-15.22-.09-.24.3-.65.81-1.11-1.6-5.26-3.7-16.78,4.45-12.78.49,7.24,3.45,13.6,8.03,19.13l-.49,2.58c3.65,2.87,7.49,5.64,12,7l2.13-1.22c9.01,2.51,18.93,3.98,26.87-2.07l2,1.3c3.03-2.3,5.6-5.07,8-8l-1.31-1.84,3.7-6.47c.18-2.44,1.05-4.01,2.61-4.69,1.62-4.58.85-9.36,0-14l-2.42-.76c-4.13-14.34-20.52-22.41-33.82-14.59l-2.76-.65-6,5c-2.31,5.68-2.65,11.34-1,17l1.54-.03c3.42,7.05,13.22,11.89,19.1,4.92l1.36.11c.82-1.92,1.21-3.97,1.17-6.17-1.65-.43-3.48-1.3-5.48-2.62-5.37.94-7.23-.14-5.59-3.23-2.03-3.33,3.61-4.92,6.47-5.03,12.95-.52,16.99,17.47,6.31,25.28-15.06,11.01-33.27-3.14-32.74-20.39.14-4.49,1.86-14.12,6.95-14.12-1.15-1.38,2-3.15,3.51-3.69,21.49-21.56,56.31,6.23,49.4,32.96Z"/>
  <path class="cls-31" d="M87,92c.67-1.81,4.4-1.05,4,1l6.13.99c2.8-.63,5.09-.63,6.87,0,1.5-.15,1.89-.15,1,1.21l-1.56,2.3c-9.19.97-18.25-.33-27.18-3.88-37.73-12.84-66.66,37.07-35.12,63.33,22.03,18.34,59.1-.87,46.98-29.94-7.69-18.43-36.13-15.71-36.12,3.07,0,14.95,20.37,15.79,19.05-.02-.69-.12-1.63.2-2.82.97-1.91,7.85-11.86,7.47-11.04-1.73,1.18-13.24,19.27-12.96,25.24-1.48,10.76,20.69-20.98,43.02-40.18,21.93-18.19-19.98-1.81-54.85,25.2-50.51,22.73,3.66,33.38,27.01,34.56,47.82,2.47,5.22,4.87,12.58,9.92,16.33,1.31,1.86.67,2.24-.93.6-11-8-13.23-22.97-16.62-35.15-.7,14.91.54,27.3-15.74,33.92-3.96,1.61-7.34,4.57-11.64,4.23-3.93.88-8.07.86-12,0-4.08.48-7.75-1.22-11.47-3.61-10.48-6.73-18.17-17.73-19.55-30.19-1.51-13.6,3.35-25.25,13.3-34,3.37-2.96,5.97-6.71,10.42-8.45,9.93-3.89,20.71-3.77,30.87-.28,2.86.98,5.88,1.69,8.42,1.52ZM64.26,129.72c1.27-3.57,4.95-3.02,7.52-2,4.33,1.71,3.12,9.96-.75,14.22s-9.3,4.62-14.11,2.78c-4.42-1.69-7.41-5.62-8.58-11.27-2.53-12.25,7.86-22.57,20.44-23.05,10.35-.39,17.58,6.47,23.32,14.23-3.9-11.34-14.65-19.83-26.09-21.5-6.41-.93-13.78,2.53-18.62,6.25-5.22,4-8.68,10.97-9.2,17.57-.75,9.51,4.33,18.89,11.69,23.89,8.64,5.87,19.08,3.9,25.45-3.41,3.7-4.25,6-8.53,4.38-14.58-1.03-3.87-4.48-8.94-9.62-9.88s-9.69,2.36-9.67,6.92c0,1.54-.06,2.34.61,2.72.96.55,2.03.64,2.51.33.76-.49.27-1.96.73-3.23Z"/>
  <path class="cls-22" d="M123,106c-.8.56-.69,2.21-1,3,1.15.37,1.51.94,1.09,1.72-7.42,10.09-6.77,24.61,3.61,32.41,4.68,3.51,10.06,5.1,15.93,3.19,4.3-1.4,9.65-5.43,10.38-11.14.63-4.92-1.26-9.2-4.91-11.71s-8.97-1.88-11.99,1.52c-1.06,1.33-.52,2.5,1.63,3.49,11.39-2.35,10.21,12.81-1.95,11.62-16.05-1.57-14.06-32.32,9.81-30.62,35.92,2.57,25.66,54.99-9.08,53.47-23.56-1.03-32.55-22.79-25.61-43.52,1.71-5.12,5.64-14.17,11.27-14.42,1.82-1.44,2.29-.81.83,1.01ZM113,129c-2.28,3.18-.86,7.23-.07,11.08,1.21,5.92,5.52,10.65,10.66,14.25,10.99,7.7,23.75,5.31,32.94-3.91,8.34-8.37,10.91-22.01,2.26-31.07-5.43-5.7-22.04-10.13-28.45,2.12-2.04,3.9-2.54,8.67.84,11.78,2.83,2.6,7.77,4.76,10.82,1.05.67-.82-.1-2.94-.54-3.32-.72-.63-1.49.93-2.42,1.39-2.81,1.42-5.41-1.93-5.89-4.13-.68-3.05,1.2-5.75,4.08-6.87,3.76-1.46,7.08-2.07,10.91-.14,2.58,1.3,4.96,3.98,6.04,7.67,1.87,6.42-.04,13.13-5.72,16.53-5.02,3-10.09,4.93-15.95,2.97-14.74-4.92-20.55-21.44-13.13-35.4-4.32-.1-5.97,12.87-6.37,16Z"/>
  <path class="cls-2" d="M134,95c-1.69,1.57-2.48,1.06-1.1-.83l-.18-2.74c24.27-28.36-5.87-72.65-42.14-57.48-24.57,10.28-26.29,48.84.89,54.6,19.42,4.12,34.61-18.97,19.98-31-9.84-8.08-22.11,1.49-16.79,10.05,1.89,3.04,5.76,5.23,6.45.6-4.54-.02-2.42-10.36,1.54-6.82,1.92.02,2.09.76.36,1.6-.39.95.4,1.91,2.38,2.89,2.47,8.98-4.34,14.65-12.39,8.42-16.79-13,5.79-36.73,23.13-21.1,18.56,16.72-2.07,46.98-25.13,39.79-1.06-.58-3.02-.23-4-1-.43-.64-1.27-1.31-2.14-1.66-13.11-5.26-18.85-17.61-17.08-31.46,1.47-11.49,8.02-22.25,18.44-27.37,19.22-9.44,42.22-4.02,52.65,14.41,2.19,3.87,2.72,8.16,4.34,11.87,1.93,4.43,1.65,8.55,1.96,13.14.61,8.89-5.98,18.5-11.17,24.08Z"/>
  <path class="cls-14" d="M177,141c-.89.46-1.19.08-1-1,2.9-19.36-10.55-37.38-30.05-39.64-7.24-.84-13.9,3.37-19.35,6.67-1.97,1.12-2.33.45-.6-1.04,4.77-4.87,12.37-8.36,20-7.73,21.09,1.75,35.44,24.45,31,42.73Z"/>
  <path class="cls-3" d="M111,164c.36-.04,1.45.17.93-.6,8.93,6.64,20.73,8.27,32.18,7.54,10.31-.66,17.77-7.49,24.76-14.04,1.04,5.01-12.75,12.43-16.93,14.12-11.25,4.55-28.07,1.62-38.72-4.38-1.19-.67-1.48-2.1-2.23-2.64Z"/>
  <path class="cls-7" d="M134,95c-3.5,3.76-6.74,8-11,11-.13-.41-.04-1.48-.83-1.01-.54-.55-.92-1.23-.8-2.03.1-.64,7.95-8.35,9.12-9.2l2.41.41c-.36.72.65.71,1.1.83Z"/>
  <path class="cls-34" d="M177,141c-1.14,4.68-1.94,10.34-6,13-.41.15-1.09-.25-.96-.49.4-.78,1.47-1.14,1.71-1.81l4.25-11.7c.3.37.63.7,1,1Z"/>
  <path class="cls-5" d="M126.6,107.04c-.61,1.38-2.66,2.53-3.51,3.69-.47-.5-2.96-.95-1.09-1.72,1.23-1.05,2.87-1.85,4-3,.08.35-.17,1.39.6,1.04Z"/>
  <path class="cls-11" d="M67,167c-3.51,1.73-8.48,1.71-12,0h12Z"/>
  <path class="cls-21" d="M132.9,94.17l-10.73,10.83c-7.52,7.59-11.3,17.11-11.86,28.61s6.61,20.7,15.96,24.87c10.9,4.87,22.3,2.32,30.76-5.45,7.54-6.92,11.32-17.13,8.13-27.2-2.75-8.66-10.97-13.73-19.71-14.37-5.93-.43-11.13,1.18-14.39,5.3s-5.33,9.36-3.22,14.6c2.38,5.93,9.72,9.11,14.8,5.45,1.97-1.42,2.21-3.96,1.43-5.42-2.38-4.45-7.04,1.18-8.54-3.09-.59-1.69-.41-2.22.57-3.32-.02.95-.39,2.09.22,2.73,4.17-2.75,8.67-.22,10.85,3.12.21,2.3-.17,4.36-1.17,6.17-1.35,4.42-6.41,5.81-10.98,4.88-9.38-1.91-13.16-12.5-11.02-9.88-1.88-5.5-1.56-12.43,2-17,1.27-1.81,2.93-3.48,5-5,8.87-5.81,16.98-5.85,26.71-.73,6.77,3.56,9.88,10.08,12.29,16.73.86,4.58,1.65,9.46,0,14,.9,5.01-3.02,8.8-5,13-2.38,2.94-4.97,5.72-8,8-2.23.87-4.6,2.62-7.22,3.82-5.08,2.33-19.8.48-23.78-1.82-4.51-1.36-8.36-4.11-12-7-5.11-6.28-9.12-12.45-9.45-22.25-3.81,4.11-2.79,8.91-2.53,13.32-2.52-5.33-3.19-10.8-5.08-17.07-3.87-12.87-13.76-24.99-27.27-28.29-16.07-3.92-31.79,8.43-32.83,23.91-.87,12.93,4.24,23.86,15.54,29.07,9.5,4.38,19.73.67,25.97-7.29,5.18-6.6,5.87-14.5.58-21.31-2.94-3.79-7.13-6.07-12-4.75-4,1.08-8.18,3.41-8.44,8.66-.1,2,1.12,4,2.53,4.66,1.71.8,4.15.46,4.84-1.77.49-1.58.52-3.13,1.79-3.59,1.64-.6,2.36-.07,3.4.79.78,5.55-2.05,8.56-7.41,9.68-12.71,2.65-13.06-16.01-2.69-22.01,4.04-2.33,10.42-4.41,13.06.26,4.56,1.59,9.42,4.11,11,9,2.73-2.47,4.78,2.32,2,4,.81,3.59.9,7.4,0,11,3.36,1.84-.39,7.87-2.24,10.38s-6.04,7.58-8.76,4.62c-2.84,2.37-7.42,3.78-11,3-1.79,1.56-5.93,1.58-8,0,.81,2.98-1.83,4.12-3,1.09-2.78-1.82-5.78-3.52-9-5.09-1.47,1.22-2.01.67-1-1-2.72-1.9-5.09-4.28-7-7-.88-.33-.88-.66,0-1-3.43-2.57-6.26-8.72-6-13-5.35-5.54-.88-18.93,4.31-23.85,1.12-1.06,1.89-1.68,3.69-1.15,1.64-2.29,3.61-4.63,6-6,4.28-3.93,8.95-5.93,14-6,2.91-.72,5.24-1.39,7-2,1.6-1.47,4.04-1.14,7.33,1.02,6.25.27,8.81,1.93,7.67,4.98l7,6c2.69-.5,3.01.15,1,2,1.81,1.35,5.11,2.9,6.14.44,2.48.69,5.03.84,7.63.44,3.19,3.77,3.54,6.81,1.05,9.12-.36,1.15.05,1.15,1.23,0,.15-2.24-.15-4.45-.89-6.63-3.25-1.81-.48-8.26,2.68-8.24-3.26-1.41-.06-3.74,2.17-5.12l.79-2.19c8.44-.82,14.27-5.41,19.64-11.65l2.52-.21c3.35-2.14,4.9-8.62,5.05-12.95-3.21-.29-2.77-3.19,0-4-.08-3.73-.21-7.6-2-11l-2.28-1.28c-2.98-6.33-7.03-11.64-12.16-15.93l-.56-2.79c-2.04-1.52-6.43-3.56-8-2l-2.13,1.66c-4.61-.36-9.23-.28-13.85.23l-2.02-1.9c-2.12,1.49-4.46,2.83-7,4,.2,3.52-4.44,8.4-8,8-3.11,5.48-6.47,11.66-3.97,18l2.18.91c.89,4.67,2.31,9.61,6.02,12.8l-.23,2.28c2.62,2.59,5.62,4.59,9,6,4.04-.35,8.04-.69,12-1,1.58-1.93,3.58-3.6,6-5l-.79-2.32c5.73-6.81,2.48-22.34-8.2-18.51l-1.01-1.17c-2.7,1.49-5.24,6.02-1.97,8,1.12.2,2.14.61,3.07,1.21,1.32.88,1.87,1.39,1.18,2.56-.79,1.34-1.69,2.32-3.45,2.03-4.52-.74-7.98-5.75-7.33-10.4.59-4.22,3.71-7.55,6.59-8.93,3.66-1.76,7.71-1.4,11.38.44,10.22,5.12,12.53,18.03,5.7,27.49-3.76,5.21-10.23,9.1-17.24,9.37-9.9.37-20.34-4.6-24.94-13.68-7.81-15.43-1.48-35.36,13.59-43.36,11.07-5.87,22.97-6.64,34.72-1.15,8.66,4.04,16.85,12.35,19.68,23.48,1.14,4.48,3.34,9.02,2.92,14.06-.74,8.84-4.92,17.9-11,24.04Z"/>
  <path class="cls-16" d="M124,132c-4.05-4.96-1.79-11.49,1-17,.3-.51.64-.5,1,0-3.3,8.27-1.66,8.12-2,17Z"/>
  <path class="cls-24" d="M170,140v-14c1.67,4.61,3.38,9.48,0,14Z"/>
  <path class="cls-15" d="M126,163c-5-.29-9.04-3.37-12-7,4.16,1.94,8.02,4.71,12,7Z"/>
  <path class="cls-8" d="M157,161c2.19-3.04,4.96-5.81,8-8-1.73,3.67-4.1,6.49-8,8Z"/>
  <path class="cls-4" d="M146,137c.16-2.11-.89-4.85,1.17-6.17.71,1.1,1.16,1.95.91,3.61-.17,1.1-.89,2.1-2.08,2.56Z"/>
  <path class="cls-17" d="M131,110c-1.21,2.05-2.96,3.78-5,5h-1c1.48-2.91,3.67-3.48,6-5Z"/>
  <path class="cls-32" d="M112,35c2-1.33,5.94.43,8,2,5.97,3.75,10.18,9.38,13.08,15.84.63,1.4,2.63,2.51,1.92,4.16,1.78,3.37,2.01,7.26,2,11,.19,1.05-.45,3,0,4-.14,4.51-1.57,10.2-5.05,12.95-2.6,4.82-13.18,12.18-13.87,12.21-3.34.15-6.27,1.39-9.09,1.83-1.83.93-3.01,2.23-3.55,3.89l-1.49.11c2,.7-1.19,7.19-2.18,7.41-2.35.52-10.79.46-12.78-1.41-.29-.58-.64-1.5-1-2l-7-6c-.98-2.07-3.14-2.34-5.44-2.5-3.57-.25-6.5-2.41-9.56-3.5-1.62,1.36-5.68,1.46-8,1-4.41,1.93-8.74,3.93-13,6l-6,7c-4.26,4.37-7.22,9.72-8.63,16.15.54,2.98.84,5.97.63,8.85-.28,4.31,2.56,10.47,6,13,.05.32-.08.69,0,1,1.94,2.71,4.29,5.07,7,7,.26.38.77.6,1,1,3.19,1.59,6.19,3.28,9,5.09.91.5,2.22-.97,3-1.09,2.7,1.05,5.7,1.38,9,1,3.59-.73,6.92-2.06,10-4,5.9-2.25,9.99-8.93,11-15,.89-3.61.8-7.38,0-11-.62-1.26-.53-3.21-2-4-1.66-4.95-6.44-7.37-11-9-3.19-.24-7.54-1.63-10.76.59-1.85,1.27-5.58,3.65-6.35,5.56-1.02,2.55-1.34,7.09-1.07,9.5.38,3.49,4.68,5.05,7.24,4.18,2.86-.98,6.18-1.9,6.63-5.75.08-.66-.63-1.71.09-2,.42-.17.93-.02,1.26,0,3.05,2.53,1.65,7-1.01,10.17-3.08,3.69-7.86,4.08-12.25,2.47-3.42-1.26-6.49-4.55-7.44-9.19-2.24-10.89,6.45-20.59,18.21-21.24,7.99-.45,16.77,5.18,20.48,12.1,8.04,15.04,2.04,31.01-12.55,38.06-13.36,6.47-27.63,4.56-38.39-5.5-16.29-15.23-16.58-39.92-.61-55.57,5.81-5.69,11.88-10.87,20.5-11.37,23.49-1.38,27.57,8.99,47.02,5.21l.67-.91c36.05-3.94,32.56-54.8-2.82-53.96-29.37.7-28.27,40.66-4.23,39.79,11.57-.42,15.37-15.34,4.01-18.72-1.49.4-2.81.87-2.76,2.3s.14,3.8,1.22,4.52c.36,1.15-1.05.86-1.73.83-1.05-.05-1.49-1.01-1.34-2.04-3.2-1.92-.83-6.53,1.97-8,1.93-.33,4.05-.96,6.15-1.57,1.77-.51,13.41,11.13,3.85,23.57-2.39,2.21-4.73,3.54-7,4-2.25,2.07-8.22,2.3-11,1-3.06-.07-7.18-2.38-9-5-4.95-3.08-7.09-10.18-7.97-16-2.49-6.35.86-12.53,3.97-18,2.54-2.85,4.95-5.56,8-8l7-4c6-.25,12.13-1.22,18,0Z"/>
  <path class="cls-31" d="M105,95.21l-1-1.21c15.44-4.59,27.05-8.98,26.04-29.12-.65-12.92-11.14-21.58-23.64-23.46-5.25-.79-10,.79-14.91,3.13-5.46,2.6-8.77,7.6-10.04,14.06-1.44,7.29,2.93,15.54,9.61,19.22,3.18,1.75,7.3,1.52,10.49.78,5.52-1.28,7.44-6.25,6.32-11.35-.61-2.78-2.17-4.9-4.87-4.26-.15-.53-.27-1.06-.36-1.6,2.41-.65,4.68.22,6.25,2.71,2.3,3.64,1.89,7.92.07,11.25-2.14,3.93-6.33,5.6-10.87,5.83-7.12.36-12.36-2.89-15.41-9.03-3.45-6.94-4.04-14.39,0-21.68,7.85-14.15,30.51-14.75,42.59-1.68,9.29,10.05,9.39,26.58.21,36.64-5.53,6.06-13.35,8.37-20.48,9.76Z"/>
  <path class="cls-28" d="M112.93,140.08c-.79-3.86-2.21-7.91.07-11.08l-.07,11.08Z"/>
  <path class="cls-27" d="M106.83,104.12c-.72,1.58-2.41,2.47-2.58,4.18-.19,1.89.52,3.63,2,5.28,6.36,7.09-.21,11.76-.67,20.54-3.18-5.48,4.99-14.25.51-17.33-.97.31-.91,1.7-1.04,2.21-.43.66-.8.69-1.23,0-.11-2.09.74-4.9-.84-6.55-3.43-3.58-11.42,1.66-13.97-3.45,2.02.47,4.02,1.45,6.11.79-1.06-1.52-2.9-1.97-1.18-3.29,2.21,2.36,4.42,3.37,6.99,2.17,2.02-.94,2.2-3.55,3.03-5.67,1.23-1.94,2.19-1.56,2.87,1.12Z"/>
  <path class="cls-29" d="M75.03,65c-3.47-4.69-.33-13.19,3.97-18-1.95,6.44-5.3,9.22-3.97,18Z"/>
  <path class="cls-26" d="M37,147c-.8,0-2.11-.14-2.68-1.28l-4.05-8.12c-.72-1.45-.17-2.89.72-3.6,1.6,4.57,2.85,9.19,6,13Z"/>
  <path class="cls-1" d="M58,96c.63-.07.94.3,1,1-4.66-.06-10.15,5.02-14,6-.49-.31-.48-.64,0-1,4.02-3.05,8.03-5.51,13-6Z"/>
  <path class="cls-17" d="M131.95,84.95c4.92-9.13,2.29-4.22,5.05-12.95,2.35,5.24-5.75,17.54-5.05,12.95Z"/>
  <path class="cls-13" d="M85,127c-2.59-4.33-6.93-6.26-11-9,5,.37,10.78,3.89,11,9Z"/>
  <path class="cls-23" d="M103.82,119h1.23c-.74,1.58-2.11,2.97-3.64,3.07-1.79.12-3.09-.8-3.94-2.07-1-1.5-.58-3.3,1.38-4.01,1.28-.47,2.25.37,2.25,1.25,0,2.08-.92-.47-2.67.44-.62,1.35,1.07,2.67,2.24,3.16,1.11.46,2.17-1.26,3.14-1.84Z"/>
  <path class="cls-15" d="M137,68c-1.97-3.22-.69-7.43-2-11,2.3,2.78,3.91,7.72,2,11Z"/>
  <path class="cls-25" d="M65,160l1,1c-2.86.71-7.38,2.79-9-1h8Z"/>
  <path class="cls-19" d="M66,95c.18.62.22,1.87-.98,1.97-2.32.18-4.2.06-6.02.03-.3-.37-.63-.7-1-1,2.32-.23,5.18-2,8-1Z"/>
  <path class="cls-10" d="M92,86c.87.28.86.62,0,1,.87.04-10.21-2.75-9-6,2.83,1.5,5.81,4.2,9,5Z"/>
  <path class="cls-20" d="M76,157c-1.84,3.73-6.57,3.14-10,4-.37-.3-.7-.63-1-1,3.8,0,7.4-1.63,11-3Z"/>
  <path class="cls-10" d="M120,37c-2.12-1.33-5.66-1.51-8-2-.19-1.02-1.59-.41-1.99-2.06,3.74.77,8.06,1.17,9.99,4.06Z"/>
  <path class="cls-34" d="M103,85c.89-.46,1.19-.08,1,1-3.72,1.41-8.05,1.18-12,1v-1c3.26.82,7.9.04,11-1Z"/>
  <path class="cls-26" d="M44,155c-3.21-.78-6.23-3.79-7-7,2.72,1.85,5.12,4.3,7,7Z"/>
  <path class="cls-9" d="M54,161.09c-3.08-1.71-7.2-1.91-9-5.09.23-.17,11.73,4.06,9,5.09Z"/>
  <path class="cls-17" d="M108.87,109.6c-.1-2.68.69-3.2,1.71-1.15.89,1.03,1.77,0,1.98-.54.27-.68.27-1.8.75-3.68,1.29.7.82,3.11.47,4.25-.53,1.73-2.97,2.1-4.91,1.11Z"/>
  <path class="cls-9" d="M88,107c-3.17-.46-5.13-3.58-7-6,3.12.59,5.2,3.49,7,6Z"/>
  <path class="cls-9" d="M45,103c-1.5,2.41-3.65,4.42-6,6,.47-3.15,3.56-5.15,6-7v1Z"/>
  <path class="cls-27" d="M87,142v-11c1.6,3.24,1.8,7.76,0,11Z"/>
  <path class="cls-33" d="M100,59c-1.73,2.52-4.31,5.32-1.97,8-2.56,0-2.29-2.3-1.87-4.21.5-2.3,1.61-3.41,3.84-3.79Z"/>
  <path class="cls-9" d="M109,99c-.93,1.85-3.64,3.02-2.17,5.12-1.03-.14-2.01-.53-2.87-1.12.98-2.5,3.17-3.71,5.04-4Z"/>
  <path class="cls-6" d="M110,81c-1.49,1.94-3.52,4.06-6,5-.3-.37-.63-.7-1-1,2.39-.8,4.16-4.01,7-4Z"/>
  <path class="cls-18" d="M87,39c1.86-1.49,4.04-3.88,7-4,1.32,1.89-5.77,3.61-7,4Z"/>
  <path class="cls-12" d="M97.05,105.18c-1.68-.24-.41-1.61-.21-2.19.27-.83-.93-1.21-1.4-1.05-.71.23-1.61,1.34-2.94,1-.79-1.24,1.98-2.74,3.24-2.59,1.77.22,3.92,2.65,1.31,4.83Z"/>
</svg>