<?xml version="1.0" encoding="UTF-8"?>
<svg id="Layer_1" data-name="Layer 1" xmlns="http://www.w3.org/2000/svg" viewBox="0 0 200 200">
  <defs>
    <style>
      .cls-1 {
        fill: #6f6f6f;
      }

      .cls-2 {
        fill: #646464;
      }

      .cls-3 {
        fill: #5f5f5f;
      }

      .cls-4 {
        fill: #5a5a5a;
      }

      .cls-5 {
        fill: #313131;
      }

      .cls-6 {
        fill: #7b7b7b;
      }

      .cls-7 {
        fill: #434343;
      }

      .cls-8 {
        fill: #838383;
      }

      .cls-9 {
        fill: #2a2a2a;
      }

      .cls-10 {
        fill: #777;
      }

      .cls-11 {
        fill: #727272;
      }

      .cls-12 {
        fill: #4a4a4a;
      }

      .cls-13 {
        fill: #505050;
      }

      .cls-14 {
        fill: #767676;
      }

      .cls-15 {
        fill: #272727;
      }

      .cls-16 {
        fill: #494949;
      }

      .cls-17 {
        fill: #4d4d4d;
      }

      .cls-18 {
        fill: #7e7e7e;
      }

      .cls-19 {
        fill: #2d2d2d;
      }

      .cls-20 {
        fill: #5e5e5e;
      }

      .cls-21 {
        fill: #383838;
      }

      .cls-22 {
        fill: #3c3c3c;
      }

      .cls-23 {
        fill: #6e6e6e;
      }

      .cls-24 {
        fill: #5b5b5b;
      }

      .cls-25 {
        fill: #262626;
      }

      .cls-26 {
        fill: #535353;
      }

      .cls-27 {
        fill: #4c4c4c;
      }

      .cls-28 {
        fill: #303030;
      }

      .cls-29 {
        fill: #8d8d8d;
      }

      .cls-30 {
        fill: #e5e5e5;
      }

      .cls-31 {
        fill: #2f2f2f;
      }

      .cls-32 {
        fill: #f9f9f9;
      }

      .cls-33 {
        fill: #404040;
      }

      .cls-34 {
        fill: #363636;
      }

      .cls-35 {
        fill: #3a3a3a;
      }

      .cls-36 {
        fill: #575757;
      }

      .cls-37 {
        fill: #444;
      }

      .cls-38 {
        fill: #555;
      }

      .cls-39 {
        fill: #2b2b2b;
      }

      .cls-40 {
        fill: #6d6d6d;
      }

      .cls-41 {
        fill: #616161;
      }

      .cls-42 {
        fill: #333;
      }

      .cls-43 {
        fill: #717171;
      }

      .cls-44 {
        fill: #474747;
      }

      .cls-45 {
        fill: #efefef;
      }

      .cls-46 {
        fill: #999;
      }

      .cls-47 {
        fill: #232323;
      }

      .cls-48 {
        fill: #464646;
      }

      .cls-49 {
        fill: #a9a9a9;
      }

      .cls-50 {
        fill: #292929;
      }

      .cls-51 {
        fill: #e4e4e4;
      }

      .cls-52 {
        fill: #e7e7e7;
      }

      .cls-53 {
        fill: #ededed;
      }

      .cls-54 {
        fill: #3d3d3d;
      }

      .cls-55 {
        fill: #d2d2d2;
      }

      .cls-56 {
        fill: #f8f8f8;
      }

      .cls-57 {
        fill: #676767;
      }

      .cls-58 {
        fill: #787878;
      }

      .cls-59 {
        fill: #323232;
      }

      .cls-60 {
        fill: #5c5c5c;
      }

      .cls-61 {
        fill: #414141;
      }

      .cls-62 {
        fill: #2e2e2e;
      }

      .cls-63 {
        fill: #e8e8e8;
      }
    </style>
  </defs>
  <path class="cls-56" d="M43.82,118.78c2.7-2.25,8.66,3.62,6.05,6.22,3.18,1.53.15,7.24-2.87,5-2.13,2.35-2.79,5.35-2,9,3.25,1.46,3.19,10.58,1,13,1.36,1.68,3.02,3.01,5,4,5.21-.32,10.55-.65,16-1-.02-3,3.02-2.75,5.15-1.83.13-1.92,2.97-4.39,4.85-4.17-1.18-2.16,5.74-9.93,7.21-10.29.96-.23,1.88-.11,2.76.32,2.41-4.18,5.41-6.52,9.03-7.03,1.7-1.1,2.36-.55,1.44,1.28,6.53,2.74,2.85,9.29-2.31,9.95,2.17,2.46-1.69,5.3-4.12,5.77,1.2,2.47-1,3.97-3.44,3.32-1.93.92-4.56,3.13-2.91,5.1l-2.45-.16c-6.44,8.86-18.56,10.97-29.2,10.74-2.01,1.17-4.7,1.3-7,1-5.39,1.52-10.27,1.37-14.65-.47-1.31-8.97-.08-21.17,1.49-30.34,1.16-6.77,3.4-16.05,9.59-20.11.22-.14.75.21,1.38.7Z"/>
  <path class="cls-56" d="M144.91,104.05c2.02,1.59,4.19,3.21,6.51,4.87.75,2.06,2.28,3.76,4.58,5.09.91-1.86,1.66-1.43,1.07.67,2-.43,3.13.59,3.41,3.06l2.36,3.32c6.12,6.26,7.05,15.9,7.16,23.95.31,2.64.98,5.31,2,8-.44,1.9-.96,4.81,0,7,1.16,6.5-.59,9.56-5.23,9.16l-.77-1.16c-2.91,1.24-7.19,1.05-10,0-3.93.13-7.93-.2-12-1h-7c-5.05-1.19-10.22-4-15.5-8.43l-.71-1.23c-1.66.28-1.59-.5.21-2.35-.61-2.79,2.14-5.85,5-5,1.89-1.97,4.61,1.85,6,4,2.95.02,5.61.35,8,1,2.93-.22,5.93-.22,9,0v-1.39c3.62-1.41,6.67-3.61,9.15-6.61-.43-4.87-.81-9.87-1.15-15-1.7-.21-3.05-1.46-4.03-3.75-6.13-6.97-12.57-13.65-19.32-20.03l.36-2.38c-2.57.09-1.62-2.18.54-2.51-1.6-2.48-.03-4.41,2.8-3.18,2.01-3.5,8.74.72,7.55,3.9Z"/>
  <path class="cls-56" d="M170,30c1.53.69,1.61,5.25,0,6,.55.13.97.27.99.45.35,3.25-.31,7.33-.99,10.55v1c-.11,3.49-.77,6.49-2,9,2.31,7.77-2.18,16.75-8.02,21.33.53,2.62-.38,2.8-1.89.62-2.85-2.17-5.31-4.64-7.37-7.4,1.53-.57,2.95-1.41,4.27-2.55l1.59-4.31c-.04-2.88.45-5.11,1.46-6.69-2.57-.96-2.85-3.06-1.05-5-.12-3.04-.45-6.04-1-9-3.73-1.1-7.4-2.11-11-3.04-1.18,2.46-1.82,2.46-3,0-2.58,1.19-5.58,1.86-9,2.04.77,2.53-3.65,6.28-6,5-2.06,1.82-4.1,3.45-6.12,4.88,1.25,2.66-.15,4.11-2.88,3.12-3.64,3.42-7.33,6.68-11.08,9.8-6.26-1.1-8.58-10.46-.85-10.65l-.25-.89c2.92-1.83,4.68-3.91,5.29-6.24l4.89-3.03c-2.54-1.83-.65-4.52,2.16-3.17-.15-.51-.27-1.01-.25-1.51.02-.59,7.76-5.85,9.33-6.73,1.9-1.06,3.6-1.9,5.75-2.41.26-.06.62.32,1.01.82.37-.6.76-1.09,1.23-1.19,5.45-1.07,11.31-1.53,16.77-1.81,4.27-.98,13.78-2.54,17.79-.48.61.31.6.9.21,1.48Z"/>
  <path class="cls-25" d="M59,30c-.8.43-1.8.76-3,1l-2.22,1.88c-6.93-.98-13.8-1.55-20.6-1.73-.21,8.84.04,22.12,2.33,30.9,1.65,6.34,4.27,11.95,8.7,16.86l.08,3.06.02,2.45c-7.65,6.82-7.31,17.38-2.85,25.99,3.71,3.85,4.49,6.64,2.35,8.38-5.89,3.51-9.37,11.01-10.05,18.14l-1.05,10.96c-.4,4.2-.8,7.73-.85,12.21-.02,2.11-2.44,7.06.73,8.35,4.02,1.63,9.24.02,13.41.56-1.28.83-13.76,3.99-15.35-.33-2.15-5.89-.41-12.63.16-18.52l.9-9.21c.85-8.7,2.67-16.93,9.91-23.06-9.96-13.78-10.05-23.19-.56-36.84l-6.4-8.56c-4.03-5.4-3.22-12.77-3.95-19.38l-.99-8.99c-.56-5.11-1.8-10.18.17-15.39,7.59-1.66,15.27-.58,23.02.39,2.22.28,5.05-1.12,6.06.9Z"/>
  <path class="cls-25" d="M59,30c8.89-.91,16.9,2.99,23.59,9.74,10.49-10.59,25.1-9.85,35.67-.62,5.06-3.94,9.76-8.46,15.74-9.12,2.66.32,2.54,1.24,0,2-6.35,1.21-10.86,5.85-15.84,9.83l-2.52.25c-9.67-9.59-22.44-6.82-32.16.88l-2.39-.31-.86.1c-5.84-6.31-13.4-9.38-22.09-9.6l-2.14-2.15c.39-1.36,1.94-.89,3-1Z"/>
  <path class="cls-19" d="M87.56,152.32c1.31,1.01,1.13,2.35-.54,3.99,9.92,7.91,22.73,5.82,31.75-2.29l2.22.98-.21,2.35c.99.83,1.06,1.38.21,1.65-.68-.52-1.54-1.05-2.28-.77-.37.14-12.94,15.32-35.72.77-1.85.33-2.12-.43-.8-1.74,1.75-1.52,2.21-5.58,5.36-4.94Z"/>
  <path class="cls-31" d="M160.01,78.91l5.17,8.69c2.92,4.9,2.39,15.66-.2,22.43-.9,2.36-4.65,3.94-3.71,6.93.39,1.24,1.34,3.04,1.56,4.09-2.44-1.47-4.62-3.81-5.77-6.38,8.46-9.47,8.63-22.8,0-32.83l.24-2.71c0-.78.28-.82.8-.18l1.89-.62c.84.17.85.37.03.59Z"/>
  <path class="cls-28" d="M83,159c-6.35,4.31-11.92,9.1-20.98,9.29-3.17.07-6.23,1.42-9.02-.29,4.81-2.8,14.25,2.28,29.2-10.74.31.56.58,1.14.8,1.74Z"/>
  <path class="cls-19" d="M171,145c-.28.87-.62.86-1,0-2.75-11.44-.11-11.92-7.16-23.95,5.8,3.51,7.22,12.02,7.62,18.91.11,1.93.81,3.51.54,5.04Z"/>
  <path class="cls-19" d="M169,58c1.33,6.57-1.14,13.07-5.62,18.32-1.1,1.29-1.41,3.18-3.36,2.59-.09-.16,0-.4-.03-.59,6.87-10.49,7.84-9.4,8.02-21.33.89-.46,1.19-.08,1,1Z"/>
  <path class="cls-28" d="M137,167c-6.16,0-11.87-3.53-16-8l-.21-1.65c4.37,2.51,7.91,6.56,13.45,7.51,1.01.17,2.05.05,2.64.74.26.31.19.97.12,1.4Z"/>
  <path class="cls-62" d="M152,28c.87.28.86.62,0,1-5.88,1.44-12,1.85-18,3v-2l18-2Z"/>
  <path class="cls-19" d="M171,29c.45.88.07,1.19-1,1-.07-1.14-2.41-2.88-3.93-2.17-4.85,2.26-9.73.11-14.07,1.17v-1c4.44-.49,16.36-3.06,19,1Z"/>
  <path class="cls-41" d="M164,170c-1.51-.84-.85-1.5,2-2,1.41.31,3.07-.04,5-.11.1-3.03-.47-5.71,1-7.89,1.16,2.65,2.27,6.59-1.09,9.05-1.56,1.15-5.14,1.44-6.91.95Z"/>
  <path class="cls-50" d="M172,36c-.09,3.67-.05,7.82-2,11v-11c.32-2.66,1.24-2.54,2,0Z"/>
  <path class="cls-33" d="M156,168c.87.28.86.62,0,1-3.97.13-8.45-.43-12-2,4.17,0,8.14-.61,12,1Z"/>
  <path class="cls-26" d="M172,36h-2v-6c.36-.3.69-.64,1-1,1.41,2.17,1.06,4.34,1,7Z"/>
  <path class="cls-5" d="M169,58c-.3-.37-.63-.7-1-1,.04-2.85,1.07-6.47,2-9,0,3.25.59,7.07-1,10Z"/>
  <path class="cls-47" d="M166,168l-2,2c-2.71-.75-5.18-1.09-8-1v-1c2.94,1,6.94-.68,10,0Z"/>
  <path class="cls-25" d="M172,153c-3.19-1.08-1.73-5.14-2-8h1c-.47,2.7,1.62,5.33,1,8Z"/>
  <path class="cls-30" d="M94,131c-.62,1.39-1.87,2.73-3.75,4.03l-3.27,4c-3.74,2.82-6.58,6.79-9.97,9.97-2.76.31-5.49,3.32-4.85,4.17-1.31,2.26-3.16,1.01-5.15,1.83-5.21.73-11.01.97-16,0-1.54.98-3.9-1.47-5-3-1.18-4.36-.54-8.62-1-13-.8-3.7-.13-6.7,2-9,1.41-.45,2.72-3.86,2.87-5,1.87-4.36,8.42,2.52,7.22,5.81l.63,1.91c-4.86,7.8,2.84,14.99,9.83,8.9l1.45.55c3.17-4.7,7.66-8.72,12.08-12.12-1.3-3.06,3.97-7.32,6.83-5.76,1.16.46,6.42,4.93,6.54,5.77.04.29-.17.61-.45.94Z"/>
  <path class="cls-56" d="M50,88l.83,2.58c-4.65,8.18-2.35,14.07,2.85,21.03l11.81,13.08-.54,2.36c2.94,1.74,7.06,5.74,8.04,8.96.41,1.9-2.4,3.75-4,4.79-1.04,1.86-2.38,1.38-2.76-.65-2.38,2.08-8.77-3.47-7.43-6.24-1.22-.16-1.8-1.19-1.72-3.1-2.63-1.23-3.4-5.81-7.22-5.81-1.37-2.58-3.72-4.51-6.05-6.22.09-1.35-.53-2.61-1.62-3.89-8.58-10.05-7.7-26.58,2.1-32.92,2.73-1.61,7.92,3.41,5.71,6.03Z"/>
  <path class="cls-56" d="M142.2,129.75c2.65,1.48,1.58,3.57-3.2,6.25,1.25,2.77.1,4.55-3,4,.02,2.27-.59,3.19-3,3,1.66,2.58.46,3.79-2,2l-3.6,3.19c1.08,1.22.28,1.77-1.4,1.81-1.32,1.66-3.12,3.89-5,5-4.76,2.82-9.04,7.19-14.87,7.89-8.28,1-15.93-.38-21.68-6.27.55-1.88,2.23-2.87,3.11-4.31.82-1.34,2.15-2.58,3.44-3.32l2.27-.76c3.49,3.35,6.75,4.56,11.49,3,5.56-1.82,11.48-7.19,15.67-11.2l2.56-.05c2.69-1.95,5.09-4.27,7-7-.15-3.32,4.67-8.17,8-8,2.77-2.18,5.55,2.12,4.2,4.75Z"/>
  <path class="cls-51" d="M131.92,119.14c2.06,1.46,4.09,3.08,6.08,4.86.87.28.86.62,0,1-2.2,3.03-4.96,5.82-8,8-1.88,2.74-4.3,5.08-7,7-2.98,4.5-14.76,12.88-18.53,13.36-6.97.89-6.52,1.09-13.46-4.36-.12-2.7,3.04-3.6,4.12-5.77l2.12-1.73c3.96,1.54,7.81.66,11.56-2.64-1.47-2.46.7-3.41,2.55-1.3l.64-2.16c2.8-1.98,5.47-4.14,8.02-6.48-1.16-1.73-.98-3.04.88-2.12l7.24-6.86c1.67-2.87,2.93-3.14,3.78-.8Z"/>
  <path class="cls-56" d="M84,107c2.1-1.09,10.02,6.49,9.64,7.66-.15.47-.38.9-.64,1.34,4.07,3.24,7.9,6.92,10.92,11.17,3,.32,9.29,3.74,7.04,7.02,3.32-.39,1.92,1.43.39,3.36l-2.55,1.3c-3.84,5.16-8.06,1.4-8.75-3.61l-2.62-1.96c-.33-.54-1.03-.8-1.44-1.28-.87-.28-.86-.62,0-1-2.93-1.96-5.25-4.32-6.95-7.07l-2.48.09c-1.29-.99-9.4-9.45-9.49-10.14-.12-.91.4-1.79.87-2.57-1.06-2.4-.56-3.11,2.05-2.32.64-1.86,2.59-3.7,4-2Z"/>
  <path class="cls-50" d="M108.8,138.85c-1.06,3.24-4.69,6.02-8.44,5.55-1.99-.25-3.55-1.39-5.24-1.18,1.12-2.26,3.04-3.89,4.59-6.33.36-1.39-1.75-2.73-2.28-3.62,6.35.89,4.61,9.02,11.37,5.57ZM103.97,141.61c-1.62-1.82-2.47-2.96-3.39-2.61-.72.28-2.2,2.2-1.36,2.63,1.6.81,3.51.56,4.75-.02Z"/>
  <path class="cls-63" d="M44,158c-.4,2.65-1.83,5-3.35,7.6l-6.96-.49,3.31-6.11c1.33-1.64,5.99-2.89,7-1Z"/>
  <path class="cls-42" d="M67,155c-5.03,2.07-10.61.62-16,1-.87-.28-.86-.62,0-1h16Z"/>
  <path class="cls-3" d="M96,131v1c-3.78,1.15-5.91,4.68-9.03,7.03.74-3.53,4.31-5.81,7.03-8.03-.08-1.9.78-1.12,2,0Z"/>
  <path class="cls-11" d="M38,157c.83,1.06.29,1.41-1,1,0-4.69-.66-9.37.5-14.09,1.17,4.72.17,8.93.5,13.09Z"/>
  <path class="cls-60" d="M47,130c-1.16,2.85-2.04,5.9-2,9-.33-3.1-2.51-7.56,2-9Z"/>
  <path class="cls-16" d="M44,158c-2.23-.12-4.91.15-7,1v-1c.39-.09,1.04-.52,1-1,1.58.12,3-.83,5.11-1.01,1.17-.1.98,1.41.89,2.01Z"/>
  <path class="cls-13" d="M77,149c-1.4,1.31-3.87,2.48-4.85,4.17-.44,0-1.11-.26-1.09-.85l5.57-5.39c.71.98.33,1.58.38,2.07Z"/>
  <path class="cls-36" d="M51,155v1c-3.26.23-4.51-2.21-5-4l5,3Z"/>
  <path class="cls-51" d="M134.02,105.83l6.97,6.38c2.64,2.41,4.64,5.13,6.89,7.85,3.46,4.19,8.19,6.86,9.12,11.94.32,5.14.7,10.14,1.15,15,.73,5.64-4.74,6.59-9.15,8-3.17.28-5.84-.05-8-1-3.56.97-6.56.63-9-1-4.79-3.28-6.55-4.7-1-8,.53-.73,1.8-.87,2-2,1.14-1.11,3.31-1.07,6.51.14,5.31-.09,7.47-3.47,6.49-10.14-3.22-.14-3.39-.26-3.8-3.25-1.82-1.04-2.16-3.9-4.2-4.75v-1c-2.31-1.66-4.57-3.64-6.18-6.01-2.03,1.44-3.1.51-3.21-2.8-2.68-.8-4.88-2.46-1.96-4.55l6.15-5.9,1.22,1.09Z"/>
  <path class="cls-32" d="M144,66c2.54,2.82,5.24,4.7,8.11,5.66l-.19,1.69c2.22,1.69,4.01,3.62,5.37,5.78,9.3,9.7,11.37,24.05,2.8,34.8-.89,1.12-2.18.81-3.04.74-.21-.47-.61-.55-1.07-.67l-3.59-2.92c-2.63-2.47-2.43-3.83.59-4.08-1.83-2.12-.61-3.95,2-4,1.33-4.14.76-9.58-2-13-3.04-.07-5.84-3.34-3.87-6.06-2.33-2.12-4.37-4.45-6.13-6.99-.62.46-1.51,1.1-2.03.79-1.88-1.12-8.5-7.62-6.86-9.84-1.98-.86-3.69-2.49-5.12-4.89-4.19.07-1.68-2.45,1.15-3.85-.7-2.46-.45-3.08,2.06-2.12.38-.91,1.3-1.59,2.22-1.81.84-.2,8.99,7.48,10.25,9,.45.54.13,1.38-.68,1.77Z"/>
  <path class="cls-32" d="M142.78,93c2.09,2.73-2.59,7.93-5.42,7.14l-2.8,3.18c-.81-.7-1.33-.19-1.56,1.53l-6.65,5.61c.55,2.63-.61,3.75-3.18,2.73-2.46,3.25-5.08,6.47-7.84,9.64-3.8-1.73-5.8-3.92-5.98-6.58-.58-2.83,4.9-9.52,7.86-8.18,3.69-5.21,8.79-9.97,13.9-13.93.25-2.74,2.91-6.63,5.9-6.16.34-.38.61-.67.65-.64,1.79,1.32,4.25,3.79,5.13,5.64Z"/>
  <path class="cls-15" d="M145.24,102.92c.7.61.59.99-.33,1.13,1.23,1.13-7.65-5.88-7.55-3.9l5.42-7.14c-.09-.78.37-.78,1.38,0,5.19-1.39,6.57,10.87,1.08,9.91ZM139.99,98.48c1.64,1.55,2.84,2.46,3.56,2.31.82-.17,1.82-1.63,1.6-2.34-.18-.58-.59-1.96-1.62-2.25-.96.71-2.28,1.7-3.55,2.28Z"/>
  <path class="cls-45" d="M167,160c.6.78,1.38,1.31,1.19,2.5s-1.68,2.52-3.27,2.23-2.45-1.64-3.92-1.73c-2.66-.32-2.54-1.24,0-2-5.08-5.16,3.65-6.73,6-1Z"/>
  <path class="cls-44" d="M153,107c-2.23,3.74,1.92,4.21,3,7-4.72-1.26-7.47-6.64-11.09-9.95.18-.32.11-.84.33-1.13l2.25-.83c1.55,2.02,3.39,3.66,5.51,4.92Z"/>
  <path class="cls-12" d="M134.56,103.32c-.41.47-1.01,1.84-.54,2.51-3.18.33-4.69,3.44-7.37,4.81-.41.44-.51.38-.3-.18-.11.07,9.68-12.36,8.21-7.14Z"/>
  <path class="cls-16" d="M131,145c-.9,1.25-1.75,2.48-3.09,3.6,2.09,1.38,3.05,3.14,4.09,4.4.79.29.78.62,0,1-1.79-1.6-3.59-3.57-6-4,.58-2.46,2.2-4.86,5-5Z"/>
  <path class="cls-34" d="M158.15,147c-.46.16-1.11-.27-1.11-1.02l-.04-13.98c3.12,16.93.37,9.03,1.15,15Z"/>
  <path class="cls-24" d="M149,155c-3.26,1.05-5.7,1.72-9,0-.22-.73.15-1.03,1-1,2.66.13,6.06-.93,8,1Z"/>
  <path class="cls-12" d="M165,156c.38-.26.71.07,1,1l1,3c-1.21-.49-1.95-1.79-3.3-2.63s-3.82-.75-3.75.96c.03.76.53,1.77,1.06,2.67-.01,1.49-1.6,1.44-2,0,.03-1.49-.18-2.96.09-4.92l5.91-.08Z"/>
  <path class="cls-49" d="M166,157c-.41-.08-1.02-.52-1-1,.14-2.87.21-5.81-1.28-9.22,3.51-3.36,1.94,9.14,2.28,10.22Z"/>
  <path class="cls-46" d="M161,161v2c-3.69-.22-7.41.57-11.07-.47,3.41-1.55,6.77.77,9.07-1.53h2Z"/>
  <path class="cls-38" d="M141,154c-.3.37-.63.7-1,1-2.26-1.18-5.72,1.04-8-1v-1c2.83,1.29,6.01.86,9,1Z"/>
  <path class="cls-30" d="M145,40.96c3.51.81,6.85,1.83,10,3.04,1.79,2.06,2.14,6.15,2,9,1.05,1.69,1.05,3.08,1.05,5-.79,2.05-1.59,5.22-2.4,9.52l-.65.48c-.69,1.06-3.23,4.28-4.08,4.25-.49-.01-6.67-5.78-5.92-7.25-.73-1.34-.83-2.87-.3-4.58-.99-8.09-7.25-5.81-12.49-3.38-.31.99-1.35,1.49-2.06,2.12-3.29,2.84-6.67,5.79-10.15,8.85,1.81,2.54.67,2.94-2,2.1.27.67-.45,1.51-2.15,2.51l-1.02,2.18c-2.08-1.19-8.05-6.81-6.83-8.8,2.78-3.7,6.32-7.07,10-10,.88-1.14,1.9-2.1,2.88-3.12,1.95-1.35,3.99-2.98,6.12-4.88,1.57-1.95,3.76-3.88,6-5,3.42-.18,6.42-.86,9-2.04,1-.08,2-.08,3,0Z"/>
  <path class="cls-32" d="M118.16,41.83c-1.21.97-1.44,1.95-2.16,3.17-3,2.83-4.68,4.23-8,1l-2.16,1c-3.46-2.08-7.35-1.8-10.84.25-3.26,3.07-5.92,3.98-8,2.75-1.91,1.9-3.94,3.33-6.09,4.29.66.63,1.27,1.66.78,2.29-3.17,4.08-10.21,12.48-14.3,15.09l-2.39-.67c-1.35,2.44-7.54-4.61-7.5-5.54,2.8-2.04,5.26-4.42,7.4-7.15.96-2.56,2.22-3.65,3.77-3.27,3.76-4.49,7.9-8.62,12.42-12.38,1.96-2.71,6.75-4.8,9.84-6.38,9.61-4.91,20.59-1.95,27.24,5.55Z"/>
  <path class="cls-9" d="M104,53.88c2.03-.11,2.72.32,2.07,1.27-1.03,1.09-2.74,3.65-3.44,5.29-.95,2.24,2.87,4.28,4.29,5.36.54-.46.83-.5,1.08.2.64,3.12,3.76,5.34,6.52,7.16,1.25-1.72,2.88-1.98,3.48-3.05,1.68-1.33,2.83-1.25,2,.9.37,1.33-.23,2.28-1.79,2.87l7.31,6.97.48,2.16c.94-.15.89.51-.15,1.97,1.23,3.18-2.89,8.37-5.82,6.08-.81-.35-.74-.62.15-.81-1.35-1.39-1.06-3.02.87-4.9-9.37-9.15-18.36-18.52-26.97-28.1-2.96-4.79,8.95-9.41,9.92-3.35ZM102.66,55.58c-.69-1.46-5.09-.85-4.56.49.66,1.66,2.29,3.29,2.83,2.47.37-.57,2.49-1.35,1.72-2.96Z"/>
  <path class="cls-53" d="M165,39c-.2,2.66-.86,2.66-2,0-.59.59-1.08,1.3-1.49,1.94-1.84-1.24-2.23-2.49-2.35-3.94-.79-1.12-.85-1.79-.16-2,1.11.23,5.17-6.84,7.93-3.3,1.6,2.06-1.77,5.01-1.93,7.3Z"/>
  <path class="cls-48" d="M155,68v1c-1.04,1.04-1.66,2.69-3.06,3.52,2.51,2.5,4.58,4.14,6.15,6.42l-.8.18c-4.28-4.46-9.65-7.97-13.3-13.13-1.33-1.41-.77-1.92,1-1,1.43,2.32,3.56,4.18,5.95,6.26,1.83-1.17,2.57-2.59,4.05-3.26Z"/>
  <path class="cls-48" d="M116,45c-2,3.39-7.49,7.58-9.93,10.15-.92-.01-1.39-.88-2.07-1.27l.71-2.09c2.13-1.3,3.22-3.23,3.29-5.79,2.71,1.88,5.29.08,8-1Z"/>
  <path class="cls-23" d="M118,56c-2.87,3.71-6.28,7.14-10,10-.3-.15-.85-.02-1.08-.2,1.28-1.34,9.7-10.98,11.08-9.8Z"/>
  <path class="cls-2" d="M158.05,58c-.01,3.92-.16,8.12-3.05,11,.06-.31-.1-.7,0-1,2.42-7.26-.82-10.63,3.05-10Z"/>
  <path class="cls-17" d="M156,44c-.27.88-.61.87-1,0-6.24-2.06-9.08.34-10-3.04,3.68.29,8.35.2,11,3.04Z"/>
  <path class="cls-10" d="M165,39c-.3,4.36.64,8.75-.49,13.09-1.59-4.77.8-9.3-1.51-13.09h2Z"/>
  <path class="cls-14" d="M159,35l.16,2c-2.41-4.14-9.73-.53-11.24-2.65,4.05-.33,7.96-1.31,11.08.65Z"/>
  <path class="cls-37" d="M157,53c-1.67-2.69-.69-6.17-2-9,.3.1.69-.06,1,0,.5.89,3.48,9.61,1,9Z"/>
  <path class="cls-13" d="M142,40.96c.29,3.59-6.13,1.55-9,2.04,2.49-1.77,6.02-1.6,9-2.04Z"/>
  <path class="cls-6" d="M162.16,64.14l1.24-11.27c1.11,3.79,1.34,7.93-1.24,11.27Z"/>
  <path class="cls-4" d="M127,48c-1.4,1.73-2.76,3.55-4.87,5.38-.69.85-1.2.46-1.25-.5,1.82-1.91,3.26-4.74,6.12-4.88Z"/>
  <path class="cls-56" d="M56,31c3.44.16,6.99.7,10.87,1.32s16.75,7.49,13.35,10.43c-.74,1.3-5.24,6.14-5.98,6.03-.44-.06-.85-.39-1.24-.78-1.48.65-2.5-.13-3.07-2.34-2.08-.22-3.39-1.1-3.93-2.66-5.07-.89-10.89-.86-16,0-.23,2.75-1,3.16-3,1-1.78,1.62-2.78,3.96-3,7l-.14,6.65c.32-.83.7-.38,1.14,1.35,2.28,1.51,2.81,4.2,1.59,8.08,6.8,7.87,14.1,15.17,21.91,21.9l-.71,2.31c2.72.79-.84,4.42-2.47,5.69-3.96,3.11-6.97,1.43-8.15-2.87-.84-1.32-1.87-2.26-3.1-2.84-2.46,1.34-5.59-.5-4.08-3.28-1.52-2.41-3.77-4.01-5.71-6.03-7.17-7.51-10.88-15.82-11.84-26.49l-1.81-20.08c-.95-10.57,5.37-5.35,25.36-4.4Z"/>
  <path class="cls-44" d="M81.09,42.66c-3.48,4.83-7.95,8.58-12.42,12.38l-.78-.14c-2.05-2.41,2.46-6.43,5.11-6.9,3.17-.54,4.55-3.75,7.23-5.25l.86-.1Z"/>
  <path class="cls-25" d="M77.95,111.32c2.65,5.38,5.05,4.79,11.09,12.61.53,1.53.15,1.27-1.14.36-2.1,1.98-4.92,3.64-6.83,5.76-.89-.19-.98-.57-.28-1.13-4.2-.66-9.95-6.55-9.73-10.88-.33-.53-.54-.9.02-1.35-.99-2.96,4.14-7.94,6.86-5.37ZM82.09,126.18c1.99-1.6,3.05-2.38,3.92-3.97-3.12-2.37-5.36-5.76-8.6-7.9-1.21-.8-3.96,2.78-3.31,4.26,1.64,3.71,4.7,5.49,7.99,7.61Z"/>
  <path class="cls-42" d="M58.81,133.91c-.27,5.96.68,8.54,7.43,6.24.86-.16,1.96.06,2.76.65.8-.1.8.36,0,1.38-3.37,2.89-8.79,4.14-12.1,0-2.81-3.53-.81-7.76.19-11.35,1.27.6,1.92,1.56,1.72,3.1Z"/>
  <path class="cls-22" d="M81.08,130.05c-3.82,4.23-7.74,8.4-12.08,12.12v-1.38c.69-2.12,2.86-3,4.01-4.79-1.32-1.53-.74-2.11,1-1-.92-2.54,4.48-8.39,6.8-6.08.21.29.1.81.28,1.13Z"/>
  <path class="cls-31" d="M96,131h-2c-1.45-2.74-4.32-4.23-6.09-6.71.26-.25.83-.15,1.14-.36,1.95,2.52,5.65,3.95,6.95,7.07Z"/>
  <path class="cls-30" d="M54.08,91.28c2.59,1.47,5.08,3.86,3.2,6.78.28,2.34.85,4.65,1.72,6.94,2.75-1.77,4.5,1.09,2,3,3.68,2.69,7.4,6.31,10.07,10.03,3.24,3.64,6.85,6.96,9.73,10.88-2.56,1.72-4.06,4.6-6.8,6.08-3.01-2.7-6.02-5.35-9.04-7.96l-7.18-7.72c-9.91-10.66-15.64-18.29-7.78-31.32.84,1.18,3.02,1.81,4.08,3.28Z"/>
  <path class="cls-8" d="M74,135c-.34.18-.79.68-1,1l-8.04-8.96c-2.48-5.14,10.08,8.58,9.04,7.96Z"/>
  <path class="cls-31" d="M133,143c.28-1.54,1.42-2.87,3-3-.03.44-.16,1.08.05,1.45.56.96,6.89,1.56,8.44-1.44.92-1.78.45-4.02.5-6-1.56-1.51-.93-2.15,1-1,1.28,2.39,1.33,5.2.15,7.76-2.45,5.3-9.36,2.78-13.15,2.24Z"/>
  <path class="cls-48" d="M146,133c-.44.08-.99.51-1,1-.51-2.59-7.5,3.49-6,2,1.64-1.97,4.73-3.57,3.2-6.25,1.76.73,2.87,1.51,3.8,3.25Z"/>
  <path class="cls-40" d="M123,140c1.82-2.75,4.34-5.09,7-7-.77,3.2-3.8,6.23-7,7Z"/>
  <path class="cls-55" d="M104.97,159.43c-1.57,2.71-4.91,1.85-7.98-.03,2.18-.66,4.33-.69,7.98.03Z"/>
  <path class="cls-62" d="M123.75,114.14l1.08,2.06-6.16,6.27,1.15,1.08,8.17-7.56c-1.86-1.18-1.41-1.9.61-.8,1.51.62,2.04,1.94,3.21,2.8.44.36.51.71.1,1.14,1.27-3.21-12.72,10.61-11.9,9.77-.58.52-1.01.52-1.27.02l-2.18-.09c-3.95-3.73-7.66-7.67-11.13-11.8l1.57-2.04c2-2.08,3.02-1.49,2.34,1.27.79,1.85,3.1,4.8,5.31,4.85,3.14-2.72,6.13-5.22,8.51-7.92.89-.12,1.08.2.59.94Z"/>
  <path class="cls-7" d="M120.02,128.91c-2.83,2.9-5.08,6.82-8.66,8.64-.34-1.01.09-2.4-.39-3.36,1.21-2.22,5.2-7.54,7.78-5.26l1.27-.02Z"/>
  <path class="cls-44" d="M138,124c-2.76-.23-4.41-2.85-6.08-4.86l-.1-1.14c2.32,1.69,4.76,3.38,6.18,6.01Z"/>
  <path class="cls-51" d="M104.92,114.2c1.79-1.88,1.98-1.8,2.08.8-.54,3.39,10.98,10.22,11.74,13.93-2.89,1.34-3.77,5.45-7.78,5.26-1.88-3.74-6.99-3.84-7.04-7.02-2.98-4.23-6.88-7.95-10.92-11.17-2.61-3.44-6.89-5.13-9-9-2.42-1.19,4.14-7.48,5.97-8.32,1.34-.62,14.06,13,14.95,15.52Z"/>
  <path class="cls-51" d="M80,109c-.71.62-.99,2.02-2.05,2.32-2.97.86-4.23,3.94-6.86,5.37-1.1-.38-6.53-5.12-6.6-5.75-.03-.29.2-.61.51-.94,2.57-3.47,5.57-6.47,9-9-.29-3.67,3.29-7.45,7-7,3.51-4.43,7.51-8.43,12-12,.95-2.45,7.4,4.47,7.68,5.39.73,2.43-11.24,13.12-13.71,13.95-2.91,2.96-5.23,5.51-6.97,7.65Z"/>
  <path class="cls-39" d="M113,97c1.62-1.25,2.12-.69.87.99l-.26,3.42s-2.86,2.87-8.59,8.62c1.54,1.8,1.51,3.18-.1,4.17-5.54-3.81-10.05-8.78-15.2-13.85-2.6,1.65-5.23,3.77-5.72,6.65-1.45.27-2.87,1.01-4,2-.97.09-1.2-.63-.38-1.22l19.76-20.33c-1.97-2.95-3.84-4.81-6.38-5.45-.57-.26-.55-.6,0-1-2.99.46-3.65-1.59-1-3l3.47.36,16.51,15.38,1.01,3.27ZM100.83,108.35l10.27-9.94-9.96-9.77-10.68,10.37c4.3,2.52,6.52,5.7,10.37,9.35Z"/>
  <path class="cls-1" d="M103.92,127.17c-3.81-3.52-7.78-7.03-10.92-11.17,1.71-.46,10.87,8.3,10.92,11.17Z"/>
  <path class="cls-61" d="M126.65,110.65c.59,1.1.53,3.97,1.96,4.55-.64-.4-.64.43-.61.8-1.91,1.86-3.73.53-4.25-1.86-.24-.29-.44-.6-.59-.94.93-1.05,1.88-2.27,3.18-2.73.23-.2.34-.11.3.18Z"/>
  <path class="cls-51" d="M128,63c2.06,1.92,4.1,3.55,6.12,4.89l8.89,9.05c1.77,2.53,3.82,4.86,6.13,6.99.86,2.07,3.05,3.71,3.87,6.06,2.76,3.43,3.31,8.85,2,13-.05,1.47-1.32,2.85-2,4-3.32,2.85-4.71-2.36-7.76-4.08,2.48-3.33,1.56-6.97-1.08-9.91-4.5-3.37-8.94-7.43-12.11-12.1-2.22.48-3.34-.02-2.6-2.19-3.34-3.07-6.56-6.25-9.65-9.54l1.2-1.17c.56-1.21,5.4-6.32,5.99-6.08.42.17.73.59,1.01,1.08Z"/>
  <path class="cls-15" d="M145,65l-1,1c1.93,2.73-11.86-12.28-11.79-8.96,1.3-4.21,7.11-5.64,11.19-3.13,3.36,2.06,4.57,8.12,1.59,11.1ZM143.53,63.89c2.2-3.42,1.32-6.57-.63-8.21-1.71-1.45-5.22-1.83-7.37.2l8,8.02Z"/>
  <path class="cls-33" d="M130.15,59.15c-.58.52-1.04,1.22-1.61,1.84-.53.58-.03,1.43.45,2.01-.3.54-.64.52-1,0-3.21,0-3.96,3.64-7,5-.33.89-.66.89-1,0,.65-.98,8.65-10.48,10.15-8.85Z"/>
  <path class="cls-16" d="M155,103c.75-4.65-.51-8.7-2-13,3.83.65,3.82,12.08,2,13Z"/>
  <path class="cls-57" d="M149.13,83.94c-2.6-1.64-5.67-3.82-6.13-6.99,2.39,2.43,4.8,3.81,6.13,6.99Z"/>
  <path class="cls-18" d="M134.12,67.89c.87,3.9-6.24-4.69-6.12-4.89h1c2.31.9,3.5,3.24,5.12,4.89Z"/>
  <path class="cls-51" d="M137,88c-1.69,2.32-3.06,5.24-5.9,6.16-5,3.83-10.61,9.04-13.9,13.93-2.59,2.57-4.73,6.1-7.86,8.18-.81-.3-1.5-1.05-2.34-1.27-.77-.2-1.41-.34-2.08-.8-.31-1.66-2-2.71-2-4.8,4.24-3.81,7.78-7.5,10.95-11.41.75-2.42,3.97-5.38,6.16-6.94,2.55-1.36,3.86-4.11,5.82-6.08.77-2.15,3.22-5.47,5.23-3.9,2.92,1.89,4.89,4.21,5.92,6.93Z"/>
  <path class="cls-43" d="M131.1,94.16c-4.29,4.96-9.25,9.32-13.9,13.93-.44.1-1.23-.17-1.08-.75l11.1-11.14c1.23-1.24,2.33-2.26,3.88-2.04Z"/>
  <path class="cls-54" d="M144.16,93.01h-1.38s-5.78-5.01-5.78-5.01c-2.28-1.97-4.13-4.47-5.92-6.93.09-.92.42-.96.98-.16,4.37,3.67,8.31,7.86,12.11,12.1Z"/>
  <path class="cls-19" d="M121,68c-.47,3.23,9.63,9.06,11.05,12.91-.31.09-.67.05-.98.16-1.96.7-3.7,2.36-5.23,3.9.19-.6-.08-1.39.15-1.97-1.57-1.18-1.42-2.23.03-3.38l-6.07-6.19.04-2.43c-.62-.4-1.09-1.14-2-.9.49-.88,1.52-1.38,2-2.1.3-.07.72.12,1,0Z"/>
  <path class="cls-51" d="M108,46c.5,1.33,1.76,1.73,3,2.52-2.73,2.21-4.02,5.44-7,5.37-3.68-2.15-7.99-.23-9.92,3.35,2.55,2.21-1.24,5.97-3.85,3.75l.05,1.47c-2.81,1.08-5.25,2.97-7.31,5.67.58,2.33-.69,3.34-3.8,3.02-.58,2.33-3.72,5.13-6.03,6.18.34,4.94-2.11,2.71-4.13-.31-1.78-1.36-3.79-3.1-5.04-4.97-.05-.08.42-.51,1.04-1.03,4.24-3.09,13.06-12.75,15.91-16.71,2.14-.96,4.17-2.39,6.09-4.29,3.08-.79,10.87-11.02,21-4Z"/>
  <path class="cls-21" d="M67.89,54.9c.24.09.53.07.78.14-3.46,2.95-5.86,7.68-10.05,10.63,2.13,2.99,3.7,4.86,6.39,5.33.12,2.76,2.95,3.73,4,6h-1c-2.77,1.41-7.89-3.99-9.92-6.35-3.15-3.67-8.71-11.74-2.08-13.65.84-.4,1.15-.02,1,1,1.57.35,2.26,1.15,2.06,2.61,2.23-2.02,4.19-4.23,5.87-6.62,1.58-2.6,3.08-2.1,2.96.91Z"/>
  <path class="cls-24" d="M87,50c-1.21,1.85-2.71,3.84-5.04,5-.61.18-1.46-.17-1.05-.71,1.41-1.96,3.95-3.74,6.09-4.29Z"/>
  <path class="cls-32" d="M120.19,90.24c-.31.87-.67.86-1.07,0-2.82-.71-6.59-4.59-8.05-7.31-2.02.94-4.03.15-6.04-2.37-1.78-1.64-5.07-4.91-5.29-6.84-2.44-.89-9.89-6.98-6.74-8.71-3.04-1.51-3.96-2.85-2.76-4.02,1.39-.67,3.11-2.38,3.85-3.75,2.25-.54,3.34,1.25,4.92,2.85l24.74,25.14c-1.04,2.08-2.91,3.12-3.56,5.02Z"/>
  <path class="cls-17" d="M120.03,91.05c-1.22,2.92-4.23,4.57-6.16,6.94-.1-.49-.5-.73-.87-.99-2.03-2.42,2.12-5.93,4.81-6,.03-.94.46-1.2,1.3-.77h1.07c-.09.26-.05.57-.15.82Z"/>
  <path class="cls-30" d="M50,43c5.1-.88,10.94-.85,16,0,1.66,0,3.73.27,4.83.89,1.41.79,1.67,2.97,2.17,4.11-.55,2.94-3.45,4.56-5.11,6.9-.96-.37-1.94-.91-2.96-.91-.3,2.65-1.18,2.55-1.93,0-2.79.46-4.8,1.25-7,3-3.71,8.12,5,13.36,12,20,1.5,1.29,2.87,1.93,4.13,1.92.28,2.56,2.19,4.75,4.47,5.67-1.56,2.75-6.6,9.51-8.81,6.7-2.33-3.29-6.29-4.93-9.05-8.02l-5.68-6.36c-2.69-3.01-4.87-6.35-8.17-9.02-.33-2.78.73-6.38.11-8.89-1.91-1.14-1.55-4.65,0-6-1.01-2.78-.76-7.42,2-9,.98-.05,1.9-1,3-1Z"/>
  <path class="cls-50" d="M83.08,69.09c3.37-.41,8.49,4.23,5.92,7.29l-.72,1.8c-9.12,8.74-18.22,17.5-27.31,26.27l-1.98.54c-1.74-.89-3.15-2.42-3.62-4.04-.64-2.22.03-4.19,1.19-6.24l-2.49-3.45c.69-2.16,5.56,5.34,8.96,5.88,2.43.38,5.09-3.79,4.75-5.86,2.6.06,6.86-3.32,7.04-6.12-2.11-2.58-4.6-6.05-6.83-8.17h1c.96.33,1.58,1.57,2.53,1.79.54.12,1.31-1.03,1.61-1.48.88-.28,1.07,0,.62.83l2.64,2.87c5.88-3.73,7.12-6.79,3.72-9.2-.97,1.68-1.6,1.23-.94-.67,1.14-1.07,2.25-2.59,3.8-3.02.55.24.58.56.12.98ZM57.73,101.75c2.24-.36,3.48-2.14,3.26-3.03s-1.77-2.29-3.27-1.71c-1.21.47-1.27,4.95.01,4.74Z"/>
  <path class="cls-52" d="M41,35c1.62.33,2.32,1,2.08,2,.71,1.38.39,3.39-1.14,4.23-1.05.58-2.54.28-3.95-.23-.82.72-1.16.39-1-1-1.23-1.32-3.46-4.46-1.45-6.7,1.25-1.4,4.34.66,5.45,1.7Z"/>
  <path class="cls-58" d="M43.08,37c-1.06.31-1.53-1.49-2.08-2,5.36.28,10.71-.57,16.08.42-5.01,1.96-9.92-1.1-14,1.58Z"/>
  <path class="cls-5" d="M66,43h-16c-.08-.78.91-1.02,1.95-1.02h12.1c1.04,0,2.02.24,1.95,1.02Z"/>
  <path class="cls-11" d="M45,53c.26,1.94-.47,4.11,0,6-.43.03-1.06.15-1.46-.04-2.27-1.05,1.09-11.55.46-7.96l1,2Z"/>
  <path class="cls-29" d="M38,41c-2.4,2.65.1,6.29-1.53,10.11-.76-3.61-1.14-7.93.53-11.11.68-.15.95.42,1,1Z"/>
  <path class="cls-37" d="M47,44c-1.8,2.66-2.42,5.82-2,9-.81-.32-1.02-1.2-1-2,.49-2.75-.76-6.81,3-7Z"/>
  <path class="cls-35" d="M65,109c.59.3.58.63,0,1,1.42,2.76,4.32,4.21,6.09,6.69l-.02,1.35c-3.06-3.45-7.69-5.87-10.07-10.03.91-2.83,3.98-1.87,4,1Z"/>
  <path class="cls-32" d="M89.01,76.39c1.72-1.97,3.39-1.07,2.99,1.61.17,1.05.51,2.06,1,3-4.1,4.35-8.1,8.68-12,13-2.3,2.28-4.54,4.8-7,7-3.09,2.68-6.09,5.34-9,8l-4-1c-.57-1.01-.86-2.41-2-3-.25-2.22,1.99-3.04,3.56-4.58l22.59-22.28c1.26-1.24,2.25-2.33,3.86-1.75Z"/>
  <path class="cls-41" d="M93,82c-3.23,4.69-8.02,8.05-12,12-5.57,3.02,12.73-14.18,12-13,.14.26-.07.7,0,1Z"/>
  <path class="cls-40" d="M74,101c-3.08,2.76-5.22,6.93-9,9v-1c.29-.96,7.88-9.22,9-8Z"/>
  <path class="cls-51" d="M93,65c-2.31-1.75,11.32,11.05,6.94,7.96,2.4,1.7,4.03,3.08,6.02,5.64,1.05,1.36,3.55,2.91,5.1,4.32,2.24,2.69,4.49,5.38,6.75,8.08-.71,2.59-3.29,3.87-4.81,6-7.66-5.46-13.74-12.97-21-19-.75-.62-2.49-.68-2.99-1.61-.93-3.25-4.34-4.46-5.92-7.29,2.66-4.46,5.72-9.11,9.92-4.09Z"/>
  <path class="cls-27" d="M93,65c-1.01.03-2.71-1.7-3.67-1.44-2.96.8-4.16,3.96-6.24,5.53l-.12-.98c1.67-3.04,4.15-5.63,7.27-7.14.56,1.56,1.81,2.69,2.76,4.02Z"/>
  <path class="cls-3" d="M80.11,71.8c2.16,3-3.36,8.5-6.35,6.34l-.62-.83c1.19-1.81,4.33-4.58,6.03-6.18l.94.67Z"/>
  <path class="cls-59" d="M63,54c-1.9,1.75-5.16,1.45-6,4-.36-.3-.69-.64-1-1,1.33-2.91,3.4-3.44,7-3Z"/>
  <path class="cls-20" d="M119.12,90.23c-.39.32-.83.57-1.3.77.25.32-11.39-9.87-6.75-8.08l8.05,7.31Z"/>
</svg>