<?xml version="1.0" encoding="UTF-8"?>
<svg id="Layer_1" data-name="Layer 1" xmlns="http://www.w3.org/2000/svg" viewBox="0 0 200 200">
  <defs>
    <style>
      .cls-1 {
        fill: #313131;
      }

      .cls-2 {
        fill: #cacaca;
      }

      .cls-3 {
        fill: #2a2a2a;
      }

      .cls-4 {
        fill: #cdcdcd;
      }

      .cls-5 {
        fill: #d5d5d5;
      }

      .cls-6 {
        fill: #282828;
      }

      .cls-7 {
        fill: #373737;
      }

      .cls-8 {
        fill: #2b2b2b;
      }

      .cls-9 {
        fill: #eee;
      }

      .cls-10 {
        fill: #ebebeb;
      }

      .cls-11 {
        fill: #f4f4f4;
      }

      .cls-12 {
        fill: #e4e4e4;
      }

      .cls-13 {
        fill: #ececec;
      }

      .cls-14 {
        fill: #ededed;
      }

      .cls-15 {
        fill: #d2d2d2;
      }

      .cls-16 {
        fill: #e6e6e6;
      }
    </style>
  </defs>
  <path class="cls-13" d="M72.14,80.3c-.43.87-.68,1.81-1.06,2.7l-1.07.05c-.33-5.24-2.9-.49-5.14-5.39-.6-1.3-.4-.6-1.8,1.28-1.38.4-2.78-.24-4.13-.38.26-1.05,1.33-1.32,2.01-1.98-3.15-2.53-5.84-3.9-8.88-1.81l.82,2.01c-5.94-.29-11.53,1.55-15.73,5.23-7.26,6.38-10.73,15.24-7.15,25.03,3.09,8.43,10.35,13.84,19.99,14.87.1.53-.09,1.02-.29,1.36-.47.8-1.82.47-2.62,1.12.5,1.15,2.34.45,3.45.63,1.8.3,1.62-1.73,1.46-3.15,2.41-.97,5.16.17,7.03-1.78.1,1.36-.76,2.92.77,4.21l6.68-4.73c1.84-1.3,3.57-2.55,5.33-4.14.87-.78-1.48-3.42-.8-4.43l2.94-4.13c1.83-2.57,4.85-4.9,8.1-5.78.59,4.51-2.83,5.54-6.28,9.36,4.51-1.06,5.71-5.59,9.22-7.46,4.39,3.59-6.41,9.05-8.09,12.67-.27-.09-.66.16-.96.15-10.3,9.28-20.7,15.83-35.88,12.2-2.19-.52-3.93-1.53-5.79-.95-.54-.91-1.31-1.47-2.04-2.18-6.52-6.34-10.85-13.93-11.23-22.9-.5-11.55,3.84-25.9,15.78-30.93,11.88-5,27.54.32,35.36,9.23ZM44,72v2h5v-2h-5ZM39.25,75.2c.97-.26,2.23-.24,1.77-1.67-.14-.44-.78-.66-1.47-.56-.42.06-.44.92-.98,1.39-4.19,3.08-9.8,5.95-9.99,12.01,3.37-4.66,4.99-9.62,10.67-11.16ZM28.13,88.08c-.06-1.51-2.09-1.51-2.35,0,.08,2.68,2.46,2.69,2.35,0ZM25.92,93.74c1.77-1.67,1.37-3.31-.9-1.79-1.81.5-1.32,2.32.9,1.79ZM25.33,102.97c.99-3.63,1.29-6.06-.1-8.29-1.82,3.17.33,5.66.1,8.29ZM27.13,108c0-.35-.28-.63-.63-.63s-.63.28-.63.63.28.63.63.63.63-.28.63-.63ZM29.12,112.57c.02-2-2.87-2.93-2.97-2.14l1.45,2.98c.34.69,1.5,1.24,1.52-.84ZM73.19,112.2c-.79,1.03.22,2.21.76,1.37.19-.3,1.07-.78.98-1.11-.12-.4-1.26-.89-1.74-.25ZM31.11,116c0-.61-.5-1.11-1.11-1.11s-1.11.5-1.11,1.11.5,1.11,1.11,1.11,1.11-.5,1.11-1.11ZM39.45,123.34c-1.08-2.28-3.31-1.52-4.46-.84,1.73.49,2.49,2.42,4.46.84ZM57,123.5c0-.28-.22-.5-.5-.5s-.5.22-.5.5.22.5.5.5.5-.22.5-.5ZM43.11,125c0-.61-.5-1.11-1.11-1.11s-1.11.5-1.11,1.11.5,1.11,1.11,1.11,1.11-.5,1.11-1.11ZM45.63,125.5c0-.35-.28-.63-.63-.63s-.63.28-.63.63.28.63.63.63.63-.28.63-.63ZM54.63,125.5c0-.35-.28-.63-.63-.63s-.63.28-.63.63.28.63.63.63.63-.28.63-.63Z"/>
  <path class="cls-10" d="M175.54,81.44c0,.18.09.54.01.71-1.37,2.79,2.12,5.41,2.44,7.86.65,4.91,1.76,10.16.86,15.09-.66,3.62-3.69,7.17-3.87,10.98-.15,3.18-2.31,3.91-3.99,5.92-2.4.19-3.65,2.99-5.95,4.05-11.95,5.5-25.86,3.1-35.59-5.49-1.29-1.14-2.24-1.96-2.09-3.41.31-.02.72-.42.78-.72.29-.07.64.06.91-.05.12.94,1.56,1.04,1.91,1.65,1.45,2.59,4.36,2.03,6.82,1.02.61.18,1.55.71,2.12.96-.91.68-2.37.45-3.21,2.06,3.08,2.46,5.84,3,9.25,3.86-.75-1.58-.93-2.67-.93-3.99.41.44,2.07-.29,2.74-.01.54.22.5,1.61.35,2.14-6.16,2.26,17.32,2.65,1.89-.05.04-.32-.77-1.43-.58-1.86s1.64-.79,2.14-.75c3.35.27,5.13-2.05,7.24-3.24,1.69-.95,4.03-.13,5.8-2.83,2.22-3.37,5.05-7.19,6.24-11.86,1.71-6.75-1.88-15.2-6.71-20.46-6.46-7.05-15.88-4.83-18.21-7.83-.08-.65-.42-1.2-.85-1.71-.68-.82-2.11-.8-2.08.54.05.35-.1.78.03,1.11-4.61-1.45-8.42,2.77-11.67,6.21-.72.77-3.72.54-3.32,1.96.26.92.36,3.15,1.68,2.87l-1.48,2.63c-1.54.46-3.5,2.74-4.11,4.46-.51,1.47-2.62,2.04-3.23,3.5l-2.99.42-1.75-1.82c1.99-2.02,4.82-3.21,4.5-6.38-1.61,3.06-4.17,5.98-7.55,4.88.92-3.83,7.14-6.71,8.76-11.87,3.55,1.43,4.79-2.71,7.04-4.31,9.51-6.75,21.13-10.24,32.76-6.43,6.46,2.12,10.41,9.31,13.87,10.21ZM154.92,73.09c-.53-2.07-4.04-1.38-3.98-.12.08,1.82,4.3,1.39,3.98.12ZM164.41,76.78c-1.33-3.06-4.01-3.07-6.5-2.37,2.26.51,3.35,2.97,6.5,2.37ZM170.47,86.02c.87-.55.59-2.17.49-3.42-.06-.77-1.69-.64-2.91-1.59-.08,2.23.91,3.29,2.42,5.01ZM125.63,86.5c0-.35-.28-.63-.63-.63s-.63.28-.63.63.28.63.63.63.63-.28.63-.63ZM171.84,89.6c.12,1.6,1.06,1.72,1.65,1.4.55-.29.78-.93.51-1.49s-1.12-1.11-2.16.09ZM173.34,92.46c-.95,1.97-.24,2.84,1.11,2.56.58-.12.98-1.24.13-1.96-.28-.24-.88-1.34-1.24-.6ZM175.48,101c1.1-2.8-.38-3.92-1.3-5.12-.22,2.27.87,3.62,1.3,5.12ZM173.97,101.48c-.86,5.48-2.71,9.47-4.66,14.56,4.46-3.29,6.47-9.26,4.66-14.56ZM162.29,122.61c3.9-1.12,6.29-3.49,6.58-6.63-2.05,2.72-3.88,5.24-6.58,6.63ZM161.11,124c0-.61-.5-1.11-1.11-1.11s-1.11.5-1.11,1.11.5,1.11,1.11,1.11,1.11-.5,1.11-1.11ZM156.63,124.5c0-.35-.28-.63-.63-.63s-.63.28-.63.63.28.63.63.63.63-.28.63-.63Z"/>
  <path class="cls-10" d="M108,62c.81,0,2,1.22,1.94,2.08-.16,2.4,1.73,3.98,3.84,4.86.15,1.88,1.42,3.03,3.22,3.15.98.07,1.94,1.03,3,.91.37.6.19,1.47.25,2.19.11,1.3,2.02,1.71,2.77,2.44.6.59,1.11,1.48,2,1.89-1.28,1.18-2.82,1.38-3.15,2.45-.45-.18-1.16.35-1.63.25.06-1.12-.22-2.13-.96-2.99,1.69,1.94-7.51-3.67-8.46-5.02-1.77-2.54-2.38-5.56-5.71-7.43-.81-.46-1.5-1.66-1.91-2.41-.45-.83.6-1.56.8-2.36h4Z"/>
  <path class="cls-14" d="M110.74,116.01c1.79,4.46,6.36,6.94,9.15,10.54,9.43,12.17,14.04,28.72,3.85,42.13-1,1.32-3.14,1.55-2.74,3.32-.98.63-1.69,1.79-3,1.89-18.02,7.75-26.98,2.05-31,2.92-.33.07-.67.18-1,.19s-.69.06-1,0c-.22-.43-.58-.76-1-1h-1c-.27-.43-.56-.93-1-1.21-.26-.16-.7-.06-1-.13-2.36-4.09-6.45-7.25-8.57-11.95-5.18-11.48-1.74-24.7,6.13-34.07,1.23-1.46,2.49-2.17,3.9-1.42,0,.3.1.59.12.89-.6.84-.62,1.89-.59,2.89-3.1,2.54-6.47,6.09-7.21,10-.42.31-1.25.86-.79,1.52.55.79,1.44.48,2.05.45-.01.59-.65.73-.93,1.09-.42-.06-.93-.07-1.57-.08-.41,0-.68.75-.48,1.29.12.32.5.54.93.72v1c0,3.66-.16,7.32.15,10.96l.07.84c.04.41-.39,1.02-.19,1.65s1.33.65,1.96.54c-.29.93.59,1.49.75,2.2.38,1.65,1.74,2.37,3.34,2.76.54.73,1.77,1.15,1.91,2.03l.23,1.38c.11.65,1.11.68,1.77.62.32-.03.68-.03,1,0-.21,2.19,2.15,3,4,3h2c.41,1.31,1.93.92,3,1,.54.04,1.53-.24,2,0,2.24,1.15,4.64-.29,7,0,3.28.41,6.64.69,8.7-2.17,1.06-.8,3.89-.51,4.09-2.51.39-.1.79-.27,1.19-.31.68-.06,1.41-.07,2.05-.5.76-.5,1.05-1.47,1.02-2.41.44-.17.72-.62,1.12-.84,2.5-1.37,4.19-4.4,3.85-7.26.6-.73.98-1.1,1.35-2,.88-2.11,1.3-4.98.06-7,.08-.32,0-.68.07-1,.28-1.52-.33-3.05-1.48-4-.16-.54.23-1.56-.23-2.2-.54-.76-1.6-.96-2.54-.9.07-.65-.13-1.27-.22-1.9.33-.03.78.1,1.45,0,.76-.12.67-1.06-.45-.99-.74-1.64-.78-4.33-3-4,.03-.33-.06-.68,0-1,.39-2.05-1.82-2.14-3-3-.98-.9-1.43-2.66-3-3,.08-.68.16-1.44-.18-2.26-.24-.59-1.25-.57-1.82-.74-1.02-2.04-3.52-3.36-5-5-.36-.95-1.11-1.57-2-2-.35-.17-.53-1-1-1,.11-1.07.51-2.08,1.19-2.91l.09-.67.81-.23c1.3.94,3.89,2.39,4.65,3.82Z"/>
  <path class="cls-9" d="M113,22c.97.11,1.93,1.14,3,1,.08.88.73,1.68,1.64,2.27,13.9,8.98,14.45,25.89,7.17,39.44-1.04,1.93-1.86,4.44-3.81,5.29-.37.55-1.42,2.32-1,3-1.06.12-2.02-.84-3-.91-.89-.82-.69-2.33.63-3.59,8.5-8.12,12.22-21.49,6.11-32.36-1.82-3.24-9.87-9.65-15.89-11.47-2.08-.63-4.29,1.01-6.46-.96-1.57-1.43-3.98,1-5.56,1.05-11.85.4-24.91,10.22-22.06,23.21-2.27,6.52,3.99,15.85,7.94,20.48,4.39,5.15,7.76,11.03,13.22,14.62.04.26.16.51.19.77-1.32.75-2.52,1.71-3.95,2.23-.2-1.26-.7-2.52-1.86-3.15-1.3-2.92-3.96-5.1-6.42-7.08-1.09-2.17-2.72-4.01-4.53-6.21-6.63-8.03-10.02-18.61-7.56-29.01,2.39-10.13,10.82-16.87,20.51-19.26,12.82-3.16,10.88-.51,21.7.66Z"/>
  <path class="cls-6" d="M113,22c-10.83-1.17-8.88-3.81-21.7-.66-9.69,2.39-18.12,9.13-20.51,19.26-2.46,10.4.94,20.99,7.56,29.01,1.82,2.2,3.44,4.04,4.53,6.21l-.82.09c-4.64-2.81-6.23,6.54-9.92,4.39-7.81-8.9-23.47-14.23-35.36-9.23-.31-.29-.54-.64-.69-1.04,4.78-1.96,9.75-3.74,15.57-2.71,8.55,1.53,16.1,4.41,22.34,11.28l5.37-4.73c-8.53-8.01-12.2-18.33-11.31-30.07,1.48-19.61,25.26-29.32,39.79-24.52,1.95.64,4.61.52,5.15,2.72Z"/>
  <path class="cls-3" d="M175.54,81.44c-3.46-.9-7.42-8.09-13.87-10.21-11.62-3.81-23.25-.32-32.76,6.43.3-.52-.54-.77-.91-.65,4.47-6.03,12.56-8.5,20.43-9.61,11.2-1.58,22.47,4.22,27.11,14.04Z"/>
  <path class="cls-3" d="M82.46,127.22c-1.41-.75-2.67-.04-3.9,1.42-7.87,9.37-11.31,22.59-6.13,34.07,2.12,4.69,6.21,7.86,8.57,11.95-2.98-.79-4.79-3.44-6.83-5.73-4.69-5.22-6.41-10.89-6.26-18,.49-22.86,13.9-22.07,8.95-28.26-3.58-4.48-10.69,3.29-11.34,3.77-7.92,5.94-27.86,6.3-31.25.63,1.86-.59,3.6.43,5.79.95,15.19,3.63,25.58-2.92,35.88-12.2-1.37,6.99,6.52,7.4,6.51,11.4Z"/>
  <path class="cls-6" d="M171,122c-2.15,2.57-3.38,4.73-6.85,6.33-12.72,5.83-28.19,2.19-37.97-7.67-.57-.57-1.41-.7-2-.7.96-1.19,1.37-2.7,3.2-2.81-.15,1.45.8,2.27,2.09,3.41,9.73,8.59,23.64,10.99,35.59,5.49,2.3-1.06,3.55-3.86,5.95-4.05Z"/>
  <path class="cls-12" d="M151.97,87.93c-.78,1.43-2.71.71-4.36,2.18,1.35,2.27,5.51-.73,9.33,3.44.8.88,1.47,8.75-.83,11.28-1.97,2.17-4.08,2.7-7.54,2.04-7.17,2.05,7.04,2.33,4.57,3.86-2.85.68-5.94,1.02-8.3-.99.07-1.54,1.51-2.58,1.01-4.88-1.58,1.39-3.1,1.96-4.81,1.76-.29-.04-.61.08-.9.07-.37-.91-.74-1.74-2.48-2.72-1.62,1.44-3.3,4.38-3.81,6.02-.1.32-.5.96-.85,1-2.66.34-4.38,2.9-4.85,5.43-.06.3-.47.7-.78.72-1.83.11-2.24,1.62-3.2,2.81l-3.35,4.18c-2.2-.14-3.6-1.99-3.66-4.14,6.51-4.21,12.34-12.36,19.06-17.68,7.67-1.31-7.44-8.58-6.84-13.38,1.14-.45,2.34-.64,3.54-.81-.03,1.18,1.21.92,2.06.88.13.34.99.57.93,1.06-.31,2.5,1.67,4.04,3.69,5.13.8.43,1.87,1.03,2.63.59.54-.31,1.8-.68,1.6-1.66-.34-1.66-1-2.83-.89-4.12.81-.42,2.14.25,3.01.02-.43.53-1.73,2-.61,2.72.63.4,2.13-1.57.61-2.72,0-1.76,1.08-2.47,2.93-2.89,1.06-.24,1.96.64,3.07.81ZM145.76,98.05c-.95.07-2.02-.31-3.47.28,3.85,3.68,5.86,7.78,9.96,6.48,3.55-1.13,3.14-6.77,2.68-9.17-.25-1.31-2.18-.15-2.93-.64-2.29-1.5-4.39.63-6.24,3.05Z"/>
  <path class="cls-3" d="M121,172c-.4-1.76,1.74-2,2.74-3.32,10.19-13.41,5.58-29.96-3.85-42.13l1.15-.19c7.83,7.7,7.28,8.95,9.4,17.36,2.95,11.73.59,21.87-9.44,28.29Z"/>
  <path class="cls-3" d="M36.09,70.03c.15.4.38.75.69,1.04-11.94,5.02-16.28,19.37-15.78,30.93l-2,2c-1.46-13.9,4.07-28.61,17.09-33.97Z"/>
  <path class="cls-6" d="M121,70c1.95-.86,2.78-3.36,3.81-5.29,7.27-13.55,6.73-30.46-7.17-39.44-.91-.59-1.56-1.39-1.64-2.27,7.81-.99,20.78,22.72,14.17,30.63,1.36,3.9-1.29,6.49-2.76,9.7s-2.7,6.46-6.42,6.67Z"/>
  <path class="cls-8" d="M118,173.89c.01,1.52-1.09,2.58-2.8,3.2-9.33,3.41-19.26,4.28-28.2.9v-1.19c4.02-.86,12.98,4.83,31-2.92Z"/>
  <path class="cls-6" d="M32.23,124.9c-.03.37-.42,1.13-.89.99-7-4.58-11.62-14.99-12.35-21.89l2-2c.38,8.97,4.72,16.56,11.23,22.9Z"/>
  <path class="cls-6" d="M179.91,106.07c-.38-.29-.73-.62-1.05-.98.9-4.93-.21-10.18-.86-15.09.3-.37.63-.7,1-1,1.53,4.08,1.74,14.23.91,17.07Z"/>
  <path class="cls-7" d="M179.91,106.07c-.3,1.03-.75,9.45-4.92,10,.18-3.81,3.21-7.36,3.87-10.98.32.36.66.69,1.05.98Z"/>
  <path class="cls-6" d="M120.24,82.22c.48.1,1.19-.43,1.63-.25-1.62,5.16-7.84,8.04-8.76,11.87-1.57-.51-2.95-.92-3.14-2.85,1.41.62,7.31-4.89,6.68-6.06s-1.51-1.9-2.56-2.67c-.85-.62-6.86,5.4-6.1,6.78-1.25-.12-2.54.15-3.79.16,4.5-6.73,5.92-5.72,7.65-10.03,1.66.53,5.37,5.52,7.59,4.76.52-.18.7-1.1.79-1.71Z"/>
  <path class="cls-6" d="M128,77c.37-.11,1.21.14.91.65-2.25,1.6-3.49,5.75-7.04,4.31.33-1.06,1.87-1.27,3.15-2.45-.89-.41-1.4-1.3-2-1.89.39.02.79-.14,1.18-.1,1.3.14,2.57-.15,3.81-.53Z"/>
  <path class="cls-8" d="M179,89c-.37.3-.7.63-1,1-.32-2.44-3.81-5.06-2.44-7.86.8-1.79,2.78,5.08,3.44,6.86Z"/>
  <path class="cls-1" d="M117.17,119.99c.05,2.15,1.46,4,3.66,4.14l.21,2.23-1.15.19c-2.79-3.6-7.36-6.08-9.15-10.54,2.17.08,4.47.21,6.35-1.01-.18,1.2-1.2,1.94-1.9,3.35-.51,1.01,1.32,1.61,1.99,1.64Z"/>
  <path class="cls-3" d="M124.19,77.53c-.39-.04-.79.12-1.18.1-.74-.73-2.66-1.14-2.77-2.44.86-.14,1.77-.25,2.74.3.6.34,1.09,1.16,1.21,2.04Z"/>
  <path class="cls-3" d="M83,176c-.48-.26-.84-.69-1-1.21.44.28.73.78,1,1.21Z"/>
  <path class="cls-3" d="M85,177c-.5-.09-.88-.53-1-1,.42.24.78.57,1,1Z"/>
  <path class="cls-3" d="M87,178c-.44-.17-.74-.64-1-1,.33-.02.67-.12,1-.19v1.19Z"/>
  <path class="cls-8" d="M37,83c-2.3,3.21-3.79,6.68-5.67,10.92-3.35,7.55,1.71,17.76,7.25,21.57,14.42,9.92,27.56-2.69,27.34-3.95-.09-.49-.5-1.08-.86-1.6,2.38,2.1,4.71-1.39,7.27-2.9l1.64-.16-2.94,4.13c-3.31,1.61-5.4,5.01-8.67,7.34-1.14.81-2.52.92-3.32,1.75-1.87,1.95-4.62.8-7.03,1.78-.52.21-1.44.09-2,.03-9.64-1.03-16.9-6.44-19.99-14.87-3.59-9.79-.11-18.65,7.15-25.03l-.16.98Z"/>
  <path class="cls-16" d="M83,119c-.12.43-1.3,1.12-.99,1.44s1.08,1.52,1.51,1.42c.48-.11.51-1.76.48-1.87,1.29-.04,2.58.1,3.86.24l.41.92c.94,2.08,2.37,3.55,4.18,5.3-1.6-1.55,4.16,8.69,2.44,10.63l-6.64-4.16c-.31-1.01-.66-1.94-1.06-2.91-.79-1.88-2.68-2.29-4.6-1.9-.02-.3-.12-.59-.12-.89,0-4-7.88-4.41-6.51-11.4.29.01.69-.23.96-.15.33.15.58.46.93.67.45.28.74.07,1.12-.34.31-.35.88-.5,1.05-1.01.67-.27,1.4-.45,1.88-1.05l1.19.23c-.38,1.52-.21,3.33-.08,4.81Z"/>
  <path class="cls-15" d="M78.83,90.7c6.37,5.21,9.8,10.57,16.88,15.36-.1.94-.14,1.88.07,2.81-1.54.5-3.11,1.04-4.74.89-.51-.87-1.29-1.52-2.18-1.97.23-2.03-1.79-4.74-3.86-4.79-3.51,1.87-4.71,6.4-9.22,7.46,3.46-3.82,6.87-4.86,6.28-9.36-.31-3.77-3.92-4.99-6.01-8.12.04-1.48,1.35-2.41,2.78-2.28Z"/>
  <path class="cls-12" d="M82.06,75.91l-.03,2.17-17.75,17.76c-.52-.85-.8-1.46-1.28-1.84v-2l3.16-4.13c2.63-.08,3.97-2.64,4.92-4.86.38-.89.63-1.83,1.06-2.7,3.69,2.15,5.28-7.2,9.92-4.39Z"/>
  <path class="cls-6" d="M52.89,76.78c2.02.1,4.01,1.57,6.04,1.78,1.35.14,2.75.78,4.13.38.69,2.48,2.31,4.62,4.99,5.84,1.15-.28,1.64-1.01,1.96-1.73l1.07-.05c-.95,2.22-2.29,4.78-4.92,4.86-.07-1.76-1.41-2.85-3.16-3.95-11.43-7.22-14.01-5.9-26-.91l.16-.98c4.2-3.69,9.79-5.52,15.73-5.23Z"/>
  <path class="cls-15" d="M71.02,111.01c-.68,1,1.67,3.64.8,4.43-1.76,1.59-3.49,2.84-5.33,4.14l-6.68,4.73c-1.53-1.29-.67-2.85-.77-4.21.8-.83,2.18-.94,3.32-1.75,3.27-2.33,5.36-5.73,8.67-7.34Z"/>
  <path class="cls-6" d="M76.05,92.98c2.09,3.13,5.7,4.35,6.01,8.12-3.25.89-6.27,3.22-8.1,5.78l-1.64.16c.51-.3.74-1.49.13-1.85.85.97,2.12-.4,2.57-1.2.89-1.58,2.1-2.73,4.04-4.44-1.39-1.04-2.55-3.48-4.51-4.17-2.86-.52-5.36,2.55-6.54,4.73-.63-.03-1.31-.93-1.86-1.09l5.55-5.38c1.77-1.72,2.33-1.86,4.36-.65Z"/>
  <path class="cls-8" d="M88.86,107.79c-3.07.83-4.9,3.87-6.98,6.17-.48.59-1.21.78-1.88,1.05-.43.17-.7.73-1.05,1.01-.37.41-.66.62-1.12.34-.34-.21-.59-.52-.93-.67,1.69-3.63,12.49-9.08,8.09-12.67,2.07.05,4.09,2.76,3.86,4.79Z"/>
  <path class="cls-15" d="M70.01,83.06c-.32.72-.81,1.44-1.96,1.73-2.67-1.22-4.3-3.36-4.99-5.84,1.4-1.88,1.21-2.58,1.8-1.28,2.24,4.91,4.81.16,5.14,5.39Z"/>
  <path class="cls-15" d="M58.93,78.56c-2.03-.21-4.02-1.68-6.04-1.78l-.82-2.01c3.04-2.09,5.73-.72,8.88,1.81-.68.66-1.75.92-2.01,1.98Z"/>
  <path class="cls-15" d="M39.25,75.2c-5.67,1.54-7.3,6.5-10.67,11.16.19-6.06,5.8-8.93,9.99-12.01.54-.47.55-1.33.98-1.39.69-.09,1.33.13,1.47.56.45,1.42-.8,1.41-1.77,1.67Z"/>
  <rect class="cls-15" x="44" y="72" width="5" height="2"/>
  <path class="cls-15" d="M29.12,112.57c-.02,2.08-1.18,1.53-1.52.84l-1.45-2.98c.1-.8,2.99.14,2.97,2.14Z"/>
  <path class="cls-15" d="M25.33,102.97c.23-2.63-1.92-5.12-.1-8.29,1.39,2.23,1.09,4.66.1,8.29Z"/>
  <path class="cls-15" d="M52,121.88c.16,1.42.35,3.45-1.46,3.15-1.11-.19-2.95.52-3.45-.63.8-.65,2.15-.31,2.62-1.12.2-.34.39-.83.29-1.36.56.06,1.48.17,2-.03Z"/>
  <path class="cls-15" d="M39.45,123.34c-1.97,1.58-2.73-.35-4.46-.84,1.15-.68,3.38-1.44,4.46.84Z"/>
  <path class="cls-15" d="M28.13,88.08c.11,2.69-2.27,2.68-2.35,0,.26-1.51,2.29-1.51,2.35,0Z"/>
  <path class="cls-15" d="M25.92,93.74c-2.22.53-2.7-1.29-.9-1.79,2.27-1.52,2.67.12.9,1.79Z"/>
  <circle class="cls-15" cx="30" cy="116" r="1.11"/>
  <circle class="cls-15" cx="42" cy="125" r="1.11"/>
  <path class="cls-15" d="M73.19,112.2c.48-.63,1.62-.15,1.74.25.1.33-.78.82-.98,1.11-.54.84-1.55-.33-.76-1.37Z"/>
  <circle class="cls-15" cx="26.5" cy="108" r=".63"/>
  <circle class="cls-15" cx="45" cy="125.5" r=".63"/>
  <circle class="cls-15" cx="54" cy="125.5" r=".63"/>
  <circle class="cls-15" cx="56.5" cy="123.5" r=".5"/>
  <path class="cls-1" d="M145.93,75.17c2.32,3.01,11.75.79,18.21,7.83,4.83,5.26,8.42,13.71,6.71,20.46-1.18,4.67-4.02,8.48-6.24,11.86-1.77,2.7-4.11,1.87-5.8,2.83v-.83c5.71-3.49,10.09-11.29,10.01-18.21-.07-5.73-3.08-12.33-6.99-15.38-8.33-6.5-17.63-5.22-25.89-.87v-.7c1.7-1.06,2.73-3.34,5.51-3.85,1.64-.3,2.03-2.06,1.59-3.18-.13-.33.02-.76-.03-1.11,1.12-.22,2.23.26,2.93,1.17Z"/>
  <path class="cls-5" d="M107.99,89.03c.83.08,1.9,1.11,1.98,1.96.18,1.93,1.57,2.34,3.14,2.85,3.39,1.1,5.95-1.82,7.55-4.88.32,3.17-2.51,4.36-4.5,6.38l1.75,1.82c-7.17.61,12.37,8.13,3.84,11.03-.86-.04-1.68-.52-2.51-1.36l-10.94-11.11c-2.67-.81-3.85-2.95-5.3-4.71l1.2-1.8c1.25-.02,2.54-.29,3.79-.16Z"/>
  <path class="cls-8" d="M133,111c-1.94.65,9.15,7.43,10.62,7.61,4.23.5,11.23,1.13,15.19-1.3v.83c-2.12,1.19-3.9,3.51-7.25,3.24-.5-.04-1.95.35-2.14.75s.61,1.54.58,1.86c-.54-.09-1.28.1-1.89.05.15-.53.19-1.92-.35-2.14-.67-.27-2.33.45-2.74.01-1.34-1.43-3.19-1.78-5.1-1.93-.57-.25-1.51-.78-2.12-.96-1.1-1.15-6.08-6.56-7.08-3.33l-1.65.67c-.27.11-.62-.02-.91.05.47-2.53,2.18-5.09,4.85-5.43Z"/>
  <path class="cls-5" d="M143.03,75.11c.44,1.12.06,2.88-1.59,3.18-2.78.5-3.81,2.78-5.5,3.85-2.08,1.31-4.29,2.42-6.23,4.01-1.31.28-1.42-1.95-1.68-2.87-.4-1.42,2.59-1.19,3.32-1.96,3.25-3.44,7.06-7.66,11.67-6.21Z"/>
  <path class="cls-5" d="M128.24,88.78c.31-.09,1.21-.33,1.15.15-.6,4.79,14.51,12.06,6.84,13.38l-2.15-1.56c-1.86-2.98-4.25-6.2-7.79-6.94-.7-.15-1.35-.86-2.17-.56.61-1.73,2.57-4.01,4.11-4.46Z"/>
  <path class="cls-5" d="M145.02,121.92c0,1.32.18,2.41.93,3.99-3.41-.85-6.17-1.4-9.25-3.86.84-1.62,2.3-1.38,3.21-2.06,1.91.15,3.76.5,5.1,1.93Z"/>
  <path class="cls-5" d="M173.97,101.48c1.81,5.3-.2,11.27-4.66,14.56,1.95-5.09,3.8-9.08,4.66-14.56Z"/>
  <path class="cls-5" d="M137.8,119.04c-2.47,1.02-5.38,1.57-6.82-1.02l-.26-2.31c1-3.23,5.99,2.18,7.08,3.33Z"/>
  <path class="cls-7" d="M134.09,100.75c-6.12.74-7.3,7.79-12.24,8.32-.2-.28-.22-.57-.09-.88,8.53-2.9-11-10.42-3.84-11.03l2.99-.42c-.39,3,1.96,7.01,5.27,6.64,2.26-.25,4.69-3.07,3.55-4.91s-2.99-2.88-3.44-4.67c3.53.74,5.93,3.96,7.79,6.94Z"/>
  <path class="cls-6" d="M135.94,82.85c-.03,2.25-2.94,2.96-3,5.28-1.2.18-2.4.37-3.54.81.06-.48-.84-.25-1.15-.15l1.48-2.63c1.93-1.59,4.14-2.7,6.23-4.01v.7Z"/>
  <path class="cls-5" d="M162.29,122.61c2.7-1.39,4.53-3.91,6.58-6.63-.3,3.13-2.69,5.51-6.58,6.63Z"/>
  <path class="cls-5" d="M150,124c15.43,2.7-8.06,2.32-1.89.05.61.05,1.35-.15,1.89-.05Z"/>
  <path class="cls-5" d="M164.41,76.78c-3.14.59-4.24-1.86-6.5-2.37,2.48-.7,5.16-.69,6.5,2.37Z"/>
  <path class="cls-5" d="M170.47,86.02c-1.51-1.72-2.5-2.78-2.42-5.01,1.22.95,2.85.82,2.91,1.59.1,1.25.38,2.87-.49,3.42Z"/>
  <path class="cls-5" d="M154.92,73.09c.32,1.27-3.89,1.7-3.98-.12-.06-1.27,3.45-1.95,3.98.12Z"/>
  <path class="cls-5" d="M173.34,92.46c.36-.74.96.36,1.24.6.85.72.44,1.85-.13,1.96-1.34.27-2.05-.6-1.11-2.56Z"/>
  <path class="cls-5" d="M171.84,89.6c1.03-1.2,1.89-.66,2.16-.09s.04,1.2-.51,1.49c-.59.31-1.53.2-1.65-1.4Z"/>
  <circle class="cls-5" cx="160" cy="124" r="1.11"/>
  <path class="cls-12" d="M130.72,115.71l.26,2.31c-.35-.6-1.79-.7-1.91-1.65l1.65-.67Z"/>
  <path class="cls-5" d="M175.48,101c-.43-1.49-1.51-2.84-1.3-5.12.91,1.2,2.4,2.32,1.3,5.12Z"/>
  <circle class="cls-5" cx="125" cy="86.5" r=".63"/>
  <circle class="cls-5" cx="156" cy="124.5" r=".63"/>
  <path class="cls-5" d="M145.93,75.17c-.7-.91-1.81-1.39-2.93-1.17-.03-1.34,1.4-1.36,2.08-.54.43.52.78,1.06.85,1.71Z"/>
  <path class="cls-16" d="M126.48,148c-.06.32.02.68-.07,1-.6,2.3-.63,4.69-.06,7-.37.9-.75,1.27-1.35,2-1.72,2.1-3.64,4.52-3.85,7.26-.4.22-.68.66-1.12.84-.93-.03-1.99.11-2.58.88-.44.58-.5,1.34-.48,2.02-.4.04-.8.21-1.19.31-.15.04-7.26,1.73-4.09,2.51-2.06,2.86-5.42,2.58-8.7,2.17-1.6-1.71-5.4-1.71-7,0-.47-.24-1.46.04-2,0,.35-1.07-.21-2.26-1.4-2.06-.58.1-1.22.39-1.6,1.06h-2c.21-2.2-2.15-2.84-4-3-.32-.03-.68-.03-1,0,.09-.65.04-1.53-.59-1.85-.45-.23-1-.17-1.41-.15-.15-.88-1.37-1.31-1.91-2.03s-.65-1.84-1.24-2.36c-.67-.58-1.41-.57-2.1-.4-.16-.71-1.04-1.27-.75-2.2.18-.6-.2-1.39-.54-1.98-.28-.48-.71-.68-1.23-.21l-.07-.84c1.8-2.6.85-5.95.85-8.96,5.24-2.45-1.06,12.16,16.04,19.59,8.05,3.49,16.58,1.89,22.98-3.61,8.7-7.47,5.51-8.2,8.83-17.09,1.21-.08,2.42-.03,3.62.11Z"/>
  <path class="cls-16" d="M104,116c.47,0,.65.83,1,1-.1.66.05,1.41.65,1.73.41.21,1.01.14,1.35.27,1.48,1.64,3.98,2.96,5,5-.07,1.32.63,2.7,2,3,1.57.34,2.02,2.1,3,3-.03.93.17,1.96.97,2.52.59.42,1.34.48,2.03.48-.06.32.03.67,0,1,.55,1.39,1.23,3.1-.27,4.03-3.04-2.71-4.75-7.31-8.51-8.95-.24-.31-1.02-.75-1.12-1.13-.41-1.5-2.35-1.94-3.15-2.98-2.13-2.8-5.32-4.62-5.84-8.21.62.28.97-.14.89-.75h2Z"/>
  <path class="cls-16" d="M105.28,112.42l-.09.67c-.69-.05-1.5-.12-2.22.36s-.91,1.6-.97,2.54c-.35.18-.65.44-.89.75-1.81.06-3.14,1.39-3.37,3.16-1.43,1.16-2.63,2.58-4.21,3.55-.68.03-3.38-1.43-2.59-2.34l5.91-6.82c1.95-1.1,3.25-3.08,5.14-4.3,2.14-1.38,2.82-4.87,5.97-5.7,1.21-.32,2,1.48,1.7,2.27-.92,2.4-3.96,2.56-4.39,5.85Z"/>
  <path class="cls-16" d="M85,130c-1.36,4.28-4.95,7.45-6.98,11.84-.95,2.06.2,5.77-3.02,5.16h-1v-1c.42-.61.66-1.36,1.12-1.94.29-.37.92-.51.93-1.09,0-.43.04-.94-.1-1.42s-.64-.7-1.16-.55c.74-3.91,4.11-7.46,7.21-10,.84-.69,2.17-2.2,3-1Z"/>
  <path class="cls-5" d="M123,138c-.55.04-1.09.39-1,1s.3,1.25.22,1.9l-1.19.15c-.18-1-1.46-1.86-1.3-3.03,1.5-.92.81-2.63.27-4.03,2.22-.33,2.26,2.36,3,4Z"/>
  <path class="cls-5" d="M125,144c1.15.95,1.75,2.48,1.48,4-1.2-.14-2.42-.19-3.62-.11.4-1.08-.27-2.6.33-3.7l1.81-.19Z"/>
  <path class="cls-16" d="M125,144l-1.81.19c-1.54-.47-1.92-1.76-2.16-3.13l1.19-.15c.94-.06,2,.13,2.54.9.46.65.07,1.66.23,2.2Z"/>
  <path class="cls-5" d="M75,149c0,3.01.95,6.36-.85,8.96-.32-3.65-.15-7.31-.15-10.96h1v2Z"/>
  <path class="cls-5" d="M115.78,169.31c-.2,2-3.03,1.71-4.09,2.51-3.18-.79,3.94-2.48,4.09-2.51Z"/>
  <path class="cls-4" d="M108,103c.51-.28,1.25-.13,1.8-.34.74,1.44,1.86,2.69,2.2,4.34-2.55.87-4.09,3.3-5.91,5.19l-.81.23c.42-3.29,3.47-3.45,4.39-5.85.3-.79-.49-2.59-1.7-2.27-3.14.83-3.83,4.32-5.97,5.7.65-3.05,3.31-5.54,6-7Z"/>
  <path class="cls-5" d="M87.18,130.01h-2.18c-.83-1.21-2.16.3-3,.99-.04-1-.01-2.05.59-2.89,1.92-.39,3.81.02,4.6,1.9Z"/>
  <path class="cls-5" d="M103,174c-2.36-.29-4.76,1.15-7,0,1.6-1.71,5.4-1.71,7,0Z"/>
  <path class="cls-5" d="M89,173c-1.85,0-4.21-.81-4-3,1.85.16,4.21.8,4,3Z"/>
  <path class="cls-5" d="M126.35,156c-.57-2.31-.54-4.7.06-7,1.25,2.02.82,4.89-.06,7Z"/>
  <path class="cls-5" d="M120.04,166.1c.04.93-.26,1.9-1.02,2.41-.64.43-1.37.43-2.05.5-.01-.68.05-1.45.48-2.02.59-.78,1.65-.91,2.58-.88Z"/>
  <path class="cls-3" d="M101.11,116.75c.24-.31.54-.57.89-.75.08.61-.28,1.03-.89.75Z"/>
  <path class="cls-3" d="M101.11,116.75c.52,3.59,3.71,5.41,5.84,8.21l.05,1.04c-.41.2-.63.8-1.06.96-2.27.85-3.19,4.33-6.22,4.81-2.26.36-3.86-3.2-4.72-4.76,1.68-.21,2.19,1.49,3.71,2.64,1.85,1.4,5.47-2.19,5.17-4.44-.44-3.33-3.66-4.78-6.14-5.29.22-1.77,1.56-3.1,3.37-3.16Z"/>
  <path class="cls-3" d="M105.19,113.09c-.69.83-1.08,1.84-1.19,2.91h-2c.06-.95.25-2.06.97-2.54s1.53-.41,2.22-.36Z"/>
  <path class="cls-5" d="M94,174c-1.07-.08-2.59.31-3-1,.38-.66,1.03-.96,1.6-1.06,1.19-.21,1.75.99,1.4,2.06Z"/>
  <path class="cls-5" d="M121.15,165.26c.2-2.74,2.12-5.16,3.85-7.26.34,2.86-1.34,5.89-3.85,7.26Z"/>
  <path class="cls-5" d="M120,133c-.69,0-1.44-.06-2.03-.48-.8-.57-1.01-1.59-.97-2.52,1.18.86,3.39.95,3,3Z"/>
  <path class="cls-5" d="M114,127c-1.37-.3-2.07-1.68-2-3,.56.17,1.57.14,1.82.74.34.82.26,1.58.18,2.26Z"/>
  <path class="cls-5" d="M84,170c-.67.06-1.67.03-1.77-.62l-.23-1.38c.42-.02.96-.08,1.41.15.63.32.68,1.2.59,1.85Z"/>
  <path class="cls-5" d="M76,161c-.63.1-1.77.09-1.96-.54s.23-1.25.19-1.65c.52-.47.94-.27,1.23.21.35.59.73,1.38.54,1.98Z"/>
  <path class="cls-5" d="M76.05,142.97c-.61.03-1.5.33-2.05-.45-.46-.66.36-1.2.79-1.52.53-.15,1.02.06,1.16.55s.11.99.1,1.42Z"/>
  <path class="cls-5" d="M80.09,165.97c-1.6-.39-2.96-1.12-3.34-2.76.69-.17,1.43-.18,2.1.4.59.52.7,1.62,1.24,2.36Z"/>
  <path class="cls-5" d="M107,119c-.34-.13-.95-.06-1.35-.27-.6-.32-.74-1.07-.65-1.73.89.43,1.64,1.05,2,2Z"/>
  <path class="cls-5" d="M75.12,144.06c-.46.58-.7,1.33-1.12,1.94-.44-.18-.82-.4-.93-.72-.2-.55.07-1.3.48-1.29.64,0,1.15.02,1.57.08Z"/>
  <path class="cls-16" d="M122,139c-.09-.61.45-.96,1-1,1.12-.07,1.21.88.45.99-.66.1-1.12-.03-1.45,0Z"/>
  <path class="cls-5" d="M117,72.09c-1.8-.12-3.06-1.27-3.22-3.15,5.71-9.76,12.06-15.67,5.96-28.82-3.1-6.69-10.96-11.41-18.96-11.89-7.26-.43-14.71,3.1-19.32,9.18-.87,1.14-.33,2.71-.46,3.59-.05.33,0,.67,0,1v1c-.97-.46-2.07.21-2.04,1.33.01.49.17,1,.63,1.56l-.21.89c-.96.14-1.93.96-2,2.23-.54,9.07,5.75,16.31,11.7,20.82,2.85,2.16,3.96,6.82,7.93,7.17-.1,1.5,1.13,2.97.77,4.98-.21,1.19-2.14.93-2.84,1.09-5.47-3.59-8.83-9.48-13.22-14.62-3.95-4.63-10.21-13.96-7.94-20.48-2.86-12.99,10.2-22.81,22.06-23.21,1.58-.05,3.99-2.48,5.56-1.05,2.17,1.97,4.38.33,6.46.96,6.01,1.81,14.06,8.22,15.89,11.47,6.11,10.87,2.39,24.24-6.11,32.36-1.31,1.26-1.52,2.77-.63,3.59Z"/>
  <path class="cls-1" d="M95.22,84.77c-.52,4.63-4.79,3.94-6.36,9.25-1.4-.9-2.41-1.37-3.11-3.02,2.73-.12,4.82-2.33,5.41-4.93,1.43-.52,2.64-1.47,3.95-2.23.03.3.14.63.1.93Z"/>
  <path class="cls-1" d="M89.3,82.91c-1.74-.25-3.85-1.33-4.94-.06-1.44,1.67-1.52,3.65-1.45,5.41-.89-.64-2.7-.6-3.74-1.01,1.98-4.55,5.76-4.34,4.96-7.61-.18-.74-1.09-1.35-2.09-1.56l.03-2.17.82-.09c2.46,1.98,5.12,4.16,6.42,7.08Z"/>
  <path class="cls-6" d="M95.22,84.77c.03-.3-.07-.63-.1-.93-.03-.26-.14-.51-.19-.77.7-.16,2.63.1,2.84-1.09.36-2.01-.86-3.48-.77-4.98l2.77.81c1.13.33,5.73-4.48,5.19-3.35.39-.81-4.32-7.28-7.72-5.07-1.43.93-1.52,3.54-3.26,4.17,1.28,1.1,2,1.52,3.02,3.44-3.97-.35-5.07-5.01-7.93-7.17.65.02,1.29.08,1.93.17.32.62.66,1.25,1.03,1.6,2.08,1.99,4.89-4.59,8.28-5.96,2.52,2.35,4.7,4.6,7.3,7.71l-9.26,10.01c-.97,1.05-2.01,1.58-3.13,1.4Z"/>
  <path class="cls-4" d="M110,42.87c1.73,2.77,2.42,5.9,2,9.13-.43.22-.78.57-1,1v1c-.63.41-.69,1.47-1,2-3.04,4.55-5.68,4.66-6,6-.19.8-1.25,1.53-.8,2.36.41.75,1.1,1.96,1.91,2.41,3.33,1.87,3.95,4.89,5.71,7.43.94,1.35,10.14,6.96,8.46,5.02.74.85,1.02,1.87.96,2.99-.09.6-.27,1.53-.79,1.71-2.22.76-5.94-4.23-7.59-4.76-1.93-.62-3.35.26-4.88,1.89-5.37,5.71-11.97,10.72-14.99,16.82-.52-1.23-2.23-2.93-3.13-3.85,1.57-5.31,5.84-4.62,6.36-9.25,1.12.19,2.16-.35,3.13-1.4l9.26-10.01c-2.6-3.12-4.77-5.36-7.3-7.71-3.4,1.36-6.2,7.94-8.28,5.96-.37-.35-.71-.98-1.03-1.6.19-.85.57-1.75,1.42-2.6l14.42-14.4c5.68-5.67-1.91-9.18,1.14-11.05.43.46,1.64.31,2.02.93Z"/>
  <path class="cls-3" d="M113.78,68.94c-2.11-.88-4.01-2.45-3.84-4.86.99.47,1.69,1.21,2.49,1.71,3.72-4.73,7.59-8.73,7.51-14.95-.06-4.75-1.69-10.96-5.4-14.49s-9.84-6.23-14.64-6.4c.16-.63.46-1.21.88-1.72,8,.48,15.86,5.2,18.96,11.89,6.1,13.14-.26,19.06-5.96,28.82Z"/>
  <path class="cls-3" d="M110,57l-2,5h-4c.32-1.34,2.96-1.45,6-6v1Z"/>
  <path class="cls-2" d="M134.09,100.75l2.15,1.56c-6.72,5.32-12.56,13.47-19.06,17.68-.67-.04-2.49-.63-1.99-1.64.7-1.41,1.72-2.15,1.9-3.35.11-.71.72-1.31.91-2,1.64-.91,3.1-2.18,3.85-3.93,4.95-.54,6.12-7.59,12.24-8.32Z"/>
  <path class="cls-1" d="M140.14,106.69c-2.59-.1-4.18,2.07-6.29,3.31.51-1.65,2.19-4.59,3.81-6.02,1.74.98,2.11,1.81,2.48,2.72Z"/>
  <path class="cls-16" d="M46.77,89.65c4.15,4.15,4.38-.43,9.51,5.56,1.31-1.09.75-2.76.99-4.08.91.08,1.82-.03,2.72-.14.27.38.7.65,1,1-.48,1.53,1.34,2.14,1.75,3.08.73,1.72,1.39,3.34,3.4,3.92.56.16,1.23,1.06,1.86,1.09.32.01.78.62.9.9.37,1.55,2.08,3.35,3.55,4.2.61.35.39,1.55-.13,1.85-2.56,1.5-4.89,4.99-7.27,2.9l-1.06-.93c.13-.81-.37-1.36-.7-2-1.2-2.31-3.37-3.75-4.91-6.25-1.01,1.82-2.91,2.92-2.78,4.14.39,1.93.49,3.24.19,4.87-.46-.67-.92-.1-1.61-.02-.07-.98-.12-2.32-.77-2.77-.89-.62-2.96.19-3.07,1.48-.07.86,2.03,1.26,1.81,2.61-1.65.76-3.49.79-5.16.06.21-1.66.16-3.29-1.78-4.16-.45,1.39-.16,2.25-.3,3.08-1.13-.38-2.11-1.08-2.78-2.07.07-.89-.42-1.64-1.34-1.82l-1.06-.2c.12-.23.15-.73.12-.99l4.53.57c-1.15-3.19-3.55-2.55-5.4-2.52-.66-2.85-.15-5.41.69-7.96,1.27.04,2.1.9,2.92,2,.81-2.89,2.27-4.78,2.17-7.17.61.09,1.34-.49,1.99-.23ZM51,102c.26.09.82-.18,1,0,1.46,1.47,4.49-1.22,4.77-2.59-1.57-2.31-4.04-3.91-5.91-5.17-1.41-.95-3.2-.81-4.34-.12-2.97,1.79-2.69,6.9-1.46,9.33.83,1.63,2.78,1.89,5.15,1.51,1.29-.21.75-2.14.78-2.96ZM58.21,95.58c-.55,1.26.86,2.31,1.34,2.29.68-.02.6-1.6,0-1.85-.28-.12-.91-1.44-1.35-.44Z"/>
  <path class="cls-4" d="M96.86,114.3l-5.91,6.82c-.79.91,1.91,2.37,2.59,2.34-.48.55-.66,1.44-.27,1.88.46.51,1.2,1.59,1.74,1.66.87,1.56,2.46,5.12,4.72,4.76,3.03-.48,3.95-3.96,6.22-4.81.13.36-.09.88.07,1.49.54,2.08.99-1.42.99-1.45.71.36.94.94,1.22,1.34.58.83,1.32.07,1.87-.4.1.39.88.83,1.12,1.13l-1.01.33c-.74.24-1.89.15-2.69,1-3.3,3.53-6.8,6.51-9.89,10.25-1.9,2.31-4.81,3.87-7.32,2.39.08-.27.14-.68.11-.97l4.45-5.01c1.72-1.93-4.04-12.18-2.44-10.63-1.8-1.75-3.24-3.22-4.18-5.3,3.48-1.54,5.31-5.02,8.58-6.86Z"/>
  <path class="cls-11" d="M105.95,100.84l2.05,2.16c-2.69,1.46-5.35,3.95-6,7-1.89,1.22-3.19,3.2-5.14,4.3-3.27,1.84-5.1,5.31-8.58,6.86l-.41-.92c-.14-4.7,6.43-7.03,7.93-11.37,1.42-.04,2.12-2.16,3.05-2.67,2.67-1.49,4.21-4.27,7.11-5.35Z"/>
  <path class="cls-6" d="M95.79,108.87c-1.49,4.34-8.06,6.67-7.93,11.37-1.28-.14-2.57-.28-3.86-.24-.37-.3-.7-.63-1-1-.13-1.48-.31-3.29.08-4.81.75.15,1.81,2,2.9,1.61,2.68-.96,4.83-3.51,5.07-6.05,1.64.15,3.2-.39,4.74-.89Z"/>
  <path class="cls-1" d="M87.18,130.01c.41.97.75,1.9,1.06,2.91-3.96.2-4.95,4.64-6.64,7.69-4.55,8.21-2.28,19,6.95,24.26,6.8,3.88,17.4,5.02,24.2-.58-.39.93.87.57,1.26.69-6.4,5.49-14.93,7.1-22.98,3.61-17.1-7.43-10.8-22.03-16.04-19.59v-2c3.22.61,2.06-3.1,3.02-5.16,2.03-4.39,5.62-7.56,6.98-11.84h2.18Z"/>
  <path class="cls-6" d="M94.89,137.08l-4.45,5.01c-.04-.38-.36-.72-.44-1.09.49-1.2,1.42-2.26,1.83-3.78-1.49-1.47-3.05-2.6-3.58-4.3l6.64,4.16Z"/>
  <path class="cls-4" d="M84,120c.02.11,0,1.75-.48,1.87-.43.1-1.21-1.1-1.51-1.42s.87-1.02.99-1.44c.3.37.63.7,1,1Z"/>
  <path class="cls-4" d="M78.95,116.01c.35-.28.62-.83,1.05-1.01-.18.5-.74.66-1.05,1.01Z"/>
  <path class="cls-4" d="M79.17,87.25c-.49,1.12-1,2.1-.33,3.45-1.43-.13-2.74.8-2.78,2.28-2.03-1.21-2.59-1.07-4.36.65l-5.55,5.38c-2.01-.59-2.67-2.21-3.4-3.92.04-.36.25-.72.25-1.08.48.38.76.99,1.28,1.84l17.75-17.76c1.01.21,1.91.82,2.09,1.56.8,3.27-2.98,3.06-4.96,7.61Z"/>
  <path class="cls-9" d="M82.91,88.26c.36,1.25,2.42,1.75,2.84,2.73.71,1.65,1.71,2.12,3.11,3.02.9.92,2.61,2.62,3.13,3.85.7,1.64,1.51,1.91,2.77,2.91,1.65,1.31,3.23,3.41,3.39,5.4l-2.44-.11c-7.09-4.8-10.51-10.16-16.88-15.36-.67-1.34-.16-2.32.33-3.45,1.04.41,2.85.36,3.74,1.01Z"/>
  <path class="cls-16" d="M98.15,106.18l.68.02c-.93.52-1.63,2.63-3.05,2.67-.22-.92-.18-1.87-.07-2.81l2.44.11Z"/>
  <path class="cls-6" d="M63,92v2c0,.36-.22.72-.25,1.08-.4-.94-2.22-1.55-1.75-3.08h2Z"/>
  <path class="cls-7" d="M75.02,103.99c-.45.81-1.72,2.17-2.57,1.2-1.47-.85-3.18-2.65-3.55-4.2l6.12,2.99Z"/>
  <path class="cls-11" d="M121.76,108.19c-.13.31-.12.61.09.88-.74,1.74-2.21,3.02-3.85,3.93-.92-2.9-3.11-5.05-6-6-.35-1.65-1.47-2.9-2.2-4.34-.64-1.25-1.9-1.61-2.8-2.48-1.94-2.04-3.44-5.43-6.59-5.1l-.4-1.07c.63-1.32,1.68-2.38,3-3,1.45,1.76,2.64,3.9,5.3,4.71l10.94,11.11c.83.84,1.65,1.32,2.51,1.36Z"/>
  <path class="cls-12" d="M111.86,79.17c-1.73,4.31-3.16,3.3-7.65,10.03l-1.2,1.8c-1.32.62-2.37,1.68-3,3-2.2,1.48-4.52,3.24-5.19,5.89-.07.28,0,.6-.04.89-1.25-1-2.07-1.27-2.77-2.91,3.01-6.1,9.61-11.1,14.99-16.82,1.53-1.63,2.94-2.51,4.88-1.89Z"/>
  <path class="cls-3" d="M119.73,138.03c-.16,1.17,1.12,2.03,1.3,3.03.24,1.37.61,2.66,2.16,3.13-.6,1.1.07,2.62-.33,3.7-3.32,8.89-.13,9.62-8.83,17.09-.39-.11-1.65.25-1.26-.69,8.33-6.86,9.34-19.64,2.8-27.45-1.72-2.05-2.04-4.09-4.43-3.99-.04-.34.05-.69-.01-1.03-.15-.86-.48-1.67-.91-2.43l1.01-.33c3.77,1.64,5.48,6.23,8.51,8.95Z"/>
  <path class="cls-1" d="M110.09,127.94c-.55.47-1.29,1.23-1.87.4-.28-.4-.51-.99-1.22-1.34v-1l-.05-1.04c.8,1.04,2.74,1.49,3.15,2.98Z"/>
  <path class="cls-1" d="M100.78,28.24c-.41.5-.72,1.08-.88,1.72-5.69-.2-11.68,3.25-16.08,6.72-1.46,1.15-.93,3.42-1.82,4.33h-1c.13-.87-.41-2.44.46-3.59,4.61-6.08,12.06-9.61,19.32-9.18Z"/>
  <path class="cls-8" d="M79.37,46.78c1.26,7.51-.99,10.46,5.16,15.63.45,2.49,2.48,3.61,4.47,3.46-.5,1.14.28,2.76.07,3.95-5.95-4.51-12.24-11.76-11.7-20.82.08-1.27,1.04-2.09,2-2.23Z"/>
  <path class="cls-8" d="M81,43c0,1.14-.51,2.19-1.41,2.89-.45-.56-.61-1.08-.63-1.56-.03-1.12,1.07-1.79,2.04-1.33Z"/>
  <path class="cls-8" d="M81,42c0-.33-.05-.67,0-1h1c-.33.33-.59.75-1,1Z"/>
  <path class="cls-12" d="M96,40c-.15,3.19,7.55,1.29,6.58,1.64.68-.24.42-1.19.42-1.64,1.92-.18,3.68.55,4.98,1.94-3.05,1.87,4.54,5.38-1.14,11.05l-14.42,14.4c-.85.85-1.23,1.75-1.42,2.6-.64-.09-1.28-.15-1.93-.17.21-1.19-.57-2.81-.07-3.95.75-1.69,2.63-2.78,4.09-3.83,1.25-.9,3.83-1.43,3.74-3.53-.02-.47-1.25-1.75-1.37-1.44l-.88,2.3c-.5,1.3-1.91-1.14-2.34-1.97-.34-.66,1.19-1.37,1.63-2.56.49-1.34-1.39-2.04-2-1.52-.42.36-1.24.62-.94,1.42-3.66-.84-3.56-4.78-2.91-7.9,1.04-.3,2.07-.07,2.67.89.42.67-.18,1.68,1.07,2.35.43-2.55.04-4.36,1.08-6.08l3.23-1.34c-.87-.97-1.64-1.74-2.08-2.78.66.08,1.34.08,2,.13ZM101,45c-1.85.12-4.18-.49-5.55.88-1.75,1.75.66,3.71.67,5.28.02,2.55,3.55,5.25,4.33,4.62.69-.55.79-1.78.74-2.78l.81-1c1.14,0,2.22-.26,2.65-.97,1.05-1.74,1.06-5.32-1.36-6.75-.84-.49-1.58.37-2.28.72ZM91.63,51.5c0-.35-.28-.63-.63-.63s-.63.28-.63.63.28.63.63.63.63-.28.63-.63Z"/>
  <path class="cls-3" d="M111,42c-.24.39-.58.69-1,.87-.39-.62-1.59-.47-2.02-.93-1.3-1.39-3.06-2.12-4.98-1.94-.33.03-.67,0-1,0,.31-1.49-.19-2.02-1.49-2.07-1.79-.07-2.99.13-2.51,2.07-.67,0-1.34.04-2,0s-1.34-.04-2-.13c-.93-.12-1.38.81-2.05,1.1-2.51,1.08-3.41,3.41-3.93,5.88-.65,3.12-.75,7.05,2.91,7.9-.39,2.52,2.42,3.85,2.24,6.26-3.08-2.58-7.06-5.55-7.86-10.25-1.11-6.57,4.36-12.52,9.71-14.16,6.54-2.01,13,.03,15.97,5.42Z"/>
  <path class="cls-8" d="M114,51l-2,1c.42-3.23-.27-6.37-2-9.13.42-.18.76-.48,1-.87,1.63,2.95,3.88,5.16,3,9Z"/>
  <path class="cls-2" d="M93.09,62.04l.08-1.04c.18-2.41-2.63-3.74-2.24-6.26-.3-.8.52-1.06.94-1.42.61-.52,2.49.18,2,1.52-.43,1.18-1.97,1.89-1.63,2.56.43.83,1.84,3.27,2.34,1.97l.88-2.3c.12-.31,1.35.97,1.37,1.44.09,2.11-2.49,2.63-3.74,3.53Z"/>
  <path class="cls-1" d="M110,57v-1c.31-.53.37-1.59,1-2,1.1-.2,1.14-.99,0-1,.22-.43.57-.78,1-1l2-1c-.57,2.5-1.75,4.45-4,6Z"/>
  <path class="cls-8" d="M111,54v-1c1.14.01,1.1.8,0,1Z"/>
  <path class="cls-3" d="M159,108l-.04-1.12c1.93-4.22,2.69-8.91.6-13.5-1.55-3.41-4.37-4.94-7.59-5.45-1.11-.17-2.01-1.05-3.07-.81-1.84.42-2.93,1.13-2.93,2.89-.87.23-2.2-.44-3.01-.02-1.98,1.02-3.82,2.89-3.35,5.2-2.02-1.09-4-2.63-3.69-5.13,7.51,3.39,3.69-6.82,17.2-4.88,3.11.45,8.56,5.76,9.74,11.75,1.1,5.56-.78,8.23-3.87,11.07Z"/>
  <path class="cls-1" d="M159,108c-2.94,2.7-5.1,7.49-10.77,5.71-2.14-.67-4.47-1.43-4.3-3.88l.91-.09c2.37,2.01,5.45,1.67,8.3.99,2.37-.56,3.99-2.3,5.81-3.85l.04,1.12Z"/>
  <path class="cls-4" d="M144.85,109.74l-.91.09c-1.11-.65-2.84-1.54-2.89-3.21,1.71.21,3.23-.37,4.81-1.76.49,2.3-.94,3.33-1.01,4.88Z"/>
  <path class="cls-3" d="M135,89c-.85.04-2.09.3-2.06-.88.87-.13,1.74.04,2.06.88Z"/>
  <path class="cls-6" d="M60,91c-.9.1-1.81.22-2.72.14-1.34-2.17-3.66-3.88-6.28-3.55-.24-1.11-1.8-.55-2.54-.63-1.34-.15-1.72,1-1.59,2.09-.19.17-.21.37-.1.6-.65-.26-1.38.32-1.99.23-3.54-.52-4.22,2.53-5.09,5.17s-1.35,5.1-.69,7.96c.15.67.78,1.25.87,1.95.03.26,0,.76-.12.99-.19.38-.57.67-.75,1.06-3.46-4.36-3.98-9.52-1.01-14.58,2.5-4.26,7.03-8.29,13.02-7.36,3.68.57,7.14,3.29,8.99,5.94Z"/>
  <path class="cls-8" d="M40.81,106.14c.03.84.58,1.5,1.34,1.82.67.99,1.65,1.69,2.78,2.07.56.57,1.3.91,2.08,1.08,1.67.73,3.51.7,5.16-.06.74-.34,1.46-.71,2.03-1.31.69-.08,1.15-.65,1.61.02-1.37,4.72-7.24,4.88-11.32,2.93-3.21-1.53-3.82-3.61-5.48-5.69.17-.4.55-.68.75-1.06l1.06.2Z"/>
  <path class="cls-4" d="M63.3,107c-.39-.12-.93.18-1.3,0-2.47-1.2-3.72,2.77-6.2,2.76.3-1.63.2-2.95-.19-4.87-.13-1.22,1.77-2.32,2.78-4.14,1.54,2.51,3.71,3.94,4.91,6.25ZM59.13,105c0-.35-.28-.63-.63-.63s-.63.28-.63.63.28.63.63.63.63-.28.63-.63Z"/>
  <path class="cls-8" d="M64,109c-.71-.63-1.65-1.04-2-2,.36.18.91-.12,1.3,0,.33.64.83,1.19.7,2Z"/>
  <path class="cls-1" d="M50.87,94.24c-.44.5-.71,1.12-.87,1.76-.85-.54-1.54-.96-2.08-.52-1.21.99-1.88,1.99-1.93,3.52-.06,1.68-.5,4.05,1.32,4.07,1.07.01,2.57-.36,3.69-1.07-.03.82.51,2.75-.78,2.96-2.37.38-4.32.11-5.15-1.51-1.23-2.43-1.51-7.54,1.46-9.33,1.14-.69,2.93-.83,4.34.12Z"/>
  <path class="cls-4" d="M57.28,91.14c-.24,1.32.32,2.99-.99,4.08-5.13-5.99-5.36-1.41-9.51-5.56-.11-.23-.08-.43.1-.6,1.57.31,3.31.01,4.13-1.46,2.61-.32,4.93,1.39,6.28,3.55ZM53,90.5c0-.28-.22-.5-.5-.5s-.5.22-.5.5.22.5.5.5.5-.22.5-.5Z"/>
  <path class="cls-7" d="M52,102c.44-.71.93-1.39,1.9-2.4-.91-1.68-2.44-2.68-3.9-3.6.16-.64.43-1.26.87-1.76,1.87,1.26,4.34,2.86,5.91,5.17-.28,1.38-3.31,4.06-4.77,2.59Z"/>
  <path class="cls-4" d="M44.78,89.87c.1,2.39-1.36,4.28-2.17,7.17-.82-1.11-1.65-1.97-2.92-2,.88-2.64,1.55-5.69,5.09-5.17Z"/>
  <path class="cls-4" d="M54.19,109.73c-.56.6-1.29.97-2.03,1.31.22-1.34-1.89-1.75-1.81-2.61.11-1.28,2.18-2.1,3.07-1.48.64.45.69,1.79.77,2.77Z"/>
  <path class="cls-4" d="M39.87,104.95c-.09-.7-.71-1.28-.87-1.95,1.85-.03,4.25-.67,5.4,2.52l-4.53-.57Z"/>
  <path class="cls-4" d="M47,111.1c-.78-.17-1.52-.5-2.08-1.08.14-.83-.15-1.69.3-3.08,1.94.87,1.99,2.5,1.78,4.16Z"/>
  <path class="cls-4" d="M58.21,95.58c.44-1,1.07.32,1.35.44.59.26.67,1.83,0,1.85-.48.02-1.89-1.03-1.34-2.29Z"/>
  <path class="cls-4" d="M42.15,107.96c-.76-.32-1.31-.98-1.34-1.82.92.18,1.41.93,1.34,1.82Z"/>
  <path class="cls-12" d="M111.12,131.84c-2.03,1.32-3.94,3.03-5.12,5.16.12.7.87,1.32.95,2.01.15,1.38.23,2.8,1.05,3.99-1.12.45-2.26-.61-3.54,1,2.18,2.19,4.42,1.37,6.53,1.13,1.18,2.58.28,5.1.21,7.7-1.26-1.47.07-3.71-1.28-5.52-.51-.68-1.7-.25-2.37-.28-2.36-.14,1.25,1.31,1.43,2.27.75,3.85-3.17,6.39-7.04,7,1.02.99,2.12,1.68,2.14,3.01-2.7.86-5.27,1.54-8.18.24.16-1.06,1.32-1.79,1.21-3.32-2.33-1.13-3.53.36-4.28,1.83-3.97-1.81-6.08-7.07-4.87-11.24,2.64-.19,2.48,2.77,3.55,5.27.77-2.1.5-4.73,1.42-6.78-.92-.72-5.25.16-3.26-1.01.16-.42.51-.78.65-1.22,2.51,1.48,5.41-.08,7.32-2.39,3.08-3.75,6.59-6.73,9.89-10.25.8-.86,1.95-.76,2.69-1,.43.76.76,1.57.91,2.43ZM105.11,139c0-.61-.5-1.11-1.11-1.11s-1.11.5-1.11,1.11.5,1.11,1.11,1.11,1.11-.5,1.11-1.11ZM97.95,144.99c-.37,1.11-1.48,1.94-1.95,3.01-1.91.22-2.3,1.88-1.88,3.32.54,1.84,1.81,3.26,4.07,3.64,2.54.42,5.61-.78,6.65-2.67,2.93-5.28-7.42-10.2-2.84-10.29.37,0,.92.13,1.48-.02.76-.2.53-.88-.03-.98s-1.06.06-1.47-.04c-2.02.38-3.41,2.17-4.04,4.04Z"/>
  <path class="cls-8" d="M90.44,142.09c.03.28-.03.7-.11.97-.14.43-.49.79-.65,1.22-1.29.28-1.41,1.48-1.71,2.53-1.21,4.17.9,9.43,4.87,11.24-.11.31.07.76.03,1.04-.27.24-.61.52-.75.9-3.87-1-6.02-5.1-6.88-8.82s1.55-8.15,4.77-10.16c.08.37.39.71.44,1.09Z"/>
  <path class="cls-12" d="M107,127s-.45,3.53-.99,1.45c-.16-.61.07-1.13-.07-1.49.42-.16.64-.76,1.06-.96v1Z"/>
  <path class="cls-1" d="M106.99,100.18c-.26.35-.65.52-1.05.67-2.91,1.08-4.44,3.86-7.11,5.35l-.68-.02c-.16-1.99-1.74-4.09-3.39-5.4.05-.29-.03-.61.04-.89,1.56.58,2.76,1.8,4.65,2.86,1.71.96,5.31-1.59,4.26-3.05l-3.32-4.63c3.15-.33,4.65,3.06,6.59,5.1Z"/>
  <path class="cls-16" d="M109.8,102.66c-.54.21-1.28.06-1.8.34l-2.05-2.16c.39-.15.79-.32,1.05-.67.9.87,2.16,1.24,2.8,2.48Z"/>
  <path class="cls-4" d="M158.96,106.88c-1.83,1.56-3.44,3.29-5.81,3.85,2.47-1.54-11.74-1.81-4.57-3.86,3.46.65,5.57.13,7.54-2.04,2.3-2.54,1.63-10.41.83-11.28-3.82-4.17-7.99-1.16-9.33-3.44,1.64-1.47,3.58-.75,4.36-2.18,3.22.5,6.04,2.04,7.59,5.45,2.09,4.59,1.33,9.29-.6,13.5Z"/>
  <path class="cls-3" d="M145.76,98.05c-.36,2.9,4.21,6.18,6.75,4.46,1.47-1.53.4-5.86-.52-7.51.75.49,2.68-.68,2.93.64.46,2.4.88,8.04-2.68,9.17-4.1,1.3-6.12-2.8-9.96-6.48,1.45-.59,2.52-.21,3.47-.28Z"/>
  <path class="cls-4" d="M139.62,95.19c-.48-2.31,1.37-4.17,3.35-5.2-.11,1.29.55,2.46.89,4.12.2.98-1.06,1.35-1.6,1.66-.76.44-1.83-.15-2.63-.59Z"/>
  <path class="cls-4" d="M145.97,90.02c1.52,1.15.01,3.12-.61,2.72-1.11-.71.18-2.19.61-2.72Z"/>
  <path class="cls-1" d="M111.13,132.86c-1.84,1.35-2.74,3.97-5.13,4.14,1.18-2.13,3.09-3.84,5.12-5.16.06.33-.02.69.01,1.03Z"/>
  <path class="cls-2" d="M92.85,44c-1.05,1.72-.65,3.53-1.08,6.08-1.25-.67-.65-1.68-1.07-2.35-.6-.95-1.63-1.18-2.67-.89.51-2.46,1.42-4.79,3.93-5.88,1.18.07,1.41,2.19.9,3.03Z"/>
  <path class="cls-3" d="M102,52c.81-1,1.58-2.39,1.82-3.69.3-1.63-1.58-2.6-2.82-3.31.71-.35,1.45-1.21,2.28-.72,2.42,1.43,2.41,5.02,1.36,6.75-.42.7-1.5.96-2.65.97Z"/>
  <path class="cls-3" d="M101.19,53c.06,1-.05,2.23-.74,2.78-.78.63-4.31-2.07-4.33-4.62l5.07,1.84Z"/>
  <path class="cls-4" d="M98,40h4c.33,0,.67.03,1,0,0,.45.26,1.4-.42,1.64.96-.34-6.73,1.55-6.58-1.64.66.04,1.33,0,2,0Z"/>
  <path class="cls-4" d="M94,39.87c.44,1.05,1.21,1.82,2.08,2.78l-3.23,1.34c.51-.84.28-2.96-.9-3.03.67-.29,1.11-1.22,2.05-1.1Z"/>
  <circle class="cls-2" cx="91" cy="51.5" r=".63"/>
  <path class="cls-12" d="M102,40h-4c-.48-1.94.72-2.13,2.51-2.07,1.3.05,1.8.57,1.49,2.07Z"/>
  <path class="cls-16" d="M51,87.58c-.81,1.48-2.55,1.78-4.13,1.46-.13-1.09.25-2.24,1.59-2.09.74.08,2.3-.48,2.54.63Z"/>
  <circle class="cls-16" cx="58.5" cy="105" r=".63"/>
  <circle class="cls-16" cx="52.5" cy="90.5" r=".5"/>
  <path class="cls-7" d="M102,142c-4.58.09,5.78,5.01,2.84,10.29-1.05,1.88-4.11,3.09-6.65,2.67-2.25-.37-3.53-1.8-4.07-3.64-.42-1.44-.03-3.11,1.88-3.32-.13,1.8-.31,4.38,1.64,4.88s3.96.2,6.41-1.35c-.79-2.94-2.86-6.21-6.1-6.54.62-1.87,2.01-3.65,4.04-4.04v1.04Z"/>
  <path class="cls-6" d="M92.11,159.97c.14-.37.48-.66.75-.9.94.32,2.13.05,3.04.46,2.91,1.3,5.49.62,8.18-.24,3.42-1.1,7.02-2.45,7.12-6.47.07-2.6.97-5.12-.21-7.7-.49-1.07-1.42-2.77-2.99-2.13-.82-1.19-.9-2.61-1.05-3.99,3.1-.14,4.24,3.09,5.51,5.38,3.31,5.96.79,10.35-3.4,14.63-4.64,4.74-12.11,5.52-16.95.96Z"/>
  <path class="cls-2" d="M111.2,152.83c-.11,4.02-3.7,5.37-7.12,6.47-.02-1.33-1.11-2.02-2.14-3.01,3.87-.61,7.79-3.15,7.04-7-.19-.95-3.79-2.4-1.43-2.27.67.04,1.86-.4,2.37.28,1.35,1.81.02,4.05,1.28,5.52Z"/>
  <path class="cls-4" d="M87.96,146.8c.3-1.05.43-2.25,1.71-2.53-1.99,1.17,2.34.29,3.26,1.01-.92,2.06-.65,4.68-1.42,6.78-1.07-2.49-.91-5.45-3.55-5.27Z"/>
  <path class="cls-4" d="M95.9,159.54c-.91-.41-2.1-.14-3.04-.46.04-.28-.14-.72-.03-1.04.75-1.46,1.95-2.96,4.28-1.83.11,1.54-1.05,2.26-1.21,3.32Z"/>
  <path class="cls-2" d="M108,143c1.56-.64,2.5,1.06,2.99,2.13-2.11.24-4.35,1.06-6.53-1.13,1.29-1.62,2.43-.55,3.54-1Z"/>
  <circle class="cls-2" cx="104" cy="139" r="1.11"/>
  <path class="cls-2" d="M102,142v-1.04c.4.1.88-.06,1.46.04s.79.78.03.98c-.56.15-1.11.01-1.48.02Z"/>
</svg>