<?xml version="1.0" encoding="UTF-8"?>
<svg id="Layer_1" data-name="Layer 1" xmlns="http://www.w3.org/2000/svg" viewBox="0 0 200 200">
  <defs>
    <style>
      .cls-1 {
        fill: #fefefe;
      }
    </style>
  </defs>
  <path class="cls-1" d="M100.45,154.49c-12.93,10.48-31.56,13.62-45.98,8.23-16.26-6.08-27.14-17.2-32.07-34.34-6.23-21.7,6.48-49.41,28.39-56.54,4.75-26.32,21.12-40.92,47.25-45.11,25.58,1.51,47.4,17.36,50.37,43.92,16.98,6.82,29.72,22.86,30.61,41.08.41,8.35.17,16.06-3.11,23.04-2.74,5.84-5.33,10.61-9.97,15.36-17.12,17.48-44.66,20.99-65.49,4.35ZM91.58,35.06c5.47-1.15,11.3-2.1,16.43-.1,4.52,1.76,9.12,2.31,13.14,4.83,19.47,12.22,18.91,28.68,21.41,29.18.73.15,2.51.31,2.37-.72-.47-3.52-2.27-6.09-3.13-8.9-1.84-6.03-5.38-10.26-9.43-14.68-11.52-12.58-29.96-16.39-46.08-11.49-7.45,2.26-13.11,6.09-18.66,11.44-5.89,5.67-9.13,11.97-11.53,19.65-2.91,9.34-2.7,17.46.82,26.81,4.32,11.5,12.38,21.82,23.77,26.69.52.22,1.93-2.1,1.32-2.22-.37-.08-.58-1.18-1.12-1.44-9.97-4.88-16.72-13.33-20.7-23.33-3.71-9.32-3.71-17.7-.66-27.08,4.82-14.87,16.26-25.3,32.06-28.64ZM100.22,77.91c8.98-7.63,25.72-12.91,38.38-9.59-6.33-19.72-20.04-31.24-40.77-30.43-17.5.68-32.3,13.4-35.65,30.44,14.09-3.58,27.84,2.1,38.05,9.58ZM112.32,113.49c8.01-1.31-4.09-21.98-5.62-24.06-16.64-22.69-44.61-19.49-45.68-16.88-.33.81.6,2.26,1.64,2.06,24.77-4.72,47.83,14.53,49.67,38.89ZM89.72,106.24c1.95-5.55,2.93-11.18,7.42-15.2,1.17-1.05.48-2.12-.11-2.62-2.97-2.49-17.23,18.4-9.09,43.45,6.84,21.05,33.11,35.73,55.76,28,8.83-3.01,15.81-7.18,21.9-14.46,13.13-15.68,14.15-38.09,2.54-55s-32.5-24.09-51.72-17.15c-20.19,7.29-11.17,9.34-10.45,8.81,14.85-10.83,33.53-10.83,48.8-.8,6.71,4.41,11.22,10.8,14.71,18.39,7.95,17.26,2.33,37.62-12.28,49.47-4.04,3.28-7.71,5.05-12.16,6.91-9.73,4.07-18.41,3.49-28.16.23-13.87-4.64-23.88-15.84-27.33-30.19-1.62-6.75-2.42-12.49.16-19.84ZM94.71,149.57c-2.2,3.82-6.6,4.47-10.01,6.07-20.24,9.47-46.28-2.93-54.15-24.23-2.28-6.17-4.25-12.5-3.21-18.96,2.36-14.66,10.23-27.02,23.35-33.86.77-.4.45-2.61-.09-3.6-9.07,4.9-17.59,12.67-22.06,22.32-1.43,3.09-2.24,6.63-3.16,9.39-2.32,6.96-1.37,12.84.2,19.53,4.22,17.92,17.53,30.97,35.49,34.8,7.68,1.64,14.9,1.53,22.39-1.58,4.76-1.98,10.12-3.17,13.74-7.35-.27-.92-1.24-1.86-2.5-2.53ZM92.3,84.13c-9.23-4.74-21.21-9.94-30.87-5.48.92,13.19,7.06,25.37,20.28,32.17,3.18-13.61,4.37-13.97,10.59-26.68ZM118.54,110.66c12.64-7.03,19.11-19.22,20.57-32.31-9.86-3.15-19.01-.37-27.51,4.3-1.17.64-3.3.45-3.54,1.92-.13.78.5,2.34,1.26,3.02,3.94,3.51,8.81,17.04,9.22,23.07ZM115.45,119.28c9.27-4.11,14.63-7.33,21.14-15.69,2.49-3.2,13.69-23.91,5.52-24.5.44,6.07-2.21,11.36-4.86,16.91-4.07,8.49-10.34,14.47-18.82,18.55-16.41,7.9-25.49,2.25-26.39,3.94-3.19,6.02,17.13,3.56,23.41.78ZM107.51,147.76c14.53,9.85,34.05,9.75,47.08-.88,9.39-7.66,14.79-18.36,15.05-29.56.35-14.93-7.1-27.38-20.87-35.41-2.36,17.86-13.61,32.63-30.42,39.81-.21,8.77-4.61,17.57-10.83,26.05ZM92.72,148.24c-1.62-5.11-3.82-6.38-5.84-9.18l-5.59-17.52c-17.43-7.51-25.81-20.09-30.42-38.6-2.82-.07-4.19,2.37-6.08,3.77-7.04,5.21-10.55,12.32-12.55,20.63-5.39,22.47,10.2,45.56,33.9,47.47,9.12.73,18.58-1.65,26.58-6.58ZM108.99,114.53c.44-4.19-5.92-23.44-9.59-21.44-5.16,5.96-6.86,14.18-7.51,21.84,5.93-.06,10.99.6,17.1-.39ZM114.98,124.72c.31-1-2.52-1.01-3.04-.32.51-.68-4.77,11.92-7.75,16.81-3.4,5.58,3.49,7.41,10.79-16.5ZM108.39,125.38c-4.94-.85-9.2-.16-15.25-.38.88,5.32,2.98,10.5,7.25,15.02,4.48-3.55,3.81-7.99,8-14.64Z"/>
</svg>