<?xml version="1.0" encoding="UTF-8"?>
<svg id="Layer_1" data-name="Layer 1" xmlns="http://www.w3.org/2000/svg" viewBox="0 0 200 200">
  <defs>
    <style>
      .cls-1 {
        fill: #2c2c2c;
      }

      .cls-2 {
        fill: #f0f0f0;
      }

      .cls-3 {
        fill: #424242;
      }

      .cls-4 {
        fill: #282828;
      }

      .cls-5 {
        fill: #f1f1f1;
      }

      .cls-6 {
        fill: #dbdbdb;
      }

      .cls-7 {
        fill: #2b2b2b;
      }

      .cls-8 {
        fill: #efefef;
      }

      .cls-9 {
        fill: #dedede;
      }

      .cls-10 {
        fill: #f4f4f4;
      }

      .cls-11 {
        fill: #dcdcdc;
      }

      .cls-12 {
        fill: #242424;
      }

      .cls-13 {
        fill: #343434;
      }

      .cls-14 {
        fill: #d9d9d9;
      }

      .cls-15 {
        fill: #2e2e2e;
      }

      .cls-16 {
        fill: #f3f3f3;
      }
    </style>
  </defs>
  <path class="cls-11" d="M65.88,103.99c-.27.68-1.18,1.67-.85,2.48s1.53.33,1.97.52c1.91.81,5.6,3.21,5,6-.13.6-.03,1.59.54,1.95.41.27,1.08.03,1.46.05,1.85.07,3.16-1.37,4.21-2.76.77-.24,1.88-.41,2.72-1.25l10.09-10.17c3.54,1.9,6.6,5.57,9.24,8.94-2.84.12-3.51-2.36-4.64-3.65-10,10.24-13.22,12.39-22.18,23.07-4.01,4.78-3.98,9.68-1.84,14.83,4.32,10.38,12.04,7.78,21.4,6,1.46-.28,3.9-1.74,4.72-2.83,1.83-2.44-1.06-3.28-1.89-4.11-2.81-2.79-8.32-8.32-11.58-10.87-1.73-1.35-1.2-2.84-1.11-4,1.23-.1,2.47-.19,3.71-.13-.13.71.12,1.38.73,1.67.45.21,1.02.11,1.42.27,1.98.77,2.83,2.96,4,4,4.25,3.79,14.95,15.81,17.3,15.67.37-.02,1.05.31,1.39.43-.71.72-.27,1.64.31,2.25.91.97,6.91,1.53,6.96-.49.59-.1,1.42-.02,1.95-.29-.16.5.02,1.08.58,1.41.83.49,1.36-.17,1.57-.98.46-1.8,2.45-2.56,3.99-3.88,2.18-1.88,2.67-4.66,4.71-6.19,1.48-1.31,3.28-1.98,5.24-1.81.33.33.7.63,1.09.88.34,2.56-1.79,4.52-2.32,7l-.81,1.02c-1.89,2.36-4.23,5-6.73,6.89-2.96,2.23-7.47,2.83-11.06,3.23-4.13.46-8.37-1.95-11.17-5-1.97-2.15-2.94-5.16-6.76-7.4-.92,7.89-8.47,13.22-16.24,12.23-2.65-.34-5.36-1.34-7.92-2.04-.71-1.17-1.8-2.42-3.09-3.09-1.87-.97-2.69-3.35-4.79-3.99-.82-4.12-4.71-7.26-4.55-11.66.1-2.79-.03-5.8,1.15-8.38s3.24-4.67,5.01-6.88c1.02-1.28,3.06-1.71,3.98-4.35-2.41-.55-5.11-2.26-6.73-4.36-3.17-4.09-6.6-8.49-11.06-11.22-.32-.2-.88-.4-1.03-.78-1.62-4.04-6.18-7.42-10.17-9.55s-6.19,1.03-7.84,3.23c-2.71,3.61-1.97,8.59,2.11,11,1.54.91,3.68,2.04,3.17,4.07-.28,1.2-.87,2.64-1.91,2.85-1.31.26-2.33-.11-3.32-.22-.54-1.23-3.09-1.4-3.35-3.03s-6.24-12.19,2.16-19.49c9.24-8.03,20.4.11,26.32,8.82,1.24,1.82,3.85,2.23,4.75,4.1Z"/>
  <path class="cls-5" d="M155.82,79.8c12.52.09,9.47,1.47,18.18,6.2.3,1.17,1.23,3.07,2,4-.89-.14-1.37.68-.16,1.37,1.86,7.21,2.33,15.82-2.08,21.91-2.5,3.46-7.06,7.07-11.69,6.65-1.71-.16-.19-2.91-.13-3.92,6.27.25,9.66-5.62,10.33-11.77s.84-12.39-3.89-16.33c-3.43-2.85-5.87-2.19-9.41-1.14-4.43,1.31-8.59,2.96-11.31,6.99-.36.53-2.58.68-2.59,1.57,0,.48.65.81.93,1.32,1.29,2.41,3.44,4.44,5.85,5.53,2.7,5.12,3.73,1.61,7.09,8.82s-.77,12.5-2.94,18c1.01,3.1-2.13,2.89-4,4-6.43,3.81-12.9,7.36-20.97,4.91.44,1.6,1.25,3.04.73,4.01-2.03,1.53-2.53,4.31-4.71,6.19-1.53,1.32-3.52,2.08-3.99,3.88-.7-.51-1.38-.82-2.15-.43-.53.27-1.36.18-1.95.29-2.59.45-5.27-.1-7.27-1.77-.34-.12-1.02-.45-1.39-.43l-12.91-13.03c-1.37-1.39-2.67-2.56-4.39-2.64-1.17-1.04-2.02-3.23-4-4-.38-1.19-.97-2.34-2.07-2.99.17-2.17,2.26-3.33,3.34-5.12,3.53.41,8.16,8.56,11.93,9.65.75.22,1.85.17,2.5.59l1.47,2.09c.17,1.98,1.01,3.76,2.76,4.7.55.96,1.2,2.17,1.93,3.07,3.47,4.31,11.44,6.46,14.98,1.06,1.41-2.15.82-5.45,4.7-5.35-4.29-3.07-7.82-4.73-7.63-8.74,1.58-1.25,2.37-4.8,5.04-3.76l.89.02c.12,1.13,1.01,1.83,2.12,1.85-.05.71.2,1.35.51,1.94.5,1,1.79.62,2.5,1.05,1.61.97,3.36,2.15,5.14,1.01.45.93,1.4,1.33,2.25,1.24,1.12-.11,1.91-.7,2.59-1.37.14.12.51-.09.68.02,2.14,1.37,5.41-2.66,5.55-4.84.07-1.06.56-2.08.76-3.12.45.04.96.02,1.44-.17.76-.3.59-1.21.84-1.83.42-1.04.21-1.96-.03-3s-.22-2.23-1.03-3.08c.1-3.15-2.12-5.52-3.97-7.91-.52-.68-1.33-1.01-2.18-1.01-.15-.79-.45-1.34-.91-1.98-1.8-2.49-14.81-15.14-13.59-14.9-.42-.08-1.03.85-1.5.88-1.95-1.66-2.02-4.51-2.21-6.86,5.41-3.4,6.91,3.77,11.21,6.86h1c.66,1.51,2.45,2.41,3.87,2.73-.86-1.67-.59-2.69-.61-3.67,2.38-1.2,3.25-4.03,4.88-6.01,1.15-.25,2.33-1.2,2.86-2.06,1.34-.51,3.36-1.21,4.82-1.2Z"/>
  <path class="cls-5" d="M150.18,79.97l-2.99.08c-1.2-2.82-3.95-6.17-7.18-5.25-.64.18-1.35.07-2,.2.14-.5-.2-.94-.55-1.01-.72-.15-1.1.09-1.24.61-.1.37-.17.81-.21,1.4-3.68.47-5.19,4.49-8.33,6.35-1.44.59-1.58,2.25-1.67,3.65-.93.35-1.65,1.07-2,2-.37.06-.7.66-1.07.66-2.53.06-2.75,2.73-4.11,4.1l-4.91,4.94c-.85.86-3.12,1.23-3.77.39-.77-.98-1.61-3.16-1.18-4.4,3.49-5.9,20.65-20,26.83-23.88,3.48-2.18,8.77.48,11.76,2.72,2.35,1.76,2.03,5.16,2.62,7.44Z"/>
  <path class="cls-2" d="M127.3,42.94c1.16,1.48,3.33,2.71,4.6,4.07,1.52,3.22,3.71,6.5,6.52,8.73.31.25.91.85.95,1.26-1.33.17-.48,1.64-.91,2.81-.61,1.65-3.22.69-4.37.21l-3.06-6.11c-2.69-5.37-10.24-7.65-15.92-5.56,2.32,3.66,5.34.13,7.92,1.03,5.14,1.79,7.91,6.54,9.99,10.84-1.38.56-2.88,1.09-3.81,2.31-1.22.34-1.89-.36-1.98-1.12-.16-1.33-.39-2.25-.34-3.31.1-.32.9-.45,1.03-.79.27-.71-.06-1.27-.45-1.3-.73-.06-1.41.23-1.73.07-2.66-1.77-6.47-2.61-9.73-1.91-1.79-.19-1.32-2.48-2.41-3.77-1.31-1.58-3.33.85-3.34,2.57,0,1.06-.04,2.09-.56,2.43-.84.54-1.92.52-2.68.37-2.55-1.54-5.35-3.33-5.07-6.56,1.96-.44,2.28-3.37,4.07-4.04,2.46-.92,4.65-2.7,6.87-3.97,7.32-1.3,11.6,2.69,14.42,1.77Z"/>
  <path class="cls-16" d="M53.97,102.22c.15.38.71.58,1.03.78.45,1.17.74,2.57,1.51,3.6-6.17.78-11.31,18.22-2.98,22.17,1.34.64,1.61,3.04,3.38,3.17,1.06.08,2.5,1.13,3.31,1.65,1.18.75,1.05,3.07.87,4.33-1.71-.3-3.46-.27-5.15.15-.66-1.48-2.85-1.89-3.7-3.16-2.4-3.6-6.49-5.96-8.7-9.69-1.51-2.54-1.97-6.66-1.74-9.36l.41-4.89c1.9-2.28,8.28-10.75,11.77-8.74Z"/>
  <path class="cls-2" d="M93.13,162.78c-2.06,0-4.15.05-5.65.26,2.37,7.98,8.96,11.42,16.42,9.8,5.89-1.29,11.33-6,11.07-11.91.67.04,1.56-.05,2.19-.12,1.02-.11,3.79-.7,3.77.98-.05,3.48-2.44,5.59-2.98,8.21-.2.97-1.29,1.51-1.95,2.01l-8,3.85c-2.98,1.43-22.02,2.25-26.8-11.95-.27-.79-.18-1.59-.03-2.12s.89-.93,1.6-1.07c8.38,3.03,9.25-5.68,10.36,2.08Z"/>
  <path class="cls-1" d="M97,22v2c-7.83,1.49-15.9,7.02-15.95,15.29.3.96,3.94.93,4.65-.04s1.85-1.76,2.35-3.34c.4,1.38-.22,2.8.05,4.2.1.52.05,1.07.12,1.59-11.82-2.61-22.53,7.68-24.96,18.1.85,1.72,4.53.43,5.46-.97.72,2.04,2.66,3.05,5.42,3.47.62-1.23.9-2.29,1.11-3.31.4.13.76.56.74,1-.1,2.13,1.28,3.94,2,6-.07.44.09,1.47-.75,1.02-9.81-7.36-17.08-6.56-27.42,1.04l-1.39-.43c1.4-4.79,8.51-4.74,11.22-8.01,3.58-4.33,6.19-13.96,18.7-20.02,1.28-9.77,10.24-16.43,18.63-17.61Z"/>
  <path class="cls-4" d="M75.08,156.93c2.56.7,5.27,1.7,7.92,2.04l-.23,1.73c-.71.14-1.45.54-1.6,1.07s-.24,1.33.03,2.12c4.78,14.2,23.83,13.38,26.8,11.95l1,1.15c-11.44,4.69-29.38-1.48-30.21-15.88-1.84-1.7-4.42-1.76-5.82-3.67.85-.81,1.61-.38,2.11-.52Z"/>
  <path class="cls-7" d="M25,105c1.15,7.48,6.97,14.41,14.85,15.3,1.02-1.42.45-2.88.7-4.07.39.07.85-.38,1.25-.38-.23,2.7.23,6.82,1.74,9.36l-.53,1.79c-.54-1.11-1.94-2.95-2.9-4.1-10.02-1.78-15.57-8.89-17.1-17.9h2Z"/>
  <path class="cls-1" d="M155,70l-1.26.06c-6.27-6.44-14.8-9.84-23.54-7.11l-1.01-.44c.93-1.21,2.42-1.75,3.81-2.31.33-.13.73-.09,1.07-.2,1.16.48,3.77,1.44,4.37-.21.43-1.17-.42-2.64.91-2.81.49,5.39,12.49,3.88,15.64,13.01Z"/>
  <path class="cls-13" d="M152,133c-.03,4.22-9.14,5.26-10.53,8.17-2.8,5.83-7.27,13.49-12.47,15.83-.07-.47.11-1.48-.77-1.09,2.5-1.89,4.84-4.53,6.73-6.89.31-.27.72-.59.81-1.02.53-2.48,2.66-4.44,2.32-7-.11-.82-.39-.82-1.09-.88-1.96-.17-3.77.5-5.24,1.81.53-.97-.29-2.41-.73-4.01,8.07,2.44,14.54-1.11,20.97-4.91Z"/>
  <path class="cls-15" d="M174,86c-8.71-4.73-5.66-6.12-18.18-6.2.04-1.24,2.01-1.72,2.52-2.73-.77-2.5-2.82-5.2-4.59-7.01l1.26-.06c3.87-.18,4.77,4.93,5.77,7.76,5.54.85,11.8,2.68,13.23,8.24Z"/>
  <path class="cls-13" d="M30.55,84.02c-5.06,5.72-6.69,13.51-5.55,20.98h-2c-1.21-7.12.06-16.8,7-22,.07.32-.2,1.35.55,1.02Z"/>
  <path class="cls-7" d="M46.18,70.88l.1.92c-1.1,2.27-3.26,4.4-2.12,6.92-4.19,2.18-10.29,1.54-13.61,5.3-.75.33-.48-.7-.55-1.02,1.98-1.48,2.86-4.39,6.78-4.41,6.96-.03,4.16-7.59,9.4-7.71Z"/>
  <path class="cls-13" d="M160.64,110.72c.59,1.53,1.4,3.65,1.3,5.28-.06,1.02-1.58,3.76.13,3.92,4.64.43,9.19-3.19,11.69-6.65l.07.85c2.11,2.74-7.53,7.81-9.89,7.87-6,.14-3.79,6.55-7.94,7,2.17-5.5,6.23-10.96,2.94-18,.56-.12,1.12-.22,1.69-.28Z"/>
  <path class="cls-15" d="M129,157c-1.45.65-3.6,3.13-5.46,3.51-1.29,3.22-1.68,8.74-5.59,9.48.54-2.62,2.93-4.73,2.98-8.21.02-1.68-2.75-1.08-3.77-.98v-1.66c3.59-.4,8.11-1,11.07-3.23.88-.39.7.62.77,1.09Z"/>
  <path class="cls-4" d="M122,35c-.43-.08-1.07.3-1.1.78-3.02-5.71-8.03-9.2-13.9-11.78.37-.3.7-.63,1-1,6.14,1.85,12.6,5.47,14,12Z"/>
  <path class="cls-7" d="M61.09,137.91l1.56.28c-.15,4.4,3.73,7.54,4.55,11.66-6.13-1.85-3.5-5.91-7.27-9.57-1.2-1.17-3.36-.8-3.99-2.22,1.69-.41,3.44-.45,5.15-.15Z"/>
  <path class="cls-12" d="M173.83,114.13l-.07-.85c4.41-6.09,3.94-14.7,2.08-21.91-1.2-.69-.73-1.51.16-1.37,4.43,5.38,3.64,21.33-2.17,24.13Z"/>
  <path class="cls-12" d="M127.3,42.94c-2.82.92-7.11-3.07-14.42-1.77.05-.33-.19-.75-.09-1.07l7.99-.44c.38-1.53.07-2.72.13-3.88.03-.48.67-.86,1.1-.78,2.02,9.4-.15.99,5.3,7.94Z"/>
  <path class="cls-12" d="M52.24,134.9c-4.1.11-7.43-4.2-9.24-7.9l.53-1.79c2.22,3.72,6.3,6.09,8.7,9.69Z"/>
  <path class="cls-12" d="M108,23c-.3.37-.63.7-1,1-2.98.12-7.01-.57-10,0v-2c3.75-.53,7.56-.03,11,1Z"/>
  <path class="cls-4" d="M71.99,153.84c.07.81,0,1.61-.25,2.7-3.92-1.33-3.99-3.96-4.54-6.69,2.1.64,2.92,3.02,4.79,3.99Z"/>
  <path class="cls-1" d="M116,172c-.71,2.88-4.43,3.95-7,5l-1-1.15,8-3.85Z"/>
  <path class="cls-7" d="M138.41,55.73c-2.81-2.23-4.99-5.51-6.52-8.73,3.58,1.23,6.81,4.84,6.52,8.73Z"/>
  <path class="cls-6" d="M49.83,68.06c-1.25.92-1.59,3.45-3.55,3.74l-.1-.92c.23-1.33,1.91-2.05,2.27-3.25l1.39.43Z"/>
  <path class="cls-16" d="M114.77,114.1c-.05.96-1.32,2.56.19,3.25,5.88-3.99,12.4-15.55,17.06-14.49-.34,1.6-1.55,2.87-2.96,4.19-5.8,5.39-10.87,11.01-16.24,16.77-2.76,2.97-6.75,4.69-8.12,8.32-.66-.42-1.75-.37-2.5-.59.11-.95.45-2.04,1.37-2.92l8.81-8.46c-1.11-1.26-2.34-1.06-3.29-1.38-2.72-2.84-5.55-5.13-9.35-8.26-1.37,3.46-4.52,5.37-6.74,8.13-.41.51-1.7.67-2.04,1.36-2.05-.38-5.88,5.85-7.82,8.18-1.8.89-3.35,2.13-5.16,3.93-3.26,3.22-4.81,9.18-.56,12.51,3.88,3.04,11.32,1.67,12.58-2.84,2.27-.31,3.83,1.45,5.72,2.45,1.14,3.81-2.78,2.98-2.73,5.76-9.36,1.79-17.07,4.39-21.4-6-2.14-5.15-2.17-10.05,1.84-14.83,8.96-10.68,12.18-12.83,22.18-23.07,1.13,1.29,1.8,3.77,4.64,3.65-2.64-3.37-5.7-7.04-9.24-8.94-.18-1.62-1.93-2.06-3.01-2.9-2.58-2-4.87-4.48-7.01-6.91v-2c1.23-.34,3.19-.84,4-2,1.76-.19,3.46.57,4.86,2.2,7.77,9.11,15.94,17.52,24.91,24.9Z"/>
  <path class="cls-10" d="M44.16,78.72c.33-.17.82.07,1.17,0,.41.61.87,1.35,1.56,1.54.8.22,1.59-.07,2.32-.27-.23,1.29.86,1.5,1.72,1.92,4.89,2.41,5.99,7,8.02,7.13.06,1.32,1.89,1.38,2.11,2.21.3,1.15,1.16,1.3,1.95,1.73,1.36,1.93,2.92,3.8,4.89,5.16.29.2.89.57,1.08.86.7,1.66,2.83,2.4,3.98,3.64,2.31,2.52,7.82,8.03,5.26,9.58-1.05,1.39-2.36,2.84-4.21,2.76-.35-.93-1.07-1.65-2-2,.6-2.79-3.09-5.19-5-6,.68-1.45-.67-2.06-1.12-3.01-.9-1.87-3.51-2.28-4.75-4.1-5.92-8.71-17.08-16.84-26.32-8.82-8.4,7.3-2.43,17.8-2.16,19.49s2.8,1.8,3.35,3.03c.78,1.76,2.77,2.3,4.55,2.64-.25,1.19.32,2.65-.7,4.07-7.88-.89-13.7-7.82-14.85-15.3s.49-15.26,5.55-20.98c3.32-3.75,9.42-3.12,13.61-5.3Z"/>
  <path class="cls-7" d="M95.83,143.06c.06.36-.2.83-.09,1.18-1.9-1-3.45-2.76-5.72-2.45.36-1.47-8.24-10.17-9.41-9.74,2.73-1.01-6.47,3.68-4.21,9.05,2.79,6.62,11.99.23,13.62.68-1.27,4.51-8.71,5.88-12.58,2.84-4.25-3.33-2.7-9.29.56-12.51,1.82-1.8,3.37-3.04,5.16-3.93-.1,1.16-.62,2.64,1.11,4,3.25,2.55,8.77,8.08,11.58,10.87Z"/>
  <path class="cls-7" d="M91.02,100.81l-10.09,10.17c-.83.84-1.95,1.01-2.72,1.25,2.56-1.54-2.95-7.06-5.26-9.58l.02-.59c3.16.2,4.72,3.46,7.43,5.97l5.39-5.24c1.55-1.51,2.53-3.02,2.22-4.89,1.08.84,2.83,1.28,3.01,2.9Z"/>
  <path class="cls-15" d="M53.97,102.22c-3.48-2.01-9.87,6.46-11.77,8.74h-.97c.51-2.02-1.63-3.15-3.17-4.06l1.04-.7c3.97.69,8.25-3.01,10.83-5.79-3.1-2.68-5.48-7.1-9.93-6.27-1.44.27-2.14,3.73-4.01,2.85.08-.34-.09-.74-.04-1.09,1.65-2.2,3.89-5.35,7.84-3.23s8.55,5.52,10.17,9.55Z"/>
  <path class="cls-13" d="M117.17,159.14v1.66c-.64.07-1.53.15-2.2.12-1.42-.08-4.28-1.76-5.56-.87-1.6,3.91-3.29,5.31-6.47,6.03l-.58-.97c1.81-.93,3.7-2.26,4.29-4.2.53-1.73-.32-4.69-1.63-6.07.35-.2.68-.43.97-.71,2.81,3.05,7.04,5.46,11.17,5Z"/>
  <path class="cls-7" d="M66.06,114.22c.44.88-.58.73-1.06.78-.91-1.14-2.56-1.8-4.16-3.2-2.89,1.66-6.05,6.19-4.24,9.57,2.35,4.39,7.85,2.57,11.31,1.03.27-.02.94.16.91.53-1.77,2.22-3.82,4.29-5.01,6.88l-.73-.77c1.09-5.03-7.76-.27-8.39-9.56-.47-6.86,5.13-8.49,4.3-10.8-.41-1.15-1.88-1.27-2.48-2.08-.76-1.03-1.05-2.43-1.51-3.6,4.46,2.72,7.89,7.13,11.06,11.22Z"/>
  <path class="cls-7" d="M106,154.14c-.29.28-.62.51-.97.71-1.3-1.37-3.52-1.91-4.36-3.75-2.76,3.36-6.22,5.46-6.29,9.52-.02,1.1,1.69,2.24,1.42,3.25l-.81-.06c-.36-.52-1.36-.66-1.85-1.04-1.11-7.76-1.99.96-10.36-2.08l.23-1.73c7.77.99,15.32-4.34,16.24-12.23,3.82,2.24,4.79,5.26,6.76,7.4Z"/>
  <path class="cls-3" d="M68.82,122.92c.03-.37-.64-.55-.91-.53.16-.64,1.53-2.23.78-3.07-1.41-1.59-2.59-2.94-3.69-4.32.48-.06,1.5.1,1.06-.78,1.63,2.1,4.32,3.8,6.73,4.36-.92,2.64-2.95,3.07-3.98,4.35Z"/>
  <path class="cls-13" d="M63.8,129.81c-1.18,2.58-1.05,5.59-1.15,8.38l-1.56-.28c.17-1.26.31-3.58-.87-4.33-.81-.52-2.25-1.57-3.31-1.65-.83-2.88,3.43,2.43,6.17-2.9l.73.77Z"/>
  <path class="cls-3" d="M36,97c-.81,3.63.61,6.57,3.1,9.2l-1.04.7c-4.08-2.41-4.81-7.39-2.11-11-.05.35.12.75.04,1.09Z"/>
  <path class="cls-14" d="M110.3,149.67c-2.35.14-13.05-11.88-17.3-15.67,1.72.08,3.02,1.25,4.39,2.64l12.91,13.03Z"/>
  <path class="cls-14" d="M118.96,151.86c-.04,2.02-6.04,1.45-6.96.49-.58-.62-1.03-1.53-.31-2.25,2,1.66,4.68,2.22,7.27,1.77Z"/>
  <path class="cls-3" d="M41.79,115.86c-.4,0-.86.45-1.25.38-1.77-.34-3.77-.88-4.55-2.64.99.11,2.02.48,3.32.22,1.04-.21,1.63-1.65,1.91-2.85h.97s-.41,4.89-.41,4.89Z"/>
  <path class="cls-14" d="M93,150c-.05-2.78,3.87-1.95,2.73-5.76-.1-.35.15-.81.09-1.18.83.83,3.73,1.67,1.89,4.11-.82,1.09-3.25,2.55-4.72,2.83Z"/>
  <path class="cls-3" d="M90.96,120.01c-.26.6-.36,1.32-.7,1.88-1.08,1.78-3.17,2.95-3.34,5.12-.03.35-.01.71-.07,1.05-1.24-.06-2.47.03-3.71.13,1.94-2.34,5.77-8.56,7.82-8.18Z"/>
  <path class="cls-6" d="M67,107c-.44-.19-1.64.31-1.97-.52s.58-1.8.85-2.48c.45.95,1.8,1.56,1.12,3.01Z"/>
  <path class="cls-14" d="M89,130c-.4-.15-.96-.05-1.42-.27-.61-.29-.86-.96-.73-1.67.06-.34.05-.71.07-1.05,1.1.65,1.69,1.8,2.07,2.99Z"/>
  <path class="cls-6" d="M74,115c-.38-.02-1.05.22-1.46-.05-.56-.36-.67-1.36-.54-1.95.93.35,1.65,1.07,2,2Z"/>
  <path class="cls-14" d="M123.06,152c-.21.82-.74,1.47-1.57.98-.57-.33-.75-.91-.58-1.41.78-.39,1.45-.09,2.15.43Z"/>
  <path class="cls-14" d="M134.96,149.02l.81-1.02c-.09.43-.5.74-.81,1.02Z"/>
  <path class="cls-14" d="M138.09,141c-.4-.25-.76-.55-1.09-.88.7.06.98.07,1.09.88Z"/>
  <path class="cls-9" d="M127.79,83.14c.19,2.35.26,5.21,2.21,6.86,4.39,3.73,8.57,7.77,12.64,12.38.43,1.28,1.54,1.63,2.45,1.63.47.64.76,1.19.91,1.98.18.93,1.42,1.09,2.18,1.01,1.85,2.39,4.07,4.76,3.97,7.91-1.36-.11-1.41,1.47-1.1,2.58.22.81,1.48.51,2.13.5.24,1.04.45,1.96.03,3-.69-.08-1.59-.09-2.04.59-.26.39-.16.97-.24,1.41-.19,1.04-.68,2.06-.76,3.12-2.3,3.22-6.27,2.62-5.55,4.84-.17-.11-.54.11-.68-.02-1.39-1.21-3.21-.02-4.84.12-1.78,1.14-3.53-.04-5.14-1.01.07-.94-.08-2.02-.93-2.57-.6-.39-1.39-.42-2.08-.42-1.11-.01-2-.72-2.12-1.85.4-2.53-.93-2.59-.89-.02-2.67-1.04-3.46,2.51-5.04,3.76-2.11-1.03-3.56,1.48-4.83,3.28-.37.52-.91.97-1.19,1.53-2.54,2.04-4.82,4.14-7.97,5.15-1.75-.94-2.59-2.72-2.76-4.7l6.45-4.8c6.94-5.16,15.02-18.23,21.39-24.11.47-.09,1.04-.02,1.99-.62-.5-1.41-2.23-1.83-2.83-2.91-2.82-5.13-10.25-8.37-10.24-13.12.36,0,.69-.6,1.07-.66.64.03,1.49-.02,1.81-.61.25-.45.16-.98.19-1.39.09-1.4.24-3.05,1.67-3.65-.42.25-.4.68.12.78ZM132.77,122.24c1.19,3.88,6.09,4.8,9.71,3.74,4.16-1.22,5.8-6.36,4.08-10.7-1.55-3.9-4.79-6.56-8.42-8.53.51,2.71.75,4.66-.89,6.5-3.42,2.31-6.32,4.98-8.58,8.51,1.19.95,1.97.42,4.1.48Z"/>
  <path class="cls-11" d="M153.74,70.06c1.77,1.81,3.82,4.51,4.59,7.01-.51,1.01-2.48,1.49-2.52,2.73-1.46,0-3.48.7-4.82,1.2-.26-.36-.53-.7-.82-1.03-.6-2.28-.27-5.67-2.62-7.44-2.99-2.25-8.28-4.91-11.76-2.72-6.18,3.88-23.34,17.98-26.83,23.88-2.39.02-4.71-.68-6.04-2.75-.57-4.27,7.37-6.86,7.3-11.09,0-.56.32-1.14.07-1.72.44.16,1.35-.46,1.72-.19,2.03,1.46,3.88-2.68,5-3.94.63-.71.62-3.35,2.11-2.9,2.17.65,2.2-1.16,3.1-1.88l7.99-6.27c8.74-2.72,17.27.67,23.54,7.11Z"/>
  <path class="cls-11" d="M161.94,116c.1-1.63-.71-3.75-1.3-5.28-.16-4.42,4.56-1.52,6.74-8.67.84-2.74-.34-4.19-1.64-6.11-8.08-11.95-11.82,7.29-19.74.7-.28-.52-.93-.85-.93-1.32,0-.89,2.23-1.05,2.59-1.57,2.72-4.04,6.88-5.68,11.31-6.99,3.54-1.05,5.98-1.7,9.41,1.14,4.73,3.93,4.55,10.33,3.89,16.33s-4.06,12.02-10.33,11.77Z"/>
  <path class="cls-10" d="M134.02,105.32c-6.38,5.88-14.46,18.95-21.39,24.11l-6.45,4.8-1.47-2.09c1.37-3.63,5.36-5.35,8.12-8.32,5.36-5.76,10.44-11.38,16.24-16.77,1.41-1.31,2.62-2.59,2.96-4.19.26.06.54,0,.81.04l1.19,2.42Z"/>
  <path class="cls-1" d="M122.91,128.96c-.19,4.02,3.34,5.67,7.63,8.74-3.88-.11-3.29,3.2-4.7,5.35-3.54,5.4-11.51,3.25-14.98-1.06.36.06.79-.08,1.14,0,3.62.92,7.44,3.71,11.33,1.2,2.25-1.45,2.49-5.41.77-7.59-1.32-1.66-3.33-4.18-6.01-3.38,1.27-1.79,2.71-4.31,4.83-3.28Z"/>
  <path class="cls-15" d="M160.64,110.72c-.57.06-1.13.15-1.69.28-3.36-7.21-4.39-3.7-7.09-8.82,2.56-.17,4.1,2.3,6.55,3.44s5.29-.38,6.43-2.28c1.23-2.05.93-4.45.11-6.67-.25-.69.14-1.09.8-.71,1.3,1.92,2.48,3.36,1.64,6.11-2.18,7.14-6.91,4.25-6.74,8.67Z"/>
  <path class="cls-15" d="M93,118.65c-.34.74-1.15,1.74-.58,2.42.5.59,1.48.7,2.13,1.3l6.48,5.95c2.41-2.47,8.63-7.38,8.05-9.54.95.33,2.19.12,3.29,1.38l-8.81,8.46c-.92.88-1.26,1.97-1.37,2.92-3.78-1.09-8.41-9.23-11.93-9.65.34-.56.44-1.28.7-1.88.34-.69,1.62-.85,2.04-1.36Z"/>
  <path class="cls-11" d="M145.09,104.02c-.91,0-2.02-.35-2.45-1.63-4.06-4.61-8.25-8.65-12.64-12.38.47-.03,1.08-.96,1.5-.88-1.22-.24,11.79,12.41,13.59,14.9Z"/>
  <path class="cls-12" d="M147.18,80.05c.39.93-.07,2.3.95,3.01-1.63,1.98-2.5,4.81-4.88,6.01l-1.26-.06c1.41-3.27,5.53-7.89,2.44-10.48l-4.44-3.72c3.23-.92,5.98,2.43,7.18,5.25Z"/>
  <path class="cls-1" d="M165.74,95.95c-.65-.38-1.05.03-.8.71-2.1-1.35-3.84-3.29-6.24-2.58s-2.9,3.5-4.96,4.77l-2.62,1.62c-.34.21,1.42.98.73,1.7-2.41-1.09-4.56-3.13-5.85-5.53,7.92,6.6,11.66-12.65,19.74-.7Z"/>
  <path class="cls-4" d="M136,76c-.16,2.19-2.35,2.52-4.8,4.14,4.59,2.68,7.85,5.4,7.8,9.86-4.3-3.09-5.79-10.26-11.21-6.86-.52-.11-.54-.53-.12-.78,3.13-1.86,4.65-5.88,8.33-6.35Z"/>
  <path class="cls-11" d="M144.62,130.96c-.72-2.22,3.25-1.62,5.55-4.84-.15,2.18-3.41,6.21-5.55,4.84Z"/>
  <path class="cls-12" d="M116.89,133.77c-1.46,2.9-4.31,5-4.89,8.23-.36-.09-.78.06-1.14,0-.73-.9-1.38-2.11-1.93-3.07,3.15-1.02,5.43-3.12,7.97-5.15Z"/>
  <path class="cls-11" d="M143.94,130.94c-.68.67-1.47,1.25-2.59,1.37-.85.09-1.81-.31-2.25-1.24,1.63-.14,3.45-1.34,4.84-.12Z"/>
  <path class="cls-2" d="M150.18,79.97c.29.33.57.67.82,1.03-.54.86-1.72,1.8-2.86,2.06-1.02-.71-.56-2.08-.95-3.01l2.99-.08Z"/>
  <path class="cls-11" d="M133.96,130.06c-.71-.43-2-.05-2.5-1.05-.3-.6-.56-1.23-.51-1.94.69,0,1.47.03,2.08.42.85.55,1,1.63.93,2.57Z"/>
  <path class="cls-11" d="M140,90c.77,0,1.47-.44,2-1l1.26.06c.01.98-.25,2.01.61,3.67-1.42-.32-3.21-1.22-3.87-2.73Z"/>
  <path class="cls-11" d="M153.18,118c-.65,0-1.91.31-2.13-.5-.31-1.11-.26-2.69,1.1-2.58.82.85.79,2.02,1.03,3.08Z"/>
  <path class="cls-11" d="M153.21,121c-.25.62-.08,1.53-.84,1.83-.48.19-1,.21-1.44.17.08-.44-.03-1.02.24-1.41.46-.68,1.36-.67,2.04-.59Z"/>
  <path class="cls-11" d="M148.18,107.01c-.75.08-2-.08-2.18-1.01.85,0,1.65.33,2.18,1.01Z"/>
  <path class="cls-11" d="M128.84,125.22l-.89-.02c-.05-2.57,1.29-2.51.89.02Z"/>
  <path class="cls-15" d="M125.73,56.06c.26.66.16,2.09,1.15,2.02-.05,1.06.18,1.98.34,3.31.09.75.75,1.46,1.98,1.12l1.01.44-7.99,6.27c-.72-2.77,2.61-4.33,2.88-7.16.39-4.04-3.27-6.1-6.37-6.28-2.25-.13-6.98,2.74-5.99,5.19,2.26,3.57,6.93,4.71,9.48,8.25-.91.71-.93,2.53-3.1,1.88-.4-3.9-6.85-6.46-10.91-12.33,1.41.16,2.57-.59,3.93-1.64l3.88-2.98c3.26-.7,7.06.14,9.73,1.91Z"/>
  <path class="cls-15" d="M112.79,40.1c-.1.32.14.74.09,1.07-2.22,1.27-4.41,3.05-6.87,3.97-.29-1.5,1.26-3.34.8-5.11-.99-3.78-5.52-4.75-8.8-4.03-.3-.37-.63-.7-1-1,2.21-1.69,4.7-1.81,7.87-.43,2.02.88,3.22,3.44,4.74,6,.6,1.01,2.38-.43,3.18-.48Z"/>
  <path class="cls-14" d="M134.07,60.01c-.34.11-.74.07-1.07.2-2.08-4.31-4.85-9.05-9.99-10.84-2.58-.9-5.6,2.63-7.92-1.03,5.68-2.09,13.23.19,15.92,5.56l3.06,6.11Z"/>
  <path class="cls-14" d="M116,54.15l-3.88,2.98c-1.36,1.05-2.52,1.79-3.93,1.64-.25-.37-.86-.5-1.2-.77v-2.26c.77.15,1.86.17,2.69-.37.52-.34.55-1.37.56-2.43.01-1.72,2.03-4.15,3.34-2.57,1.08,1.3.62,3.58,2.41,3.77Z"/>
  <path class="cls-4" d="M101.94,49.18c-.28,3.23,2.52,5.02,5.07,6.56v2.26c-3.34-2.66-6.56-5.64-8.84-9.25,1.25.23,2.5.44,3.77.43Z"/>
  <path class="cls-14" d="M126.87,58.08c-.98.07-.89-1.36-1.15-2.02.32.15,1-.13,1.73-.07.38.03.71.6.45,1.3-.13.34-.93.47-1.03.79Z"/>
  <path class="cls-14" d="M56.51,106.6c.6.81,2.07.93,2.48,2.08.83,2.31-4.77,3.94-4.3,10.8.63,9.29,9.48,4.53,8.39,9.56-2.74,5.33-6.99.02-6.17,2.9-1.77-.13-2.04-2.53-3.38-3.17-8.33-3.95-3.2-21.39,2.98-22.17Z"/>
  <path class="cls-6" d="M114.97,160.92c.26,5.91-5.18,10.63-11.07,11.91-7.45,1.63-14.05-1.82-16.42-9.8,1.49-.21,3.58-.26,5.65-.26.49.38,1.5.52,1.85,1.04,1.75,3.3,4.95,2.95,7.96,2.27,3.18-.72,4.87-2.11,6.47-6.03,1.28-.89,4.14.78,5.56.87Z"/>
  <path class="cls-8" d="M77.25,67.02c1.81,1.35,1.47,4.03.84,6.24l12.98-11.03c1.14-.56,3.02,1.12,3.93,1.17,3.33,5.07,0,3.35,4.07,5.44,0,3.53-3.11,4.32-5.98,8.14-.29.39-.74.77-1.1,1.09-.77.67-2.04,1.11-2.54,2.07-1.9,3.67-5.36,6.16-8.44,8.86-.45.31-1.49.15-2.05.46-.99.55-.53,1.93-1.01,2.6-1.88,2.63-5.64,3.71-6.81,6.71l-2.16.24c-.18-.29-.78-.66-1.08-.86-.28-1.4-.81-2.92.09-4.17.92.12,1.72-.44,2.6-.88.74-.37,2.19-2.48.18-2.79-1.87-.29-3.37,2.73-4.76,3.62-.97-.42-1.91-.91-3-.93-.78-.44-1.65-.58-1.95-1.73,2.6-1.39,4.45-3.92,5.95-6.41.45-.74,1.48-1.16,2-1.86.29-.39.65-.81,1.01-1.13.54-.5,1.63-.93,1.8-1.57.24-.88-4.86-5.17-6.52-4.23-1.01-.25-2.25-.94-3.28-1.27-2.01-.66-3.69.05-5.26,1.47-1.31,1.19-1.39,3.63-2.53,5.52-.4.66-4.55-1.85-3.28.13-.86-.42-1.96-.63-1.72-1.92,1.29-3.92,3.63-7.23,7.8-9.03-.73-.33-1.86-.87-2.67-.7-2.34,2.6-6.39,9.51-9,8.46-.35.07-.84-.17-1.17,0-1.13-2.52,1.02-4.65,2.12-6.92,1.96-.29,2.3-2.82,3.55-3.74,10.34-7.59,17.61-8.4,27.42-1.04ZM66.95,70.58c-2.17-.86-2.47-2.22-3.32-.58.92,1.59,2.72,1.27,3.32.58ZM90.76,70.8c-1.88,3.38-4.57,4.4-7.53,7.13,1.76,1.74,3.67.05,4.94-.36-.74.24,5.77-8.29,2.59-6.78ZM76.41,73.5c-.12-.74-2.49-1.8-3.1-1.39-1.11,1.63.43,1.63,1.61,2.41.49.33,1.61.4,1.49-1.03ZM79.2,83.43c1.19-1.55-.32-2.02-1.52-.85-1.48,1.9-4.79,2.92-2.78,5.7,2.04-1.03,2.42-3.24,4.29-4.85Z"/>
  <path class="cls-16" d="M88.23,41.71c2.61.58,4.74,1.71,7.01,3.25,1.39.94,2.04,2.39,2.93,3.79,2.28,3.61,5.5,6.59,8.83,9.25.34.27.95.4,1.2.77,4.06,5.87,10.51,8.43,10.91,12.33-1.49-.45-1.48,2.19-2.11,2.9h-2c-.02-.42.07-.88-.17-1.35-.32-.6-1.38-.4-1.83-.65-.68-1.25-1.64-2.43-2.94-3.09-.19-1.09-1.32-1.33-1.97-1.96s-.97-1.64-1.91-2.04c-.36-.15-.83-.76-1.08-1.08-1.35-1.72-2.75-3.77-5.1-3.82-2.9-4.7-8.15-10.22-13.96-11.79-7.84-2.13-16.55,3.43-17.31,10.63-.93,1.4-4.61,2.69-5.46.97,2.43-10.41,13.13-20.71,24.96-18.1Z"/>
  <path class="cls-9" d="M100,60c1.12,1.81,2.94,3.72,5.1,3.82.25.32.72.92,1.08,1.08.06,1.08.88,1.84,1.91,2.04.65.63,1.78.87,1.97,1.96-.05,1.92,1.67,2.91,2.94,4.09.59.55,1.05,1,2,1,.09,1.87-1.32,3.3-3,3.94-.37-.27-1.28.35-1.72.19-3.97-2.63-6.57-8.55-11.21-9.29-4.07-2.09-.74-.36-4.07-5.44-3.66-5.57-9.36-11.91-16.52-8.65-1.42.65-2.79,2.12-3.22,4.24-.21,1.02-.49,2.08-1.11,3.31-2.76-.43-4.7-1.44-5.42-3.47.76-7.2,9.46-12.76,17.31-10.63,5.81,1.58,11.06,7.09,13.96,11.79Z"/>
  <path class="cls-10" d="M97,24c2.99-.57,7.02.12,10,0,5.88,2.58,10.88,6.07,13.9,11.78-.06,1.16.25,2.35-.13,3.88l-7.99.44c1.13-3.61-1.03-6.65-3.52-8.87-3.02-2.71-6.42-2.03-10.32-1.48-4.86.68-9.46,1.55-10.9,6.17-.5,1.58-1.67,2.42-2.35,3.34-.71.97-4.35,1-4.65.04.05-8.27,8.12-13.8,15.95-15.29Z"/>
  <path class="cls-6" d="M112.79,40.1c-.79.04-2.58,1.48-3.18.48-1.52-2.57-2.71-5.12-4.74-6-3.17-1.38-5.66-1.27-7.87.43-1.86,1.42-3.93,2.47-4.33,5.75-1.92.16-3.18-.38-4.57-.64-.28-1.4.34-2.82-.05-4.2,1.44-4.61,6.05-5.49,10.9-6.17,3.9-.54,7.3-1.23,10.32,1.48,2.48,2.23,4.65,5.26,3.52,8.87Z"/>
  <path class="cls-15" d="M95,63.4c-.9-.04-2.79-1.72-3.93-1.17l-12.98,11.03c.63-2.21.97-4.89-.84-6.24.84.45.67-.59.75-1.02.28.79,2.08,1.5,2.82,1.83,1.62.73,3.81-4.8,9.2-6.5-.79-3.16-4.45-4.56-6.75-5.16-3.15-.83-5.5,1.31-7.27,3.83.02-.44-.34-.87-.74-1,.43-2.12,1.8-3.59,3.22-4.24,7.16-3.27,12.86,3.07,16.52,8.65Z"/>
  <path class="cls-4" d="M98,36c-1.32.29-2.54,2.54-3.34,3.45-1.18,1.35.45,3.92.58,5.51-2.27-1.54-4.4-2.68-7.01-3.25-.07-.53-.02-1.07-.12-1.59,1.39.26,2.66.8,4.57.64.39-3.29,2.47-4.33,4.33-5.75.37.3.7.63,1,1Z"/>
  <path class="cls-9" d="M102.04,91.11c8.14,11.17,25.26,20.72,12.73,22.99-8.97-7.38-17.14-15.8-24.91-24.9-1.39-1.63-3.1-2.39-4.86-2.2,1.45-2.07,3.08-3.99,5.28-5.33-2.13-4.41,15.48,14.55,11.75,9.44Z"/>
  <path class="cls-13" d="M122.93,88.66c0,4.75,7.42,8,10.24,13.12l-.35,1.11c-.26-.04-.55.02-.81-.04-4.66-1.06-11.18,10.51-17.06,14.49-1.51-.69-.24-2.29-.19-3.25,12.53-2.28-4.59-11.83-12.73-22.99l.88-.17c1.33,2.06,3.65,2.76,6.04,2.75-.43,1.24.41,3.42,1.18,4.4.66.84,2.92.47,3.77-.39-2.64,2.59,4.68,5.96,7.22,10.65l8.44-8.53c-6.88-3.6-5.6-9.56-10.75-7.05,1.36-1.37,1.58-4.04,4.11-4.1Z"/>
  <path class="cls-9" d="M81,89v2c-.75.13-1.46.45-2,1l-1.06.07c.48-.67.02-2.05,1.01-2.6.56-.31,1.61-.15,2.05-.46Z"/>
  <path class="cls-7" d="M90.28,81.67c-2.2,1.34-3.83,3.26-5.28,5.33-.81,1.16-2.77,1.66-4,2,3.09-2.7,6.54-5.19,8.44-8.86.49.37.76.93.84,1.53Z"/>
  <path class="cls-1" d="M62,74.8c-1.51,2.21-5.54,3.02-5.77,6.37-.2,2.88,2.6,5.3,2.72,7.89-2.03-.13-3.14-4.72-8.02-7.13-1.27-1.98,2.88.53,3.28-.13,1.14-1.89,1.22-4.34,2.53-5.52,1.57-1.42,3.25-2.13,5.26-1.47Z"/>
  <path class="cls-6" d="M49.2,80c-.73.2-1.52.49-2.32.27-.68-.19-1.15-.93-1.56-1.54,2.61,1.05,6.66-5.86,9-8.46.81-.17,1.94.37,2.67.7-4.17,1.8-6.5,5.11-7.8,9.03Z"/>
  <path class="cls-13" d="M66,93.93c.55.24,1.39-.03,1.98.06-.9,1.25-.38,2.77-.09,4.17-1.97-1.36-3.54-3.23-4.89-5.16,1.09.02,2.03.51,3,.93Z"/>
  <path class="cls-13" d="M71.13,98.77c.62.42,1.22.87,1.87,1.23l-.03,2.07-.02.59c-1.15-1.25-3.28-1.99-3.98-3.64l2.16-.24Z"/>
  <path class="cls-4" d="M67,84.86c-1.5,2.49-3.35,5.02-5.95,6.41-.22-.84-2.04-.9-2.11-2.21,1.09.07,3.36.45,3.95-1.02.82-2.04,1.38-3.47,3.1-4.04.23.39.57.7,1,.86Z"/>
  <path class="cls-3" d="M102.36,165.12l.58.97c-3,.68-6.21,1.03-7.96-2.27l.81.06,6.56,1.24Z"/>
  <path class="cls-7" d="M132.77,122.24c3.34.07,6.21,3.19,9.83,1.4,2.05-1.01,2.67-4.03,2.39-5.95-.25-1.73-1.58-5.27-3.9-5.38-3.22-.15-9.12,8.34-8.32,9.93-2.13-.06-2.91.47-4.1-.48,2.26-3.52,5.17-6.2,8.58-8.51,1.65-1.84,1.4-3.79.89-6.5,3.63,1.97,6.87,4.63,8.42,8.53,1.72,4.33.08,9.47-4.08,10.7-3.62,1.07-8.53.14-9.71-3.74Z"/>
  <path class="cls-11" d="M134.02,105.32l-1.19-2.42.35-1.11c.6,1.09,2.33,1.5,2.83,2.91-.95.6-1.52.53-1.99.62Z"/>
  <path class="cls-11" d="M124,88c.35-.93,1.07-1.65,2-2-.03.41.06.94-.19,1.39-.32.59-1.17.65-1.81.61Z"/>
  <path class="cls-4" d="M91.98,78.07l1.02-.07c-3.18,1.39,5.04,5.52,7.98,9.22l8.14-7.37h1.09c.07,4.22-7.87,6.81-7.3,11.08l-.88.17c3.73,5.11-13.88-13.84-11.75-9.44-.08-.6-.35-1.16-.84-1.53.5-.97,1.77-1.4,2.54-2.07Z"/>
  <path class="cls-13" d="M110.28,78.13c.25.57-.07,1.16-.07,1.72h-1.09c-.92-2.44-3.87-3.05-5.72-5.21-.88-1.03-1.24-3.16-2.82-2.59-2.06.75-4.23,5.72-7.58,5.95l.09-1.02c2.87-3.82,5.98-4.61,5.98-8.14,4.64.74,7.24,6.67,11.21,9.29Z"/>
  <path class="cls-13" d="M117,74c-1.12,1.27-2.97,5.4-5,3.94,1.68-.64,3.09-2.07,3-3.94h2Z"/>
  <path class="cls-2" d="M138,75c-.5.6-1.23.92-2,1,.03-.59.11-1.04.21-1.4.14-.53.53-.76,1.24-.61.35.07.69.52.55,1.01Z"/>
  <path class="cls-9" d="M90.76,70.8c3.18-1.51-3.33,7.01-2.59,6.78-1.27.41-3.19,2.09-4.94.36,2.96-2.73,5.66-3.75,7.53-7.13Z"/>
  <path class="cls-3" d="M79,92c.06,3.1-4.67,4.76-6,8-.66-.36-1.26-.81-1.87-1.23,1.17-3,4.93-4.07,6.81-6.71l1.06-.07Z"/>
  <path class="cls-9" d="M79.2,83.43c-1.87,1.61-2.26,3.81-4.29,4.85-2.02-2.79,1.29-3.8,2.78-5.7,1.2-1.16,2.7-.7,1.52.85Z"/>
  <path class="cls-15" d="M70.01,81.87l-2.01.13c.38-.51,1.03-1.47.32-2.24-1.24-1.34-2.46-2.29-3.04-3.69,1.66-.94,6.76,3.35,6.52,4.23-.17.63-1.25,1.07-1.8,1.57Z"/>
  <path class="cls-9" d="M67.98,93.99c-.59-.08-1.44.18-1.98-.06,1.39-.89,2.89-3.91,4.76-3.62,2.02.32.56,2.43-.18,2.79-.88.44-1.68,1-2.6.88Z"/>
  <path class="cls-6" d="M76.41,73.5c.11,1.43-1,1.35-1.49,1.03-1.18-.78-2.71-.78-1.61-2.41.61-.41,2.98.64,3.1,1.39Z"/>
  <path class="cls-6" d="M66.95,70.58c-.59.69-2.4,1.01-3.32-.58.84-1.64,1.15-.28,3.32.58Z"/>
  <path class="cls-15" d="M68,83c.31.1.68-.06,1,0-.52.7-1.55,1.12-2,1.86-.43-.16-.78-.46-1-.86.63-.21,1.08-1.3,2-1Z"/>
  <path class="cls-4" d="M70.01,81.87c-.36.32-.72.74-1.01,1.13-.32-.06-.69.1-1,0v-1l2.01-.13Z"/>
  <path class="cls-9" d="M93,78l-1.02.07c.36-.32.81-.7,1.1-1.09l-.09,1.02Z"/>
  <path class="cls-11" d="M115,74c-.95,0-1.41-.45-2-1v-1c.45.25,1.51.05,1.83.65.24.46.15.92.17,1.35Z"/>
  <path class="cls-3" d="M105.1,63.82c-2.15-.1-3.98-2.01-5.1-3.82,2.35.06,3.75,2.1,5.1,3.82Z"/>
  <path class="cls-3" d="M113,72v1c-1.27-1.18-3-2.17-2.94-4.09,1.3.67,2.27,1.84,2.94,3.09Z"/>
  <path class="cls-3" d="M108.09,66.94c-1.04-.2-1.85-.96-1.91-2.04.95.4,1.25,1.39,1.91,2.04Z"/>
</svg>