<?xml version="1.0" encoding="UTF-8"?>
<svg id="Layer_1" data-name="Layer 1" xmlns="http://www.w3.org/2000/svg" viewBox="0 0 200 200">
  <defs>
    <style>
      .cls-1 {
        fill: #fefefe;
      }
    </style>
  </defs>
  <path class="cls-1" d="M137.24,154.15c-13.8,12.38-39.88,15.37-55.26,8.75-3.38-1.46-6.8-5.32-10.98-4.84-17.53,2-28.07,2.12-43.98-6.35-.18-12.01,7.76-30.32,17.97-37.98-.31-23.53,8.87-42.47,29.02-54.56.33-10.81,10.8-24.83,18.79-30.41,1.55-1.08,2.44-3.28,3.94-3.66,2.44-.61,4.12.72,6.01,2.13,9.29,6.94,16.87,15.56,20.18,27.1,8.09,3.07,16.32,6.85,22.1,13.49,6.72,7.7,11.22,16.91,11.91,27.11.2,2.96.15,5.43.65,8.42.53,3.19-2.57,8.89.2,11.74,9.78,9.45,17.09,20.9,18.2,34.58-12.66,6.26-25.48,3.7-38.76,4.5ZM98.26,36.61c11.82,2.23,13.83,20.31,20.03,15.78-4.65-10.35-12.1-17.79-20.67-23.62-12.85,12.55-20.04,21.25-20.95,39.27-.36,7.04-1.68,13.75.58,20.97.27.86-.8,2.81.17,2.96.43.07,2.35.26,2.36-.22l.45-21.67c.2-9.78,8.18-29.56,18.02-33.47ZM107.82,51.05c-1.05-3.5-7.81-10.68-10.18-10.01-.04.01-9.66,10.62-7.32,12.47,6.31-3.11,11.66-2.66,17.49-2.46ZM147.68,87.69c5.61,9.98,1.55,22.99,4.92,22.27,1.15-.25,6.91-35.41-25.8-49.83-8.13-3.58-16.65-4.63-25.82-4.15-5.16.27-10.82-.46-15.28,3.4,3.02,1.93,6.07-.21,9.41-.29,20.74-.54,35.49,4.23,48.39,20.4,1.72,2.16,2.64,5.44,4.19,8.2ZM116.54,88.86c1.57-4-.99-23.24-3.63-23.82-8.59-3.46-18.68-2.41-27.54.22-2.27,4.53-1.01,8.99-1.41,13.78-.32,3.89-2.08,7.65-.35,11.73,10.9-2.16,21.74-4.03,32.93-1.92ZM54.43,121.28c-2.82-10.39-1.73-15.26.62-25.09s5.96-18.67,14.48-24.76c1.98-1.42,4.51-3.35,2.96-7.01-6.08,5.55-12.69,10.85-16.62,18.32-3.03,5.75-6.74,18.23-6.66,24.34.29,25.49,19.74,43.5,19.85,38.39.07-3.26-9.28-4.48-14.62-24.18ZM102.37,129.91c2.18,2.31,4.02.84,5-.62,13.72-20.4,17.79-38.8,12.81-63.75-2.61,2.78-.59,6.32-.12,9.41,2.93,19.36-1.97,41.68-17.69,54.95ZM147.03,104.3c0-16.28-9.17-28.62-22.09-35.81,1.32,8.12,1.34,14.81.8,23.03,7.9,2.94,14.19,7.9,21.29,12.77ZM72.83,94.66c1.08-9.02-1.2-10.22-1.01-19.86-9.82,9.03-11.09,13.98-13.97,27.84,4.64-.71,7.31-5.24,14.98-7.98ZM113.97,95.24c.99.26,1.98-.63,2.51-1.17.24-.25.77-.61,0-.98l-1.94-.92c-8.49-4.05-59.37,7.14-56.43,20.2,4.73-5.53,11.29-8.47,17.41-11.85,8.63-4.76,28.48-7.93,38.43-5.28ZM142.69,150.03c3.49,2.66,7.29.11,10.33.09,6.68-.03,12.67-.63,18.87-3.39-2.66-17.85-25.2-39.08-39.85-47.72-1.83-1.08-4.4-1.72-5.66-2.67-.4-.3-2.2,1.75-.9,1.69.48-.02.83.97,1.38,1.16,11.75,4.03,23.95,15.17,30.35,25.73,2.24,3.7,12.13,17.15,3.32,20.63-4.31,1.71-8.81,1.74-13.62,1.25-1.91-.19-5.71,2.09-4.23,3.22ZM100.5,127.33c7.8-9,11.91-17.52,15.61-27.83-6.54-3.14-25.1-.66-32.58,2.22,3.23,10.24,8.82,19.54,16.97,25.6ZM132.06,143.08c6.88-4.4,12.45-16.21,14.9-24.46-6.02-6.68-12.83-12.67-22.3-16.04-4.4,11.43-7.43,22.08-15.76,31.01,9.73,7.56,12.67,4.66,23.16,9.48ZM125.29,145.48c-20.63-5.72-36.6-19.23-44.34-38.55-.41-1.02.65-2.82-.42-2.91-.43-.04-2.35-.31-2.38.28-.2,3.02.19,6.83,1.93,9.67,9.57,15.53,26.04,32.84,45.22,31.52ZM74.47,144.2c6.29-3.07,11.55-5.18,16.7-9.6-7.18-6.55-16.85-19.31-17.45-28.54-3.39.88-15.72,11.29-15.63,11.88,1.57,10.74,7.37,19.73,16.38,26.26ZM95.59,139.05c-.31-.03-1.06-1.54-1.6-1.14-14.45,10.81-39.48,20.33-56.83,9.42.63-8.45,3.75-16.39,9.07-23.04,1.62-2.03,1.08-5.19-.51-6.09-5.76,6.53-10.22,12.52-11.91,20.66-.76,3.68-3.42,6.81-2.73,11.08,5.19,1.38,10.16,3.32,15.58,4.41,27.09,5.44,51.92-15.03,48.94-15.3ZM77.45,156.4c16.69,5.97,7.21,4.76,24.5,5.65,15.45.8,29.45-6.48,39.46-17.72,3.34-3.75,6.01-7.38,7.72-12.32,1.07-3.1,4.63-5.82,1.94-9.82-6.13,9.49-4.82,11.73-12.07,19.79-6.87,7.63-9.47,8.95-17.86,13.21-10.03,5.1-27.18,5.99-36.15-.27-2.15-1.5-5.86-1.89-7.53,1.48ZM61.06,146.64c-1.97-1.95-3.65-4.05-4.94-6.74-3.58-3.44-5.06-7.6-7-12.75-4.54,5.73-6.32,11.47-7.94,17.66,6.52,2.35,12.81,3.51,19.88,1.83ZM159.42,140.29c1.24-3.65-2.52-8.02-3.93-10.51l-7.38,12.92c2.83.16,9.89,1.79,11.31-2.42ZM121.41,150.55c-7.56-2.79-14.8-3.82-21.46-8.93-4.38,4.22-8.53,6.71-13.19,9.96,10.23,5.3,24.51,4.89,34.65-1.03Z"/>
</svg>