<?xml version="1.0" encoding="UTF-8"?>
<svg id="Layer_1" data-name="Layer 1" xmlns="http://www.w3.org/2000/svg" viewBox="0 0 200 200">
  <defs>
    <style>
      .cls-1 {
        fill: #fefefe;
      }
    </style>
  </defs>
  <path class="cls-1" d="M106.33,179.37c-4.42,1.23-8.16.31-12.38-.07-17.25-1.53-32.19-14.59-39.75-29.51-16.59-8.29-28.62-24.25-29.84-43.31-1.37-21.34,10.78-40.63,29.96-50.16,11-22.16,34.91-34.76,59.32-28.8,5,1.22,9,4.58,14.18,5.5,1.73,3.13,4.86,3.85,7.08,5.86,5.74,5.22,9.65,12.29,14.02,17.88,23.78,12.43,35.48,39.74,25.68,64.76-4.95,12.64-13.85,22.38-26.53,27.81-3.14,5.41-6.04,11.45-10.95,15.68l-6.5,5.6c-3.11,2.67-7.38,3.86-11.02,5.9-4.03,2.26-9.03,1.67-13.27,2.85ZM108.82,34.3l7.52,2.4c7.55,2.41,15.91,8.84,20.56,15.47,1.23,1.75,3.85,2.23,6.25,1.49-2.82-2.01-3.63-5.28-6.02-7.86-4.27-4.6-9.57-8.97-15.52-11.28-17.19-6.67-10.29-3.9-29.45-4.64-5.44,3.02-11.35,3.77-16.15,6.88-11.72,7.62-18.88,18.29-21.77,31.58-1.55,7.1-2.07,13.6.92,20.62,1.3,3.05,1.21,6.84,3.22,9.85.6.89,1.78-.39,2.22-.83,1.74-1.77-3.42-13.61-3.5-18.03-.26-16.01,8.2-33.44,23.01-40.75,7.9-3.9,21.15-7.3,28.71-4.89ZM106.02,56.4c4.22-2.14,9.5-4.08,13.99-4.22l12.1-.37c-15.02-18.41-45.23-19.7-61.5-.34,3.98,1.66,8.27-.5,12.43.74,3.91,1.17,8.5,2.08,12.15,3.63,4.15,1.77,6.07,2.97,10.83.56ZM39.38,78.48c8.33-12.9,10.72-6.28,12.55-16.51-8.47,4.03-14.54,11.13-18.76,19.22-13.63,26.14-.31,56.59,25.35,66.3,10.01,3.79,20.21,5.05,30.23,1.32,6.49-2.41,12.25-4.74,17.83-9.5,17.48-14.89,21.88-41.64,9.52-61.09-16.75-26.35-47.2-24.23-50.24-20.82-.72.82-1.54,3-.47,3.1,21.55-3.28,38.88,3.58,49.22,23.08,7.05,13.29,5.91,32.68-3.91,45.2-8.32,10.61-18.76,16.7-32.54,18.24-12.1,1.35-28.3-6.29-36.24-16.07-12.81-15.79-13.6-35.35-2.55-52.46ZM157.77,139.33c2.26-1.02,2.69-3.31,4.01-4.47,4.34-3.78,6.42-8.47,8.82-13.35,5.13-10.45,4.77-25.98,0-36.97-11.62-26.74-40.12-35.32-66.05-23.96,4.16,5.4,6.5-1.41,25.58-.68,18.8.72,33.9,13.99,38.92,32.17,4.46,16.15-1.34,33.68-14.45,44.46-2.68,2.21-5.26,4.21-4.32,8.7,2.23-2.35,4.21-4.41,7.49-5.9ZM82.19,78.21c2.51-4.57,5-8.53,9.19-12.1-9.5-3.94-19.13-4.16-28.18-1.27-3.16,9.65-2.75,18.95,1.17,28.37,8.39-10.51,12.66-5.62,17.81-15ZM126.01,83.95c4.75,2.3,8.17,5.43,11.88,9.45,3.93-9.49,4.19-19.13,1.2-28.49-9.36-3.08-18.87-2.42-28.54,1.16,9.14,7.2,8.52,14.53,15.47,17.88ZM124.4,118.88c11.77-5.95,20.16-18.84,22.89-29.73,1.25-4.96,5.11-21.11-3.55-22.42,1.22,6.79,2.42,13.05.16,19.14-1.56,4.18-1.73,9.06-4.41,12.63-1.57,2.08-2.67,4.81-4.43,6.56l-5.97,5.92c-2.45,2.43-5.65,4.4-4.68,7.91ZM96.98,69.62c-2.34-5.69-10.58,7.74-11.25,10.21,3.84.13,12.16-8,11.25-10.21ZM49.71,133.3c.77-7.63-.58-12.92,2.29-18.47.45-3.82,4.12-7.89,3.69-11.79-.79-7.16-7.36-12.71-5.79-31.11-11.33,10.58-18.59,26.5-12.94,42.05,2.69,7.41,5.91,14.98,12.75,19.31ZM106.51,77.5c-1.94-2.85-3.44-4.01-5.51-5.79-2.11,1.68-3.52,3.2-5.19,5.16,3.52,1.91,7.1,1.38,10.7.63ZM152.75,133.26c6.44-4.81,9.49-10.47,11.6-16.92,6.96-13.38-.14-35.75-12.1-43.93l-.58,15.28c-.2,5.21-4.94,10.24-5.35,15.27l5.61,18.06c1.27,4.08-.97,8.42.82,12.25ZM58.45,119.19c5.86-24.34,29.44-39.01,53.58-32.87-.82-1.98-2.08-3.79-3.62-4.9-22.34-3.16-44.46,9.55-52,30.84-2.18,6.16-8.19,26.93,3.09,26.69-3.65-6.61-2.7-12.91-1.05-19.76ZM113,90.28c-7.85-2.71-16.04-1.88-24.45-.35-2.14,8.32-2.43,16.91.01,25.76,8.08,1.98,17.01,2.16,24.95-.06,2.72-3.58,2.68-24.25-.51-25.35ZM124.01,87.9c1.49,5.3,5.75,9.41,11.15,11.23,1.02.34,1.11-2.75.72-3.43.67,1.16-10.33-10.06-11.87-7.8ZM97.82,136.55c-1.25-3.48-19.44-16.27-13.55-43.3-1.72-.73-2.9.58-3.61.97-1.22.66-.27,2.5-.69,3.58-1.58,4.09-.69,7.3-.24,11.36,2.57,23.43,20.38,33.77,18.09,27.39ZM76.1,107.65c-1.5-3.25-.71-6.09-1.45-8.48-1.77-.72-4.65,2.74-3.5,4.94.67,1.29,1.78,3.89,4.95,3.54ZM127.47,108.02c1.5-1.6,3.18-2.84,4.74-4.91-1.67-2.29-3.08-4.75-6.25-4.04,3.46,6.39-2.05,6.7,1.51,8.95ZM77.72,118.66c-.21-4.85-2.16-5.35-4.13-7.32l-5.67-5.68c-1.04.77-1.45,2.29-1.91,3.46,3.01,4.37,7.48,7.45,11.72,9.54ZM101,176.19c8.25-.04,15.43-1.34,22.74-5.59,8.92-5.18,16.77-12.95,21-22.76,7.07-16.4,4.86-25.69-1.27-41.48-6.79,5.09,4.45,10.74.76,29.79-4.48,23.08-24.53,38.41-48.46,35.86-10.39-1.11-20.31-6.4-27.31-14.43-2.37-2.73-4.59-6.45-8.92-5,11.01,15.18,23.09,23.69,41.46,23.61ZM91.2,139.77c-5.54-4.33-7.18-10.3-11.44-14.61-4.65-4.7-11.28-6.91-15.6-12.51-3.5,9.55-4.06,18.42-1.5,27.93,9.14,3.85,18.87,3.19,28.54-.81ZM110.68,139.84c9.5,3.56,19.03,4.85,28.42,1,3.02-9,2.68-18.82-1.21-28.22-4.52,4.89-9.13,8.78-15.27,11.11-3.04,6.17-6.64,11.37-11.94,16.12ZM111.55,121.03c-.3-.08-.86-1.38-1.55-1.18-6.47,1.82-12.38,1.53-19-.16-.94,10.78,26.19,2.89,20.55,1.34ZM106.01,129.34c-4.54-.57-7.05-.55-10,0l4.93,4.99c2.17-1.68,3.58-3.27,5.07-4.98ZM136.85,145.7c-19.23,5.75-26.64-7.05-32.41-.45,5.6,3.49,32.53,11.15,32.41.45ZM132.03,154.1l-12.97-.2c-6.54-.1-11.87-4.36-18.04-5.8-15.45,5.26-11.3,6.27-30.68,5.96,4.54,6.58,10.99,9.89,17.95,12.66,14.88,5.92,34.48-.11,43.73-12.61Z"/>
</svg>