<?xml version="1.0" encoding="UTF-8"?>
<svg id="Layer_1" data-name="Layer 1" xmlns="http://www.w3.org/2000/svg" viewBox="0 0 200 200">
  <defs>
    <style>
      .cls-1 {
        fill: #fefefe;
      }
    </style>
  </defs>
  <path class="cls-1" d="M170.21,135.55c3.54,16.95-6.28,33.35-22.21,38.45-6.14,1.97-11.77,3.19-17.81.86-4.77-1.85-9.59-2.91-13.42-6.72l-18.23-18.11-17.4,17.06c-7.17,7.03-17.82,10.23-27.32,8.35-21.22-4.2-32.81-24.48-26-44.67,1.06-3.14,2.12-5.94,4.59-8.45l19.02-19.34-15.75-15.77c-13.97-13.99-12.85-37.73,2.66-49.58,12.64-9.66,32.37-8.89,41.36-.13l18.6,18.13,18.98-18.14c5.89-5.63,12.94-6.7,20.69-6.76,8.45-.06,15.06,2.21,21.69,7.88,14.57,12.46,14.89,35.41,1.16,49.13l-15.24,15.24,18,18.34c3.86,3.93,5.4,8.33,6.63,14.22ZM48.88,38.43c8.22-2.82,17.91-2.54,24.58,1.83,7.32,4.8,20.1,19.78,21,19.78,5.02.02-14.65-17.53-15.84-18.56-9.67-8.41-22.91-9.99-33.8-3.82-21.23,12.03-16.12,37.78-8.93,44.69,19.91,19.12,37.9,39.77,59.45,58.07-17.48-21.37-38.13-38.24-56.43-58.32-6.26-6.87-8.42-15.81-6.11-25.45,1.72-7.18,7.06-15.12,16.07-18.22ZM145.2,95.13c-1.39,1.46-3.86,2.62-2.78,5.51,6.37-5.55,11.91-11.44,17.7-17.45,10.27-10.66,10.35-34.17-6.08-44.26-11.38-6.99-25.68-7.3-35.75,2.71l-58.16,57.81c4.11.98,5.72-2.56,7.82-4.66l51.88-51.72c5.41-5.39,11.95-6.33,19.28-6.26,13.95.14,25.15,11.01,25.67,25.48.6,16.77-9.42,22.16-19.58,32.84ZM57.96,96.54l33.52-33.53-17.82-17.66c-7.23-7.16-18.67-6.85-26.89-1.77s-11.41,12.33-11,21.43c.7,15.69,12.71,18.91,22.18,31.53ZM156.74,77.64c6.91-9.07,5.74-22.77-2.14-30.6-7.82-7.76-21.02-10.01-30.22-2.72-6.99,5.54-12.29,12.3-18.91,18.61l33.58,33.6c5.6-8.26,11.18-10.34,17.69-18.9ZM120.31,163.59c-6.7-5.05-10.57-12.92-18.9-16.74,5.91,7.18,11.91,14.17,19.03,19.36,14.41,10.52,34.95,6.06,43.33-9.31,5.45-9.99,4.5-26.09-4.11-34.68l-57.15-57.01c-.89,3.78,2.31,6.08,4.49,7.7,4.4,3.27,7.32,7.31,10.98,11.05l4.96,5.07,15.29,14.7,9.3,9.69c6.11,6.37,13.64,11.91,16.17,20.6,4.24,14.56-2.95,29.01-16.69,34.02-9.54,3.48-18.83,1.48-26.71-4.47ZM98,69.5l-33.5,33.5,34,34,33.5-33.5-34-34ZM77.57,162.77c-3.12,3.11-6.61,3.74-9.58,5.2-5.48,2.7-10.11,2.37-15.71.91-15.82-4.13-25.03-21.14-18.01-37.97,4.2-10.07,19.35-17.92,20.47-25.6-7.02,6.08-13.22,12.45-19.23,19.02-7.77,8.51-8.22,26.98,1.03,37.59,9.88,11.32,29.95,14.49,41.49,3.07l57.85-57.19c-.16-.89-.88-1.59-1.55-1.55l-56.76,56.52ZM85.61,149.61l5.88-6.72-32.41-31.93c-2.97-.66-5.56,3.38-6.94,5.01-4.42,5.22-9.94,8.83-13.64,14.61-5.4,8.44-4.16,28.39,12.81,34.03,7.64,2.54,15.88,1.48,21.85-3.38.33-.27,13-12.25,12.45-11.62ZM156.3,157.25c5.75-7.3,7.04-19.86,1.15-27.7-5.36-7.14-12.26-12.14-18.75-19.37l-33.37,32.99,13.58,13.94c6.67,6.84,14.7,10.38,24.27,8.16,5.16-1.2,9.07-2.89,13.11-8.02Z"/>
</svg>