<?xml version="1.0" encoding="UTF-8"?>
<svg id="Layer_1" data-name="Layer 1" xmlns="http://www.w3.org/2000/svg" viewBox="0 0 200 200">
  <defs>
    <style>
      .cls-1 {
        fill: #525252;
      }

      .cls-2 {
        fill: #646464;
      }

      .cls-3 {
        fill: #585858;
      }

      .cls-4 {
        fill: #434343;
      }

      .cls-5 {
        fill: #252525;
      }

      .cls-6 {
        fill: #2c2c2c;
      }

      .cls-7 {
        fill: #d7d7d7;
      }

      .cls-8 {
        fill: #4a4a4a;
      }

      .cls-9 {
        fill: #7d7d7d;
      }

      .cls-10 {
        fill: #f6f6f6;
      }

      .cls-11 {
        fill: #3e3e3e;
      }

      .cls-12 {
        fill: #272727;
      }

      .cls-13 {
        fill: #3f3f3f;
      }

      .cls-14 {
        fill: #4d4d4d;
      }

      .cls-15 {
        fill: #c9c9c9;
      }

      .cls-16 {
        fill: #3c3c3c;
      }

      .cls-17 {
        fill: #6e6e6e;
      }

      .cls-18 {
        fill: #5b5b5b;
      }

      .cls-19 {
        fill: #535353;
      }

      .cls-20 {
        fill: #303030;
      }

      .cls-21 {
        fill: #8d8d8d;
      }

      .cls-22 {
        fill: #404040;
      }

      .cls-23 {
        fill: #282828;
      }

      .cls-24 {
        fill: #3a3a3a;
      }

      .cls-25 {
        fill: #868686;
      }

      .cls-26 {
        fill: #ddd;
      }

      .cls-27 {
        fill: #efefef;
      }

      .cls-28 {
        fill: #9e9e9e;
      }

      .cls-29 {
        fill: #858585;
      }

      .cls-30 {
        fill: #232323;
      }

      .cls-31 {
        fill: #464646;
      }

      .cls-32 {
        fill: #dedede;
      }

      .cls-33 {
        fill: #f5f5f5;
      }

      .cls-34 {
        fill: #353535;
      }

      .cls-35 {
        fill: #393939;
      }

      .cls-36 {
        fill: #292929;
      }

      .cls-37 {
        fill: #e4e4e4;
      }

      .cls-38 {
        fill: #d4d4d4;
      }

      .cls-39 {
        fill: #242424;
      }

      .cls-40 {
        fill: #343434;
      }

      .cls-41 {
        fill: #d9d9d9;
      }

      .cls-42 {
        fill: #f7f7f7;
      }

      .cls-43 {
        fill: #323232;
      }

      .cls-44 {
        fill: #818181;
      }

      .cls-45 {
        fill: #e6e6e6;
      }
    </style>
  </defs>
  <path class="cls-30" d="M134.13,100.85c1.77,2.8.15,3.3-4.84,1.49-2.34,11.96-9.54,21.25-16.88,30.59,7.31,6.99,11.6,2.21,16.95-4.59,4.64-5.9,9.87-17.28,6.3-23.85l.69-1.42c.85-4.34,7.03.14,6.09,3.25,1.78,2.01,1.18,2.69-1.32,1.76.81.61,1.04,1.34.91,2.27-1.59,11.64-7.1,25.89-19.19,29.77-1.07,1.79-2.23,3.22-3.95,1.69-1.51.41-2.06.13-1.66-.83-3.27-.51-6.5-1.87-9.68-4.09l-1.63.89-.41,1.83c2.23,1.42,4.45,2.79,6.68,4.11.9.2.92.55.1,1.02-.13.56-.29,1.11-.58,1.58-1.44,2.35-16.79,1.53-20.21,1.23l-2.69,1.13-.25,1.56c12.49,2.92,25.36,1.16,36.33-5.55l3.09.33c1.43-.79,1.76-.65.92.76.85.35.81.68-.08.99l-1.01,1.79,8.65,1.86,21.91-1.96,1.62,1.55c2.26-.69,2.92-.35,2,1-5,1.9-9.49,1.92-14,2-4.87.86-10.17.67-15,0-4.05.3-8.73-1.04-12.73-1.96-13.43,5.43-27.05,5.47-40.26.23-4.12.54-8.96,2.09-13.01,1.72-4.52.66-9.44.88-14,0-4.17-.08-6.9.14-10-1-.46-.89-.08-1.19,1-1l1.79-1.76c34.41,6.62,69.42-14.86,77.89-49.04l2.4-2.2c-1.12-1.56-.7-1.54,1.04-1.03,1.66-2.19,8.98.89,7.02,3.87ZM105.15,144.77c-1.32-1.41-2.73-2.62-4.65-3.33s-4.63,1.21-4.61,3.41c3.29.23,5.89.35,9.26-.08Z"/>
  <path class="cls-5" d="M169,134c.33.8-.04,1.1-1,1l-2.71-1.71c-3.94-12.34-10.15-23.58-20.12-32.05l-.75-3.15c-.54-.7-.28-.95.66-.81.52-1.37-1.23-6.16-2.4-8.66-5.08-10.88-8.75-14.21-18.13-21.41-.76-.58-.92-1.61-.9-2.59-2.51-1.8-1.16-3.04,1.18-1.02.74-.8-1.86-7.52-3.39-10.59-4.11-8.29-13.37-21.4-21.33-26.05-.57-.33-8.64,7.51-9.72,8.71-8.7,9.73-14.88,24.04-16.9,36.86-.55,1.11-1.3,1.93-2.26,2.46-1.8.49-1.76-.33-1.25-2l-1.81-.15c-8.07,8.27-10.13,15.35-13.13,25.9-.3,1.05-1.05,1.77-2.05,2.25-.49,2.33-1.27,3.14-2.36,2.43-.96,3.46-3.06,6.56-6.3,9.3-4.23,6.52-7.46,13.56-9.7,21.12l-2.64,2.15c-.75,2.04-1.41,2.14-2,0,4.81-17.28,10.01-23.78,21-37.04,2.36-13.24,8.8-24.23,19.38-32.47,2.47-13.63,17.26-39.09,30.21-42.41,10.95,5.03,18.45,14.3,22.55,24.78l7.03,17.98c7.97,5.04,16.37,18.07,17.33,27.58.6,5.93,9.25,12.24,13.23,19.92l6.79,13.12c1.11,2.14.72,4.78,1.49,6.54Z"/>
  <path class="cls-34" d="M32,136c1.69.81,1.91,2.71.66,5.71l-.06,2.83,10.59,4.24.81,2.23c-.37.3-.7.63-1,1-4.44-1.64-9.77-1.98-13.05-5.05-2.73-2.56.06-7.81.05-10.95h2Z"/>
  <path class="cls-43" d="M162,151c-.32-.81-1.2-1.02-2-1l.24-2.27,7.54-3.2c-1.3-3.89-1.22-7.07.23-9.54.37-.3.7-.63,1-1,1.94,4.44,2.65,8.83,1.58,13.45-3.3.99-5.89,2.52-8.58,3.55Z"/>
  <path class="cls-44" d="M148,153c.08.78-.91,1.02-1.95,1.02h-11.1c-1.04,0-2.02-.24-1.95-1.02,4.96-.36,10.03.08,15,0Z"/>
  <path class="cls-9" d="M67,153c3.24,1.48-17.24,1.48-14,0,4.63.09,9.39-.41,14,0Z"/>
  <path class="cls-37" d="M144.41,98.09c11.82,8.88,19.03,23.46,23.59,36.91,1.14,3.36,1.05,6.85,2.13,10.78l-10.13,4.22c-3.67,1.53-8.37.51-12.57,1.41-8.19,1.75-16.15-.1-23.93-2.14,1.58-1.58,3.5-2.39,5.33-2.52,1.3-2.08,4.82-1.48,4.18,1.24,3.98.64,7.98.64,12,0-.95-2.29,4.21-3.03,5-1,5.32.62,19.2-3.36,12.93-10l-1.21-.77c-2.25-16.02-12.78-26.9-24.7-36.75l-.02-2.48c-3.55-1.05-6.55-2.72-9-5-3.57-.99-7.24-1.65-11-1.97-2.99,1.72-9.77.46-12-1.97-3.35-1.07-7.02-1.42-11-1.06.14.45.23.89.19,1.32-.07.68-11.78,3.75-12.36,3.42-.35-.2-.48-.77-.56-1.44-1.9-.79-1.28-2.86-.1-4.26,5.25-5.21,16.73-4.79,24.25-4.29,14.2.94,29.61,5.38,38.99,16.34Z"/>
  <path class="cls-37" d="M126.07,98c-1.96,12.32-8.69,22.95-17.52,32.49-13.41,14.5-32.42,22.31-52.66,21.22-3.9-.21-8.41-.07-11.89-.71-4.06-.74-9.02-3.34-12.84-5.24-1.46-2.95.2-7.08.84-9.76,2.94-12.27,9.88-23.49,18.64-32.57,1.74.24,1.74,3.77.36,4.57.03,2.59-.64,3.26-2,2-1.79,2.09-7.87,10.54-7.66,11.23.18.6.39,1.2.66,1.77l.63,1.34c-2.11,4.65-3.8,9.41-5.07,14.3l-1.59.27-.21,3.02c4.36,3.88,10.1,5.91,17.23,6.08,4.28.01,8.61.34,13,1,1.75-1.13,4.83-2.29,7-2,4.19-1.47,8.52-2.8,13-4l-.32-2.16,13.23-8.28c1.93-2.02,3.96-3.21,6.09-3.56l6-7c-.43-2.11.52-4.36,2.86-6.73,3.09-5.35,5.22-11.01,6.4-16.96l1.84-1.18c.64-1.61,3.65-.7,3.96.87Z"/>
  <path class="cls-10" d="M94,87c4.06-.3,7.73.05,11,1.06,4.22.02,8.08.53,12,1.97,3-.25,8.09.73,10,2.97,3.26.96,6.59,2.29,10,4,4.12,2.72,6.82,7.08,10.69,10.36,4.57,3.88,8.43,6.96,10.06,13.15-.53-2,6.51,10.97,5.19,16.49,6.21,6.68-7.74,10.6-12.93,10l-5,1c-4.02.64-8.02.64-12,0-1.06-.53-3-1.32-4.18-1.24l.08-.99c.41-1.47,1.82-2.62,4.22-3.43,3.66,2.17,25.03-1.53,25.63-2.84.54-1.17-4.34-16.28-6.42-18.42-2.84-3.01-4.38-6.09-4.63-9.22-1.21-.85-2.31-1.12-3.29-.81-.71-1.72-1.37-3.3-1.98-4.73-1.85-1.49-3.55-3.72-6.09-3.25-.31-1.06-1.72-1.39-2.22-2.22-1.51-2.52-4.62-2.63-7.02-3.87-2.34-.14-4.67-.72-7.02-1.76l-1.28.78c-12.4-4.01-23.62-3.48-35.98-.67-1.81-.9-3.21-3.93-1.55-5.02,1.93.78,3.3-1.4,5.29-1.81l7.43-1.5Z"/>
  <path class="cls-10" d="M146.98,112.1c3.25,4.87-1.5,14.25-4.34,19.24-3.44,6.05-7.59,11.98-14.66,13.67-12.64,9.06-29.93,9.9-44.42,5.63.39-3.61,3.7-1.49,5.24-1.97,1.21-1.65,4.12-1.94,4.19.33,4.05.87,8.95.87,13,0,.67-1.27,2.4-1.97,5.21-2.1,1.72-2.14,4.1-3.11,7.15-2.92,2.48-2.27,5.13-3.92,7.96-4.95,6.89-5.34,11.92-12.47,15.07-21.39l1.63-.7c-.23-4.03.26-10.42,3.96-4.82Z"/>
  <path class="cls-39" d="M81.28,90.3c.1.78.01,1.84.46,2.62,1.15,2.04,12.94-3.83,24.87-1.5,7.25,1.42,14.39,2.38,20.51,5.55-.43.17-.96.52-1.04,1.03-1.13-.92-2.66-.64-3.96-.87-1.94,1.65-3.18,4.31-3.71,7.97-4.12,10.09-10.45,18.89-18.97,26.4-1.32,1.26-2.19,1.28-3.43-.3-1.21-1.5-1.19-2.85,1-2.31l-.32-2.1c-8.05-4.99-20.56-30.04-18.88-37.71.09-.43.58-.76,1.19-1.08.23-2.71.96-3.36,2.18-1.96-.1,1.42-.08,2.85.1,4.26ZM100.36,125.5c11.07-13.44,11.6-13.33,16.83-29.45-11.4-4.33-22.92-3.85-34.52-.04,2.2,9,6.74,16.3,11.55,23.56,3.22.84,3.43,3.76,6.14,5.93Z"/>
  <path class="cls-36" d="M128.91,145.77c-.41-.1-.68-.43-.92-.76,10.63-7.62,17.49-20.48,19-32.91-.15-.8.11-.85.73-.24,7.18,7.49,12.04,17.06,12.56,28.53-8.27,3.96-17.55,5.54-26.69,3.96-2.03-.35-3.96-.3-4.68,1.42ZM159.29,139.44c-1.7-9.31-5.09-17.08-11.12-23.84-1.66,11.05-7.12,18.96-15.02,26.89,9.04,1.64,17.31.21,26.15-3.05Z"/>
  <path class="cls-41" d="M143.02,116.93c-2.14,6.97-6.18,12.92-10.48,18.79-2.24,3.06-5.11,5.82-9.54,4.65-.29,2.17-1.68,3.51-2.75,4.41-2.15,1.82-3.45,1.05-6.14-.01-.1,1.46.86,1.67.91,2.58.04.73-1.28-.03-1.64.27-2.52,2.02-4.81,1.38-7.38,1.38-4.1.88-8.88.86-13,0-1.56,0-2.44-.88-4.19-.33,1.98-5.9,6.43,1.53,23.48-3.93.79-1.93,2.99-2.9,6.59-2.93,13.15-5.74,21.22-19.44,22.23-33.73,2.54-1.49,4.52,2.19,2.25,4.32-.57,1.65-.69,3.16-.34,4.53Z"/>
  <path class="cls-27" d="M117.23,140.97c-.71,2.41-4.78,3-6.2.13-2.13,2-5.66-.65-5.12-3.33-.08-.77-.36-1.47-.04-1.97,1.57-2.51,10.56,3.87,11.36,5.17Z"/>
  <path class="cls-7" d="M105.92,137.77c2,.46,3.21,2.76,5.12,3.33,2.31,1.06,2.69,1.93,1.16,2.61-3.57.56-7.35-1.53-9.77-4.46.2-1.35,2.6-1.41,3.5-1.48Z"/>
  <path class="cls-13" d="M147.72,111.86l-.73.24c-.73-.34-1.49-.97-2.5-1.02-1.51,2.01-.93,4.11-1.47,5.85-2.76,1.28,2.93-8.66-1.91-8.85l1.32-1.76c2,1.61,3.52,3.71,5.28,5.54Z"/>
  <path class="cls-6" d="M117.23,140.97l1.66.83c-2.25.98-4.14,2.14-6.59,2.93l-.1-1.02c-.29-.91-.68-1.79-1.16-2.61,2.03.61,4.69,1.44,6.2-.13Z"/>
  <path class="cls-37" d="M124.82,63.6c-2.09-.01-3.94-1.66-2.52-3.51-1.83.85-2.95-.67-1.3-2.1-.85-3.2-2.01-6.33-4-9-2.36.85-2.81-.21-1-2-2.05-1.83-3.39-3.83-4-6-3.43-3.4-7.22-6.52-11.38-9.37-1.62.28-3.16.73-4.62,1.37-2.18,2.59-4.52,5.25-7,8l.11,2.21c-6.05,8.44-9.76,18.46-11.61,28.71l-1.36,1.08c-1.32,5.18-1.32,13.38-.14,20l2.14.2c2.38,10.24,6.54,19.39,12.49,27.44l-.63,2.36,5.9,6.56c.24,2.94-.07,3.43-.94,1.47-.79,2-2.3,2.74-4.15,1.32-10.85-8.33-20.47-31.46-21.33-45.01-.28-4.39-.4-8.49,1.75-12.34,1.06-16.19,13.51-41.07,29.02-49.81,12.96,8.71,21.01,22.06,25.96,36.73.27.8.36,1.77-.12,1.93s-.98-.32-1.28-.25Z"/>
  <path class="cls-30" d="M84.12,65.09c.17.46.29.91.22,1.32-.05.25-.56.35-.53.35,10.44-2.66,17.99-4.45,28.93-1.29,15.43,4.46,22.47,14.95,29.32,28.2,2.32-1.67,3.84,1.59,3.01,3.61-.19.29-.41.57-.66.81-18.1-13.59-41.65-17.7-63.24-12.05-.9.24-1.49,1.41-2.18,1.96-.62-.37-1.17-.78-1.49-1.32-1.35-2.31.33-21.95,2.78-23.75.51-.38,1.11-.64,1.72-.88,1.8.14,2.5,1.15,2.12,3.04ZM120,82l1.28,1c-.28.99,2.29,3.33,2.88,2.13,1.95-3.94.38-13.68-2.35-11.57-.61.47-.39,1.83-.56,2.44-.22.79-.44,1.64-1.25,2,0-3.67-1.26-6.61-5-8.11-11.27-4.53-23.44-3.73-34.45,1.85-.02,4.12-1.08,7.85-.41,12.46,13.24-4.18,26.16-4.32,39.09-.25.94.3.91-1.49.77-1.95ZM126.46,77.17c-.47,2.25-1.77,11.32,1.79,9.33.63-.35,1.9-9.16-1.79-9.33ZM134.92,88.56c-1.87-2.82-1.78-4.51-3.57-5.58-.67,1.66-.78,3.76.23,4.83.69.74,2.52,1.71,3.33.75Z"/>
  <path class="cls-39" d="M71.24,75c-1.33,20.27,6.13,40.62,20.29,55.28,1.3,1.34,2.37,1.63,3.44.74.43-.82.78-.75,1.04.17,1.5,3.88-6.3,7.84-9.75,9.38s-11.17,4.08-14.1,2.45c-.75-.06-.74-.33-.06-.8-1.45-1.27-.95-1.83.89-1.07-.37-.38-.28-.7.22-.96l.69-1.16c-18.58-15.51-21.8-41.95-5.92-60.72l.21-2.15c-2.14-1.63-.61-4.14,1.81-3.16.56.57.96,1.26,1.25,2ZM64.06,89.96c2.03-.01,4.09-1.06,4.72-2.6.47-1.16.68-3.31-.39-4.05-1.62,3.15-3.58,3.97-4.34,6.66ZM63.96,97.33c-1.4,1.51-3.8,2.54-2.74,5.94l9.42-5.79c1.34-.82-.48-2.46-.74-3.14-.17-1.04.71-2.46-.15-3.91-2.83.8-8.09,2.75-7.6,5.96.09.57,1.22.66,1.81.95ZM91.36,132.81c-10.67-9.11-15.84-20.18-19.63-32.47-1.74-2.32-9.8,4.22-10.41,5.63-.7,1.61.44,10.9,2.65,14.95,3.99,7.33,8.7,13.99,16.25,18.25,3.97-1.6,7.68-3.23,11.13-6.36Z"/>
  <path class="cls-33" d="M118.89,62.01c2.37-1.05,4.4.13,4.76,2.61,20.08,11.41,24.43,33.23,22.31,32.99-.24-.03-.56-.2-.88-.33l-3.01-3.61-1.03-.35c-5.41-16.08-19.07-28.01-36.32-29.25l-.71-1.08c-1.85-.93-4.85-1.27-9-1,.78,2.08-7.52,3.89-9.91,4.2-.27.04-.61-.46-.97-1.11-.56-.09-1.49-.14-1.78-.78s.56-1.58-.34-2.26c1.18-2.36,2.38-3.11,3.61-2.25,9.59-3.41,20-3.21,29.62.03,1.31-.82,2.53-.1,3.65,2.18Z"/>
  <path class="cls-10" d="M69.99,73c-.98.74-1.03,2.34-1.81,3.16l.21,1.58c-10.21,11.79-13.45,28.38-8.05,42.68l-1.34.59,4,8c1.63-1.66,3.89,1.7,2,3,2.8,3.06,5.46,6.11,7.98,9.14l-.89,1.07c-1.55,1.31-4.06.99-5.65-.2-7.63-5.7-15.81-20.53-14.07-29.94-.98-4.12-.77-7.81.63-11.08.99-11.7,6.44-22.71,16.1-31.1,1.24.26.97,2.23.89,3.1Z"/>
  <path class="cls-23" d="M72.09,142.22c.23.25.21.52.06.8-.22,1.17-.85,1.85-1.93,2.12-6.13,1.58-29.24,1.58-32.13-4.06-2.22-4.34,7.59-24.95,11.89-28.94.09-1.49.43-2.87,1.01-4.15-.13-1.52-.06-3.07-.36-4.57.78-.81,1.53-1.67,2.36-2.43-1.29,15.25,3.49,29.98,15.75,40.39,1.04.88,2.16,1.57,3.34.83ZM40.58,139.41c8.98,3.3,17.22,4.71,26.14,3.01-8.17-8.04-12.7-16.5-15.33-27.2-3.08,3.24-3.34,6.59-6.41,8.96l-4.4,15.22Z"/>
  <path class="cls-31" d="M124.82,63.6c-.49.1-1.89.06-1.18,1.02-1.41-.8-3.35-2.05-4.76-2.61-1.57-2.12-1.11-2.43,1.37-.93-1.08-2.6.24-3.04,2.04-.99.75,1.22,1.6,2.41,2.52,3.51Z"/>
  <path class="cls-43" d="M150,147c4.63-.93,10-1.45,13.7-5.36,1.16-1.23-.94-3.56-.77-4.64.44-.01,1.1-.17,1.52.04.93.49,1.25,6.15-1.19,7.21-1.39.6-14.3,5.87-13.26,2.75Z"/>
  <path class="cls-21" d="M105,88.06l-9.06-.04c-1.04,0-2.02-.24-1.94-1.02,2.97-.6,10.58-2.59,11,1.06Z"/>
  <path class="cls-28" d="M128,92c.46.89.08,1.19-1,1-3.08-1.77-6.73-1.78-10-2.97-.98-2.74,10.18,1.62,11,1.97Z"/>
  <path class="cls-1" d="M137,97c-3.54-.23-6.92-2.23-10-4,.37-.3.7-.63,1-1,3.2,1.39,6.13,3.11,9,5Z"/>
  <path class="cls-11" d="M145,148c-3.77.75-8.42,1.78-12,0h12Z"/>
  <path class="cls-42" d="M122.1,97.13c-1.45,12.25-2.11,8.33-4.63,15.16-1.31,3.55-3.71,7.26-6.48,9.71l-6,7c-.88,2.84-4.76,5.1-7.22,6.64l-11.78,7.36c-4.32,1.67-8.66,2.67-13,3-1.72,1.23-4.9,2.37-7,2-3.14,1.58-8.83.27-12-1-5.49.65-19.9-.07-18.02-8.1.94-1.98,2.1-4.99,2.17-7.26.11-3.99,2.55-5.84,3.86-8.64-.31-1.84.37-3.96,2.03-6.36l4.97-6.64c.8-.47,1.31-1.4,2-2,.12,1.43,1.41,3.54.09,5.12-6.37,7.63-10.53,16.78-11.52,27.15,10.79,5.34,21.97,5.67,32.58,2.74,8.54-2.35,17.96-4.55,23.85-11.83,3.07-1.19,4.9-4.22,7.43-6.69,14.26-13.87,13.78-26.46,16.32-28.38.96-.73,1.61.87,2.36,1Z"/>
  <path class="cls-35" d="M54,147c.41.85.03,1.15-1,1-5.75-.8-11.99-.72-17.26-4.82-1.83-1.42-.33-3.08.23-4.27l.7,3.27c.88,4.11,11.46,4.82,17.33,4.83Z"/>
  <path class="cls-8" d="M42,123c-.74.04-1.72.27-1.86-.54,2.82-4.84,4.48-9.87,8.86-12.46-.12.76-.28,2.06-1.09,2.74-3.51,2.97-4.31,6.84-5.91,10.26Z"/>
  <path class="cls-31" d="M66,148c.87.28.86.62,0,1-4.54.56-8.78-.41-13-1,.37-.3.7-.63,1-1,3.97,0,8.1,2.11,12,1Z"/>
  <path class="cls-3" d="M86,143c-3.88,2.43-8.71,3.18-13,4-.87-.28-.86-.62,0-1,1.44-.41,12.36-3.46,13-3Z"/>
  <path class="cls-25" d="M105,129c1.04-3.35,3.42-4.71,6-7-.46,3.17-3.58,5.13-6,7Z"/>
  <path class="cls-18" d="M73,147c-2.27.43-4.57,1.7-7,2v-1l7-2v1Z"/>
  <path class="cls-40" d="M106,149c2.94,1.48-15.94,1.48-13,0h13Z"/>
  <path class="cls-10" d="M111,42c1.76,1.01,3.43,2.68,5,5,.07.83.79,1.32,1,2,2.01,2.65,3.18,5.8,4,9l1.3,2.1-2.04.99c-2.49.57-4.05-1.09-4.7-4.99-3.48-7.17-8.2-15.42-15.56-19.09-.26.87-.57.85-.93-.01-2.28,2.47-4.69,5.05-7.66,6.7-3.31,4.43-5.71,9.26-7.21,14.48,1.28.95.55,2.25-2.19,3.88-2.99,8.17-4.17,16.82-3.01,25.95.5,3.93,2.05,7.71,3.2,11.9,5.43,19.77,17.61,25.11,16.16,27.96-.23.46-1.02.58-1.35,1.02l-.9.96-6.1-6.84c-2.66-3.35-5.72-6.45-7.31-10.98l-6.69-19.02c-.4-2.32-.73-4.69-.87-7.05-.15-2.53-.34-10.46-.11-12.3.03-.26.51-.47,1.12-.65.07-9.22,3.59-18.08,8.89-25.91,1.62-2.39,1.28-4.78,3.97-6.09,1.83-2.41,5.12-6.63,8-7,2.71-6.44,12.38,3.52,14,8Z"/>
  <path class="cls-29" d="M97,128.88c-.5.65-.58,1.61-1,2.31l-1.04-.17c5.68,6.78-11.26-15.95-4.96-8.02l7,5.88Z"/>
  <path class="cls-17" d="M76.14,73l-.14,20c-4.81-13.68,1.41-12-2.15-19.26-.31-.63,2.01-1.04,2.29-.74Z"/>
  <path class="cls-20" d="M112,41c.46.89.08,1.19-1,1-2.91-3.88-6.49-7.35-10.96-10.06-1.39.63-2.11,1.52-3.04,2.06-.89.46-1.19.08-1-1,1.16-.68,2.93-2.81,4.83-1.91,4.74,2.23,8.24,6.15,11.17,9.91Z"/>
  <path class="cls-24" d="M97,34c-3.06,1.78-4.82,5.44-8,7-3.95,1.22,6.31-7.6,7-8,.3.37.63.7,1,1Z"/>
  <path class="cls-4" d="M121,58c-1.72-2.78-3.06-5.88-4-9,2.91,1.84,4.16,5.63,4,9Z"/>
  <path class="cls-14" d="M116,47c-2.43-.38-3.58-3.11-5-5,.37-.3.7-.63,1-1,1.48,1.9,3.79,3.49,4,6Z"/>
  <path class="cls-26" d="M104,63c11.07-.89,26,8.76,29.02,13.02l4.14,5.84c.32.45,6.53,11.07,4.91,11.82-2.23.05-3.17-1.38-4.08-3.52-9.41-22.22-34.85-31.35-56.45-20.9-.7-2.11,1.16-3.76,2.58-4.16l10.88-3.09c3.45-.33,6.45,0,9,1Z"/>
  <path class="cls-45" d="M121.28,83c-.37-2.24-.37-4.57-.02-7,.17-.61-.05-1.96.56-2.44,2.72-2.11,4.29,7.63,2.35,11.57-.59,1.2-3.17-1.15-2.88-2.13Z"/>
  <path class="cls-15" d="M126.46,77.17c3.69.17,2.42,8.98,1.79,9.33-3.56,1.99-2.26-7.08-1.79-9.33Z"/>
  <path class="cls-22" d="M121.28,83l-1.28-1v-4c.82-.36,1.04-1.21,1.25-2,1.3,1.86,1.25,5.12.02,7Z"/>
  <path class="cls-32" d="M73.2,140.19c-3.13-2.13-5.85-5.14-8.2-8.19-.3-1.1-1.05-2.35-2-3l-4-8c.19-3.87-2.58-6.91-3.32-11.03-.19-1.05,2.12-2.84-.75-3.7,3.85-.55,1.39-3.62,1.73-6.19,1.19-8.95,5.54-17.69,11.52-23.92.64,0,1.35.05,1.22.7-.1.52.2,1.53-.3,2.13-15.8,18.86-12.48,46.69,8.11,60.9-1.27,1.81-2.8.77-4.01.3Z"/>
  <path class="cls-27" d="M63.96,97.33c-1.38-2.82,3.84-5.1,5.94-2.99.26.68,2.08,2.32.74,3.14l-9.42,5.79c-1.06-3.4,1.34-4.44,2.74-5.94Z"/>
  <path class="cls-38" d="M69.91,94.33c-1.67,1.46-4.32,1.24-5.94,2.99-.59-.29-1.72-.38-1.81-.95-.49-3.2,4.77-5.15,7.6-5.96.86,1.45-.02,2.87.15,3.91Z"/>
  <path class="cls-1" d="M73.2,140.19c-.09.3-.02.71-.22.96-2.91-2.76-6.93-5.21-7.98-9.14,3.09,2.26,5.95,5.09,8.2,8.19Z"/>
  <path class="cls-12" d="M120.26,61.08l-1.37.93c-12.69-4.97-24.29-5.11-36.88.04,2.31-6.3,3.62-13.49,9.4-18.37.33-.57.57-.53.73.1.83.32,1.86,1.16,1.56,1.71l-6.41,10.35c8.13-1.64,16.47-2.12,24.58.02-2.35-6.25-6.66-11.64-11.62-16.05l-.25-2.82c5.02-1.15,15.26,14.33,17.81,22.13.41,1.25,1.57,1.78,2.45,1.96Z"/>
  <path class="cls-2" d="M104,63c-3,.24-6.52.61-9-1,1.59-.52,10.38-2.78,9,1Z"/>
  <path class="cls-19" d="M63,129c-2.43-1.66-4.15-4.96-4-8,2.07,2.14,3.3,5.12,4,8Z"/>
  <path class="cls-16" d="M99.07,36.99c-.66,3.26-3.95,5.59-6.94,6.8-.16-.55-.35-.42-.73-.1,2.18-2.63,4.35-5.62,7.66-6.7Z"/>
</svg>