<?xml version="1.0" encoding="UTF-8"?>
<svg id="Layer_1" data-name="Layer 1" xmlns="http://www.w3.org/2000/svg" viewBox="0 0 200 200">
  <defs>
    <style>
      .cls-1 {
        fill: #fefefe;
      }
    </style>
  </defs>
  <path class="cls-1" d="M143.03,142.94c-4.24,3.45-13.58,10.39-18.47,11.94s-11.47,7-17.16,5.47c-5.05-2.22-7.3-22.81-5.66-28.67.44-1.56.91-5.07-.14-6.16-1.25-1.31-4.47-.64-6,.11,2.69,10.85,3.71,26.9-2.54,35.68-16.01-1.57-30.04-10.27-39.35-22.96-.87-1.18-.9-2.49-.62-3.65.5-2.07,12.95-8.96,16-10.6,4.67-2.51,9.76-3.06,15.19-5.47-1.65-7.18-4.42-13.94-9.18-20.31-8.06,8.18-22.16,22.21-32.95,22.66-9.36-15.29-9.39-33.83-.48-49.9,11.5.6,22.01,5.12,31.01,12.41,1.16.94,1.9-.64,2.48-1.06.75-.54,1.58-3.29.2-3.75-10.47-3.52-22.64-10.59-27.51-20.33,7.74-13.88,26.12-28.71,42.63-26.91,2.68,14.03,2.22,27.84-1.58,41.49h19.49c-2.54-9.31-6.93-22.85-5.04-31.89.56-2.68,2.23-5.45,2-8.6,13.12-3.68,37.87,10.44,44.38,22.01-3.35,8.8-19.93,20.27-29.03,23.02.82,3.87,2.29,6.05,3.9,8.63,8.15-9.11,21.35-18.49,32.93-18.06,4.07,8.14,6.08,15.96,5.7,24.75-.75,17.6,1.04,9.16-5.94,26.59-11.41,1.53-27.15-11-32.79-19.72-4.72,5.62-8.03,11.09-10.69,17.67l17.94,6.87c5.36,2.05,10.68,5.21,14.38,9.59,2.96,3.5-.6,7.1-3.1,9.14ZM86.14,37.4c2.91,17.24-.48,33.36-8.93,47.84-.47.8-1.79,1.19-.73,1.75.27.14.71,1.02,1.02.94,2.87-.75,6.74-13.17,7.95-16.53,4.3-11.9,4.46-24.47,1.98-36.82-14.86,1.24-28,11.99-35.46,23.45,2.18,6.66,20.82,18.61,26.79,17.31-9.6-4.87-17.89-8.87-24.86-17.02,6.11-10.58,19.61-21.24,32.24-20.93ZM144.27,54.85c-5.55,7.44-12.8,11.78-20.51,15.96-11.7,6.34-23.84,5.99-36.41,6.07,20.45,5.21,46.4-5.25,58.52-21.42-6.11-10.4-26.24-21.22-37.84-20.45l-1.62,11.11c-.02.13,2.72,26.37,6.56,26.11-2.6-17.92-5.22-14.01-3.8-34.87,9.88-2.77,29.23,10.27,35.09,17.51ZM140,55.51c-7.16-7.48-16.28-12.94-27.14-15.72-2.91,5.19,1.41,23.62,3.94,30.01,6.65-1.09,17.31-9.22,23.2-14.29ZM80.68,70.98c2.67-10.75,4.2-19.73,2.91-30.11-7.49,1.13-14.38,4.91-19.85,9.86-2.17,1.96-2.88,4.92-5.77,6.68,5.82,6.68,13.37,11.75,22.71,13.58ZM156.71,76.1c.58-1.96-.56-3.53-1.53-3.93-.82-.34-2.97-.54-4.07-.06l-8.42,3.68c-6.28,2.74-11.14,8.21-15.64,12.63.58.72,1.15,1.5,1.47,1.54-1.98-.25,21.69-22.82,28.19-13.86ZM45.68,76.07c1.29-.67,2.13.89,3.28,1.1,11.48,2.12,19.79,8.75,28.2,16.94-6.78-11.85-19.85-17.6-33.26-19.51-4.44,7.41-5.51,14.99-4.85,23.42.39,4.93-1.34,10.66,3.18,14.25-3.76-8.99-2.32-33.2,3.46-36.21ZM152.79,109.91c4.17-11.54,4.31-22.44.28-33.05-9.93,2.42-16.93,8.55-23.39,16.31,6.47,5.89,14.13,16.83,23.11,16.74ZM159.4,85.95c-1.08,9.38.89,19.71-5.41,26.93-13.63,2.03-31.48-22.85-37.4-34.05-1.87,2.75.45,5.14,2.1,7.48,9.36,13.28,18.26,26.62,35.63,30.05,6.56-8.91,6.52-20.49,5.09-30.41ZM45.25,111.05c8.92-1.51,16.85-12.12,24.44-19.29-6.61-6.34-14.27-10.41-22.91-11.58-2.6,4.57-2.47,8.99-3.11,13.56-1.2,8.49.27,7.67,1.58,17.3ZM104.89,115.58c1.06-4.79,8.86-17.49,11.34-19.45,5.6-4.43-3.28-10.02-4.42-16.05-7.94,2.13-19.43.02-26.61,1.22-.85,4.76-3.87,6.72-5.18,10.61,4.89,5.77,11.28,17.27,13.16,25.39,3.31-1.94,8.61-.58,11.7-1.73ZM72.21,96.17c.23-1.03-.51-2.89-1.42-1.66-6.75,9.07-15.24,16.56-25.45,20.63-1.2-.63-2.37-1.55-2.34-.58.31,10.37,26.25-14.44,29.22-18.4ZM141.38,136.87c-3.62,6.32-25.64,19.61-32.47,18.07-2.36-12.29-3.46-25.31.99-36.94,1.37-3.59,3.19-6.94,4.78-10.35,1.99-4.27,6.64-6.8,7.19-12.33-14.82,10.36-22.9,47.53-12.74,62.09,12.77-3.83,25.01-10.54,34.62-19.5.41-5.45-22.37-15.84-25.76-14.77,11.54,5.18,13.51,5.26,23.38,13.73ZM88.62,117.88c2.13-3.11-6.81-19.49-8.64-19.96.29,3.39,2.17,5.7,3.75,8.37,2.3,3.9,1.83,8.69,4.89,11.59ZM70.11,148.47c-4.28-4.22-8.31-7.53-11.92-12.47,10-7.17,22.51-11.61,33.85-13.85,3.9-.77,7.88.33,11.65-2.13-2.4-2.5-4.4.55-6.59.02-3.4-.81-5.66.76-8.53,1.4-11.63,2.6-22.73,6.51-32.22,14.41,5.09,8.21,12.01,13.96,20.62,17.46-.8-3.42-4.67-2.69-6.86-4.84ZM137.07,137.66c-3.55-4.94-19.31-11.4-25.66-12.34-.08,4.37-1.86,8.42-1.4,12.71l1.44,13.59c10.05-3.15,18.02-7.68,25.63-13.96ZM78.88,154.36c3.78,1.99,8.03,2.75,12.43,3.49,4.19-3.2,3.26-30.04.13-32.2-.76,5.69,2.48,15.01.86,19.74-.99,2.89.26,8.53-2.19,10.37-3.73,1.44-7.3-2.55-11.23-1.4ZM88.57,151.74c.63-6.29,1.38-19.98-1.71-24.96l-16.37,5.75c-2.85,1-4.89,3.04-7.99,4.1,4.28,6.47,19.51,16.98,26.07,15.1Z"/>
</svg>