<?xml version="1.0" encoding="UTF-8"?>
<svg xmlns="http://www.w3.org/2000/svg" viewBox="0 0 24 24" width="24" height="24">
  <defs>
    <linearGradient id="latticiteGrad1" x1="0%" y1="0%" x2="100%" y2="100%">
      <stop offset="0%" style="stop-color:#a855f7;stop-opacity:1" />
      <stop offset="50%" style="stop-color:#8b5cf6;stop-opacity:1" />
      <stop offset="100%" style="stop-color:#7c3aed;stop-opacity:1" />
    </linearGradient>
    <linearGradient id="latticiteGrad2" x1="0%" y1="100%" x2="100%" y2="0%">
      <stop offset="0%" style="stop-color:#6366f1;stop-opacity:1" />
      <stop offset="100%" style="stop-color:#8b5cf6;stop-opacity:1" />
    </linearGradient>
  </defs>
  <!-- Crystal hexagonal lattice structure -->
  <g opacity="0.3" stroke="#c084fc" stroke-width="0.5" fill="none">
    <line x1="12" y1="3" x2="12" y2="21"/>
    <line x1="4" y1="7.5" x2="20" y2="16.5"/>
    <line x1="4" y1="16.5" x2="20" y2="7.5"/>
    <line x1="6" y1="12" x2="18" y2="12"/>
  </g>
  <!-- Main crystal faces -->
  <path d="M 12 2 L 18 7 L 16 12 L 12 14 L 8 12 L 6 7 Z" fill="url(#latticiteGrad1)" opacity="0.9"/>
  <path d="M 12 14 L 16 12 L 18 17 L 12 22 L 6 17 L 8 12 Z" fill="url(#latticiteGrad2)" opacity="0.85"/>
  <!-- Top facet highlight -->
  <path d="M 12 2 L 15 5 L 12 6.5 L 9 5 Z" fill="#e9d5ff" opacity="0.6"/>
  <!-- Edge highlights -->
  <line x1="12" y1="2" x2="12" y2="22" stroke="#c084fc" stroke-width="0.8" opacity="0.7"/>
  <line x1="6" y1="7" x2="18" y2="17" stroke="#a855f7" stroke-width="0.6" opacity="0.5"/>
  <line x1="18" y1="7" x2="6" y2="17" stroke="#a855f7" stroke-width="0.6" opacity="0.5"/>
  <!-- Inner glow -->
  <ellipse cx="12" cy="11" rx="3" ry="4" fill="#c084fc" opacity="0.4"/>
  <!-- Center bright spot -->
  <circle cx="12" cy="10" r="1.5" fill="#f3e8ff" opacity="0.8"/>
</svg>
